<svg width="97" height="196" viewBox="0 0 97 196" fill="none" xmlns="http://www.w3.org/2000/svg">
<path d="M47.2812 27.3906C51.0312 27.3906 54.5469 28.0156 57.8281 29.2656C61.1406 30.4844 64.0312 32.1719 66.5 34.3281C68.9688 36.4531 70.9062 38.9531 72.3125 41.8281C73.75 44.6719 74.4688 47.7188 74.4688 50.9688C74.4688 54.2188 73.75 57.2812 72.3125 60.1562C70.9062 63 68.9688 65.5 66.5 67.6562C64.0312 69.7812 61.1406 71.4688 57.8281 72.7188C54.5469 73.9375 51.0312 74.5469 47.2812 74.5469C44.75 74.5469 42.2812 74.25 39.875 73.6562C37.5 73.0625 35.2656 72.2188 33.1719 71.125C31.1094 70.0312 29.2188 68.7031 27.5 67.1406C25.8125 65.5781 24.3906 63.8281 23.2344 61.8906L32.5156 56.3125C33.1719 57.4375 34.0156 58.4531 35.0469 59.3594C36.0781 60.2656 37.2344 61.0469 38.5156 61.7031C39.8281 62.3594 41.2188 62.8594 42.6875 63.2031C44.1875 63.5469 45.7188 63.7188 47.2812 63.7188C49.5312 63.7188 51.6406 63.3906 53.6094 62.7344C55.6094 62.0469 57.3438 61.125 58.8125 59.9688C60.2812 58.8125 61.4375 57.4688 62.2812 55.9375C63.1562 54.375 63.5938 52.7188 63.5938 50.9688C63.5938 49.2188 63.1562 47.5781 62.2812 46.0469C61.4375 44.4844 60.2812 43.125 58.8125 41.9688C57.3438 40.8125 55.6094 39.9062 53.6094 39.25C51.6406 38.5938 49.5312 38.2656 47.2812 38.2656C44.375 38.2656 41.6562 38.8438 39.125 40C36.625 41.125 34.625 42.6875 33.125 44.6875L24.4062 38.2656L28.7656 4.28125H51.5C52.5625 4.25 53.7812 4.17188 55.1562 4.04688C56.5625 3.89063 57.9844 3.65625 59.4219 3.34375C60.8594 3 62.2188 2.5625 63.5 2.03125C64.8125 1.5 65.8906 0.828125 66.7344 0.015625L74.1875 7.89062C72.6562 9.32813 70.9062 10.5 68.9375 11.4062C67 12.3125 65.0312 13.0313 63.0312 13.5625C61.0625 14.0937 59.1406 14.4687 57.2656 14.6875C55.4219 14.9063 53.8281 15.0469 52.4844 15.1094H38.9375L37.2031 29.0781C38.7969 28.5469 40.4219 28.1406 42.0781 27.8594C43.7656 27.5469 45.5 27.3906 47.2812 27.3906ZM0.5 105.531V94.0469H96.5V105.531H0.5ZM65.1406 154.75C66.8281 155.781 68.3438 156.953 69.6875 158.266C71.0312 159.547 72.1875 160.953 73.1562 162.484C74.125 164.016 74.8594 165.641 75.3594 167.359C75.8906 169.078 76.1562 170.859 76.1562 172.703C76.1562 175.797 75.4219 178.703 73.9531 181.422C72.5156 184.141 70.5469 186.531 68.0469 188.594C65.5781 190.625 62.6719 192.219 59.3281 193.375C55.9844 194.562 52.4062 195.156 48.5938 195.156C44.7812 195.156 41.2031 194.562 37.8594 193.375C34.5156 192.219 31.5938 190.625 29.0938 188.594C26.5938 186.531 24.625 184.141 23.1875 181.422C21.75 178.703 21.0312 175.797 21.0312 172.703C21.0312 170.859 21.2812 169.078 21.7812 167.359C22.3125 165.641 23.0469 164.016 23.9844 162.484C24.9531 160.953 26.1094 159.547 27.4531 158.266C28.8281 156.953 30.3438 155.781 32 154.75C30.1875 153.062 28.7656 151.125 27.7344 148.938C26.7344 146.75 26.2344 144.422 26.2344 141.953C26.2344 139.328 26.8125 136.859 27.9688 134.547C29.1562 132.203 30.75 130.172 32.75 128.453C34.7812 126.734 37.1562 125.375 39.875 124.375C42.5938 123.375 45.5 122.875 48.5938 122.875C51.6875 122.875 54.5781 123.375 57.2656 124.375C59.9844 125.375 62.3594 126.734 64.3906 128.453C66.4219 130.172 68.0156 132.203 69.1719 134.547C70.3594 136.859 70.9531 139.328 70.9531 141.953C70.9531 144.422 70.4375 146.75 69.4062 148.938C68.375 151.125 66.9531 153.062 65.1406 154.75ZM39.7812 136.703C39.5312 136.922 39.25 137.203 38.9375 137.547C38.625 137.891 38.3281 138.281 38.0469 138.719C37.7656 139.156 37.5312 139.656 37.3438 140.219C37.1562 140.75 37.0625 141.328 37.0625 141.953C37.0625 142.578 37.1562 143.172 37.3438 143.734C37.5312 144.266 37.7656 144.75 38.0469 145.188C38.3281 145.625 38.625 146.016 38.9375 146.359C39.25 146.703 39.5312 146.984 39.7812 147.203C40.9062 148.141 42.2344 148.875 43.7656 149.406C45.2969 149.906 46.9062 150.156 48.5938 150.156C50.2812 150.156 51.875 149.906 53.375 149.406C54.9062 148.875 56.2344 148.141 57.3594 147.203C57.6094 146.984 57.8906 146.703 58.2031 146.359C58.5469 146.016 58.8594 145.625 59.1406 145.188C59.4219 144.75 59.6562 144.266 59.8438 143.734C60.0312 143.172 60.125 142.578 60.125 141.953C60.125 141.328 60.0312 140.75 59.8438 140.219C59.6562 139.656 59.4219 139.156 59.1406 138.719C58.8594 138.281 58.5469 137.891 58.2031 137.547C57.8906 137.203 57.6094 136.922 57.3594 136.703C56.2344 135.734 54.9062 135 53.375 134.5C51.875 133.969 50.2812 133.703 48.5938 133.703C46.9062 133.703 45.2969 133.969 43.7656 134.5C42.2344 135 40.9062 135.734 39.7812 136.703ZM61.2031 180.156C61.5781 179.844 62 179.453 62.4688 178.984C62.9688 178.516 63.4219 177.969 63.8281 177.344C64.2344 176.688 64.5781 175.984 64.8594 175.234C65.1406 174.453 65.2812 173.609 65.2812 172.703C65.2812 171.797 65.1406 170.953 64.8594 170.172C64.5781 169.391 64.2344 168.688 63.8281 168.062C63.4219 167.438 62.9688 166.891 62.4688 166.422C62 165.922 61.5781 165.516 61.2031 165.203C59.5781 163.891 57.6719 162.875 55.4844 162.156C53.2969 161.438 51 161.078 48.5938 161.078C46.1562 161.078 43.8438 161.438 41.6562 162.156C39.4688 162.875 37.5625 163.891 35.9375 165.203C35.5625 165.516 35.125 165.922 34.625 166.422C34.1562 166.891 33.7188 167.438 33.3125 168.062C32.9062 168.688 32.5625 169.391 32.2812 170.172C32 170.953 31.8594 171.797 31.8594 172.703C31.8594 173.609 32 174.453 32.2812 175.234C32.5625 175.984 32.9062 176.688 33.3125 177.344C33.7188 177.969 34.1562 178.516 34.625 178.984C35.125 179.453 35.5625 179.844 35.9375 180.156C37.5625 181.5 39.4688 182.531 41.6562 183.25C43.8438 183.969 46.1562 184.328 48.5938 184.328C51 184.328 53.2969 183.969 55.4844 183.25C57.6719 182.531 59.5781 181.5 61.2031 180.156Z" fill="black"/>
</svg>
