<svg width="97" height="192" viewBox="0 0 97 192" fill="none" xmlns="http://www.w3.org/2000/svg">
<path d="M76.5312 46.9688C76.5312 49.5625 76.1562 51.9531 75.4062 54.1406C74.6562 56.2969 73.625 58.25 72.3125 60C71.0312 61.7188 69.4844 63.25 67.6719 64.5938C65.8906 65.9062 63.9531 67 61.8594 67.875C59.7969 68.75 57.6094 69.4062 55.2969 69.8438C53.0156 70.2812 50.7031 70.5 48.3594 70.5C45.7031 70.5 43.0781 70.2031 40.4844 69.6094C37.9219 69.0469 35.5156 68.1875 33.2656 67.0312C31.0156 65.875 29 64.4219 27.2188 62.6719C25.4688 60.8906 24.0781 58.8281 23.0469 56.4844C21.6406 53.2656 20.9062 50.75 20.8438 48.9375C20.7812 47.125 20.75 46.0156 20.75 45.6094C20.75 42.7969 21.1094 39.9219 21.8281 36.9844C22.5781 34.0156 23.7031 31.0469 25.2031 28.0781C26.7031 25.1094 28.3438 22.3125 30.125 19.6875C31.9375 17.0312 33.7969 14.5781 35.7031 12.3281C37.6406 10.0781 39.4375 8.10938 41.0938 6.42188C42.75 4.70312 44.1719 3.29687 45.3594 2.20312C46.5781 1.07812 47.3594 0.34375 47.7031 0H64.8594C63.2656 1.375 61.3594 3.125 59.1406 5.25C56.9219 7.34375 54.6094 9.67187 52.2031 12.2344C49.8281 14.7656 47.4688 17.4688 45.125 20.3438C42.7812 23.2188 40.6719 26.125 38.7969 29.0625C36.9531 31.9688 35.4531 34.8438 34.2969 37.6875C33.1719 40.5 32.6094 43.1406 32.6094 45.6094C32.6094 47.8281 33.1094 49.7969 34.1094 51.5156C35.1094 53.2344 36.4219 54.6875 38.0469 55.875C39.7031 57.0625 41.5625 57.9844 43.625 58.6406C45.7188 59.2656 47.8438 59.6094 50 59.6719C52.1562 59.6094 54.1562 59.2031 56 58.4531C57.875 57.6719 59.4844 56.6875 60.8281 55.5C62.2031 54.3125 63.2656 52.9844 64.0156 51.5156C64.7969 50.0156 65.1875 48.5 65.1875 46.9688C65.1875 45 64.7031 43.3438 63.7344 42C62.7656 40.625 61.5469 39.4844 60.0781 38.5781C58.6094 37.6406 57 36.9219 55.25 36.4219C53.5 35.8906 51.8438 35.5156 50.2812 35.2969C48.7188 35.0469 47.5625 34.9219 46.8125 34.9219C46.0938 34.8906 45.625 34.875 45.4062 34.875C44.6875 34.875 44.2188 34.9062 44 34.9688V24.8438C45.375 24.4062 47.0312 24.1875 48.9688 24.1875C50.7188 24.1875 52.6094 24.375 54.6406 24.75C56.6719 25.0938 58.7031 25.6562 60.7344 26.4375C62.7656 27.2188 64.7344 28.2188 66.6406 29.4375C68.5469 30.625 70.2344 32.0625 71.7031 33.75C73.1719 35.4375 74.3438 37.375 75.2188 39.5625C76.0938 41.75 76.5312 44.2188 76.5312 46.9688ZM0.5 101.531V90.0469H96.5V101.531H0.5ZM65.1406 150.75C66.8281 151.781 68.3438 152.953 69.6875 154.266C71.0312 155.547 72.1875 156.953 73.1562 158.484C74.125 160.016 74.8594 161.641 75.3594 163.359C75.8906 165.078 76.1562 166.859 76.1562 168.703C76.1562 171.797 75.4219 174.703 73.9531 177.422C72.5156 180.141 70.5469 182.531 68.0469 184.594C65.5781 186.625 62.6719 188.219 59.3281 189.375C55.9844 190.562 52.4062 191.156 48.5938 191.156C44.7812 191.156 41.2031 190.562 37.8594 189.375C34.5156 188.219 31.5938 186.625 29.0938 184.594C26.5938 182.531 24.625 180.141 23.1875 177.422C21.75 174.703 21.0312 171.797 21.0312 168.703C21.0312 166.859 21.2812 165.078 21.7812 163.359C22.3125 161.641 23.0469 160.016 23.9844 158.484C24.9531 156.953 26.1094 155.547 27.4531 154.266C28.8281 152.953 30.3438 151.781 32 150.75C30.1875 149.062 28.7656 147.125 27.7344 144.938C26.7344 142.75 26.2344 140.422 26.2344 137.953C26.2344 135.328 26.8125 132.859 27.9688 130.547C29.1562 128.203 30.75 126.172 32.75 124.453C34.7812 122.734 37.1562 121.375 39.875 120.375C42.5938 119.375 45.5 118.875 48.5938 118.875C51.6875 118.875 54.5781 119.375 57.2656 120.375C59.9844 121.375 62.3594 122.734 64.3906 124.453C66.4219 126.172 68.0156 128.203 69.1719 130.547C70.3594 132.859 70.9531 135.328 70.9531 137.953C70.9531 140.422 70.4375 142.75 69.4062 144.938C68.375 147.125 66.9531 149.062 65.1406 150.75ZM39.7812 132.703C39.5312 132.922 39.25 133.203 38.9375 133.547C38.625 133.891 38.3281 134.281 38.0469 134.719C37.7656 135.156 37.5312 135.656 37.3438 136.219C37.1562 136.75 37.0625 137.328 37.0625 137.953C37.0625 138.578 37.1562 139.172 37.3438 139.734C37.5312 140.266 37.7656 140.75 38.0469 141.188C38.3281 141.625 38.625 142.016 38.9375 142.359C39.25 142.703 39.5312 142.984 39.7812 143.203C40.9062 144.141 42.2344 144.875 43.7656 145.406C45.2969 145.906 46.9062 146.156 48.5938 146.156C50.2812 146.156 51.875 145.906 53.375 145.406C54.9062 144.875 56.2344 144.141 57.3594 143.203C57.6094 142.984 57.8906 142.703 58.2031 142.359C58.5469 142.016 58.8594 141.625 59.1406 141.188C59.4219 140.75 59.6562 140.266 59.8438 139.734C60.0312 139.172 60.125 138.578 60.125 137.953C60.125 137.328 60.0312 136.75 59.8438 136.219C59.6562 135.656 59.4219 135.156 59.1406 134.719C58.8594 134.281 58.5469 133.891 58.2031 133.547C57.8906 133.203 57.6094 132.922 57.3594 132.703C56.2344 131.734 54.9062 131 53.375 130.5C51.875 129.969 50.2812 129.703 48.5938 129.703C46.9062 129.703 45.2969 129.969 43.7656 130.5C42.2344 131 40.9062 131.734 39.7812 132.703ZM61.2031 176.156C61.5781 175.844 62 175.453 62.4688 174.984C62.9688 174.516 63.4219 173.969 63.8281 173.344C64.2344 172.688 64.5781 171.984 64.8594 171.234C65.1406 170.453 65.2812 169.609 65.2812 168.703C65.2812 167.797 65.1406 166.953 64.8594 166.172C64.5781 165.391 64.2344 164.688 63.8281 164.062C63.4219 163.438 62.9688 162.891 62.4688 162.422C62 161.922 61.5781 161.516 61.2031 161.203C59.5781 159.891 57.6719 158.875 55.4844 158.156C53.2969 157.438 51 157.078 48.5938 157.078C46.1562 157.078 43.8438 157.438 41.6562 158.156C39.4688 158.875 37.5625 159.891 35.9375 161.203C35.5625 161.516 35.125 161.922 34.625 162.422C34.1562 162.891 33.7188 163.438 33.3125 164.062C32.9062 164.688 32.5625 165.391 32.2812 166.172C32 166.953 31.8594 167.797 31.8594 168.703C31.8594 169.609 32 170.453 32.2812 171.234C32.5625 171.984 32.9062 172.688 33.3125 173.344C33.7188 173.969 34.1562 174.516 34.625 174.984C35.125 175.453 35.5625 175.844 35.9375 176.156C37.5625 177.5 39.4688 178.531 41.6562 179.25C43.8438 179.969 46.1562 180.328 48.5938 180.328C51 180.328 53.2969 179.969 55.4844 179.25C57.6719 178.531 59.5781 177.5 61.2031 176.156Z" fill="black"/>
</svg>
