<svg width="171" height="171" viewBox="0 0 171 171" fill="none" xmlns="http://www.w3.org/2000/svg">
<g clip-path="url(#clip0_3_73)">
<path d="M97.7029 0H73.2772V171H97.7029V0Z" fill="#F8C09E"/>
<path d="M171 73.2772H0V97.703H171V73.2772Z" fill="#F8C09E"/>
<path d="M137.314 16.3996L16.3985 137.315L33.6701 154.586L154.585 33.6712L137.314 16.3996Z" fill="#F8C09E"/>
<path d="M33.6701 16.4136L16.3985 33.6852L137.314 154.6L154.585 137.329L33.6701 16.4136Z" fill="#F8C09E"/>
<path d="M106.651 1.76317L41.7365 159.963L64.3338 169.235L129.248 11.0356L106.651 1.76317Z" fill="#F8C09E"/>
<path d="M11.0343 41.7561L1.76187 64.3535L159.961 129.268L169.234 106.671L11.0343 41.7561Z" fill="#F8C09E"/>
<path d="M159.678 41.2335L1.91275 107.196L11.3349 129.731L169.1 63.7688L159.678 41.2335Z" fill="#F8C09E"/>
<path d="M63.7678 1.9214L41.2325 11.3435L107.195 169.109L129.73 159.687L63.7678 1.9214Z" fill="#F8C09E"/>
</g>
<defs>
<clipPath id="clip0_3_73">
<rect width="171" height="171" fill="white"/>
</clipPath>
</defs>
</svg>
