<svg width="551" height="463" viewBox="0 0 551 463" fill="none" xmlns="http://www.w3.org/2000/svg">
<g clip-path="url(#clip0_29_519)">
<path d="M448.125 215.078L305.84 127.983L218.745 270.269L361.031 357.363L448.125 215.078Z" fill="#9AC446"/>
<mask id="mask0_29_519" style="mask-type:luminance" maskUnits="userSpaceOnUse" x="0" y="0" width="551" height="463">
<path d="M550.24 261.284L123.384 0L-3.41824e-05 201.571L426.856 462.855L550.24 261.284Z" fill="white"/>
</mask>
<g mask="url(#mask0_29_519)">
<path d="M295.205 251.872C283.722 270.633 278.059 292.378 278.933 314.357C279.808 336.336 287.18 357.563 300.119 375.352C313.057 393.141 330.979 406.694 351.62 414.297C372.261 421.9 394.693 423.212 416.079 418.066C437.465 412.92 456.846 401.548 471.769 385.388C486.692 369.228 496.488 349.006 499.918 327.278C503.348 305.551 500.259 283.294 491.04 263.323C481.821 243.351 466.886 226.562 448.125 215.078C422.968 199.679 392.723 194.904 364.045 201.804C335.367 208.705 310.605 226.714 295.205 251.872Z" fill="#9AC446"/>
<path d="M247.777 222.84C236.293 241.601 219.504 256.535 199.532 265.754C179.561 274.974 157.304 278.063 135.577 274.633C113.849 271.203 93.6269 261.407 77.4668 246.484C61.3068 231.56 49.9349 212.18 44.7892 190.794C39.6435 169.408 40.9552 146.976 48.5583 126.335C56.1613 105.694 69.7144 87.7716 87.5036 74.8335C105.293 61.8953 126.519 54.5228 148.498 53.6482C170.477 52.7737 192.222 58.4363 210.983 69.9202C236.141 85.3195 254.151 110.082 261.051 138.76C267.951 167.438 263.176 197.683 247.777 222.84Z" fill="#9AC446"/>
</g>
<path d="M353.268 157.015L210.983 69.9204L123.888 212.206L266.174 299.3L353.268 157.015Z" fill="#9AC446"/>
<path d="M372.383 152.416L301.241 108.869L286.725 132.583L357.868 176.13L372.383 152.416Z" fill="#9AC446"/>
<path d="M193.809 124.607L170.094 110.091L112.031 204.948L135.745 219.463L193.809 124.607Z" fill="white"/>
<path d="M207.606 181.952L112.75 123.889L98.2337 147.603L193.091 205.666L207.606 181.952Z" fill="white"/>
<mask id="mask1_29_519" style="mask-type:luminance" maskUnits="userSpaceOnUse" x="0" y="0" width="551" height="463">
<path d="M550.24 261.284L123.384 0L-3.41824e-05 201.571L426.856 462.855L550.24 261.284Z" fill="white"/>
</mask>
<g mask="url(#mask1_29_519)">
<path d="M397.5 277.813C395.346 281.331 392.198 284.131 388.454 285.86C384.709 287.588 380.536 288.168 376.462 287.524C372.388 286.881 368.596 285.045 365.566 282.246C362.536 279.448 360.404 275.815 359.439 271.805C358.475 267.795 358.72 263.589 360.146 259.719C361.572 255.848 364.113 252.488 367.448 250.062C370.784 247.636 374.764 246.254 378.885 246.09C383.006 245.926 387.083 246.988 390.601 249.141C395.318 252.028 398.695 256.671 399.988 262.048C401.282 267.425 400.387 273.096 397.5 277.813Z" fill="white"/>
<path d="M450.857 310.473C448.703 313.991 445.555 316.791 441.811 318.52C438.066 320.248 433.893 320.828 429.819 320.185C425.745 319.541 421.953 317.705 418.923 314.907C415.893 312.108 413.761 308.475 412.796 304.465C411.832 300.455 412.078 296.249 413.503 292.379C414.929 288.509 417.47 285.148 420.805 282.722C424.141 280.296 428.121 278.914 432.242 278.75C436.363 278.586 440.44 279.648 443.958 281.801C448.675 284.688 452.052 289.331 453.345 294.708C454.639 300.086 453.744 305.756 450.857 310.473Z" fill="white"/>
<path d="M363.727 330.49C361.574 334.007 358.426 336.807 354.682 338.536C350.937 340.265 346.764 340.844 342.69 340.201C338.616 339.558 334.824 337.721 331.794 334.923C328.764 332.125 326.632 328.491 325.667 324.481C324.702 320.471 324.948 316.265 326.374 312.395C327.8 308.525 330.341 305.164 333.676 302.738C337.012 300.312 340.992 298.93 345.113 298.766C349.234 298.602 353.311 299.664 356.829 301.817C361.546 304.704 364.923 309.347 366.216 314.724C367.51 320.102 366.615 325.772 363.727 330.49Z" fill="white"/>
<path d="M418.196 363.83C416.043 367.348 412.895 370.148 409.15 371.877C405.405 373.605 401.232 374.185 397.158 373.542C393.085 372.898 389.293 371.062 386.263 368.264C383.233 365.465 381.101 361.832 380.136 357.822C379.171 353.812 379.417 349.606 380.842 345.736C382.268 341.866 384.809 338.505 388.145 336.079C391.48 333.653 395.46 332.271 399.581 332.107C403.702 331.943 407.779 333.005 411.297 335.158C416.014 338.045 419.391 342.688 420.685 348.065C421.979 353.442 421.083 359.113 418.196 363.83Z" fill="#E62645"/>
</g>
<path d="M263.174 224.115L239.46 209.6L232.202 221.457L255.916 235.973L263.174 224.115Z" fill="white"/>
<path d="M310.602 253.147L286.888 238.631L279.63 250.488L303.344 265.004L310.602 253.147Z" fill="white"/>
<mask id="mask2_29_519" style="mask-type:luminance" maskUnits="userSpaceOnUse" x="0" y="0" width="551" height="463">
<path d="M550.24 261.284L123.384 0L-3.41824e-05 201.571L426.856 462.855L550.24 261.284Z" fill="white"/>
</mask>
<g mask="url(#mask2_29_519)">
<path d="M44.6825 190.352L44.2924 190.989L44.8061 190.866L44.6825 190.352Z" fill="#EDA69E"/>
<path d="M44.687 190.345L44.8106 190.859L44.6915 190.337" fill="#211C26"/>
</g>
</g>
<defs>
<clipPath id="clip0_29_519">
<rect width="500.475" height="236.336" fill="white" transform="translate(123.384) rotate(31.4714)"/>
</clipPath>
</defs>
</svg>
