<svg width="327" height="327" viewBox="0 0 327 327" fill="none" xmlns="http://www.w3.org/2000/svg">
<g clip-path="url(#clip0_29_428)">
<mask id="mask0_29_428" style="mask-type:luminance" maskUnits="userSpaceOnUse" x="0" y="0" width="327" height="327">
<path d="M327 0H0V327H327V0Z" fill="white"/>
</mask>
<g mask="url(#mask0_29_428)">
<path d="M327 163.4C327.015 189.231 320.905 214.697 309.173 237.71C297.441 260.723 280.419 280.626 259.506 295.787C258.806 296.287 258.105 296.821 257.405 297.288C255.704 298.522 254.07 299.689 252.236 300.823L247.334 303.857C223.862 317.918 197.213 325.81 169.869 326.8H166.235H160.766H157.064C129.739 325.794 103.113 317.89 79.6659 303.824L74.7306 300.789C72.9632 299.656 71.3959 298.488 69.5952 297.255C68.8615 296.788 68.1946 296.287 67.4943 295.787C46.5689 280.638 29.539 260.737 17.8053 237.721C6.07151 214.706 -0.0308489 189.234 0.000117265 163.4C0.000117265 161.099 0.00011727 158.798 0.166852 156.53C0.333587 154.263 0.366933 152.596 0.500321 150.661C0.700403 148.094 0.933831 145.559 1.30065 143.025C1.30065 141.591 1.63412 140.191 1.86755 138.757C8.17397 97.3036 30.1934 59.8682 63.3593 34.214C64.7598 33.1135 66.1604 32.0797 67.561 31.046L72.1629 27.7113C72.7965 27.2444 73.3967 26.8443 74.0303 26.4441C98.7881 10.2417 127.496 1.09891 157.064 0L160.766 0H166.235H169.869C199.459 1.17027 228.169 10.3942 252.903 26.6775L254.771 27.9447C256.305 28.9785 257.839 30.0456 259.339 31.2794C260.84 32.5133 262.207 33.3136 263.574 34.414C296.728 60.0463 318.765 97.4367 325.133 138.857C325.333 140.291 325.533 141.658 325.7 143.092C326.033 145.626 326.266 148.16 326.467 150.728C326.467 152.696 326.733 154.663 326.833 156.664C326.933 158.665 326.833 161.199 326.833 163.5" fill="#F0813C"/>
<path d="M166.235 0V326.8H160.766V0H166.235Z" fill="#1D1D1B"/>
<path d="M325.699 143.092C293.869 118.729 256.637 102.395 217.155 95.4723L211.42 94.4385C196.482 91.9706 181.374 90.6772 166.234 90.5703H160.766C145.615 90.677 130.496 91.9703 115.547 94.4385L109.845 95.4723C70.3632 102.395 33.1309 118.729 1.30057 143.092C0.933754 145.626 0.700326 148.16 0.500244 150.728C29.6121 126.485 67.9277 108.778 111.245 100.708C113.146 100.341 115.08 100.007 116.981 99.7073C131.459 97.3558 146.098 96.1294 160.766 96.0392H166.234C180.926 96.1478 195.587 97.3965 210.086 99.774C212.02 100.063 213.921 100.396 215.788 100.774C259.139 108.778 297.455 126.485 326.567 150.795C326.366 148.227 326.133 145.693 325.8 143.158" fill="#1D1D1B"/>
<path d="M234.429 215.688C244.433 241.999 254.437 268.843 257.405 297.288C255.704 298.522 254.07 299.689 252.236 300.623C249.602 271.711 239.331 244.266 229.327 217.455C214.587 178.173 200.282 140.057 210.086 99.774C210.519 98.0066 210.986 96.2392 211.52 94.4719C217.789 73.0298 231.094 51.1208 254.871 27.778C256.405 28.8117 257.939 29.8788 259.439 31.1127C236.263 53.3551 223.424 74.7638 217.155 95.4723C216.588 97.2396 216.121 99.007 215.688 100.774C206.151 140.057 220.09 177.206 234.429 215.688Z" fill="#1D1D1B"/>
<path d="M97.6732 217.622C87.6691 244.3 77.3649 271.878 74.7305 300.823C72.9631 299.689 71.3958 298.522 69.5951 297.288C72.663 268.843 82.7337 241.965 92.5377 215.688C106.944 177.206 120.849 139.99 111.245 100.774C110.845 99.0182 110.378 97.2508 109.845 95.4723C103.676 74.7638 90.7037 53.3551 67.5942 31.046L72.1961 27.7113C96.0058 50.8207 109.278 72.8964 115.547 94.4052C116.114 96.2059 116.581 98.0066 116.981 99.7407C126.718 140.057 112.413 178.173 97.6732 217.622Z" fill="#1D1D1B"/>
</g>
</g>
<defs>
<clipPath id="clip0_29_428">
<rect width="327" height="327" fill="white"/>
</clipPath>
</defs>
</svg>
