<svg width="385" height="167" viewBox="0 0 385 167" fill="none" xmlns="http://www.w3.org/2000/svg">
<g clip-path="url(#clip0_3_186)">
<path d="M73.9739 41.3695L264.556 14.572L370.95 50.9362C372.334 51.3804 373.566 52.208 374.503 53.3239C375.44 54.4398 376.045 55.7986 376.249 57.2438C376.452 58.689 376.245 60.1619 375.652 61.493C375.058 62.8241 374.103 63.9593 372.895 64.7679L280.654 129.062L90.0722 155.859L73.9739 41.3695Z" fill="#F393A2"/>
<path d="M53.2433 124.747L275.545 93.4893L274.924 89.0721L52.6222 120.33L53.2433 124.747Z" fill="white"/>
<path d="M47.8222 86.1921L270.124 54.9346L269.503 50.5174L47.2011 81.775L47.8222 86.1921Z" fill="white"/>
<path d="M264.556 14.5722L264.411 14.5924C261.889 14.8506 259.446 15.6173 257.227 16.8468C255.008 18.0762 253.06 19.7431 251.498 21.7477C249.936 23.7524 248.793 26.0536 248.137 28.5137C247.481 30.9738 247.326 33.5422 247.681 36.0654C248.035 38.5886 248.893 41.0147 250.202 43.1986C251.511 45.3824 253.244 47.2792 255.298 48.7754C257.352 50.2715 259.685 51.3364 262.157 51.9063C264.629 52.4762 267.189 52.5394 269.684 52.0921L269.823 53.081C264.806 53.7325 260.253 56.3537 257.158 60.3717C254.063 64.3897 252.678 69.4778 253.307 74.5239C254.095 79.5534 256.833 84.0673 260.922 87.0782C265.01 90.089 270.117 91.3518 275.124 90.5902L275.263 91.5791C270.239 92.2208 265.676 94.839 262.575 98.8594C259.474 102.88 258.088 107.974 258.721 113.026C259.509 118.054 262.247 122.566 266.335 125.575C270.424 128.584 275.53 129.844 280.536 129.079L280.654 129.062L372.895 64.768C374.103 63.9594 375.058 62.8242 375.652 61.4931C376.245 60.162 376.452 58.6891 376.249 57.2439C376.046 55.7987 375.44 54.4399 374.503 53.324C373.566 52.2081 372.334 51.3805 370.95 50.9363L264.556 14.5722Z" fill="#FCBF2C"/>
<path d="M316.298 32.253L370.95 50.9364C372.334 51.3806 373.566 52.2082 374.503 53.3241C375.44 54.44 376.045 55.7987 376.249 57.244C376.452 58.6892 376.245 60.1621 375.652 61.4932C375.058 62.8243 374.103 63.9595 372.895 64.768L325.516 97.8115L316.298 32.253Z" fill="#1D1D1B"/>
<path d="M111.901 152.79L73.0577 158.252C65.522 159.429 57.8265 159.088 50.419 157.249C43.0114 155.409 36.0398 152.108 29.9098 147.538C23.7798 142.967 18.6138 137.218 14.7124 130.626C10.811 124.033 8.25221 116.729 7.18477 109.137C6.11734 101.546 6.56264 93.8191 8.49478 86.4064C10.4269 78.9937 13.8073 72.0433 18.4392 65.9596C23.0712 59.8759 28.8622 54.7803 35.4752 50.9695C42.0882 47.1587 49.3913 44.7086 56.9594 43.762L95.8025 38.3003L111.901 152.79Z" fill="#80D4F3"/>
<path d="M89.4949 155.941L123.471 151.164L107.373 36.6736L73.3966 41.4509L89.4949 155.941Z" fill="#1D1D1B"/>
<path d="M96.7099 154.926L101.065 154.314L84.9668 39.824L80.6116 40.4364L96.7099 154.926Z" fill="#CFC9C2"/>
<path d="M111.888 152.792L116.243 152.18L100.145 37.6897L95.7894 38.3021L111.888 152.792Z" fill="#CFC9C2"/>
</g>
<defs>
<clipPath id="clip0_3_186">
<rect width="371.811" height="115.616" fill="white" transform="translate(384.288 114.49) rotate(171.996)"/>
</clipPath>
</defs>
</svg>
