<svg width="263" height="273" viewBox="0 0 263 273" fill="none" xmlns="http://www.w3.org/2000/svg">
<g clip-path="url(#clip0_3_471)">
<path d="M130.063 5.03766C120.458 2.40565 110.62 0.718437 100.688 0C94.2423 18.5057 91.5121 45.0922 94.4271 69.3758C96.1719 84.3859 100.052 98.5119 106.497 109.184L115.365 108.978H118.198C98.122 77.0042 105.881 32.5083 130.063 5.14047" fill="#9AC446"/>
<path d="M0 40.301C0 40.301 10.4486 72.9121 35.677 83.4809C60.9055 94.0497 91.348 78.361 91.348 78.361C91.348 78.361 80.8789 45.791 55.6709 35.2839C30.463 24.7768 0 40.301 0 40.301Z" fill="#9AC446"/>
<path d="M176.065 38.7793C147.676 40.342 117.172 62.7339 105.491 90.4718L105.204 91.0681C75.6443 85.0229 39.6594 97.8741 22.3546 120.739C-2.95639e-05 150.101 16.8121 193.096 34.0348 221.328C59.5301 263.192 110.972 285.81 158.35 265.453C169.503 260.763 179.038 252.899 185.775 242.835C185.973 242.825 186.172 242.825 186.37 242.835C198.264 242.778 209.891 239.302 219.871 232.822C263.123 204.796 273.243 149.587 252.88 104.886C239.126 74.8243 212.913 36.8465 176.065 38.9027" fill="#E62645"/>
</g>
<defs>
<clipPath id="clip0_3_471">
<rect width="263" height="273" fill="white"/>
</clipPath>
</defs>
</svg>
