<svg width="171" height="171" viewBox="0 0 171 171" fill="none" xmlns="http://www.w3.org/2000/svg">
<g clip-path="url(#clip0_3_478)">
<path d="M97.7029 0H73.2772V171H97.7029V0Z" fill="#80D4F3"/>
<path d="M171 73.2773H0V97.7031H171V73.2773Z" fill="#80D4F3"/>
<path d="M137.314 16.3992L16.3985 137.314L33.6701 154.586L154.585 33.6708L137.314 16.3992Z" fill="#80D4F3"/>
<path d="M33.6701 16.4139L16.3985 33.6855L137.314 154.601L154.585 137.329L33.6701 16.4139Z" fill="#80D4F3"/>
<path d="M106.651 1.76336L41.7365 159.963L64.3338 169.235L129.248 11.0358L106.651 1.76336Z" fill="#80D4F3"/>
<path d="M11.0343 41.7562L1.7619 64.3535L159.961 129.268L169.234 106.671L11.0343 41.7562Z" fill="#80D4F3"/>
<path d="M159.678 41.2339L1.91278 107.196L11.3349 129.732L169.1 63.7692L159.678 41.2339Z" fill="#80D4F3"/>
<path d="M63.7678 1.92164L41.2325 11.3438L107.195 169.109L129.73 159.687L63.7678 1.92164Z" fill="#80D4F3"/>
</g>
<defs>
<clipPath id="clip0_3_478">
<rect width="171" height="171" fill="white"/>
</clipPath>
</defs>
</svg>
