<svg width="534" height="534" viewBox="0 0 534 534" fill="none" xmlns="http://www.w3.org/2000/svg">
<g clip-path="url(#clip0_29_548)">
<path d="M172.631 188.58L143.541 241.616C125.087 275.238 120.72 314.77 131.402 351.514C142.083 388.259 166.938 419.206 200.497 437.549C234.057 455.892 273.573 460.127 310.352 449.323C347.131 438.519 378.161 413.56 396.614 379.938L425.717 326.914C427.454 323.738 429.051 320.575 430.534 317.349C432.017 314.124 433.36 310.785 434.615 307.435C447.426 273.169 446.789 235.365 432.832 201.639C418.875 167.914 392.635 140.776 359.402 125.695C326.168 110.613 288.411 108.71 253.741 120.367C219.07 132.025 190.064 156.378 172.568 188.517" fill="#F8C09E"/>
<path d="M258.546 314.893C257.28 317.196 256.724 319.82 256.949 322.434C257.173 325.048 258.168 327.534 259.808 329.578C261.448 331.621 263.658 333.131 266.16 333.915C268.662 334.699 271.343 334.723 273.863 333.983C276.383 333.243 278.63 331.773 280.319 329.759C282.008 327.745 283.064 325.277 283.352 322.668C283.64 320.058 283.148 317.424 281.938 315.1C280.729 312.775 278.855 310.863 276.555 309.607C275.03 308.771 273.354 308.245 271.623 308.058C269.892 307.871 268.14 308.028 266.467 308.519C264.794 309.01 263.234 309.825 261.875 310.919C260.515 312.013 259.384 313.363 258.546 314.893Z" fill="black"/>
<path d="M156.88 259.314C155.613 261.616 155.057 264.239 155.28 266.853C155.503 269.467 156.497 271.953 158.135 273.997C159.773 276.041 161.982 277.552 164.483 278.337C166.984 279.123 169.664 279.149 172.184 278.412C174.705 277.674 176.952 276.206 178.643 274.194C180.333 272.182 181.391 269.716 181.682 267.107C181.973 264.498 181.484 261.865 180.277 259.539C179.071 257.213 177.2 255.299 174.902 254.04C173.377 253.202 171.701 252.673 169.969 252.485C168.237 252.296 166.484 252.451 164.81 252.941C163.135 253.431 161.573 254.246 160.213 255.339C158.852 256.433 157.72 257.783 156.88 259.314Z" fill="black"/>
<path d="M326.513 280.535C305.877 287.453 283.955 289.595 262.402 286.798C240.849 284.002 220.23 276.339 202.104 264.391C219.241 267.315 236.88 264.867 252.605 257.381C199.43 256.508 148.305 237.029 108.114 202.329C129.89 193.296 153.232 188.681 176.78 188.754C200.327 188.826 223.609 193.585 245.268 202.753L326.513 280.535Z" fill="black"/>
<path d="M358.94 286.166C359.04 319.499 374.797 352.207 400.024 373.724L425.717 326.914C427.454 323.737 429.051 320.574 430.534 317.349C406.665 306.976 382.801 296.582 358.94 286.166Z" fill="black"/>
<path d="M97.8814 148.645C96.6474 150.907 96.3589 153.563 97.0791 156.03C97.7993 158.498 99.4695 160.577 101.724 161.81L420.609 336.19L425.679 326.952C443.708 294.016 448.244 255.402 438.33 219.275C428.416 183.148 404.828 152.339 372.554 133.363C340.28 114.387 301.849 108.731 265.388 117.591C228.927 126.45 197.293 149.132 177.175 180.839L111.097 144.72C109.975 144.108 108.743 143.725 107.471 143.591C106.198 143.457 104.911 143.576 103.684 143.941C102.456 144.305 101.311 144.908 100.315 145.716C99.3197 146.523 98.4926 147.518 97.8814 148.645Z" fill="#E62645"/>
<path d="M370.514 369.668C367.712 374.769 366.482 380.581 366.981 386.369C367.479 392.157 369.684 397.662 373.316 402.187C376.947 406.712 381.843 410.053 387.383 411.789C392.924 413.525 398.86 413.577 404.441 411.938C410.022 410.299 414.997 407.044 418.737 402.584C422.477 398.123 424.814 392.658 425.452 386.88C426.09 381.101 425.001 375.269 422.322 370.121C419.643 364.972 415.495 360.739 410.403 357.957C403.576 354.233 395.542 353.374 388.063 355.57C380.585 357.765 374.273 362.836 370.514 369.668Z" fill="#F8C09E"/>
<ellipse cx="24.7338" cy="20.6958" rx="24.7338" ry="20.6958" transform="matrix(-0.875028 -0.484071 -0.484071 0.875028 230.964 341.053)" fill="white"/>
</g>
<defs>
<clipPath id="clip0_29_548">
<rect width="407.157" height="347.542" fill="white" transform="matrix(-0.710655 -0.70354 -0.70354 0.710655 533.858 286.451)"/>
</clipPath>
</defs>
</svg>
