<svg width="382" height="398" viewBox="0 0 382 398" fill="none" xmlns="http://www.w3.org/2000/svg">
<g clip-path="url(#clip0_29_439)">
<path d="M0.261932 160.681C0.913788 155.156 2.80472 149.849 5.79422 145.154C8.78372 140.46 12.7949 136.498 17.5296 133.563C8.11282 125.404 2.01807 114.083 0.397888 101.742C-1.22226 89.4011 1.74445 76.8953 8.73703 66.5897C15.7296 56.2842 26.2633 48.8934 38.3459 45.815C50.4286 42.7367 63.2226 44.1842 74.3083 49.8838C74.3083 49.7826 74.3083 49.6899 74.3083 49.5971C75.631 38.3769 80.3159 27.8164 87.7503 19.2973C95.1848 10.7783 105.022 4.69736 115.976 1.85023C126.93 -0.996907 138.489 -0.47768 149.142 3.33997C159.796 7.15763 169.046 14.0959 175.684 23.2471C183.02 15.0775 192.438 9.04629 202.936 5.79542C213.434 2.54454 224.618 2.19568 235.299 4.78598C245.979 7.37627 255.757 12.8088 263.589 20.5052C271.422 28.2016 277.017 37.8739 279.78 48.4925C292.898 42.0001 307.81 40.0538 322.16 42.9611C336.51 45.8683 349.481 53.4633 359.025 64.5471C368.569 75.6309 374.143 89.5719 374.866 104.169C375.589 118.766 371.42 133.188 363.017 145.157C368.233 149.135 372.582 154.132 375.798 159.843C379.014 165.555 381.03 171.861 381.722 178.376C382.415 184.891 381.77 191.478 379.826 197.736C377.883 203.994 374.681 209.791 370.418 214.772C372.364 220.608 373.125 226.774 372.654 232.907C372.184 239.04 370.493 245.018 367.68 250.491C364.867 255.964 360.988 260.821 356.271 264.78C351.554 268.738 346.093 271.717 340.208 273.543C340.293 275.6 340.222 277.661 339.997 279.707C339.17 286.627 336.567 293.216 332.44 298.838C328.313 304.459 322.802 308.921 316.44 311.792C310.078 314.664 303.081 315.847 296.127 315.227C289.173 314.608 282.496 312.207 276.744 308.256C270.993 304.305 266.36 298.939 263.296 292.678C260.232 286.416 258.839 279.47 259.253 272.514C259.667 265.557 261.874 258.825 265.659 252.97C269.445 247.114 274.681 242.333 280.861 239.09C279.446 232.659 279.429 226 280.812 219.562C282.195 213.124 284.946 207.057 288.878 201.77C285.744 194.186 284.607 185.927 285.575 177.781C285.921 175.007 286.503 172.268 287.315 169.593C276.414 165.803 266.699 159.227 259.139 150.52C251.58 141.813 246.439 131.28 244.231 119.971C230.984 125.476 216.213 126.126 202.533 121.805C188.852 117.484 177.145 108.471 169.483 96.3612C160.589 105.045 149.057 110.533 136.698 111.963C124.34 113.393 111.855 110.684 101.207 104.262C99.581 113.222 95.575 121.581 89.6071 128.468C83.6392 135.354 75.9283 140.515 67.2796 143.412C70.8224 148.308 73.114 153.994 73.9554 159.975C74.7967 165.956 74.1623 172.052 72.1073 177.733C70.0523 183.414 66.6388 188.508 62.1633 192.573C57.6879 196.638 52.2857 199.551 46.4261 201.059C40.5666 202.567 34.4267 202.625 28.5399 201.226C22.653 199.828 17.1972 197.016 12.6463 193.036C8.0954 189.055 4.58698 184.025 2.42578 178.384C0.264618 172.742 -0.483978 166.66 0.245026 160.664L0.261932 160.681Z" fill="black"/>
<path d="M21.4325 251.544C21.4382 286.343 33.8583 320.003 56.4674 346.493C79.0765 372.983 110.397 390.573 144.818 396.11C179.238 401.647 214.51 394.77 244.312 376.711C274.115 358.652 296.501 330.591 307.46 297.556C318.42 264.52 317.235 228.67 304.12 196.427C291.005 164.184 266.815 137.655 235.886 121.595C204.956 105.534 169.308 100.991 135.327 108.779C101.347 116.566 71.2547 136.177 50.4428 164.096C31.6013 189.372 21.4278 220.039 21.4325 251.544Z" fill="#F2B2B3"/>
<path d="M164.549 292.279C156.439 303.258 144.063 310.299 130.251 310.299C116.438 310.299 104.062 303.275 95.9266 292.296" stroke="#182619" stroke-width="5.86" stroke-linecap="round" stroke-linejoin="round"/>
<path d="M303.155 271.343C282.458 271.343 265.68 257.201 265.68 239.756C265.68 222.312 282.458 208.17 303.155 208.17C323.852 208.17 340.63 222.312 340.63 239.756C340.63 257.201 323.852 271.343 303.155 271.343Z" fill="#F2B2B3"/>
<path d="M122.276 86.4281C122.867 87.381 123.408 88.3675 123.965 89.354C129.581 83.0089 136.776 78.2568 144.823 75.5788C152.87 72.9007 161.482 72.3917 169.789 74.1032C178.097 75.8147 185.803 79.686 192.13 85.3254C198.456 90.9648 203.178 98.1721 205.818 106.218C214.441 101.217 224.459 99.1452 234.363 100.316C259.707 103.309 304.786 174.964 302.978 190.269C302.154 197.201 298.756 203.573 293.455 208.126C288.154 212.68 281.335 215.083 274.344 214.863C267.354 214.643 260.7 211.814 255.698 206.936C250.695 202.058 247.706 195.485 247.323 188.515C241.554 191.025 235.332 192.331 229.04 192.352C222.747 192.373 216.517 191.11 210.731 188.638C204.946 186.167 199.729 182.541 195.4 177.982C191.071 173.423 187.722 168.029 185.56 162.131C175.097 168.661 162.521 170.928 150.432 168.464C138.342 166.001 127.663 158.994 120.603 148.893C114.737 157.177 106.74 163.728 97.4552 167.855C88.1706 171.981 77.9423 173.531 67.8489 172.341C57.7554 171.15 48.1709 167.263 40.1057 161.09C32.0406 154.917 25.7937 146.686 22.0238 137.265C26.9912 95.0878 59.9298 50.1114 122.276 86.4281Z" fill="black"/>
<path d="M99.2466 243.458C99.2466 256.258 88.0446 266.89 73.2691 269.091C71.3884 269.385 69.4872 269.529 67.5836 269.521C50.0879 269.521 35.9122 257.86 35.9122 243.458C35.9122 229.056 50.0879 217.386 67.5836 217.386C69.4756 217.38 71.3653 217.521 73.2353 217.808C88.0108 219.991 99.2466 230.641 99.2466 243.458Z" fill="white"/>
<path d="M86.9126 243.458C86.9126 253.576 81.6579 262.717 73.2691 269.091C71.3884 269.385 69.4873 269.529 67.5837 269.521C50.0879 269.521 35.9122 257.86 35.9122 243.458C35.9122 229.056 50.0879 217.386 67.5837 217.386C69.4757 217.38 71.3653 217.521 73.2353 217.808C81.6411 224.182 86.9126 233.322 86.9126 243.458Z" fill="black"/>
<path d="M226.955 243.458C226.955 256.258 215.753 266.89 200.977 269.091C199.096 269.385 197.195 269.529 195.292 269.521C177.787 269.521 163.62 257.86 163.62 243.458C163.62 229.056 177.787 217.386 195.3 217.386C197.192 217.38 199.082 217.521 200.952 217.808C215.736 219.991 226.955 230.641 226.955 243.458Z" fill="white"/>
<path d="M214.62 243.458C214.62 253.576 209.366 262.717 200.977 269.091C199.096 269.385 197.195 269.529 195.292 269.521C177.787 269.521 163.62 257.86 163.62 243.458C163.62 229.056 177.787 217.386 195.3 217.386C197.192 217.38 199.082 217.521 200.952 217.808C209.349 224.182 214.62 233.322 214.62 243.458Z" fill="black"/>
</g>
<defs>
<clipPath id="clip0_29_439">
<rect width="382" height="398" fill="white" transform="matrix(-1 0 0 1 382 0)"/>
</clipPath>
</defs>
</svg>
