<svg width="341" height="397" viewBox="0 0 341 397" fill="none" xmlns="http://www.w3.org/2000/svg">
<g clip-path="url(#clip0_29_585)">
<mask id="mask0_29_585" style="mask-type:luminance" maskUnits="userSpaceOnUse" x="0" y="0" width="341" height="397">
<path d="M340.537 20.9654L24.927 0L6.84544e-05 375.246L315.61 396.211L340.537 20.9654Z" fill="white"/>
</mask>
<g mask="url(#mask0_29_585)">
<path d="M21.9451 181.548C7.91428 212.856 5.47538 248.141 15.0654 281.082C24.6554 314.023 45.6476 342.467 74.2811 361.318C102.915 380.169 137.318 388.195 171.328 383.958C205.338 379.721 236.733 363.499 259.886 338.197C283.04 312.895 296.44 280.166 297.686 245.876C298.931 211.585 287.942 177.973 266.685 151.06C245.428 124.148 215.294 105.695 181.681 99.0062C148.068 92.3177 113.172 97.8312 83.2459 114.559C56.1478 129.706 34.6501 153.198 21.9451 181.548Z" fill="#F393A2"/>
<path d="M142.192 220.24C141.222 222.404 140.914 224.807 141.307 227.145C141.701 229.484 142.778 231.653 144.403 233.379C146.028 235.104 148.128 236.308 150.436 236.839C152.745 237.37 155.159 237.203 157.373 236.361C159.588 235.518 161.503 234.037 162.877 232.104C164.25 230.172 165.021 227.875 165.091 225.504C165.161 223.134 164.528 220.796 163.271 218.786C162.014 216.776 160.19 215.184 158.029 214.212C155.13 212.914 151.835 212.819 148.867 213.949C145.898 215.079 143.498 217.341 142.192 220.24Z" fill="#1D1D1B"/>
<path d="M46.5927 177.289C45.6256 179.453 45.3211 181.856 45.7177 184.194C46.1144 186.532 47.1943 188.699 48.821 190.422C50.4477 192.145 52.5482 193.347 54.857 193.875C57.1658 194.403 59.5792 194.234 61.7923 193.389C64.0054 192.544 65.9187 191.061 67.2904 189.128C68.6622 187.195 69.4309 184.898 69.4992 182.528C69.5675 180.158 68.9325 177.82 67.6744 175.812C66.4163 173.803 64.5916 172.213 62.4309 171.242C60.9947 170.597 59.4456 170.242 57.8721 170.196C56.2985 170.151 54.7315 170.417 53.2605 170.978C51.7895 171.54 50.4435 172.386 49.2994 173.469C48.1553 174.552 47.2355 175.85 46.5927 177.289Z" fill="#1D1D1B"/>
<path d="M123.725 247.22C117.694 253.854 109.724 258.412 100.953 260.244C92.1819 262.077 83.0574 261.09 74.8806 257.424C66.7038 253.758 59.8921 247.601 55.4168 239.831C50.9416 232.06 49.0314 223.073 49.9585 214.15L123.725 247.22Z" fill="white"/>
<path d="M113.622 166.662C120.148 166.947 126.652 165.708 132.619 163.041C116.804 164.638 100.832 163.079 85.624 158.455C70.4164 153.832 56.276 146.235 44.0205 136.104C59.2554 116.834 84.4449 107.24 108.949 107.403C133.453 107.566 157.197 116.899 177.834 130.101C186.694 135.546 194.715 142.253 201.645 150.011C205.156 154.033 208.144 158.485 210.537 163.259C213.495 169.277 213.982 171.263 207.695 174.132C188.972 182.672 166.397 183.97 146.435 179.809C134.779 177.416 123.642 172.962 113.547 166.657" fill="#1D1D1B"/>
<path d="M196.593 144.736L141.903 92.7277L108.872 107.435L99.541 108.693C127.147 85.754 162.564 74.4329 198.335 77.113C234.107 79.7931 267.442 96.2654 291.323 123.062C315.203 149.858 327.766 184.888 326.366 220.776C324.966 256.665 309.713 290.611 283.817 315.469L255.243 342.416C255.82 333.722 257.878 252.77 257.878 252.77L196.593 144.736Z" fill="#0047BA"/>
<path d="M253.291 189.967C252.728 180.639 251.186 171.397 248.689 162.393C234.094 110.194 203.895 64.4695 161.174 33.3124C134.463 13.8666 112.228 6.64311 96.8333 4.88805C95.4439 4.72064 94.1019 4.59394 92.8071 4.50793C90.7178 4.4379 88.6402 4.84819 86.7338 5.70728C84.8274 6.56637 83.1429 7.85141 81.8097 9.46374C80.4765 11.0761 79.53 12.9728 79.0429 15.0083C78.5558 17.0438 78.541 19.1638 78.9998 21.2058L97.9363 108.849C124.965 107.715 178.529 129.808 257.876 252.807L253.291 189.967Z" fill="#5285CC"/>
<path d="M236.886 282.191C234.944 286.522 234.329 291.333 235.118 296.013C235.907 300.694 238.064 305.036 241.317 308.489C244.571 311.942 248.774 314.351 253.395 315.412C258.016 316.473 262.848 316.139 267.28 314.451C271.712 312.762 275.544 309.796 278.293 305.928C281.042 302.059 282.583 297.462 282.722 292.717C282.861 287.971 281.592 283.292 279.074 279.269C276.557 275.247 272.905 272.062 268.58 270.118C265.707 268.827 262.609 268.115 259.461 268.023C256.314 267.931 253.179 268.461 250.236 269.582C247.293 270.703 244.599 272.394 242.308 274.557C240.018 276.721 238.175 279.315 236.886 282.191Z" fill="#F393A2"/>
</g>
</g>
<defs>
<clipPath id="clip0_29_585">
<rect width="316.306" height="376.073" fill="white" transform="translate(24.927) rotate(3.80048)"/>
</clipPath>
</defs>
</svg>
