<svg width="533" height="496" viewBox="0 0 533 496" fill="none" xmlns="http://www.w3.org/2000/svg">
<g clip-path="url(#clip0_29_639)">
<mask id="mask0_29_639" style="mask-type:luminance" maskUnits="userSpaceOnUse" x="0" y="0" width="533" height="496">
<path d="M120.749 0.620627L532.079 140.082L411.49 495.749L0.160024 356.288L120.749 0.620627Z" fill="white"/>
</mask>
<g mask="url(#mask0_29_639)">
<path d="M157.165 176.967L136.306 238.489C123.508 277.384 126.561 319.75 144.801 356.368C163.041 392.987 194.992 420.895 233.702 434.019C272.412 447.144 314.747 444.423 351.497 426.449C388.247 408.474 416.437 376.701 429.933 338.043L450.792 276.521C452.036 272.851 453.138 269.183 454.098 265.515C455.031 261.744 455.864 258.033 456.582 254.27C463.489 215.73 455.606 176.016 434.512 143.078C413.418 110.14 380.67 86.4106 342.824 76.6401C304.978 66.8697 264.828 71.7795 230.412 90.3867C195.997 108.994 169.856 139.925 157.225 176.987" fill="#F393A2"/>
<path d="M271.705 294.752C270.799 297.423 270.705 300.302 271.433 303.025C272.161 305.747 273.68 308.192 275.796 310.049C277.913 311.906 280.532 313.092 283.324 313.458C286.115 313.823 288.953 313.352 291.478 312.102C294.004 310.853 296.103 308.882 297.512 306.439C298.92 303.996 299.573 301.191 299.39 298.378C299.206 295.564 298.193 292.87 296.48 290.634C294.766 288.399 292.429 286.723 289.763 285.819C286.188 284.607 282.277 284.868 278.89 286.543C275.504 288.218 272.919 291.171 271.705 294.752Z" fill="black"/>
<path d="M153.751 254.76C152.846 257.431 152.751 260.31 153.479 263.032C154.208 265.755 155.726 268.2 157.842 270.057C159.959 271.914 162.579 273.1 165.37 273.466C168.161 273.831 170.999 273.36 173.525 272.11C176.05 270.861 178.15 268.89 179.558 266.447C180.966 264.004 181.62 261.199 181.436 258.385C181.252 255.572 180.24 252.877 178.526 250.642C176.812 248.407 174.475 246.731 171.809 245.827C168.234 244.615 164.323 244.875 160.936 246.551C157.55 248.226 154.965 251.179 153.751 254.76Z" fill="black"/>
<path d="M207.341 354.863C195.511 351.305 189.493 336.525 193.907 321.861C198.321 307.197 211.471 298.198 223.316 301.748C235.161 305.298 241.168 320.074 236.754 334.738C232.34 349.402 219.174 358.409 207.341 354.863Z" fill="white"/>
<path d="M337.124 245.876C296.341 268.415 245.002 270.67 202.491 251.824C221.172 251.738 239.377 245.874 254.613 235.032C198.198 243.968 140.461 232.823 91.4425 203.537C112.787 189.944 136.613 180.735 161.535 176.446C186.457 172.157 211.976 172.875 236.608 178.556L337.124 245.876Z" fill="#FDDF95"/>
<path d="M372.534 245.728C378.874 280.997 401.653 312.694 432.382 330.82L450.792 276.521C452.039 272.844 453.134 269.182 454.098 265.515C426.91 258.959 399.719 252.372 372.526 245.752" fill="#FDDF95"/>
<path d="M70.6104 148.539C69.7285 151.161 69.9189 154.025 71.1401 156.504C72.3613 158.984 74.5138 160.877 77.1269 161.77L447.161 287.23L450.804 276.485C463.803 238.255 461.427 196.475 444.18 160.003C426.934 123.531 396.173 95.2344 358.42 81.1132C320.666 66.992 278.89 68.1565 241.947 84.3599C205.004 100.563 175.801 130.531 160.528 167.91L83.8587 141.915C81.2283 141.05 78.3625 141.254 75.8788 142.484C73.4025 143.745 71.5119 145.921 70.6064 148.551" fill="#9AC446"/>
<path d="M400.405 332.013C398.399 337.93 398.189 344.309 399.803 350.341C401.416 356.374 404.781 361.791 409.47 365.906C414.16 370.021 419.964 372.649 426.149 373.459C432.334 374.269 438.622 373.224 444.218 370.456C449.813 367.687 454.466 363.321 457.586 357.908C460.706 352.495 462.154 346.278 461.747 340.045C461.34 333.811 459.096 327.84 455.3 322.888C451.503 317.935 446.323 314.222 440.416 312.219C432.495 309.534 423.829 310.11 416.326 313.822C408.822 317.534 403.095 324.077 400.405 332.013Z" fill="#F393A2"/>
</g>
</g>
<defs>
<clipPath id="clip0_29_639">
<rect width="434.329" height="375.554" fill="white" transform="matrix(-0.947047 -0.321096 -0.321096 0.947047 532.079 140.082)"/>
</clipPath>
</defs>
</svg>
