<svg width="689" height="382" viewBox="0 0 689 382" fill="none" xmlns="http://www.w3.org/2000/svg">
<g clip-path="url(#clip0_2028_2)">
<mask id="mask0_2028_2" style="mask-type:luminance" maskUnits="userSpaceOnUse" x="0" y="0" width="534" height="142">
<path d="M534 0H0V142H534V0Z" fill="white"/>
</mask>
<g mask="url(#mask0_2028_2)">
<path d="M62.794 -0.000499018C54.8571 -0.27676 46.9434 1.01265 39.5053 3.79404C32.0671 6.57544 25.2503 10.7943 19.4443 16.2096C13.6383 21.6248 8.95697 28.1303 5.66778 35.3544C2.37859 42.5784 0.54601 50.3793 0.274771 58.3114L-3.09199e-06 65.0633C-0.285152 72.9992 0.998096 80.9135 3.77634 88.3533C6.55458 95.7932 10.7733 102.613 16.1912 108.422C21.609 114.231 28.1197 118.915 35.3508 122.207C42.582 125.499 50.3916 127.334 58.333 127.607L471.206 142.016C487.227 142.574 502.815 136.749 514.539 125.823C526.263 114.896 533.165 99.7634 533.725 83.7522L533.968 77.0003C534.255 69.0657 532.974 61.1523 530.199 53.7126C527.424 46.2729 523.208 39.453 517.794 33.6427C512.379 27.8324 505.871 23.1458 498.643 19.8509C491.414 16.5559 483.607 14.7173 475.667 14.4402L62.794 -0.000499018Z" fill="#C2A9CE"/>
</g>
<path d="M50.4615 47.8457C52.0778 47.8457 55.8115 47.8457 58.6239 47.9265C65.364 48.1526 67.8046 51.3186 67.6753 55.2276C67.6937 56.5836 67.2941 57.9125 66.5307 59.0337C65.7673 60.1549 64.6772 61.0142 63.4082 61.4949C64.8761 61.8666 66.1616 62.7528 67.0308 63.9919C67.9 65.2311 68.295 66.741 68.144 68.2468C67.9339 74.0618 63.2951 76.5655 57.347 76.3232C54.7609 76.2263 51.1403 76.0325 49.4917 75.8548L50.4615 47.8457ZM54.874 63.9986L54.6154 71.4612C55.685 71.6378 56.7647 71.7457 57.8481 71.7843C61.1939 71.8973 63.0526 70.5405 63.1496 67.8753C63.1496 65.5008 61.5333 64.2247 58.3006 64.1278L54.874 63.9986ZM55.2781 52.5462L54.9549 59.7665L58.3168 59.8796C58.8444 59.968 59.3849 59.9416 59.9014 59.8021C60.4178 59.6626 60.8981 59.4134 61.3093 59.0714C61.7206 58.7294 62.0531 58.3028 62.2842 57.8206C62.5154 57.3384 62.6396 56.8121 62.6485 56.2775C62.6485 53.9676 61.0322 52.6916 58.3168 52.6108C57.3052 52.5451 56.2909 52.5343 55.2781 52.5785V52.5462Z" fill="#1D1D1B"/>
<path d="M94.377 63.7564L86.6348 63.4818L86.1499 77.2764L81.511 77.1148L82.1414 58.959L99.1774 59.5566L98.5956 77.7125L93.9082 77.5348L94.377 63.7564Z" fill="#1D1D1B"/>
<path d="M113.142 59.6033C114.412 59.6194 115.666 59.8888 116.831 60.3958C117.995 60.9028 119.046 61.6371 119.923 62.5556C120.799 63.4741 121.483 64.5584 121.935 65.7447C122.386 66.931 122.596 68.1955 122.552 69.4639C122.508 70.7324 122.211 71.9792 121.678 73.1313C121.145 74.2834 120.387 75.3176 119.449 76.173C118.511 77.0285 117.411 77.688 116.214 78.1129C115.017 78.5379 113.748 78.7196 112.48 78.6475C111.21 78.6314 109.956 78.362 108.792 77.855C107.627 77.348 106.576 76.6137 105.7 75.6952C104.823 74.7767 104.139 73.6924 103.687 72.5061C103.236 71.3198 103.026 70.0553 103.07 68.7869C103.114 67.5184 103.412 66.2716 103.945 65.1195C104.477 63.9674 105.235 62.9332 106.173 62.0778C107.112 61.2223 108.211 60.5628 109.408 60.1379C110.605 59.7129 111.874 59.5312 113.142 59.6033ZM112.609 74.3024C113.286 74.3459 113.965 74.2467 114.602 74.0114C115.239 73.7761 115.819 73.4098 116.305 72.9363C116.791 72.4627 117.172 71.8925 117.423 71.2625C117.675 70.6325 117.791 69.9567 117.765 69.2789C117.752 68.3093 117.454 67.365 116.909 66.5627C116.365 65.7604 115.596 65.1353 114.7 64.7648C113.803 64.3942 112.818 64.2945 111.865 64.4778C110.912 64.6612 110.034 65.1197 109.34 65.7965C108.645 66.4734 108.164 67.3389 107.956 68.286C107.749 69.2332 107.823 70.2204 108.171 71.1255C108.519 72.0306 109.125 72.8139 109.914 73.3786C110.703 73.9432 111.64 74.2644 112.609 74.3024Z" fill="#1D1D1B"/>
<path d="M139.246 72.1878L131.294 71.9132L131.051 78.8428L126.412 78.6812L127.043 60.5254L131.698 60.6869L131.455 67.5519L139.408 67.8265L139.65 60.9615L144.289 61.123L143.659 79.295L139.004 79.1497L139.246 72.1878Z" fill="#1D1D1B"/>
<path d="M164.477 78.1958C162.434 79.655 159.952 80.3679 157.446 80.2149C151.595 80.0049 147.748 76.0798 148.006 70.3455C148 69.0727 148.258 67.8124 148.765 66.6448C149.273 65.4771 150.017 64.4278 150.952 63.5633C151.887 62.6989 152.992 62.0383 154.196 61.6236C155.4 61.2089 156.678 61.0492 157.947 61.1545C159.076 61.153 160.193 61.3813 161.23 61.8255C162.268 62.2698 163.204 62.9206 163.981 63.7384C164.759 64.5562 165.361 65.5237 165.752 66.5819C166.143 67.6401 166.314 68.7668 166.255 69.8932C166.262 70.7367 166.136 71.5761 165.883 72.3808L152.758 71.9285C152.909 73.2065 153.544 74.378 154.534 75.2015C155.523 76.025 156.791 76.4377 158.076 76.3544C159.915 76.4473 161.733 75.9306 163.248 74.8845L164.477 78.1958ZM152.71 68.811L161.632 69.134C161.677 68.5922 161.605 68.047 161.421 67.5354C161.237 67.0238 160.945 66.5578 160.564 66.1687C160.184 65.7797 159.725 65.4768 159.218 65.2806C158.71 65.0843 158.167 64.9993 157.624 65.0312C156.476 64.9098 155.325 65.2346 154.41 65.9384C153.495 66.6421 152.886 67.6708 152.71 68.811Z" fill="#1D1D1B"/>
<path d="M167.031 75.7722L169.326 75.853C170.683 74.2377 171.815 70.571 172.203 66.4682L172.639 62.123L186.039 62.5915L185.554 76.4184L188.592 76.5314L188.285 85.0924L183.921 84.9309L184.083 80.6989L171.152 80.2466L171.007 84.4786L166.675 84.3333L167.031 75.7722ZM174.175 76.0307L180.915 76.2568L181.254 66.7751L176.809 66.6297L176.615 68.4711C176.405 71.1472 175.569 73.7366 174.175 76.0307Z" fill="#1D1D1B"/>
<path d="M207.164 79.683C205.124 81.1483 202.64 81.8618 200.133 81.7021C194.282 81.4922 190.435 77.567 190.693 71.8327C190.687 70.5605 190.945 69.3008 191.452 68.134C191.96 66.9671 192.705 65.9187 193.64 65.0555C194.575 64.1923 195.68 63.5334 196.884 63.1205C198.088 62.7077 199.365 62.5502 200.634 62.6579C201.762 62.6541 202.879 62.8804 203.916 63.3229C204.954 63.7653 205.89 64.4147 206.667 65.2312C207.445 66.0477 208.048 67.0141 208.439 68.0715C208.83 69.1288 209.001 70.2548 208.942 71.3804C208.948 72.2292 208.823 73.0739 208.57 73.8841L195.445 73.4157C195.592 74.6923 196.224 75.8638 197.211 76.6876C198.198 77.5114 199.464 77.9246 200.747 77.8416C202.591 77.9345 204.414 77.4179 205.935 76.3717L207.164 79.683ZM195.397 70.3144L204.319 70.6213C204.362 70.0786 204.287 69.5331 204.101 69.0215C203.915 68.51 203.621 68.0442 203.24 67.6554C202.859 67.2667 202.399 66.9641 201.891 66.768C201.382 66.5719 200.838 66.4868 200.294 66.5184C199.147 66.4018 197.998 66.7309 197.086 67.4375C196.174 68.1442 195.57 69.1743 195.397 70.3144Z" fill="#1D1D1B"/>
<path d="M224.2 68.5696L219.351 68.3919L219.157 70.3302C217.928 80.1835 215.439 82.1541 210.558 81.9926L210.348 77.5344C211.964 77.7444 214.114 76.3391 214.761 69.3288L215.245 63.6914L229.016 64.176L228.37 82.3318L223.731 82.1703L224.2 68.5696Z" fill="#1D1D1B"/>
<path d="M234.189 64.2715L238.828 64.433L238.65 69.4566H241.155C247.329 69.6827 249.043 72.8164 248.93 76.0308C248.816 79.5037 246.505 82.8635 240.331 82.6373L233.542 82.4112L234.189 64.2715ZM238.52 73.1071L238.326 78.5506H240.395C242.901 78.6476 243.935 77.6299 244 75.9823C244.064 74.3347 243.127 73.204 240.622 73.1071H238.52Z" fill="#1D1D1B"/>
<path d="M265.254 76.5804L257.286 76.3058L257.043 83.2515L252.405 83.0738L253.035 64.918L257.69 65.0957L257.448 71.9445L265.4 72.2191L265.642 65.3703L270.281 65.5318L269.651 83.6876L265.012 83.5261L265.254 76.5804Z" fill="#1D1D1B"/>
<path d="M274.775 83.8648L275.405 65.709L280.044 65.8705L279.623 77.3714L288.513 66.1613L293.152 66.3228L292.554 84.4786L287.915 84.3171L288.303 72.8163L279.462 83.994L274.775 83.8648Z" fill="#1D1D1B"/>
<path d="M298.389 66.502L303.028 66.6635L302.397 84.8193L297.759 84.6578L298.389 66.502ZM308.297 75.4991L315.797 85.2878L309.752 85.0778L302.882 75.6768L309.735 66.9058L315.587 67.1158L308.297 75.4991Z" fill="#1D1D1B"/>
<path d="M343.032 83.5426C342.113 84.5554 340.973 85.343 339.7 85.8444C338.428 86.3459 337.057 86.5476 335.694 86.434C329.81 86.224 325.996 82.2988 326.174 76.5646C326.181 75.317 326.44 74.0837 326.937 72.9389C327.433 71.7942 328.156 70.7615 329.062 69.903C329.968 69.0445 331.038 68.3779 332.208 67.9432C333.378 67.5085 334.624 67.3148 335.871 67.3736C338.543 67.2938 341.139 68.2687 343.096 70.0873L340.785 73.6893C340.214 73.0782 339.523 72.5908 338.756 72.2574C337.988 71.9239 337.161 71.7516 336.324 71.751C335.65 71.725 334.979 71.8346 334.348 72.0734C333.718 72.3122 333.142 72.6752 332.655 73.1408C332.168 73.6065 331.78 74.1653 331.513 74.784C331.246 75.4027 331.107 76.0686 331.103 76.7422C331.061 77.435 331.162 78.1291 331.399 78.7814C331.636 79.4337 332.005 80.0305 332.482 80.5347C332.959 81.0389 333.535 81.4399 334.174 81.7127C334.812 81.9856 335.5 82.1246 336.195 82.1212C337.105 82.1599 338.012 81.9959 338.85 81.6411C339.689 81.2863 340.438 80.7495 341.044 80.0697L343.032 83.5426Z" fill="#1D1D1B"/>
<path d="M355.106 68.0355C356.976 68.1698 358.765 68.8512 360.25 69.9947C361.735 71.1382 362.851 72.6931 363.458 74.4659C364.065 76.2386 364.137 78.1507 363.664 79.9638C363.192 81.777 362.196 83.4111 360.8 84.6625C359.405 85.9138 357.672 86.7271 355.817 87.001C353.962 87.2749 352.068 86.9973 350.37 86.2028C348.672 85.4083 347.245 84.1319 346.268 82.5329C345.291 80.9338 344.806 79.0827 344.874 77.2103C344.881 75.9164 345.159 74.6381 345.689 73.4579C346.22 72.2776 346.992 71.2214 347.956 70.3572C348.919 69.4931 350.053 68.84 351.285 68.4402C352.516 68.0403 353.818 67.9024 355.106 68.0355ZM354.588 82.7669C355.266 82.8104 355.945 82.7112 356.581 82.4759C357.218 82.2406 357.798 81.8743 358.284 81.4008C358.77 80.9272 359.151 80.357 359.403 79.727C359.654 79.097 359.771 78.4212 359.745 77.7433C359.815 77.0662 359.742 76.3818 359.53 75.7348C359.318 75.0878 358.972 74.4927 358.514 73.9882C358.057 73.4838 357.498 73.0814 356.875 72.8072C356.251 72.5329 355.577 72.3931 354.896 72.3967C353.58 72.4451 352.332 72.9898 351.402 73.9212C350.472 74.8526 349.93 76.1015 349.885 77.4163C349.84 78.7311 350.295 80.0141 351.159 81.007C352.023 81.9998 353.231 82.6287 354.54 82.7669H354.588Z" fill="#1D1D1B"/>
<path d="M385.331 62.8026C382.842 65.5325 379.965 64.5471 376.393 66.1624C373.726 67.277 372.627 69.9422 372.239 72.8013C372.956 71.761 373.925 70.9191 375.055 70.3541C376.186 69.7892 377.441 69.5197 378.704 69.5707C383.715 69.7484 386.786 73.3343 386.672 78.7778C386.651 80.0283 386.376 81.2613 385.862 82.4017C385.348 83.5421 384.608 84.566 383.685 85.411C382.763 86.2559 381.677 86.9041 380.496 87.3161C379.314 87.7281 378.061 87.8952 376.813 87.8073C370.719 87.5973 367.115 82.9614 367.374 75.9672C367.584 70.0391 369.135 63.788 374.744 61.5912C378.801 59.9759 380.951 60.9612 382.923 58.8613L385.331 62.8026ZM376.958 83.5429C377.591 83.5836 378.224 83.4921 378.819 83.2742C379.414 83.0564 379.957 82.717 380.413 82.2778C380.869 81.8385 381.229 81.309 381.469 80.7231C381.709 80.1372 381.824 79.5077 381.807 78.8748C381.898 78.2571 381.854 77.6272 381.679 77.0281C381.503 76.429 381.2 75.8749 380.79 75.4038C380.38 74.9328 379.873 74.5559 379.304 74.2991C378.735 74.0422 378.116 73.9115 377.492 73.9158C376.411 73.8378 375.333 74.1098 374.419 74.6917C373.505 75.2736 372.803 76.1344 372.416 77.1464C372.336 80.7646 374.017 83.446 376.958 83.5429Z" fill="#1D1D1B"/>
<path d="M391.15 69.748L395.788 69.9095V71.6379C397.35 70.2565 399.396 69.5481 401.478 69.6672C406.472 69.8287 409.559 73.8185 409.382 79.1813C409.402 80.4722 409.155 81.7535 408.656 82.9443C408.156 84.1351 407.416 85.2097 406.48 86.1004C405.545 86.9911 404.435 87.6786 403.221 88.1196C402.007 88.5607 400.714 88.7457 399.425 88.663C397.96 88.66 396.517 88.2996 395.223 87.6131L394.932 96.1256L390.277 95.9803L391.15 69.748ZM395.594 75.8053L395.336 83.1387C396.439 83.9354 397.773 84.3495 399.134 84.3179C399.83 84.3668 400.529 84.2675 401.184 84.0264C401.839 83.7852 402.435 83.4079 402.934 82.9192C403.432 82.4306 403.82 81.8418 404.074 81.1919C404.327 80.5419 404.439 79.8456 404.403 79.1489C404.492 78.4986 404.439 77.8369 404.248 77.2089C404.057 76.581 403.732 76.0018 403.296 75.5109C402.86 75.0201 402.323 74.6291 401.722 74.3649C401.121 74.1007 400.47 73.9694 399.813 73.98C399.021 73.9692 398.235 74.1263 397.508 74.4409C396.781 74.7555 396.129 75.2205 395.594 75.8053Z" fill="#1D1D1B"/>
<path d="M413.875 71.8327C415.871 70.7989 418.093 70.2771 420.34 70.3144C425.723 70.5082 427.517 73.3188 427.355 78.1162L426.967 89.1809L422.926 89.0356L423.007 86.9357C422.331 87.6992 421.483 88.2919 420.534 88.6653C419.584 89.0387 418.56 89.1822 417.544 89.084C416.789 89.12 416.035 88.9932 415.334 88.7122C414.632 88.4313 413.999 88.0027 413.478 87.4558C412.956 86.9088 412.559 86.2561 412.312 85.542C412.066 84.828 411.976 84.0693 412.049 83.3174C412.194 79.3277 415.2 77.5347 418.869 77.6639C420.331 77.6943 421.752 78.1489 422.959 78.9723C423.185 75.9517 422.425 74.2718 419.726 74.1264C418.047 74.0977 416.385 74.4687 414.877 75.2087L413.875 71.8327ZM422.813 83.7051V81.8475C421.881 81.1562 420.741 80.803 419.581 80.846C418.045 80.846 416.655 81.4599 416.59 82.9944C416.526 84.5289 417.657 85.175 419.112 85.2235C419.808 85.3149 420.516 85.2229 421.165 84.9565C421.814 84.6902 422.382 84.2588 422.813 83.7051Z" fill="#1D1D1B"/>
<path d="M444.585 82.8479L436.633 82.5572L436.39 89.5029L431.752 89.3414L432.382 71.1855L437.021 71.3471L436.794 78.212L444.747 78.4867L444.973 71.6217L449.628 71.7832L448.982 89.939L444.343 89.7775L444.585 82.8479Z" fill="#1D1D1B"/>
<path d="M454.186 90.1168L454.833 71.9609L459.471 72.1225L459.035 83.6233L467.925 72.4294L472.564 72.5909L471.966 90.7467L467.311 90.5852L467.715 79.0844L458.841 90.2783L454.186 90.1168Z" fill="#1D1D1B"/>
<path d="M492.751 89.6481C490.712 91.1145 488.227 91.8282 485.72 91.6672C484.4 91.7489 483.077 91.5551 481.835 91.0981C480.593 90.6411 479.46 89.9309 478.508 89.0126C477.556 88.0943 476.806 86.9881 476.305 85.7642C475.804 84.5404 475.563 83.2257 475.598 81.9039C475.633 80.582 475.943 79.2818 476.508 78.0861C477.072 76.8904 477.88 75.8252 478.879 74.9584C479.879 74.0915 481.047 73.442 482.311 73.0511C483.575 72.6601 484.907 72.5363 486.222 72.6875C487.35 72.6838 488.466 72.91 489.504 73.3525C490.541 73.795 491.477 74.4443 492.255 75.2608C493.033 76.0773 493.636 77.0438 494.027 78.1011C494.418 79.1585 494.589 80.2844 494.529 81.4101C494.536 82.2589 494.411 83.1035 494.158 83.9138L481.033 83.4454C481.18 84.722 481.812 85.8934 482.799 86.7172C483.786 87.5411 485.052 87.9542 486.335 87.8712C488.179 87.9641 490.002 87.4475 491.523 86.4013L492.751 89.6481ZM480.985 80.2794L489.907 80.5863C489.949 80.0436 489.875 79.4981 489.689 78.9866C489.503 78.475 489.209 78.0092 488.828 77.6205C488.446 77.2318 487.986 76.9292 487.478 76.733C486.97 76.5369 486.426 76.4518 485.882 76.4835C484.734 76.3668 483.585 76.6959 482.674 77.4026C481.762 78.1092 481.157 79.1393 480.985 80.2794Z" fill="#1D1D1B"/>
</g>
<g clip-path="url(#clip1_2028_2)">
<path d="M303.817 215.893C287.39 218.746 272.772 228.018 263.178 241.669C253.585 255.32 249.801 272.233 252.659 288.687L253.866 295.692C255.281 303.841 258.285 311.632 262.706 318.621C267.127 325.61 272.878 331.659 279.632 336.423C286.385 341.188 294.009 344.574 302.067 346.389C310.125 348.204 318.46 348.411 326.596 347L622.66 295.593C639.084 292.736 653.697 283.463 663.287 269.813C672.877 256.163 676.659 239.254 673.802 222.802L672.607 215.847C671.192 207.698 668.188 199.907 663.767 192.918C659.346 185.929 653.595 179.88 646.841 175.115C640.088 170.351 632.464 166.965 624.406 165.15C616.348 163.335 608.013 163.128 599.877 164.539L303.817 215.893Z" fill="#FDDF95"/>
<path d="M342.269 289.699C340.095 292.375 336.984 294.122 333.569 294.584C324.7 296.111 317.594 291.237 316.026 282.206C314.582 273.89 318.673 266.326 328.236 264.662C331.415 263.988 334.731 264.489 337.57 266.073L335.968 270.249C333.82 269.241 331.406 268.954 329.083 269.431C323.702 270.359 320.316 274.957 321.419 281.258C321.572 282.619 322.009 283.932 322.7 285.113C323.392 286.294 324.323 287.317 325.434 288.116C326.545 288.914 327.81 289.471 329.149 289.749C330.487 290.027 331.869 290.021 333.204 289.731C335.69 289.302 337.965 288.064 339.678 286.21L342.269 289.699Z" fill="#1D1D1B"/>
<path d="M342.972 287.913L345.326 287.489C346.511 284.231 346.838 280.722 346.277 277.299L345.784 272.772L359.533 270.389L361.975 284.651L365.08 284.111L366.604 292.893L362.137 293.664L361.379 289.324L348.095 291.628L348.996 295.915L344.577 296.675L342.972 287.913ZM350.291 286.629L357.202 285.446L355.509 275.699L350.96 276.491L351.159 278.42C351.515 281.187 351.218 283.999 350.291 286.629Z" fill="#1D1D1B"/>
<path d="M366.232 270.593C368.027 269.12 370.16 268.117 372.439 267.676C377.935 266.72 380.378 269.187 381.245 274.177L383.214 285.537L379.081 286.261L378.704 284.1C378.179 285.021 377.444 285.806 376.559 286.389C375.673 286.972 374.663 287.337 373.609 287.454C372.85 287.648 372.058 287.676 371.286 287.538C370.514 287.4 369.781 287.098 369.135 286.653C368.489 286.208 367.945 285.629 367.541 284.957C367.136 284.284 366.879 283.533 366.788 282.753C366.07 278.646 368.749 276.165 372.518 275.513C374.008 275.242 375.545 275.405 376.945 275.983C376.538 272.857 375.409 271.297 372.651 271.838C370.946 272.164 369.345 272.898 367.984 273.977L366.232 270.593ZM377.841 280.739L377.508 278.827C376.45 278.36 375.268 278.256 374.145 278.529C372.484 278.817 371.287 279.788 371.572 281.366C371.857 282.943 373.103 283.364 374.596 283.1C375.293 283.015 375.956 282.753 376.524 282.34C377.092 281.927 377.545 281.377 377.841 280.739Z" fill="#1D1D1B"/>
<path d="M403.823 280.006C402.058 281.932 399.681 283.186 397.096 283.554C391.103 284.598 386.402 281.404 385.384 275.515C385.102 274.217 385.094 272.874 385.359 271.573C385.625 270.272 386.159 269.041 386.927 267.959C387.695 266.877 388.68 265.967 389.82 265.288C390.959 264.609 392.227 264.176 393.544 264.016C394.691 263.774 395.876 263.768 397.026 263.999C398.176 264.231 399.267 264.694 400.232 265.362C401.197 266.03 402.016 266.888 402.64 267.884C403.263 268.879 403.677 269.991 403.856 271.152C404.045 272.01 404.099 272.892 404.016 273.766L390.569 276.11C390.985 277.383 391.874 278.447 393.053 279.08C394.231 279.713 395.608 279.868 396.896 279.511C398.794 279.213 400.54 278.294 401.862 276.899L403.823 280.006ZM387.951 256.359C388.29 256.308 388.636 256.325 388.969 256.409C389.301 256.494 389.613 256.644 389.887 256.852C390.161 257.059 390.39 257.319 390.562 257.616C390.734 257.913 390.845 258.242 390.889 258.583C390.978 258.925 390.997 259.282 390.943 259.631C390.89 259.981 390.766 260.316 390.579 260.615C390.392 260.915 390.145 261.173 389.855 261.373C389.564 261.574 389.236 261.713 388.889 261.782C388.528 261.857 388.155 261.856 387.794 261.779C387.432 261.701 387.091 261.55 386.792 261.333C386.492 261.116 386.241 260.839 386.054 260.52C385.868 260.201 385.749 259.846 385.707 259.479C385.634 259.125 385.635 258.759 385.71 258.405C385.785 258.052 385.933 257.718 386.144 257.424C386.355 257.131 386.624 256.885 386.936 256.701C387.247 256.518 387.592 256.401 387.951 256.359ZM389.84 272.942L398.987 271.346C398.907 270.795 398.712 270.266 398.414 269.794C398.117 269.323 397.723 268.919 397.26 268.61C396.797 268.3 396.274 268.092 395.725 267.998C395.176 267.904 394.614 267.927 394.075 268.065C392.879 268.18 391.773 268.75 390.986 269.657C390.198 270.565 389.788 271.74 389.84 272.942ZM396.135 254.931C396.476 254.872 396.825 254.884 397.161 254.965C397.497 255.047 397.813 255.196 398.09 255.404C398.366 255.612 398.597 255.874 398.769 256.174C398.941 256.475 399.05 256.807 399.089 257.151C399.161 257.662 399.08 258.183 398.857 258.647C398.634 259.112 398.278 259.5 397.835 259.762C397.392 260.024 396.881 260.149 396.366 260.12C395.852 260.092 395.358 259.911 394.946 259.601C394.533 259.292 394.222 258.867 394.051 258.38C393.88 257.893 393.856 257.367 393.984 256.867C394.111 256.368 394.383 255.917 394.766 255.572C395.149 255.228 395.625 255.005 396.135 254.931Z" fill="#1D1D1B"/>
<path d="M406.292 262.278L410.592 261.531L418.304 268.301L422.95 259.473L427.131 258.737L430.381 277.396L425.615 278.224L423.638 266.831L419.358 274.823L419.243 274.851L412.325 268.769L414.355 280.097L409.606 280.921L406.292 262.278Z" fill="#1D1D1B"/>
<path d="M456.121 265.502L447.97 266.921L449.209 274.056L444.444 274.884L441.195 256.225L445.96 255.397L447.196 262.447L455.347 261.027L454.112 253.978L458.877 253.15L462.126 271.809L457.361 272.637L456.121 265.502Z" fill="#1D1D1B"/>
<path d="M464.662 253.51C466.46 252.041 468.594 251.044 470.873 250.608C476.368 249.653 478.812 252.12 479.678 257.11L481.648 268.47L477.515 269.194L477.138 267.032C476.615 267.957 475.882 268.744 474.997 269.33C474.112 269.916 473.101 270.284 472.047 270.403C471.286 270.597 470.492 270.626 469.719 270.487C468.946 270.349 468.211 270.045 467.564 269.598C466.918 269.151 466.374 268.571 465.97 267.896C465.566 267.221 465.311 266.467 465.222 265.686C464.504 261.579 467.186 259.114 470.956 258.462C472.446 258.184 473.984 258.347 475.383 258.932C474.972 255.79 473.847 254.246 471.089 254.787C469.383 255.111 467.782 255.845 466.422 256.926L464.662 253.51ZM476.287 263.721L475.954 261.809C474.88 261.318 473.676 261.195 472.526 261.457C470.951 261.741 469.672 262.733 469.952 264.294C470.233 265.855 471.484 266.293 472.981 266.045C473.685 265.973 474.358 265.722 474.937 265.315C475.516 264.908 475.981 264.36 476.287 263.721Z" fill="#1D1D1B"/>
<path d="M492.131 247.363L496.897 246.535L499.363 260.756L504.606 259.898L502.139 245.677L506.904 244.849L509.371 259.07L514.671 258.162L512.204 243.941L516.969 243.114L520.202 261.777L495.295 266.095L492.131 247.363Z" fill="#1D1D1B"/>
<path d="M520.331 242.492L537.299 239.54L538.129 244.313L532.051 245.361L534.473 259.263L529.708 260.091L527.285 246.189L521.161 247.265L520.331 242.492Z" fill="#1D1D1B"/>
<path d="M549.079 237.037C551.008 236.777 552.97 237.092 554.723 237.941C556.475 238.791 557.94 240.137 558.934 241.813C559.929 243.49 560.409 245.421 560.315 247.368C560.222 249.315 559.559 251.191 558.408 252.762C557.258 254.333 555.671 255.53 553.845 256.204C552.02 256.879 550.036 257 548.141 256.553C546.247 256.106 544.525 255.111 543.189 253.692C541.854 252.273 540.965 250.492 540.633 248.571C540.365 247.251 540.375 245.889 540.663 244.573C540.951 243.257 541.51 242.016 542.306 240.93C543.101 239.844 544.114 238.937 545.281 238.266C546.447 237.596 547.741 237.177 549.079 237.037ZM551.702 252.173C552.776 252.044 553.787 251.596 554.604 250.885C555.421 250.175 556.006 249.236 556.284 248.189C556.563 247.142 556.522 246.035 556.166 245.011C555.81 243.988 555.156 243.094 554.289 242.446C553.421 241.797 552.38 241.424 551.299 241.374C550.218 241.324 549.147 241.599 548.224 242.165C547.302 242.73 546.57 243.56 546.123 244.547C545.676 245.533 545.534 246.631 545.717 247.7C545.785 248.401 545.998 249.079 546.344 249.693C546.689 250.306 547.159 250.841 547.722 251.262C548.286 251.683 548.931 251.982 549.616 252.139C550.302 252.296 551.012 252.307 551.702 252.173Z" fill="#1D1D1B"/>
<path d="M563.43 234.991L568.196 234.163L568.517 235.957C569.809 234.211 571.736 233.045 573.88 232.709C579.013 231.826 583.003 235.23 583.966 240.751C584.263 242.063 584.285 243.422 584.031 244.742C583.777 246.063 583.253 247.316 582.491 248.423C581.729 249.53 580.746 250.467 579.605 251.174C578.463 251.881 577.187 252.343 575.858 252.532C574.371 252.85 572.829 252.795 571.369 252.372L572.885 261.121L568.119 261.949L563.43 234.991ZM569.255 240.215L570.562 247.767C571.858 248.332 573.299 248.475 574.68 248.174C575.401 248.072 576.092 247.819 576.708 247.43C577.324 247.042 577.851 246.527 578.254 245.92C578.657 245.312 578.927 244.627 579.047 243.907C579.166 243.188 579.132 242.451 578.947 241.745C578.899 241.062 578.703 240.397 578.374 239.796C578.045 239.195 577.59 238.673 577.04 238.265C576.49 237.856 575.859 237.572 575.19 237.431C574.52 237.29 573.828 237.296 573.161 237.448C572.35 237.608 571.583 237.938 570.91 238.418C570.237 238.898 569.674 239.516 569.259 240.231L569.255 240.215Z" fill="#1D1D1B"/>
<path d="M586.555 231.024L591.32 230.197L592.194 235.288L594.52 234.889C600.848 233.797 603.257 236.62 603.835 239.946C604.413 243.272 602.839 247.424 596.495 248.52L589.853 249.671L586.555 231.024ZM592.86 239.113L593.839 244.7L595.699 244.38C598.274 243.936 599.109 242.689 598.808 240.977C598.507 239.265 597.323 238.325 594.802 238.773L592.86 239.113ZM604.486 227.905L609.235 227.081L612.484 245.74L607.718 246.568L604.486 227.905Z" fill="#1D1D1B"/>
</g>
<defs>
<clipPath id="clip0_2028_2">
<rect width="534" height="142" fill="white"/>
</clipPath>
<clipPath id="clip1_2028_2">
<rect width="426" height="154" fill="white" transform="translate(238 231.961) rotate(-13.8479)"/>
</clipPath>
</defs>
</svg>
