<svg width="520" height="398" viewBox="0 0 520 398" fill="none" xmlns="http://www.w3.org/2000/svg">
<g clip-path="url(#clip0_29_362)">
<mask id="mask0_29_362" style="mask-type:luminance" maskUnits="userSpaceOnUse" x="0" y="0" width="520" height="398">
<path d="M58.9703 5.14835e-05L519.731 87.5225L460.761 397.971L-2.02656e-05 310.449L58.9703 5.14835e-05Z" fill="white"/>
</mask>
<g mask="url(#mask0_29_362)">
<path d="M470.555 107.582C474.353 113.619 478.012 125.331 478.214 148.025C478.589 195.89 474.065 277.156 472.849 291.065C471.633 304.975 461.573 330.668 450.933 334.029C440.292 337.389 347.708 348.084 325.061 342.436C302.414 336.789 225.438 327.549 210.488 321.341C195.539 315.133 144.344 300.027 133.515 294.602C122.686 289.177 80.7435 267.747 70.3743 262.418C60.0051 257.09 25.6026 196.015 25.6026 196.015C25.6026 196.015 35.3129 147.365 54.3188 142.198C73.3247 137.03 97.9515 139.713 108.433 136.991C118.915 134.268 163.74 127.974 194.662 115.003C225.584 102.032 276.958 78.7958 276.958 78.7958C276.958 78.7958 305.046 95.6656 315.232 114.451C348.661 176.009 396.554 97.9946 445.774 98.0579C453.465 98.0701 465.556 99.6234 470.555 107.582Z" fill="#80D4F3"/>
<path d="M470.555 107.582C471.975 109.917 473.117 112.41 473.957 115.012C458.287 119.562 444.396 124.723 439.881 129.821C427.784 143.517 397.789 168.998 382.126 174.152C344.271 186.624 284.4 150.809 269.905 96.5172L291.4 88.9151C299.891 95.5333 309.974 104.74 315.232 114.451C348.661 176.008 396.554 97.9946 445.774 98.0579C453.465 98.0701 465.554 99.6325 470.555 107.582Z" fill="#D9F7FA"/>
<path d="M108.431 137C118.911 134.286 163.738 127.983 194.66 115.012C225.582 102.041 276.957 78.8049 276.957 78.8049C281.953 81.902 286.775 85.2711 291.403 88.8969L269.905 96.5171C274.501 113.714 283.655 129.047 295.215 141.592C289 147.092 282.27 152.738 275.104 158.057C258.173 170.627 236.983 180.922 225.716 185.904C191.125 201.198 159.203 208.024 133.098 203.441C111.614 199.671 100.944 166.738 103.946 137.794C105.458 137.621 106.959 137.356 108.44 137.002" fill="#45B2BF"/>
<path d="M138.458 296.736C136.371 295.916 134.678 295.199 133.479 294.595C122.65 289.17 80.7073 267.74 70.3381 262.411C59.9689 257.083 25.5664 196.008 25.5664 196.008C25.5664 196.008 30.096 173.348 39.0057 157.315C46.3571 170.331 59.2258 189.569 78.0007 205.178C109.554 231.362 190.07 238.066 190.07 238.066L171.727 283.561L138.458 296.736Z" fill="#00AAE7"/>
<path d="M473.135 111.883C475.973 118.725 478.055 130.044 478.214 148.025C478.274 157.586 478.179 168.51 477.928 179.959C477.928 179.959 445.292 162.14 427.765 173.253C410.239 184.365 383.157 187.491 368.531 181.505L353.886 175.524C370.431 173.285 397.096 155.507 407.515 140.617C417.934 125.727 423.429 116.751 436.298 106.4C438.895 104.274 441.833 102.605 444.986 101.465C455.541 97.7117 467.798 99.1274 473.135 111.883Z" fill="#E62645"/>
<path d="M346.946 320.185C346.946 320.185 450.303 260.383 447.232 234.219C444.161 208.054 398.794 227.031 373.719 231.695C348.644 236.359 334.693 232.355 322.147 218.531C309.601 204.707 306.801 181.953 294.088 188.965C281.375 195.978 232.786 217.043 209.009 227.373C185.232 237.702 134.521 279.872 134.521 279.872C134.521 279.872 198.886 303.736 218.578 306.611C238.271 309.486 293.394 332.263 315.476 328.385C337.558 324.507 346.898 320.241 346.898 320.241" fill="#0047BA"/>
<path d="M233.919 216.515L224.897 220.446C234.904 261.861 253.013 289.227 273.846 307.484C283.742 316.124 294.84 323.274 306.791 328.711C309.704 328.916 312.632 328.797 315.519 328.356C322.382 327.147 328.014 325.903 332.52 324.754C315.014 319.802 296.234 311.38 279.391 296.617C260.144 279.79 243.383 254.515 233.926 216.478" fill="white"/>
<path d="M385.125 296.126C391.249 291.992 397.621 287.539 403.853 282.937C377.632 286.423 348.875 278.27 323.683 261.32C300.972 245.976 282.742 224.853 270.859 200.114C267.85 201.481 264.699 202.905 261.44 204.356C273.896 232.069 293.791 255.76 318.906 272.785C339.613 286.719 362.707 294.954 385.125 296.126Z" fill="white"/>
<path d="M472.849 291.065C473.949 305.805 473.677 320.617 472.035 335.309C469.279 359.698 463.395 380.794 450.5 383.726C437.605 386.658 290.555 366.816 245.476 356.908C200.398 347 130.902 335.822 89.6369 315.866C48.3715 295.91 17.7891 257.105 16.7354 232.67C15.6817 208.234 29.1684 182.034 29.1684 182.034C29.1684 182.034 57.5999 232.36 80.6782 248.184C103.756 264.008 135.897 272.136 150.317 266.116C164.737 260.096 185.186 249.849 206.206 274.041C227.225 298.234 253.756 313.368 276.064 318.283C298.371 323.198 314.745 316.872 335.824 310.818C356.903 304.765 385.854 309.53 409.778 310.725C434.066 311.933 449.597 313.5 472.804 291.057" fill="#D9F7FA"/>
<path d="M465.365 366.82C461.91 375.92 457.133 382.248 450.495 383.753C437.607 386.696 290.55 366.844 245.471 356.935C200.392 347.027 130.897 335.849 89.6316 315.893C48.3663 295.937 17.7838 257.133 16.7301 232.697C16.5865 228.854 16.7466 225.005 17.2087 221.187C24.0595 232.64 33.1531 246.363 44.4892 258.753C62.5116 278.471 86.4575 294.667 101.262 301.44C131.368 315.241 220.621 342.289 315.364 352.882C390.049 363.361 442.691 366.107 465.365 366.82Z" fill="white"/>
<path d="M325.89 85.5126C313.985 118.25 263.198 161.562 224.907 175.834C186.617 190.105 137.429 206.127 126.319 187.213C115.209 168.3 111.362 136.39 111.362 136.39C151.151 123.269 187.552 112.373 214.581 99.0012C249.177 81.8544 243.348 81.6692 288.689 56.9013C307.241 46.7644 343.039 38.5016 325.89 85.5126Z" fill="#F0813C"/>
<path d="M208.03 102.122C210.27 101.099 212.456 100.065 214.581 99.0012L218.55 97.0267L247.076 150.512C247.076 150.512 241.278 153.814 235.124 148.082C230.018 143.349 213.514 112.525 208.029 102.131" fill="#E54A4A"/>
<path d="M125.924 131.601L137.921 127.717L158.025 182.416C155.759 182.628 153.475 182.33 151.34 181.541C149.205 180.753 147.274 179.496 145.688 177.862C140.802 173.058 129.291 141.141 125.933 131.603" fill="#E54A4A"/>
<path d="M164.556 118.89C168.455 117.561 172.28 116.227 176.031 114.889L202.925 168.469C202.925 168.469 194.807 170.85 189.126 164.794C185.179 160.582 170.324 131.003 164.547 118.936" fill="#E54A4A"/>
<path d="M247.388 80.9501C255.978 75.6385 265.832 69.4004 288.688 56.9104C292.065 55.0764 295.578 53.5073 299.196 52.2173C305.102 57.5821 313.764 67.8456 310.378 79.7436C305.398 97.2662 273.637 115.102 273.637 115.102L247.388 80.9501Z" fill="#D9F7FA"/>
<path d="M210.003 155.851L187.297 108.778C182.765 99.3929 166.841 107.799 171.048 116.323L195.086 165.032C199.036 173.036 215.121 166.448 210.012 155.853" fill="#F2E5C7"/>
<path d="M167.482 170.317L148.087 121.764C144.221 112.083 127.752 119.36 131.354 128.154L151.96 178.432C155.344 186.696 171.847 181.269 167.482 170.317Z" fill="#F2E5C7"/>
<path d="M257.494 134.982L227.628 87.9126C222.097 79.1942 207.058 88.1733 212.141 96.8818L240.41 145.294C247.736 157.854 264.461 145.921 257.521 134.987" fill="#F2E5C7"/>
</g>
</g>
<defs>
<clipPath id="clip0_29_362">
<rect width="469" height="316" fill="white" transform="matrix(-0.982433 -0.186615 -0.186615 0.982433 519.731 87.5225)"/>
</clipPath>
</defs>
</svg>
