<svg width="1618" height="1244" viewBox="0 0 1618 1244" fill="none" xmlns="http://www.w3.org/2000/svg">
<circle cx="773.422" cy="703.746" r="540.254" fill="#80D4F3"/>
<g clip-path="url(#clip0_2036_4)">
<path d="M1019.99 172H995.992V340H1019.99V172Z" fill="#0047BA"/>
<path d="M1092 243.992H924V267.989H1092V243.992Z" fill="#0047BA"/>
<path d="M1058.9 188.112L940.111 306.906L957.079 323.874L1075.87 205.08L1058.9 188.112Z" fill="#0047BA"/>
<path d="M957.079 188.126L940.111 205.094L1058.9 323.888L1075.87 306.92L957.079 188.126Z" fill="#0047BA"/>
<path d="M1028.78 173.732L965.004 329.156L987.205 338.266L1050.98 182.842L1028.78 173.732Z" fill="#0047BA"/>
<path d="M934.841 213.024L925.731 235.224L1081.16 299L1090.26 276.799L934.841 213.024Z" fill="#0047BA"/>
<path d="M1080.88 212.51L925.879 277.315L935.136 299.455L1090.13 234.65L1080.88 212.51Z" fill="#0047BA"/>
<path d="M986.649 173.888L964.509 183.145L1029.31 338.142L1051.45 328.885L986.649 173.888Z" fill="#0047BA"/>
</g>
<g clip-path="url(#clip1_2036_4)">
<mask id="mask0_2036_4" style="mask-type:luminance" maskUnits="userSpaceOnUse" x="1190" y="485" width="285" height="298">
<path d="M1475 485H1190V783H1475V485Z" fill="white"/>
</mask>
<g mask="url(#mask0_2036_4)">
<path d="M1361.65 703.652C1359.58 709.224 1359.2 715.286 1360.58 721.069C1361.96 726.852 1365.03 732.098 1369.4 736.142C1373.77 740.187 1379.24 742.849 1385.13 743.792C1391.02 744.735 1397.05 743.916 1402.47 741.44C1407.89 738.963 1412.45 734.94 1415.58 729.878C1418.7 724.817 1420.26 718.945 1420.03 713.004C1419.81 707.064 1417.83 701.322 1414.34 696.504C1410.85 691.687 1406 688.01 1400.41 685.939C1392.92 683.168 1384.62 683.477 1377.36 686.798C1370.09 690.119 1364.44 696.181 1361.65 703.652Z" fill="#1D1D1B"/>
<path d="M1193.74 579.435C1191.85 584.539 1191.52 590.087 1192.79 595.378C1194.06 600.669 1196.88 605.466 1200.88 609.162C1204.88 612.859 1209.9 615.29 1215.28 616.148C1220.67 617.006 1226.19 616.253 1231.15 613.983C1236.11 611.713 1240.29 608.029 1243.15 603.396C1246.01 598.763 1247.42 593.388 1247.22 587.951C1247.02 582.514 1245.21 577.259 1242.01 572.849C1238.82 568.439 1234.38 565.072 1229.27 563.174C1225.87 561.907 1222.25 561.323 1218.62 561.456C1214.99 561.588 1211.42 562.434 1208.12 563.945C1204.82 565.456 1201.85 567.602 1199.38 570.26C1196.91 572.918 1195 576.036 1193.74 579.435Z" fill="#1D1D1B"/>
<path d="M1193.1 648.649C1186.99 673.754 1190.06 700.205 1201.74 723.263C1213.42 746.32 1232.95 764.478 1256.83 774.482C1280.72 784.486 1307.39 785.683 1332.08 777.858C1356.77 770.033 1377.86 753.699 1391.57 731.78C1405.28 709.862 1410.71 683.792 1406.9 658.242C1403.08 632.692 1390.27 609.331 1370.75 592.345C1351.23 575.359 1326.29 565.857 1300.39 565.543C1274.48 565.228 1249.31 574.121 1229.38 590.629C1211.34 605.574 1198.62 625.92 1193.1 648.649Z" fill="#F8C09E"/>
<path d="M1285.61 669.701C1285.18 671.437 1285.28 673.259 1285.9 674.937C1286.51 676.616 1287.61 678.075 1289.06 679.13C1290.5 680.185 1292.23 680.788 1294.02 680.864C1295.81 680.94 1297.58 680.484 1299.11 679.555C1300.64 678.626 1301.86 677.265 1302.62 675.645C1303.37 674.024 1303.63 672.217 1303.35 670.452C1303.08 668.686 1302.28 667.043 1301.07 665.728C1299.85 664.414 1298.28 663.488 1296.53 663.068C1295.38 662.786 1294.18 662.734 1293.01 662.915C1291.83 663.097 1290.71 663.507 1289.69 664.123C1288.68 664.739 1287.79 665.549 1287.09 666.507C1286.39 667.464 1285.89 668.549 1285.61 669.701Z" fill="#1D1D1B"/>
<path d="M1208.62 651.09C1208.19 652.826 1208.29 654.648 1208.91 656.327C1209.52 658.005 1210.62 659.464 1212.07 660.519C1213.51 661.574 1215.24 662.178 1217.03 662.253C1218.82 662.329 1220.59 661.873 1222.12 660.944C1223.65 660.015 1224.87 658.654 1225.63 657.034C1226.38 655.413 1226.64 653.606 1226.36 651.841C1226.08 650.076 1225.29 648.432 1224.08 647.117C1222.86 645.803 1221.29 644.877 1219.54 644.457C1217.21 643.901 1214.76 644.286 1212.71 645.529C1210.66 646.771 1209.19 648.771 1208.62 651.09Z" fill="#1D1D1B"/>
<path d="M1268.67 711.356C1267.16 706.529 1264.53 702.115 1260.99 698.471C1257.46 694.827 1253.12 692.056 1248.32 690.385C1243.49 688.835 1238.37 688.439 1233.38 689.229C1228.39 690.019 1223.67 691.972 1219.6 694.93L1268.67 711.356Z" fill="white"/>
<path d="M1206.38 527.864C1203.77 534.877 1203.3 542.505 1205.03 549.783C1206.77 557.061 1210.63 563.662 1216.13 568.751C1221.63 573.84 1228.52 577.189 1235.93 578.374C1243.34 579.558 1250.93 578.525 1257.75 575.406C1264.57 572.286 1270.31 567.22 1274.24 560.849C1278.17 554.477 1280.12 547.086 1279.84 539.61C1279.55 532.134 1277.06 524.91 1272.66 518.85C1268.26 512.791 1262.15 508.169 1255.12 505.568C1245.69 502.083 1235.26 502.474 1226.12 506.655C1216.98 510.836 1209.88 518.465 1206.38 527.864Z" fill="#1D1D1B"/>
<path d="M1266.71 512.202C1263.84 519.932 1263.32 528.339 1265.24 536.36C1267.15 544.381 1271.41 551.656 1277.47 557.265C1283.53 562.874 1291.12 566.564 1299.29 567.871C1307.45 569.177 1315.82 568.04 1323.34 564.603C1330.85 561.167 1337.18 555.585 1341.51 548.564C1345.85 541.543 1348 533.397 1347.69 525.158C1347.38 516.919 1344.63 508.955 1339.79 502.274C1334.94 495.594 1328.22 490.496 1320.47 487.626C1315.32 485.72 1309.84 484.843 1304.36 485.047C1298.87 485.25 1293.48 486.53 1288.48 488.812C1283.49 491.094 1279 494.334 1275.27 498.348C1271.53 502.361 1268.62 507.069 1266.71 512.202Z" fill="#1D1D1B"/>
<path d="M1327.65 532.402C1324.55 540.768 1324.01 549.863 1326.09 558.536C1328.18 567.209 1332.79 575.071 1339.36 581.129C1345.92 587.186 1354.14 591.166 1362.98 592.566C1371.81 593.967 1380.86 592.724 1388.99 588.995C1397.11 585.266 1403.95 579.219 1408.62 571.617C1413.3 564.016 1415.62 555.202 1415.27 546.29C1414.93 537.378 1411.94 528.768 1406.69 521.548C1401.44 514.329 1394.16 508.824 1385.77 505.73C1374.51 501.585 1362.07 502.067 1351.17 507.068C1340.27 512.07 1331.81 521.182 1327.65 532.402Z" fill="#1D1D1B"/>
<path d="M1380.06 577.892C1376.69 586.95 1376.08 596.803 1378.32 606.204C1380.57 615.605 1385.55 624.131 1392.66 630.706C1399.76 637.28 1408.66 641.607 1418.22 643.138C1427.79 644.67 1437.6 643.337 1446.41 639.31C1455.22 635.282 1462.63 628.74 1467.71 620.511C1472.79 612.282 1475.31 602.735 1474.95 593.079C1474.59 583.423 1471.36 574.09 1465.68 566.262C1460 558.434 1452.12 552.462 1443.03 549.101C1430.85 544.601 1417.38 545.107 1405.57 550.505C1393.77 555.903 1384.59 565.753 1380.06 577.892Z" fill="#1D1D1B"/>
<path d="M1396.79 641.624C1394.31 648.269 1393.87 655.497 1395.51 662.393C1397.16 669.29 1400.81 675.545 1406.02 680.368C1411.24 685.191 1417.76 688.365 1424.78 689.489C1431.8 690.612 1439 689.635 1445.46 686.681C1451.92 683.726 1457.36 678.927 1461.09 672.891C1464.81 666.854 1466.66 659.851 1466.4 652.767C1466.13 645.683 1463.77 638.837 1459.6 633.094C1455.43 627.351 1449.65 622.969 1442.98 620.503C1434.05 617.196 1424.16 617.564 1415.5 621.525C1406.84 625.485 1400.1 632.715 1396.79 641.624Z" fill="#1D1D1B"/>
<path d="M1384.75 673.87C1382.34 680.277 1381.89 687.253 1383.46 693.915C1385.03 700.576 1388.55 706.622 1393.58 711.286C1398.6 715.95 1404.89 719.022 1411.67 720.113C1418.44 721.204 1425.39 720.264 1431.63 717.413C1437.87 714.561 1443.12 709.927 1446.71 704.097C1450.3 698.267 1452.08 691.505 1451.82 684.667C1451.55 677.829 1449.25 671.224 1445.22 665.689C1441.18 660.154 1435.59 655.939 1429.15 653.578C1420.56 650.43 1411.07 650.797 1402.75 654.598C1394.44 658.4 1387.96 665.328 1384.75 673.87Z" fill="#1D1D1B"/>
<path d="M1367.87 677.739C1366.55 681.335 1366.32 685.24 1367.23 688.961C1368.14 692.682 1370.13 696.052 1372.95 698.646C1375.78 701.239 1379.31 702.94 1383.1 703.532C1386.89 704.125 1390.78 703.584 1394.26 701.976C1397.75 700.369 1400.68 697.768 1402.68 694.502C1404.69 691.235 1405.67 687.45 1405.52 683.624C1405.37 679.798 1404.08 676.104 1401.82 673.006C1399.57 669.909 1396.44 667.549 1392.84 666.223C1390.44 665.341 1387.89 664.939 1385.34 665.04C1382.78 665.141 1380.27 665.744 1377.95 666.814C1375.63 667.884 1373.55 669.4 1371.82 671.275C1370.09 673.149 1368.74 675.346 1367.87 677.739Z" fill="#F8C09E"/>
<path d="M1282.4 566.421C1279.95 573.042 1279.52 580.238 1281.16 587.102C1282.81 593.966 1286.46 600.189 1291.65 604.988C1296.84 609.786 1303.34 612.945 1310.32 614.064C1317.31 615.184 1324.48 614.214 1330.91 611.278C1337.35 608.342 1342.77 603.571 1346.49 597.567C1350.21 591.563 1352.06 584.595 1351.81 577.542C1351.57 570.489 1349.23 563.667 1345.1 557.937C1340.96 552.207 1335.22 547.826 1328.6 545.346C1324.18 543.692 1319.47 542.925 1314.75 543.09C1310.04 543.255 1305.4 544.348 1301.1 546.307C1296.81 548.265 1292.95 551.05 1289.74 554.502C1286.53 557.954 1284.03 562.005 1282.4 566.421Z" fill="#1D1D1B"/>
<path d="M1329.17 596.894C1326.8 603.253 1326.37 610.171 1327.94 616.772C1329.52 623.374 1333.02 629.362 1338 633.98C1342.99 638.598 1349.23 641.637 1355.95 642.714C1362.67 643.791 1369.56 642.856 1375.74 640.028C1381.93 637.201 1387.13 632.607 1390.7 626.829C1394.27 621.051 1396.04 614.348 1395.78 607.568C1395.53 600.788 1393.26 594.235 1389.27 588.739C1385.28 583.244 1379.74 579.052 1373.36 576.694C1369.13 575.127 1364.63 574.406 1360.12 574.573C1355.61 574.741 1351.18 575.792 1347.07 577.668C1342.97 579.543 1339.28 582.207 1336.21 585.506C1333.13 588.804 1330.74 592.674 1329.17 596.894Z" fill="#1D1D1B"/>
<path d="M1368.19 639.136C1366.75 642.98 1366.49 647.162 1367.44 651.153C1368.39 655.143 1370.51 658.763 1373.52 661.555C1376.53 664.347 1380.31 666.184 1384.37 666.835C1388.43 667.486 1392.6 666.921 1396.34 665.212C1400.08 663.503 1403.22 660.726 1405.38 657.233C1407.53 653.74 1408.6 649.687 1408.45 645.589C1408.29 641.49 1406.92 637.53 1404.51 634.208C1402.1 630.886 1398.75 628.353 1394.89 626.929C1389.73 625.022 1384.01 625.236 1379.01 627.525C1374 629.814 1370.11 633.99 1368.19 639.136Z" fill="#1D1D1B"/>
<path d="M1294.87 547.189C1296.73 552.703 1297.41 558.542 1296.87 564.333C1296.33 570.124 1294.59 575.739 1291.75 580.821C1288.92 585.903 1285.05 590.34 1280.4 593.847C1275.75 597.355 1270.41 599.857 1264.74 601.193C1259.06 602.529 1253.17 602.671 1247.43 601.608C1241.7 600.545 1236.25 598.302 1231.43 595.021C1226.62 591.74 1222.54 587.494 1219.46 582.554C1216.39 577.614 1214.38 572.088 1213.56 566.329C1224.65 536.755 1256.23 510.06 1294.87 547.189Z" fill="#1D1D1B"/>
</g>
</g>
<g clip-path="url(#clip2_2036_4)">
<path d="M351.966 446.455L346.971 493.883C343.813 523.955 328.873 551.523 305.439 570.523C282.005 589.523 251.997 598.397 222.015 595.195C192.033 591.992 164.534 576.975 145.567 553.446C126.6 529.917 117.719 499.804 120.878 469.732L125.859 422.306C126.162 419.468 126.55 416.702 127.039 413.946C127.528 411.19 128.158 408.424 128.852 405.69C135.954 377.737 153.358 353.536 177.557 337.965C201.755 322.393 230.949 316.609 259.254 321.777C287.559 326.945 312.87 342.682 330.088 365.816C347.305 388.95 355.148 417.761 352.036 446.443" fill="#F8C09E"/>
<path d="M239.544 489.656C239.329 491.717 238.51 493.667 237.189 495.259C235.869 496.851 234.107 498.014 232.126 498.601C230.146 499.188 228.035 499.172 226.062 498.555C224.09 497.939 222.343 496.749 221.043 495.138C219.742 493.526 218.948 491.564 218.759 489.5C218.57 487.436 218.996 485.363 219.982 483.543C220.968 481.724 222.471 480.239 224.299 479.276C226.128 478.314 228.2 477.918 230.255 478.138C231.618 478.282 232.941 478.695 234.146 479.352C235.351 480.009 236.415 480.898 237.278 481.968C238.141 483.037 238.785 484.267 239.174 485.587C239.563 486.906 239.689 488.289 239.544 489.656Z" fill="black"/>
<path d="M330.377 499.351C330.162 501.411 329.344 503.361 328.024 504.953C326.705 506.546 324.944 507.71 322.964 508.298C320.984 508.885 318.875 508.871 316.902 508.256C314.929 507.641 313.181 506.453 311.88 504.843C310.579 503.232 309.783 501.271 309.592 499.208C309.401 497.145 309.825 495.072 310.809 493.251C311.793 491.431 313.293 489.945 315.12 488.98C316.947 488.016 319.019 487.618 321.073 487.835C322.438 487.977 323.761 488.388 324.968 489.045C326.175 489.701 327.24 490.589 328.105 491.659C328.969 492.729 329.614 493.959 330.004 495.279C330.394 496.599 330.521 497.982 330.377 499.351Z" fill="black"/>
<path d="M210.962 436.853C221.219 450.61 234.456 461.85 249.674 469.726C264.891 477.601 281.69 481.906 298.801 482.313C286.387 476.505 276.063 466.991 269.241 455.075C304.076 478.409 345.947 488.771 387.576 484.359C377.531 468.72 364.486 455.24 349.201 444.703C333.916 434.167 316.697 426.785 298.547 422.988L210.962 436.853Z" fill="black"/>
<path d="M187.427 425.926C172.381 447.472 147.473 461.576 121.462 464.175L125.859 422.306C126.162 419.468 126.549 416.702 127.039 413.946C147.161 417.955 167.291 421.949 187.427 425.926Z" fill="black"/>
<path d="M418.333 454.185C418.115 456.205 417.108 458.055 415.533 459.329C413.957 460.604 411.941 461.2 409.927 460.986L124.999 430.611L125.867 422.348C128.993 392.912 143.41 365.861 166.069 346.917C188.728 327.972 217.854 318.618 247.288 320.833C276.722 323.047 304.157 336.656 323.791 358.783C343.426 380.91 353.722 409.819 352.502 439.399L411.536 445.703C412.538 445.811 413.509 446.116 414.393 446.601C415.277 447.087 416.057 447.742 416.689 448.53C417.32 449.318 417.791 450.223 418.073 451.194C418.355 452.164 418.443 453.181 418.333 454.185Z" fill="#E62645"/>
<path d="M142.4 474.811C141.923 479.374 140.107 483.692 137.182 487.217C134.257 490.742 130.355 493.317 125.969 494.615C121.583 495.914 116.91 495.878 112.541 494.512C108.173 493.146 104.304 490.512 101.426 486.942C98.5475 483.372 96.7881 479.027 96.3703 474.457C95.9525 469.887 96.8952 465.297 99.079 461.267C101.263 457.237 104.59 453.949 108.639 451.819C112.688 449.688 117.277 448.81 121.827 449.297C127.922 449.953 133.512 453.008 137.369 457.791C141.226 462.575 143.036 468.696 142.4 474.811Z" fill="#F8C09E"/>
<ellipse cx="263.402" cy="537.203" rx="19.5" ry="16.3164" transform="rotate(5.80511 263.402 537.203)" fill="white"/>
</g>
<g clip-path="url(#clip3_2036_4)">
<path d="M837 64C804.174 58.327 778.209 32.4873 773 0C767.548 32.602 741.583 58.7529 709 64C741.318 69.2853 767.518 95.3953 773 128C778.485 95.2779 804.592 69.5174 837 64Z" fill="#FDDF95"/>
</g>
<rect x="1084.5" y="823" width="539" height="66" rx="33" transform="rotate(8.2344 1084.5 823)" fill="#D1E2A9"/>
<path d="M1115.7 868.942L1116.55 863.099L1112.82 862.559L1107.37 867.735L1103.68 867.203L1109.83 861.593C1107.37 860.679 1106.16 858.637 1106.52 856.143C1106.96 853.126 1109.37 851.05 1114.17 851.744L1121.15 852.755L1118.74 869.382L1115.7 868.942ZM1112.65 860.037L1116.9 860.652L1117.73 854.928L1113.79 854.357C1111.01 853.955 1109.89 854.958 1109.64 856.692C1109.43 858.188 1110.45 859.646 1112.65 860.037ZM1129.48 870.936L1131.27 858.585L1137 859.413C1140.42 859.908 1142.06 861.116 1141.73 863.42C1141.56 864.56 1140.78 865.465 1139.43 865.755C1141.01 866.396 1141.49 867.581 1141.3 868.911C1140.95 871.31 1138.91 872.301 1135.78 871.847L1129.48 870.936ZM1136.33 866.519L1132.98 866.035L1132.54 869.123L1135.67 869.576C1137.64 869.862 1138.28 869.445 1138.44 868.4C1138.58 867.403 1137.99 866.76 1136.33 866.519ZM1136.49 861.595L1133.68 861.189L1133.26 864.111L1136.61 864.595C1137.92 864.785 1138.64 864.307 1138.77 863.405C1138.92 862.36 1138.34 861.863 1136.49 861.595ZM1154.5 873.636L1150.88 867.825L1150.9 867.682L1156 863.279L1157.6 865.183L1154.1 868.242L1156.6 872.217L1154.5 873.636ZM1160.04 874.436L1156.39 868.622L1156.41 868.48L1161.56 864.084L1163.15 865.987L1159.61 869.039L1162.14 873.018L1160.04 874.436ZM1168.28 871.191L1168.58 869.101L1174.09 869.899C1174.08 867.835 1172.62 866.702 1170.69 866.424C1169.24 866.214 1167.79 866.561 1166.56 867.645L1165.15 865.816C1166.74 864.397 1168.78 863.746 1171.25 864.103C1175.21 864.677 1177.42 867.519 1176.85 871.461C1176.32 875.119 1173.64 877.545 1169.39 876.929C1166.87 876.565 1164.93 875.387 1163.96 873.549L1165.92 872.256C1166.63 873.547 1167.98 874.3 1169.5 874.52C1171.7 874.839 1173.38 873.845 1173.86 871.999L1168.28 871.191ZM1177.94 867.885L1178.3 865.391L1190.11 867.099L1189.75 869.593L1185.23 868.94L1183.81 878.798L1181.03 878.395L1182.45 868.538L1177.94 867.885ZM1204.01 869.112L1197.52 880.443C1195.3 884.244 1193.85 885.368 1191.74 885.062C1191.12 884.973 1190.48 884.71 1190.05 884.357L1191.3 882.258C1191.49 882.408 1191.7 882.51 1191.91 882.541C1193.05 882.729 1193.6 881.912 1194.85 879.983L1190.52 867.159L1193.71 867.62L1195.8 874.399L1196.15 875.54L1196.59 877.156C1196.94 876.624 1197.57 875.284 1197.93 874.609L1201.14 868.696L1204.01 869.112ZM1210.9 882.719L1212.69 870.367L1218.41 871.196C1221.83 871.691 1223.48 872.899 1223.14 875.203C1222.98 876.343 1222.19 877.247 1220.84 877.537C1222.42 878.178 1222.91 879.363 1222.71 880.693C1222.37 883.092 1220.33 884.083 1217.2 883.63L1210.9 882.719ZM1217.75 878.302L1214.4 877.817L1213.95 880.905L1217.09 881.359C1219.06 881.644 1219.7 881.228 1219.85 880.183C1220 879.185 1219.41 878.542 1217.75 878.302ZM1217.9 873.377L1215.1 872.972L1214.68 875.893L1218.03 876.378C1219.33 876.567 1220.06 876.09 1220.19 875.187C1220.34 874.142 1219.76 873.645 1217.9 873.377ZM1227.27 875.872L1226.25 873.833C1227.67 872.923 1229.69 872.56 1231.85 872.873C1235.46 873.395 1236.75 875.377 1236.27 878.678L1235.18 886.231L1232.42 885.833L1232.53 885.073C1232.62 884.601 1232.75 883.916 1232.86 883.471L1232.77 883.434C1232 884.583 1230.47 885.744 1228.19 885.414C1225.7 885.053 1224.1 883.343 1224.44 880.992C1224.86 878.118 1227.5 877.434 1229.97 877.791C1231.52 878.014 1232.85 878.814 1233.31 879.657L1233.52 878.256C1233.81 876.213 1232.82 875.39 1231.06 875.135C1229.85 874.96 1228.55 875.233 1227.27 875.872ZM1229.46 883.367C1231.05 883.597 1232.42 882.826 1232.98 881.985L1233.14 880.892C1232.73 880.348 1231.75 879.916 1230.44 879.727C1228.73 879.479 1227.54 880.033 1227.36 881.245C1227.22 882.242 1227.91 883.143 1229.46 883.367ZM1238.18 886.666L1239.97 874.315L1242.75 874.717L1241.31 884.646L1245.32 885.227L1246.76 875.298L1249.54 875.7L1248.1 885.629L1252.12 886.21L1253.55 876.281L1256.33 876.683L1254.55 889.035L1238.18 886.666ZM1271.4 878.863L1264.91 890.195C1262.69 893.995 1261.24 895.12 1259.12 894.814C1258.51 894.724 1257.86 894.462 1257.43 894.108L1258.68 892.009C1258.88 892.159 1259.08 892.261 1259.29 892.292C1260.43 892.481 1260.99 891.664 1262.23 889.735L1257.91 876.911L1261.09 877.372L1263.19 884.15L1263.53 885.291L1263.98 886.907C1264.32 886.375 1264.95 885.036 1265.32 884.361L1268.52 878.447L1271.4 878.863ZM1283.61 887.033L1278.47 891.575L1276.86 889.621L1280.41 886.521L1277.88 882.59L1279.97 881.219L1283.63 886.89L1283.61 887.033ZM1278.1 886.235L1272.98 890.781L1271.37 888.826L1274.9 885.724L1272.39 881.796L1274.46 880.421L1278.12 886.093L1278.1 886.235ZM1292.62 894.545L1294.41 882.193L1297.19 882.595L1295.75 892.524L1299.76 893.105L1301.2 883.176L1303.98 883.579L1302.54 893.507L1306.56 894.088L1308 884.159L1310.77 884.562L1308.99 896.913L1292.62 894.545ZM1312.18 897.374L1313.96 885.023L1316.62 885.408L1315.75 891.417L1322.3 886.23L1325.72 886.725L1319.1 891.756L1324.15 899.107L1320.58 898.591L1316.33 892.277L1315.53 892.938L1314.84 897.759L1312.18 897.374ZM1325.4 892.958C1325.95 889.11 1329.15 886.93 1333.1 887.501C1337.11 888.082 1339.56 891.08 1339.01 894.928C1338.45 898.776 1335.25 900.956 1331.23 900.375C1327.31 899.808 1324.84 896.806 1325.4 892.958ZM1328.34 893.385C1328 895.76 1329.35 897.629 1331.58 897.952C1333.91 898.289 1335.67 897.016 1336.04 894.498C1336.4 891.957 1334.98 890.247 1332.75 889.924C1330.61 889.614 1328.71 890.843 1328.34 893.385ZM1348.82 902.677L1350.26 892.701L1345.75 892.048L1345.67 892.594C1344.73 899.078 1342.96 901.756 1340.08 901.558C1339.72 901.53 1339.27 901.465 1338.82 901.352L1339.19 898.81C1340.93 899.16 1342.09 898.527 1343.05 891.924L1343.43 889.287L1353.38 890.728L1351.59 903.079L1348.82 902.677ZM1368.47 892.912L1361.98 904.243C1359.76 908.044 1358.31 909.168 1356.2 908.862C1355.58 908.773 1354.94 908.51 1354.51 908.156L1355.76 906.058C1355.95 906.207 1356.16 906.309 1356.37 906.34C1357.51 906.529 1358.06 905.712 1359.31 903.783L1354.98 890.959L1358.16 891.42L1360.26 898.198L1360.61 899.339L1361.05 900.956C1361.4 900.423 1362.03 899.084 1362.39 898.409L1365.6 892.496L1368.47 892.912ZM1388.72 890.434L1388.78 892.892C1386.52 893.437 1383.68 892.421 1381.67 893.076C1379.92 893.646 1378.99 895.185 1378.53 897.519C1379.64 895.909 1381.79 895.129 1384.04 895.456C1387.3 895.927 1389.45 898.276 1388.88 902.266C1388.35 905.877 1385.35 908.206 1381.48 907.646C1377.39 907.055 1375.16 904.064 1375.85 899.266C1376.5 894.824 1377.63 891.836 1380.78 890.715C1383.28 889.817 1386.38 890.895 1388.72 890.434ZM1378.72 899.899L1378.64 900.422C1378.3 902.773 1379.61 904.829 1381.74 905.138C1384.05 905.472 1385.65 904.127 1385.97 901.918C1386.28 899.757 1385.27 898.058 1383.01 897.731C1380.99 897.439 1379.43 898.522 1378.72 899.899ZM1390.65 902.401C1391.2 898.553 1394.4 896.373 1398.35 896.944C1402.36 897.525 1404.81 900.523 1404.26 904.371C1403.7 908.219 1400.5 910.399 1396.48 909.818C1392.56 909.25 1390.09 906.249 1390.65 902.401ZM1393.59 902.827C1393.25 905.203 1394.6 907.072 1396.83 907.395C1399.16 907.732 1400.92 906.459 1401.29 903.941C1401.65 901.399 1400.23 899.69 1398 899.366C1395.86 899.057 1393.96 900.286 1393.59 902.827ZM1414.07 912.119L1415.51 902.143L1411 901.49L1410.92 902.037C1409.98 908.521 1408.21 911.199 1405.33 911C1404.97 910.973 1404.52 910.907 1404.07 910.794L1404.44 908.253C1406.18 908.602 1407.34 907.97 1408.3 901.367L1408.68 898.73L1418.63 900.17L1416.84 912.522L1414.07 912.119ZM1424.1 904.842L1426.88 905.244C1430.89 905.825 1431.84 907.829 1431.5 910.157C1431.18 912.413 1429.51 914.355 1425.47 913.771L1420.06 912.987L1421.85 900.636L1424.65 901.041L1424.1 904.842ZM1426.17 907.323L1423.77 906.976L1423.16 911.133L1425.56 911.48C1427.54 911.765 1428.37 911.037 1428.55 909.802C1428.73 908.567 1428.09 907.601 1426.17 907.323ZM1433.12 914.877L1434.91 902.525L1437.69 902.928L1436.25 912.856L1440.26 913.437L1441.7 903.508L1444.48 903.911L1443.04 913.839L1447.06 914.42L1448.49 904.492L1451.27 904.894L1449.48 917.245L1433.12 914.877ZM1462.95 915.363L1464.23 917.1C1462.68 918.621 1460.6 919.072 1458.67 918.793C1454.71 918.219 1452.29 915.323 1452.86 911.404C1453.38 907.794 1456.11 905.328 1460.25 905.926C1463.55 906.404 1465.84 908.991 1465.35 912.411C1465.29 912.815 1465.19 913.334 1464.96 914.053L1455.49 912.682C1455.41 914.731 1456.88 916.132 1459.06 916.449C1460.51 916.658 1461.98 916.24 1462.95 915.363ZM1459.79 908.236C1457.84 907.954 1456.29 908.943 1455.77 910.71L1462.54 911.69C1462.76 909.854 1461.76 908.522 1459.79 908.236ZM1482.97 922.091L1483.7 917.031L1477.48 916.131L1476.75 921.19L1473.97 920.788L1475.75 908.437L1478.53 908.839L1477.82 913.756L1484.04 914.656L1484.76 909.739L1487.54 910.142L1485.75 922.493L1482.97 922.091ZM1491.16 923.276L1488.93 922.953L1490.72 910.602L1493.45 910.997L1492.54 917.244L1492.13 919.585L1493.77 917.956L1500.41 912.004L1502.64 912.327L1500.85 924.679L1498.14 924.287L1499.08 917.85L1499.49 915.655L1498.01 917.162L1491.16 923.276ZM1520.17 927.475L1520.91 922.416L1514.68 921.515L1513.95 926.575L1511.17 926.172L1512.96 913.821L1515.74 914.223L1515.03 919.14L1521.25 920.041L1521.96 915.124L1524.74 915.526L1522.95 927.877L1520.17 927.475ZM1526.32 922.035C1526.88 918.187 1530.08 916.007 1534.02 916.578C1538.03 917.159 1540.49 920.157 1539.93 924.005C1539.37 927.852 1536.17 930.032 1532.16 929.452C1528.24 928.884 1525.76 925.883 1526.32 922.035ZM1529.26 922.461C1528.92 924.836 1530.27 926.706 1532.51 927.029C1534.83 927.366 1536.6 926.093 1536.96 923.575C1537.33 921.033 1535.9 919.323 1533.67 919C1531.53 918.691 1529.63 919.92 1529.26 922.461ZM1541.51 930.563L1543.3 918.212L1552.61 919.559L1552.25 922.053L1545.72 921.108L1544.29 930.965L1541.51 930.563ZM1552.34 925.801C1552.9 921.953 1556.1 919.773 1560.05 920.344C1564.06 920.925 1566.51 923.923 1565.95 927.771C1565.4 931.619 1562.2 933.799 1558.18 933.218C1554.26 932.651 1551.79 929.649 1552.34 925.801ZM1555.29 926.227C1554.95 928.603 1556.3 930.472 1558.53 930.795C1560.86 931.132 1562.62 929.859 1562.99 927.341C1563.35 924.8 1561.93 923.09 1559.69 922.767C1557.56 922.457 1555.66 923.686 1555.29 926.227ZM1569.77 934.652L1567.54 934.329L1569.33 921.978L1572.06 922.373L1571.15 928.62L1570.74 930.961L1572.38 929.332L1579.02 923.38L1581.25 923.704L1579.46 936.055L1576.75 935.663L1577.69 929.226L1578.1 927.031L1576.62 928.539L1569.77 934.652ZM1572.03 917.52L1574.36 917.857C1574.27 918.837 1574.73 919.68 1575.96 919.859C1577.13 920.027 1577.81 919.349 1577.97 918.379L1580.3 918.716C1579.9 921.132 1577.82 922.092 1575.68 921.783C1573.38 921.449 1571.72 919.997 1572.03 917.52Z" fill="black"/>
<rect y="716.453" width="444.347" height="66" rx="33" transform="rotate(-8.07966 0 716.453)" fill="#D1E2A9"/>
<path d="M30.443 753.542L35.3733 735.85L37.7495 735.513L47.4089 751.134L44.3437 751.569L42.2389 748.183L34.4926 749.283L33.4132 753.121L30.443 753.542ZM36.4844 742.14L35.2484 746.582L40.7374 745.803L38.2261 741.602C37.8669 740.95 37.5077 740.298 37.1383 739.575C36.9377 740.04 36.6717 741.411 36.4844 742.14ZM47.2897 751.151L52.22 733.458L54.5962 733.121L64.2556 748.742L61.1904 749.178L59.0856 745.792L51.3393 746.891L50.26 750.729L47.2897 751.151ZM53.3311 739.749L52.0951 744.19L57.5841 743.411L55.0728 739.21C54.7136 738.558 54.3544 737.906 53.9851 737.183C53.7844 737.648 53.5184 739.019 53.3311 739.749ZM64.1365 748.759L69.0667 731.067L71.4429 730.729L81.1024 746.351L78.0371 746.786L75.9323 743.4L68.186 744.5L67.1067 748.338L64.1365 748.759ZM70.1778 737.357L68.9419 741.799L74.4308 741.02L71.9195 736.819C71.5603 736.167 71.2011 735.515 70.8318 734.792C70.6311 735.256 70.3652 736.627 70.1778 737.357ZM82.9672 740.365L81.4021 729.34L84.3961 728.915L85.9612 739.94L82.9672 740.365ZM82.9876 744.265C82.8628 743.386 83.512 742.324 84.7476 742.149C85.8644 741.99 86.831 742.823 86.9558 743.702C87.0941 744.676 86.3906 745.697 85.2738 745.856C84.0382 746.031 83.1259 745.239 82.9876 744.265ZM91.321 739.179L89.7558 728.154L92.7498 727.729L94.315 738.754L91.321 739.179ZM91.3413 743.079C91.2165 742.2 91.8657 741.138 93.1013 740.963C94.2181 740.804 95.1847 741.637 95.3095 742.516C95.4478 743.49 94.7443 744.511 93.6275 744.67C92.3919 744.845 91.4796 744.054 91.3413 743.079ZM99.6747 737.994L98.1096 726.968L101.104 726.543L102.669 737.569L99.6747 737.994ZM99.6951 741.893C99.5702 741.014 100.219 739.952 101.455 739.777C102.572 739.618 103.538 740.451 103.663 741.33C103.802 742.304 103.098 743.325 101.981 743.484C100.746 743.659 99.8334 742.868 99.6951 741.893ZM134.089 721.86L129.241 730.912L136.64 738.467L133.052 738.976L127.711 733.456L124.142 740.241L120.554 740.75L125.558 731.435L118.43 724.083L121.994 723.577L127.084 728.867L130.501 722.37L134.089 721.86ZM135.77 732.263C135.224 728.414 137.684 725.423 141.628 724.863C145.644 724.293 148.839 726.481 149.386 730.331C149.932 734.18 147.472 737.171 143.457 737.742C139.536 738.298 136.317 736.113 135.77 732.263ZM138.717 731.845C139.054 734.221 140.879 735.635 143.112 735.318C145.441 734.987 146.773 733.271 146.416 730.752C146.055 728.21 144.206 726.969 141.972 727.286C139.834 727.59 138.356 729.303 138.717 731.845ZM161.64 722.313L163.394 734.669L160.614 735.064L159.892 729.979C159.198 730.901 158.088 731.616 156.353 731.863C153.359 732.288 151.385 731.016 150.906 727.642L150.376 723.912L153.157 723.517L153.551 726.297C153.919 728.887 154.947 729.638 156.824 729.372C157.964 729.21 159.119 728.464 159.568 727.697L158.859 722.707L161.64 722.313ZM176.705 720.174L173.66 732.872C172.594 737.144 171.52 738.63 169.405 738.93C168.787 739.018 168.098 738.946 167.583 738.728L168.192 736.363C168.423 736.452 168.647 736.493 168.861 736.462C170.005 736.324 170.308 735.384 170.965 733.182L163.209 722.09L166.393 721.638L170.311 727.554L170.962 728.552L171.843 729.979C172.023 729.371 172.252 727.909 172.412 727.159L173.83 720.582L176.705 720.174ZM196.144 730.02L195.425 724.958L189.2 725.842L189.918 730.903L187.138 731.298L185.384 718.942L188.164 718.547L188.862 723.466L195.088 722.582L194.39 717.664L197.17 717.269L198.924 729.625L196.144 730.02ZM200.512 723.073C199.965 719.223 202.425 716.232 206.37 715.672C210.386 715.102 213.581 717.291 214.127 721.14C214.674 724.989 212.214 727.981 208.198 728.551C204.277 729.107 201.058 726.922 200.512 723.073ZM203.458 722.655C203.796 725.031 205.62 726.444 207.854 726.127C210.183 725.797 211.515 724.08 211.157 721.562C210.796 719.019 208.947 717.779 206.714 718.096C204.575 718.399 203.097 720.112 203.458 722.655ZM217.49 726.989L215.736 714.633L221.462 713.82C224.884 713.335 226.801 714.032 227.128 716.337C227.29 717.478 226.79 718.567 225.575 719.224C227.272 719.395 228.068 720.397 228.257 721.728C228.598 724.128 226.923 725.65 223.787 726.096L217.49 726.989ZM222.821 720.827L219.47 721.303L219.909 724.392L223.045 723.946C225.018 723.666 225.517 723.086 225.369 722.041C225.227 721.043 224.484 720.591 222.821 720.827ZM221.586 716.057L218.782 716.455L219.197 719.378L222.547 718.902C223.854 718.717 224.415 718.055 224.287 717.152C224.138 716.107 223.439 715.794 221.586 716.057ZM243.083 723.356L241.329 711L244.132 710.602L245.887 722.958L243.083 723.356ZM232.886 716.077L235.167 715.753C239.183 715.183 240.679 716.837 241.009 719.166C241.33 721.424 240.255 723.758 236.215 724.331L231.297 725.029L229.543 712.673L232.347 712.275L232.886 716.077ZM235.091 717.946L233.166 718.219L233.756 722.377L235.681 722.104C237.653 721.824 238.224 720.895 238.049 719.659C237.874 718.423 237.016 717.673 235.091 717.946ZM251.305 722.189L249.072 722.506L247.318 710.15L250.05 709.762L250.937 716.011L251.2 718.374L252.318 716.349L257.012 708.774L259.246 708.457L261 720.813L258.291 721.197L257.377 714.758L257.158 712.535L256.162 714.397L251.305 722.189ZM248.663 705.111L250.991 704.78C251.177 705.748 251.855 706.427 253.091 706.252C254.255 706.087 254.718 705.245 254.603 704.268L256.932 703.937C257.228 706.367 255.503 707.873 253.364 708.177C251.059 708.504 249.061 707.575 248.663 705.111ZM280.501 714.142L282.298 715.535C281.387 717.313 279.557 718.421 277.418 718.724C273.545 719.274 270.299 717.238 269.732 713.246C269.199 709.492 271.55 706.419 275.447 705.866C277.99 705.505 279.91 706.226 280.934 707.293L279.582 709.206C278.52 708.387 277.319 708.121 276.012 708.307C273.778 708.624 272.331 710.381 272.678 712.828C273.016 715.204 274.925 716.533 277.349 716.189C278.727 715.993 279.834 715.254 280.501 714.142ZM284.622 717.459L282.867 705.103L285.196 704.773L290.799 709.916L294.725 703.42L296.792 703.127L298.546 715.483L295.885 715.861L294.987 709.54L294.772 707.51L293.881 709.261L291.25 713.44L287.36 710.114L286.021 708.704L286.372 710.666L287.283 717.082L284.622 717.459ZM301.606 705.837L300.06 704.166C301.164 702.894 302.998 701.979 305.16 701.672C308.772 701.159 310.566 702.699 311.035 706.001L312.107 713.558L309.351 713.949L309.243 713.189C309.199 712.71 309.125 712.017 309.109 711.559L309.01 711.549C308.592 712.869 307.453 714.412 305.172 714.736C302.677 715.09 300.666 713.897 300.332 711.545C299.923 708.67 302.27 707.27 304.741 706.919C306.286 706.7 307.796 707.091 308.474 707.771L308.275 706.369C307.985 704.325 306.797 703.815 305.039 704.065C303.827 704.237 302.656 704.864 301.606 705.837ZM305.812 712.415C307.404 712.189 308.505 711.063 308.805 710.1L308.649 709.006C308.107 708.599 307.044 708.459 305.738 708.644C304.027 708.887 303.035 709.755 303.207 710.967C303.349 711.965 304.268 712.634 305.812 712.415ZM315.791 717.907L313.359 700.775L316.139 700.38L316.324 701.687C316.375 702.044 316.429 702.424 316.384 702.794L316.479 702.78C316.953 700.822 318.43 699.788 320.094 699.552C323.658 699.046 326.14 701.336 326.66 704.995C327.193 708.75 325.218 711.915 321.654 712.421C319.967 712.66 318.528 712.089 317.64 710.954L318.571 717.512L315.791 717.907ZM319.708 702.128C318.021 702.367 317.192 703.358 316.722 704.491L317.346 708.887C318.143 709.889 319.361 710.274 320.621 710.095C322.807 709.784 324.095 708.099 323.727 705.509C323.376 703.037 321.823 701.828 319.708 702.128ZM326.72 701.423L326.366 698.928L338.175 697.252L338.53 699.747L334.015 700.388L335.415 710.249L332.635 710.644L331.235 700.782L326.72 701.423ZM348.285 713.27L347.644 708.755L347.359 708.796C342.915 709.427 340.178 707.052 339.655 703.369C339.176 699.994 341.073 696.622 345.517 695.992L345.826 695.948L345.148 691.172L347.856 690.787L348.534 695.563L348.867 695.516C353.144 694.909 356.007 697.314 356.526 700.974C357.049 704.657 355.105 707.696 350.638 708.33L350.353 708.371L350.994 712.886L348.285 713.27ZM342.626 702.947C342.973 705.394 344.536 706.845 347.031 706.491L347.317 706.45L346.156 698.276L345.847 698.32C343.21 698.695 342.298 700.642 342.626 702.947ZM349.15 697.851L348.865 697.892L350.025 706.066L350.311 706.025C352.996 705.644 353.907 703.867 353.556 701.395C353.229 699.09 351.812 697.474 349.15 697.851ZM358.305 700.673C357.758 696.823 360.218 693.832 364.163 693.272C368.179 692.702 371.374 694.89 371.92 698.74C372.467 702.589 370.007 705.581 365.991 706.151C362.07 706.707 358.851 704.522 358.305 700.673ZM361.251 700.254C361.589 702.631 363.413 704.044 365.647 703.727C367.976 703.397 369.308 701.68 368.95 699.162C368.589 696.619 366.74 695.379 364.507 695.696C362.368 695.999 360.89 697.712 361.251 700.254ZM384.289 703.311L383.57 698.25L377.345 699.133L378.063 704.195L375.283 704.589L373.529 692.233L376.309 691.839L377.007 696.757L383.233 695.873L382.535 690.955L385.315 690.56L387.069 702.916L384.289 703.311ZM390.571 696.698L389.006 685.673L392 685.248L393.565 696.273L390.571 696.698ZM390.591 700.598C390.466 699.719 391.115 698.657 392.351 698.482C393.468 698.323 394.434 699.156 394.559 700.035C394.698 701.009 393.994 702.03 392.877 702.189C391.642 702.364 390.729 701.572 390.591 700.598ZM398.924 695.512L397.359 684.487L400.353 684.062L401.918 695.087L398.924 695.512ZM398.945 699.412C398.82 698.533 399.469 697.471 400.705 697.296C401.822 697.137 402.788 697.97 402.913 698.849C403.051 699.823 402.348 700.844 401.231 701.003C399.995 701.178 399.083 700.386 398.945 699.412ZM407.278 694.327L405.713 683.301L408.707 682.876L410.272 693.901L407.278 694.327ZM407.299 698.226C407.174 697.347 407.823 696.285 409.059 696.11C410.175 695.951 411.142 696.784 411.267 697.663C411.405 698.637 410.702 699.658 409.585 699.817C408.349 699.992 407.437 699.201 407.299 698.226Z" fill="black"/>
<rect x="1048" y="959.438" width="458.099" height="66" rx="33" transform="rotate(-2.02402 1048 959.438)" fill="#E597A2"/>
<path d="M1086.88 999.09L1086.67 993.189L1082.91 993.322L1078.46 999.387L1074.74 999.518L1079.79 992.904C1077.21 992.443 1075.66 990.649 1075.57 988.13C1075.46 985.084 1077.46 982.612 1082.31 982.441L1089.36 982.192L1089.95 998.981L1086.88 999.09ZM1082.29 990.87L1086.59 990.719L1086.38 984.938L1082.4 985.079C1079.59 985.178 1078.67 986.363 1078.74 988.114C1078.79 989.625 1080.06 990.877 1082.29 990.87ZM1099.86 992.363C1099.72 988.477 1102.48 985.762 1106.46 985.622C1110.52 985.478 1113.46 987.992 1113.6 991.877C1113.74 995.763 1110.98 998.478 1106.92 998.621C1102.96 998.761 1099.99 996.249 1099.86 992.363ZM1102.83 992.258C1102.92 994.656 1104.58 996.255 1106.84 996.175C1109.19 996.092 1110.69 994.526 1110.6 991.983C1110.51 989.417 1108.8 987.988 1106.55 988.068C1104.39 988.144 1102.74 989.692 1102.83 992.258ZM1126.63 985.197L1127.07 997.669L1124.27 997.768L1124.08 992.636C1123.3 993.48 1122.12 994.074 1120.37 994.136C1117.35 994.243 1115.52 992.77 1115.4 989.364L1115.26 985.599L1118.07 985.5L1118.17 988.306C1118.26 990.92 1119.2 991.775 1121.1 991.708C1122.25 991.668 1123.48 991.048 1124 990.333L1123.83 985.296L1126.63 985.197ZM1139.99 993.418L1141.55 994.9C1140.29 996.674 1138.33 997.487 1136.39 997.556C1132.38 997.698 1129.49 995.278 1129.35 991.321C1129.22 987.675 1131.47 984.762 1135.64 984.614C1138.98 984.497 1141.69 986.634 1141.81 990.088C1141.83 990.495 1141.82 991.024 1141.73 991.772L1132.16 992.11C1132.45 994.141 1134.14 995.258 1136.35 995.18C1137.81 995.128 1139.18 994.455 1139.99 993.418ZM1135.6 986.969C1133.64 987.039 1132.29 988.287 1132.09 990.119L1138.93 989.878C1138.81 988.033 1137.6 986.899 1135.6 986.969ZM1153.69 996.729L1153.51 991.62L1147.22 991.842L1147.4 996.951L1144.6 997.05L1144.16 984.578L1146.96 984.478L1147.14 989.443L1153.42 989.221L1153.25 984.256L1156.05 984.157L1156.49 996.629L1153.69 996.729ZM1162.23 987.781L1165.04 987.682C1169.09 987.539 1170.38 989.342 1170.46 991.693C1170.54 993.972 1169.25 996.178 1165.17 996.323L1159.71 996.516L1159.27 984.044L1162.1 983.944L1162.23 987.781ZM1164.71 989.855L1162.28 989.941L1162.43 994.138L1164.85 994.052C1166.85 993.982 1167.53 993.117 1167.49 991.87C1167.45 990.623 1166.65 989.786 1164.71 989.855ZM1191.32 982.911L1186.88 989.119L1192 995.374L1188.69 995.491L1185.1 990.864L1181.74 995.737L1178.57 995.849L1183.22 989.273L1178.37 983.368L1181.68 983.251L1185.05 987.479L1188.11 983.024L1191.32 982.911ZM1192.17 989.101C1192.03 985.215 1194.79 982.5 1198.77 982.359C1202.83 982.216 1205.77 984.729 1205.91 988.615C1206.05 992.501 1203.29 995.216 1199.23 995.359C1195.27 995.499 1192.3 992.986 1192.17 989.101ZM1195.14 988.996C1195.23 991.394 1196.89 992.992 1199.15 992.913C1201.5 992.83 1203 991.263 1202.91 988.721C1202.82 986.155 1201.11 984.726 1198.86 984.806C1196.7 984.882 1195.05 986.429 1195.14 988.996ZM1208.81 999.608L1208.2 982.314L1211 982.215L1211.05 983.534C1211.06 983.894 1211.07 984.278 1210.99 984.641L1211.09 984.638C1211.77 982.741 1213.34 981.868 1215.02 981.809C1218.62 981.682 1220.85 984.221 1220.98 987.914C1221.11 991.704 1218.81 994.643 1215.22 994.77C1213.51 994.83 1212.14 994.11 1211.38 992.889L1211.61 999.508L1208.81 999.608ZM1214.37 984.33C1212.66 984.39 1211.73 985.287 1211.15 986.365L1211.31 990.802C1211.99 991.882 1213.16 992.393 1214.43 992.348C1216.64 992.27 1218.1 990.73 1218.01 988.116C1217.92 985.621 1216.5 984.254 1214.37 984.33ZM1222.76 988.02C1222.62 984.134 1225.38 981.419 1229.36 981.278C1233.42 981.135 1236.36 983.648 1236.5 987.534C1236.64 991.42 1233.88 994.135 1229.82 994.278C1225.86 994.418 1222.89 991.905 1222.76 988.02ZM1225.73 987.915C1225.82 990.313 1227.48 991.911 1229.74 991.832C1232.09 991.749 1233.59 990.182 1233.5 987.64C1233.41 985.074 1231.7 983.645 1229.45 983.725C1227.29 983.801 1225.64 985.348 1225.73 987.915ZM1239.23 993.706L1238.79 981.233L1241.59 981.134L1241.95 991.16L1246 991.017L1245.65 980.991L1248.45 980.892L1248.81 990.917L1252.86 990.774L1252.51 980.748L1255.31 980.649L1255.75 993.122L1239.23 993.706ZM1258.03 986.773C1257.89 982.887 1260.66 980.172 1264.64 980.032C1268.69 979.888 1271.64 982.402 1271.77 986.287C1271.91 990.173 1269.15 992.888 1265.1 993.031C1261.14 993.171 1258.17 990.659 1258.03 986.773ZM1261.01 986.668C1261.09 989.066 1262.76 990.665 1265.01 990.585C1267.36 990.502 1268.87 988.936 1268.78 986.393C1268.69 983.827 1266.98 982.398 1264.72 982.478C1262.57 982.554 1260.91 984.102 1261.01 986.668ZM1279.88 982.303L1279.79 979.784L1291.71 979.363L1291.8 981.881L1287.24 982.042L1287.59 991.996L1284.79 992.095L1284.43 982.142L1279.88 982.303ZM1303.15 987.652L1304.72 989.134C1303.46 990.907 1301.49 991.721 1299.55 991.79C1295.55 991.931 1292.65 989.512 1292.51 985.555C1292.38 981.909 1294.63 978.996 1298.81 978.848C1302.14 978.73 1304.86 980.868 1304.98 984.321C1304.99 984.729 1304.99 985.258 1304.89 986.005L1295.32 986.344C1295.61 988.375 1297.31 989.492 1299.51 989.414C1300.98 989.362 1302.35 988.689 1303.15 987.652ZM1298.77 981.203C1296.8 981.272 1295.45 982.521 1295.25 984.353L1302.09 984.111C1301.98 982.266 1300.76 981.132 1298.77 981.203ZM1318.05 973.077L1318.54 975.485C1316.41 976.425 1313.44 975.929 1311.58 976.932C1309.95 977.806 1309.31 979.485 1309.28 981.864C1310.08 980.083 1312.06 978.932 1314.34 978.852C1317.62 978.735 1320.16 980.663 1320.31 984.692C1320.43 988.338 1317.89 991.166 1313.98 991.304C1309.86 991.45 1307.13 988.904 1306.95 984.059C1306.8 979.574 1307.38 976.432 1310.28 974.768C1312.58 973.438 1315.82 973.948 1318.05 973.077ZM1309.89 984.172L1309.91 984.7C1309.99 987.074 1311.64 988.865 1313.8 988.789C1316.12 988.707 1317.46 987.098 1317.38 984.868C1317.3 982.685 1316 981.194 1313.72 981.275C1311.69 981.347 1310.34 982.691 1309.89 984.172ZM1327.07 978.113L1332.63 977.917L1333.07 990.389L1330.27 990.488L1330.12 986.363L1327.53 986.454L1324.44 990.694L1321.13 990.811L1324.71 986.122C1322.87 985.754 1321.72 984.354 1321.65 982.435C1321.57 980.229 1322.97 978.258 1327.07 978.113ZM1324.6 982.451C1324.64 983.578 1325.51 984.436 1327.22 984.376L1330.05 984.276L1329.91 980.294L1327.17 980.391C1325.23 980.46 1324.57 981.396 1324.6 982.451ZM1352.43 989.705L1352.07 979.631L1345.96 979.847L1346.31 989.921L1343.51 990.02L1343.06 977.548L1354.79 977.134L1355.23 989.606L1352.43 989.705ZM1357.53 983.257C1357.39 979.371 1360.16 976.656 1364.14 976.515C1368.19 976.372 1371.14 978.885 1371.28 982.771C1371.41 986.657 1368.65 989.372 1364.6 989.515C1360.64 989.655 1357.67 987.142 1357.53 983.257ZM1360.51 983.152C1360.59 985.55 1362.26 987.148 1364.51 987.069C1366.86 986.985 1368.37 985.419 1368.28 982.877C1368.19 980.311 1366.48 978.882 1364.22 978.962C1362.07 979.038 1360.42 980.585 1360.51 983.152ZM1383.09 988.621L1382.91 983.512L1376.63 983.735L1376.81 988.843L1374 988.943L1373.56 976.47L1376.37 976.371L1376.54 981.336L1382.83 981.114L1382.65 976.149L1385.46 976.05L1385.9 988.522L1383.09 988.621ZM1391.36 988.329L1389.11 988.409L1388.67 975.936L1391.43 975.839L1391.65 982.147L1391.66 984.524L1392.99 982.628L1398.45 975.591L1400.71 975.511L1401.15 987.983L1398.42 988.08L1398.19 981.58L1398.2 979.346L1397.02 981.093L1391.36 988.329ZM1404.38 987.869L1403.94 975.397L1406.29 975.314L1411.32 981.02L1415.91 974.974L1418 974.9L1418.44 987.372L1415.75 987.467L1415.52 981.087L1415.52 979.046L1414.45 980.693L1411.4 984.571L1407.88 980.853L1406.7 979.31L1406.84 981.298L1407.07 987.774L1404.38 987.869ZM1422.5 978.103L1421.14 976.278C1422.37 975.13 1424.29 974.413 1426.47 974.336C1430.12 974.207 1431.74 975.927 1431.86 979.261L1432.13 986.888L1429.34 986.987L1429.32 986.219C1429.32 985.739 1429.32 985.042 1429.35 984.585L1429.26 984.564C1428.7 985.833 1427.41 987.247 1425.1 987.329C1422.59 987.418 1420.71 986.019 1420.63 983.644C1420.53 980.742 1423.01 979.598 1425.5 979.51C1427.06 979.455 1428.52 980.003 1429.12 980.751L1429.07 979.335C1429 977.273 1427.87 976.64 1426.1 976.703C1424.87 976.746 1423.64 977.246 1422.5 978.103ZM1425.99 985.088C1427.59 985.031 1428.81 984.028 1429.21 983.101L1429.17 981.998C1428.67 981.535 1427.63 981.284 1426.31 981.33C1424.58 981.391 1423.5 982.15 1423.55 983.373C1423.58 984.381 1424.43 985.143 1425.99 985.088ZM1435.16 986.781L1434.72 974.309L1437.52 974.21L1437.7 979.151L1440.03 979.068C1440.47 976.003 1442.74 973.761 1446.25 973.637C1450.2 973.498 1452.94 976.115 1453.07 979.88C1453.2 983.646 1450.78 986.445 1446.73 986.588C1443.06 986.718 1440.66 984.642 1440.06 981.349L1437.78 981.429L1437.97 986.682L1435.16 986.781ZM1442.71 980.246C1442.79 982.669 1444.5 984.122 1446.61 984.047C1448.77 983.971 1450.23 982.406 1450.14 979.984C1450.06 977.585 1448.54 976.102 1446.24 976.183C1444.25 976.254 1442.62 977.848 1442.71 980.246ZM1455.56 984.259C1455.53 983.372 1456.29 982.384 1457.54 982.34C1458.66 982.3 1459.54 983.23 1459.57 984.117C1459.6 985.101 1458.8 986.042 1457.67 986.082C1456.42 986.126 1455.6 985.242 1455.56 984.259ZM1465.19 983.919C1465.16 983.031 1465.92 982.044 1467.16 982C1468.29 981.96 1469.16 982.89 1469.2 983.777C1469.23 984.761 1468.42 985.702 1467.3 985.742C1466.05 985.786 1465.22 984.902 1465.19 983.919ZM1474.82 983.579C1474.79 982.691 1475.54 981.704 1476.79 981.66C1477.92 981.62 1478.79 982.55 1478.82 983.437C1478.86 984.42 1478.05 985.361 1476.92 985.401C1475.68 985.445 1474.85 984.562 1474.82 983.579Z" fill="black"/>
<rect x="22.79" y="801" width="528.51" height="66" rx="33" transform="rotate(4.16212 22.79 801)" fill="#E597A2"/>
<path d="M58.6316 844.717L59.6454 830.785L50.8606 830.146L49.8469 844.077L46.783 843.854L48.0023 827.099L62.9149 828.184L61.6955 844.939L58.6316 844.717ZM75.4224 842.136L76.819 843.778C75.377 845.406 73.3363 846.003 71.3974 845.862C67.4 845.571 64.7823 842.854 65.0697 838.904C65.3345 835.266 67.8858 832.612 72.0508 832.915C75.378 833.157 77.849 835.575 77.5982 839.022C77.5686 839.429 77.5063 839.954 77.3326 840.687L67.7819 839.992C67.8493 842.042 69.4156 843.336 71.6177 843.496C73.0779 843.602 74.5115 843.081 75.4224 842.136ZM71.7604 835.252C69.7976 835.11 68.3222 836.205 67.9265 838.005L74.7484 838.502C74.8347 836.655 73.7471 835.397 71.7604 835.252ZM79.2656 851.055L80.5215 833.796L83.3221 834L83.2263 835.317C83.2002 835.676 83.1723 836.059 83.0504 836.411L83.1462 836.418C84.0241 834.605 85.687 833.908 87.3626 834.03C90.9531 834.291 92.8936 837.055 92.6254 840.741C92.3501 844.523 89.7492 847.198 86.1587 846.936C84.4592 846.813 83.1745 845.949 82.5469 844.652L82.0662 851.259L79.2656 851.055ZM86.4394 836.465C84.7399 836.341 83.7197 837.133 83.0207 838.141L82.6985 842.57C83.2647 843.718 84.3735 844.352 85.6422 844.444C87.8444 844.604 89.4604 843.23 89.6502 840.621C89.8314 838.132 88.5698 836.62 86.4394 836.465ZM104.736 844.27L106.132 845.911C104.69 847.539 102.649 848.136 100.711 847.995C96.7131 847.704 94.0954 844.987 94.3828 841.038C94.6476 837.399 97.1989 834.745 101.364 835.048C104.691 835.291 107.162 837.708 106.911 841.155C106.882 841.562 106.819 842.087 106.646 842.82L97.095 842.125C97.1624 844.176 98.7287 845.469 100.931 845.629C102.391 845.735 103.825 845.214 104.736 844.27ZM101.074 837.386C99.1107 837.243 97.6353 838.339 97.2396 840.139L104.062 840.635C104.148 838.788 103.06 837.53 101.074 837.386ZM107.273 851.288L107.667 845.879L109.055 845.98C110.397 844.08 110.962 841.594 111.271 837.358L111.367 836.041L121.276 836.762L120.545 846.816L122.292 846.943L121.898 852.352L119.385 852.17L119.605 849.154L110.006 848.455L109.786 851.471L107.273 851.288ZM113.801 838.625L113.715 839.485C113.491 841.899 112.901 844.719 111.904 846.187L117.744 846.612L118.302 838.952L113.801 838.625ZM126.075 840.48L124.918 838.519C126.267 837.51 128.253 837.005 130.431 837.164C134.069 837.428 135.496 839.313 135.254 842.64L134.7 850.252L131.924 850.05L131.979 849.284C132.038 848.807 132.113 848.115 132.194 847.663L132.1 847.632C131.411 848.834 129.971 850.1 127.673 849.933C125.159 849.75 123.447 848.158 123.619 845.788C123.83 842.892 126.42 842.021 128.909 842.203C130.465 842.316 131.858 843.019 132.376 843.826L132.479 842.414C132.629 840.356 131.577 839.605 129.805 839.476C128.585 839.388 127.307 839.752 126.075 840.48ZM128.791 847.801C130.394 847.917 131.709 847.051 132.206 846.172L132.286 845.071C131.842 844.558 130.834 844.195 129.517 844.1C127.794 843.974 126.64 844.612 126.551 845.833C126.478 846.838 127.235 847.687 128.791 847.801ZM137.728 850.472L138.633 838.025L140.979 838.196L145.364 844.411L150.578 838.895L152.66 839.046L151.755 851.493L149.074 851.298L149.537 844.931L149.757 842.902L148.515 844.423L145.058 847.95L141.962 843.874L140.952 842.213L140.879 844.205L140.409 850.667L137.728 850.472ZM161.395 842.208L161.578 839.695L173.474 840.561L173.291 843.074L168.743 842.743L168.02 852.677L165.22 852.473L165.943 842.539L161.395 842.208ZM174.334 853.136L175.24 840.689L181.009 841.109C184.455 841.36 186.181 842.448 186.012 844.77C185.928 845.919 185.209 846.877 183.882 847.262C185.504 847.789 186.07 848.937 185.972 850.277C185.796 852.695 183.837 853.828 180.677 853.598L174.334 853.136ZM180.85 848.244L177.475 847.999L177.249 851.11L180.408 851.34C182.395 851.485 183.006 851.024 183.083 849.971C183.156 848.966 182.526 848.366 180.85 848.244ZM180.655 843.321L177.831 843.116L177.616 846.06L180.991 846.305C182.308 846.401 182.996 845.874 183.062 844.964C183.139 843.911 182.522 843.457 180.655 843.321ZM187.979 847.849C188.261 843.971 191.3 841.569 195.273 841.858C199.318 842.153 201.977 844.969 201.695 848.847C201.413 852.725 198.374 855.126 194.329 854.832C190.379 854.545 187.697 851.726 187.979 847.849ZM190.947 848.065C190.773 850.458 192.257 852.227 194.507 852.39C196.852 852.561 198.518 851.166 198.703 848.629C198.889 846.068 197.345 844.464 195.095 844.3C192.941 844.143 191.134 845.503 190.947 848.065ZM205.991 855.44L203.741 855.276L204.646 842.829L207.399 843.029L206.941 849.325L206.697 851.689L208.219 849.947L214.413 843.54L216.663 843.704L215.757 856.151L213.028 855.952L213.5 849.465L213.758 847.246L212.389 848.855L205.991 855.44ZM235.062 857.556L235.794 847.502L229.69 847.058L228.958 857.111L226.158 856.908L227.064 844.46L238.769 845.312L237.863 857.759L235.062 857.556ZM240.831 851.695C241.114 847.817 244.152 845.415 248.126 845.704C252.171 845.999 254.829 848.815 254.547 852.693C254.265 856.571 251.227 858.972 247.181 858.678C243.232 858.391 240.549 855.573 240.831 851.695ZM243.8 851.911C243.625 854.304 245.109 856.073 247.359 856.237C249.705 856.407 251.37 855.012 251.555 852.475C251.742 849.914 250.198 848.31 247.948 848.146C245.794 847.989 243.986 849.35 243.8 851.911ZM259.896 852.914L255.595 846.537L258.946 846.781L263.554 853.565L264.021 847.15L266.821 847.354L266.351 853.817L272.04 847.733L275.271 847.969L270.156 853.444L274.389 860.417L271.11 860.179L267.466 854.042L266.257 855.109L265.916 859.801L263.115 859.597L263.456 854.905L262.439 853.676L257.969 859.222L254.737 858.987L259.896 852.914ZM285.687 857.437L287.083 859.079C285.641 860.707 283.601 861.304 281.662 861.163C277.664 860.872 275.047 858.155 275.334 854.206C275.599 850.567 278.15 847.913 282.315 848.216C285.642 848.459 288.113 850.876 287.863 854.323C287.833 854.73 287.771 855.255 287.597 855.988L278.046 855.293C278.114 857.344 279.68 858.637 281.882 858.797C283.342 858.903 284.776 858.382 285.687 857.437ZM282.025 850.554C280.062 850.411 278.586 851.506 278.191 853.307L285.013 853.803C285.099 851.956 284.011 850.698 282.025 850.554ZM298.099 862.143L298.83 852.089L294.282 851.758L294.242 852.309C293.767 858.844 292.192 861.641 289.304 861.647C288.943 861.645 288.488 861.612 288.037 861.531L288.223 858.97C289.987 859.194 291.098 858.481 291.582 851.827L291.776 849.17L301.805 849.899L300.899 862.347L298.099 862.143ZM305.974 853.572L304.817 851.611C306.166 850.602 308.152 850.097 310.33 850.255C313.969 850.52 315.396 852.404 315.153 855.732L314.6 863.343L311.823 863.141L311.879 862.375C311.937 861.898 312.012 861.206 312.093 860.755L311.999 860.724C311.31 861.925 309.87 863.192 307.572 863.025C305.059 862.842 303.346 861.249 303.518 858.879C303.729 855.983 306.319 855.113 308.808 855.294C310.364 855.407 311.757 856.11 312.276 856.918L312.379 855.506C312.528 853.447 311.476 852.697 309.705 852.568C308.484 852.479 307.206 852.843 305.974 853.572ZM308.69 860.892C310.294 861.009 311.608 860.142 312.105 859.264L312.185 858.163C311.741 857.649 310.733 857.287 309.416 857.191C307.693 857.066 306.54 857.704 306.451 858.924C306.378 859.93 307.134 860.779 308.69 860.892ZM326.699 864.224L327.07 859.125L320.799 858.669L320.428 863.768L317.627 863.564L318.533 851.117L321.333 851.321L320.973 856.275L327.244 856.732L327.605 851.777L330.405 851.981L329.5 864.428L326.699 864.224ZM334.954 864.825L332.704 864.661L333.61 852.214L336.363 852.414L335.905 858.71L335.66 861.074L337.183 859.332L343.376 852.925L345.626 853.088L344.721 865.535L341.992 865.337L342.464 858.85L342.722 856.631L341.353 858.24L334.954 864.825ZM353.902 853.691L359.455 854.095L358.549 866.542L355.749 866.338L356.048 862.221L353.463 862.033L349.932 865.915L346.629 865.674L350.694 861.398C348.906 860.835 347.909 859.318 348.049 857.404C348.209 855.201 349.808 853.393 353.902 853.691ZM350.984 857.737C350.902 858.862 351.676 859.809 353.375 859.933L356.2 860.138L356.489 856.165L353.76 855.966C351.821 855.825 351.061 856.684 350.984 857.737ZM367.071 870.435L367.503 864.498L369.299 864.629C370.034 863.455 371.656 860.012 372.187 852.711L372.334 850.7L384.254 851.568L383.23 865.643L385.384 865.799L384.952 871.736L382.223 871.537L382.46 868.282L370.013 867.376L369.776 870.631L367.071 870.435ZM375.014 853.542C374.687 858.043 373.622 862.754 372.434 864.857L380.166 865.42L380.999 853.978L375.014 853.542ZM396.581 865.507L397.978 867.149C396.536 868.777 394.495 869.374 392.556 869.233C388.559 868.942 385.941 866.225 386.228 862.275C386.493 858.637 389.044 855.983 393.209 856.286C396.537 856.528 399.008 858.946 398.757 862.393C398.727 862.8 398.665 863.325 398.491 864.058L388.94 863.363C389.008 865.413 390.574 866.707 392.776 866.867C394.236 866.973 395.67 866.452 396.581 865.507ZM392.919 858.623C390.956 858.481 389.481 859.576 389.085 861.376L395.907 861.873C395.993 860.026 394.906 858.768 392.919 858.623ZM399.119 872.526L399.512 867.116L400.901 867.217C402.242 865.318 402.808 862.832 403.116 858.595L403.212 857.279L413.122 858L412.39 868.053L414.138 868.181L413.744 873.59L411.231 873.407L411.45 870.391L401.851 869.693L401.632 872.709L399.119 872.526ZM405.647 859.862L405.56 860.722C405.336 863.137 404.746 865.957 403.749 867.425L409.59 867.85L410.147 860.19L405.647 859.862ZM428.819 859.142L423.15 870.906C421.203 874.855 419.838 876.079 417.708 875.924C417.086 875.879 416.428 875.663 415.97 875.34L417.067 873.158C417.274 873.294 417.484 873.381 417.699 873.397C418.847 873.504 419.342 872.65 420.451 870.637L415.223 858.153L418.431 858.386L421.006 864.999L421.43 866.112L421.989 867.693C422.294 867.138 422.827 865.757 423.143 865.058L425.923 858.932L428.819 859.142ZM437.087 872.257L438.306 855.501L441.011 855.698L446.453 864.252L452.812 856.557L455.421 856.747L454.202 873.502L451.257 873.288L452.012 862.924L452.211 861.181C451.556 861.904 450.564 863.3 449.83 864.136L446.437 868.101L445.719 868.048L442.842 863.604L441.721 861.814L440.89 860.334L440.842 860.33C440.807 861.483 440.719 863.016 440.618 864.405L440.031 872.471L437.087 872.257ZM457.594 867.469C457.876 863.591 460.915 861.189 464.888 861.478C468.934 861.773 471.592 864.589 471.31 868.467C471.028 872.345 467.989 874.746 463.944 874.452C459.995 874.165 457.312 871.346 457.594 867.469ZM460.562 867.685C460.388 870.078 461.872 871.847 464.122 872.01C466.468 872.181 468.133 870.786 468.318 868.249C468.504 865.688 466.961 864.084 464.711 863.92C462.556 863.763 460.749 865.124 460.562 867.685ZM473.006 879.708L474.262 862.449L477.062 862.653L476.966 863.97C476.94 864.329 476.912 864.712 476.79 865.064L476.886 865.071C477.764 863.258 479.427 862.56 481.103 862.682C484.693 862.944 486.634 865.708 486.365 869.394C486.09 873.176 483.489 875.85 479.899 875.589C478.199 875.465 476.915 874.602 476.287 873.305L475.806 879.911L473.006 879.708ZM480.179 865.118C478.48 864.994 477.46 865.786 476.761 866.794L476.439 871.222C477.005 872.37 478.114 873.005 479.382 873.097C481.584 873.257 483.2 871.883 483.39 869.274C483.571 866.784 482.31 865.273 480.179 865.118ZM488.123 869.69C488.405 865.813 491.443 863.411 495.417 863.7C499.462 863.994 502.121 866.811 501.839 870.688C501.556 874.566 498.518 876.968 494.473 876.674C490.523 876.386 487.841 873.568 488.123 869.69ZM491.091 869.906C490.917 872.3 492.4 874.068 494.65 874.232C496.996 874.403 498.662 873.008 498.847 870.471C499.033 867.909 497.489 866.305 495.239 866.141C493.085 865.985 491.277 867.345 491.091 869.906ZM508.772 877.738C505.996 877.536 504.029 876.455 502.896 874.495L504.705 873.111C505.485 874.299 506.951 875.32 508.77 875.452C510.494 875.578 511.791 874.95 511.871 873.849C511.939 872.915 511.139 872.328 509.847 872.234L506.759 872.009L506.909 869.95L509.637 870.149C510.786 870.233 511.738 869.724 511.802 868.839C511.886 867.69 510.919 867.09 509.267 866.97C507.568 866.846 506.166 867.586 505.288 868.413L503.72 866.807C504.799 865.538 506.897 864.487 509.674 864.689C513.312 864.954 514.953 866.541 514.8 868.648C514.723 869.701 514.009 870.588 512.695 871.118C514.273 871.593 514.933 872.772 514.835 874.113C514.653 876.626 512.315 877.996 508.772 877.738ZM529.545 866.472L523.876 878.236C521.929 882.185 520.564 883.409 518.434 883.254C517.811 883.209 517.153 882.992 516.696 882.67L517.793 880.488C518 880.624 518.21 880.711 518.425 880.727C519.572 880.834 520.068 879.98 521.177 877.967L515.949 865.483L519.157 865.716L521.731 872.329L522.156 873.442L522.714 875.023C523.02 874.468 523.553 873.087 523.869 872.388L526.649 866.261L529.545 866.472Z" fill="black"/>
<g clip-path="url(#clip4_2036_4)">
<mask id="mask1_2036_4" style="mask-type:luminance" maskUnits="userSpaceOnUse" x="530" y="320" width="529" height="924">
<path d="M1059 320H530V1244H1059V320Z" fill="white"/>
</mask>
<g mask="url(#mask1_2036_4)">
<path d="M1029.55 1082.54V1244H566.552V1082.54C566.517 1076.58 567.086 1070.63 568.25 1064.78C569.303 1059.36 570.876 1054.06 572.947 1048.94C579.684 1032.08 591.315 1017.62 606.34 1007.43C621.366 997.239 639.098 991.785 657.251 991.77H938.772C957.635 991.736 976.034 997.625 991.374 1008.61C997.753 1013.11 1003.5 1018.43 1008.48 1024.45C1014.62 1031.78 1019.55 1040.05 1023.09 1048.94C1025.15 1054.06 1026.73 1059.36 1027.79 1064.78C1028.97 1070.62 1029.56 1076.57 1029.55 1082.54Z" fill="#9AC446"/>
<path d="M943.928 991.801L938.205 992.628C933.417 999.561 895.778 1049.15 799.48 1049.15C700.106 1049.15 660.555 996.347 657.526 992.077L655.032 991.801C679.982 991.785 703.907 981.862 721.549 964.212C739.192 946.563 749.111 922.629 749.127 897.669C749.127 845.628 738.417 827.689 707.19 801.24L892.321 798.975C861.139 825.439 849.848 845.643 849.848 897.623C849.842 909.982 852.27 922.222 856.993 933.642C861.717 945.063 868.644 955.44 877.378 964.182C886.112 972.923 896.482 979.858 907.895 984.589C919.309 989.32 931.542 991.755 943.897 991.755" fill="#F8C09E"/>
<path d="M680.767 645.561C684.809 660.201 684.421 675.71 679.652 690.129C674.883 704.548 665.948 717.228 653.975 726.567C642.002 735.905 627.531 741.482 612.39 742.593C597.249 743.703 582.118 740.297 568.913 732.805C555.707 725.314 545.018 714.072 538.198 700.504C531.378 686.935 528.733 671.647 530.598 656.575C532.463 641.502 538.753 627.321 548.674 615.825C558.595 604.329 571.701 596.034 586.335 591.99C596.051 589.304 606.202 588.559 616.206 589.798C626.21 591.037 635.873 594.235 644.642 599.209C653.411 604.184 661.114 610.838 667.313 618.791C673.511 626.744 678.083 635.841 680.767 645.561Z" fill="#F0813C"/>
<path d="M908.248 645.561C904.205 660.201 904.592 675.712 909.361 690.132C914.13 704.551 923.066 717.232 935.039 726.571C947.013 735.91 961.485 741.487 976.627 742.597C991.769 743.707 1006.9 740.3 1020.11 732.807C1033.31 725.314 1044 714.071 1050.82 700.501C1057.64 686.93 1060.28 671.642 1058.41 656.569C1056.55 641.496 1050.25 627.315 1040.33 615.82C1030.41 604.325 1017.3 596.032 1002.66 591.99C992.949 589.304 982.8 588.56 972.797 589.799C962.793 591.038 953.132 594.236 944.364 599.211C935.596 604.185 927.894 610.839 921.697 618.792C915.501 626.745 910.93 635.841 908.248 645.561Z" fill="#F0813C"/>
<path d="M986.492 512.061C986.496 550.052 975.237 587.19 954.141 618.779C933.045 650.368 903.059 674.99 867.974 689.529C832.89 704.069 794.284 707.874 757.038 700.463C719.792 693.052 685.58 674.758 658.727 647.895C631.874 621.032 613.588 586.806 606.18 549.545C598.772 512.284 602.575 473.663 617.109 438.565C631.643 403.467 656.255 373.469 687.832 352.364C719.408 331.26 756.532 319.997 794.507 320C819.719 320 844.684 324.968 867.977 334.62C891.27 344.272 912.434 358.419 930.261 376.253C948.089 394.088 962.23 415.261 971.879 438.563C981.527 461.865 986.492 486.839 986.492 512.061Z" fill="#F0813C"/>
<path d="M941.572 500.046V691.939C941.769 711.195 938.148 730.299 930.919 748.147C923.689 765.994 912.994 782.23 899.453 795.917C885.911 809.603 869.792 820.468 852.026 827.883C834.261 835.298 815.203 839.116 795.953 839.116C776.704 839.116 757.645 835.298 739.88 827.883C722.115 820.468 705.995 809.603 692.454 795.917C678.912 782.23 668.217 765.994 660.988 748.147C653.758 730.299 650.137 711.195 650.335 691.939V500.046C650.325 464.206 663.524 429.62 687.405 402.904C711.287 376.188 744.176 359.217 779.781 355.239C815.386 351.26 851.207 360.552 880.393 381.338C909.579 402.124 930.08 432.944 937.976 467.903C940.383 478.447 941.59 489.23 941.572 500.046Z" fill="#F8C09E"/>
<path d="M939.767 466.097C932.455 498.164 914.475 526.797 888.772 547.305C863.068 567.813 831.164 578.981 798.287 578.98H647.443V498.745C647.441 462.324 660.859 427.181 685.131 400.037C709.403 372.892 742.826 355.65 779.007 351.609C815.188 347.568 851.589 357.012 881.247 378.133C910.905 399.255 931.74 430.573 939.767 466.097Z" fill="#F0813C"/>
<path d="M742.502 609.286C742.502 612.334 741.599 615.314 739.906 617.849C738.213 620.384 735.807 622.359 732.991 623.526C730.176 624.692 727.078 624.998 724.089 624.403C721.101 623.808 718.355 622.34 716.201 620.185C714.046 618.029 712.579 615.283 711.984 612.293C711.39 609.303 711.695 606.204 712.861 603.387C714.027 600.571 716.002 598.164 718.535 596.47C721.069 594.777 724.048 593.873 727.095 593.873C731.181 593.873 735.1 595.496 737.99 598.387C740.879 601.278 742.502 605.198 742.502 609.286Z" fill="black"/>
<path d="M877.311 609.286C877.314 612.339 876.412 615.324 874.718 617.863C873.025 620.403 870.616 622.383 867.798 623.552C864.979 624.722 861.877 625.029 858.884 624.434C855.891 623.839 853.141 622.369 850.983 620.211C848.826 618.052 847.357 615.302 846.762 612.307C846.167 609.313 846.474 606.21 847.643 603.39C848.812 600.57 850.792 598.161 853.33 596.466C855.869 594.772 858.852 593.87 861.904 593.873C865.99 593.873 869.909 595.496 872.799 598.387C875.688 601.278 877.311 605.198 877.311 609.286Z" fill="black"/>
<path d="M742.487 676.877C749.648 698.796 770.226 696.5 794.508 696.5C818.789 696.5 839.367 698.796 846.528 676.877H742.487Z" fill="white"/>
<path d="M988.038 603.469C988.038 609.146 986.355 614.694 983.203 619.414C980.051 624.133 975.57 627.812 970.329 629.984C965.087 632.156 959.318 632.724 953.754 631.617C948.189 630.51 943.077 627.776 939.065 623.763C935.053 619.749 932.321 614.635 931.214 609.068C930.107 603.501 930.675 597.731 932.846 592.487C935.018 587.243 938.695 582.761 943.412 579.607C948.13 576.454 953.676 574.771 959.35 574.771C963.118 574.768 966.849 575.509 970.331 576.951C973.812 578.393 976.976 580.506 979.64 583.172C982.304 585.837 984.417 589.002 985.858 592.484C987.299 595.967 988.04 599.7 988.038 603.469Z" fill="#F8C09E"/>
<path d="M658.337 599.597C658.337 605.273 656.654 610.822 653.502 615.541C650.35 620.261 645.869 623.939 640.627 626.111C635.385 628.283 629.617 628.852 624.052 627.744C618.488 626.637 613.376 623.904 609.364 619.89C605.352 615.877 602.62 610.763 601.513 605.196C600.406 599.629 600.974 593.858 603.145 588.614C605.316 583.37 608.993 578.888 613.711 575.735C618.429 572.581 623.975 570.898 629.649 570.898C633.416 570.898 637.147 571.64 640.627 573.083C644.108 574.525 647.27 576.639 649.934 579.304C652.598 581.969 654.711 585.132 656.153 588.614C657.595 592.096 658.337 595.828 658.337 599.597Z" fill="#F8C09E"/>
<path d="M769.798 607.893C777.856 604.181 786.623 602.259 795.494 602.259C804.366 602.259 813.132 604.181 821.191 607.893M769.798 607.893C769.816 617.63 766.946 627.154 761.551 635.258C756.157 643.363 748.48 649.685 739.492 653.423C730.505 657.161 720.611 658.148 711.062 656.258C701.514 654.369 692.741 649.688 685.853 642.808C678.965 635.928 674.272 627.158 672.369 617.609C670.465 608.06 671.436 598.161 675.158 589.164C678.881 580.167 685.188 572.477 693.281 567.068C701.375 561.658 710.89 558.772 720.623 558.775C733.652 558.775 746.148 563.948 755.368 573.157C764.588 582.366 769.778 594.859 769.798 607.893ZM919.555 607.893C919.573 617.63 916.703 627.154 911.309 635.258C905.914 643.363 898.237 649.685 889.25 653.423C880.262 657.161 870.368 658.148 860.82 656.258C851.271 654.369 842.498 649.688 835.61 642.808C828.722 635.928 824.029 627.158 822.126 617.609C820.222 608.06 821.193 598.161 824.916 589.164C828.638 580.167 834.945 572.477 843.039 567.068C851.132 561.658 860.647 558.772 870.381 558.775C883.409 558.775 895.905 563.948 905.125 573.157C914.345 582.366 919.535 594.859 919.555 607.893Z" stroke="white" stroke-width="4.08" stroke-miterlimit="10"/>
</g>
</g>
<defs>
<clipPath id="clip0_2036_4">
<rect width="168" height="168" fill="white" transform="translate(924 172)"/>
</clipPath>
<clipPath id="clip1_2036_4">
<rect width="285" height="298" fill="white" transform="translate(1190 485)"/>
</clipPath>
<clipPath id="clip2_2036_4">
<rect width="321" height="274" fill="white" transform="translate(74 347.493) rotate(-9.95496)"/>
</clipPath>
<clipPath id="clip3_2036_4">
<rect width="128" height="128" fill="white" transform="translate(709)"/>
</clipPath>
<clipPath id="clip4_2036_4">
<rect width="529" height="924" fill="white" transform="translate(530 320)"/>
</clipPath>
</defs>
</svg>
