<svg width="1366" height="1301" viewBox="0 0 1366 1301" fill="none" xmlns="http://www.w3.org/2000/svg">
<circle cx="540.422" cy="703.746" r="540.254" fill="#D1E2A9"/>
<rect x="832.505" y="630" width="539" height="66" rx="33" transform="rotate(8.2344 832.505 630)" fill="#FDDF95"/>
<path d="M863.703 675.942L864.548 670.099L860.819 669.559L855.366 674.735L851.684 674.203L857.831 668.593C855.368 667.679 854.16 665.637 854.521 663.143C854.958 660.126 857.368 658.05 862.166 658.744L869.149 659.755L866.743 676.382L863.703 675.942ZM860.651 667.037L864.902 667.652L865.731 661.928L861.788 661.357C859.009 660.955 857.894 661.958 857.643 663.692C857.426 665.188 858.452 666.646 860.651 667.037ZM877.485 677.936L879.272 665.585L884.996 666.413C888.417 666.908 890.061 668.116 889.727 670.42C889.562 671.56 888.777 672.465 887.425 672.755C889.006 673.396 889.489 674.581 889.296 675.911C888.949 678.31 886.914 679.301 883.779 678.847L877.485 677.936ZM884.332 673.519L880.983 673.035L880.536 676.123L883.671 676.576C885.643 676.862 886.285 676.445 886.436 675.4C886.58 674.403 885.994 673.76 884.332 673.519ZM884.487 668.595L881.684 668.189L881.261 671.111L884.61 671.595C885.917 671.785 886.64 671.307 886.771 670.405C886.922 669.36 886.339 668.863 884.487 668.595ZM902.505 680.636L898.883 674.825L898.904 674.682L904.003 670.279L905.595 672.183L902.097 675.242L904.601 679.217L902.505 680.636ZM908.039 681.436L904.394 675.622L904.415 675.48L909.561 671.084L911.153 672.987L907.608 676.039L910.136 680.018L908.039 681.436ZM916.28 678.191L916.582 676.101L922.093 676.899C922.076 674.835 920.616 673.702 918.692 673.424C917.243 673.214 915.786 673.561 914.562 674.645L913.154 672.816C914.741 671.397 916.775 670.746 919.246 671.103C923.212 671.677 925.42 674.519 924.85 678.461C924.32 682.119 921.641 684.545 917.39 683.929C914.872 683.565 912.932 682.387 911.962 680.549L913.919 679.256C914.629 680.547 915.976 681.3 917.496 681.52C919.705 681.839 921.376 680.845 921.862 678.999L916.28 678.191ZM925.942 674.885L926.302 672.391L938.108 674.099L937.747 676.593L933.234 675.94L931.807 685.798L929.028 685.395L930.455 675.538L925.942 674.885ZM952.014 676.112L945.524 687.443C943.301 691.244 941.853 692.368 939.739 692.062C939.122 691.973 938.481 691.71 938.047 691.357L939.296 689.258C939.493 689.408 939.696 689.51 939.91 689.541C941.047 689.729 941.602 688.912 942.851 686.983L938.523 674.159L941.706 674.62L943.804 681.399L944.149 682.54L944.594 684.156C944.937 683.624 945.568 682.284 945.932 681.609L949.14 675.696L952.014 676.112ZM958.902 689.719L960.69 677.367L966.414 678.196C969.834 678.691 971.478 679.899 971.145 682.203C970.98 683.343 970.194 684.247 968.843 684.537C970.423 685.178 970.906 686.363 970.714 687.693C970.367 690.092 968.332 691.083 965.197 690.63L958.902 689.719ZM965.749 685.302L962.4 684.817L961.953 687.905L965.089 688.359C967.06 688.644 967.702 688.228 967.854 687.183C967.998 686.185 967.412 685.542 965.749 685.302ZM965.904 680.377L963.101 679.972L962.679 682.893L966.028 683.378C967.334 683.567 968.058 683.09 968.189 682.187C968.34 681.142 967.757 680.645 965.904 680.377ZM975.266 682.872L974.252 680.833C975.669 679.923 977.686 679.56 979.847 679.873C983.458 680.395 984.747 682.377 984.269 685.678L983.176 693.231L980.421 692.833L980.531 692.073C980.623 691.601 980.747 690.916 980.86 690.471L980.768 690.434C979.996 691.583 978.47 692.744 976.189 692.414C973.695 692.053 972.1 690.343 972.44 687.992C972.856 685.118 975.501 684.434 977.972 684.791C979.515 685.014 980.855 685.814 981.315 686.657L981.518 685.256C981.813 683.213 980.817 682.39 979.059 682.135C977.848 681.96 976.547 682.233 975.266 682.872ZM977.456 690.367C979.047 690.597 980.42 689.826 980.978 688.985L981.136 687.892C980.73 687.348 979.75 686.916 978.443 686.727C976.733 686.479 975.537 687.033 975.362 688.245C975.218 689.242 975.912 690.143 977.456 690.367ZM986.18 693.666L987.968 681.315L990.747 681.717L989.31 691.646L993.324 692.227L994.761 682.298L997.54 682.7L996.103 692.629L1000.12 693.21L1001.55 683.281L1004.33 683.683L1002.55 696.035L986.18 693.666ZM1019.4 685.863L1012.91 697.195C1010.69 700.995 1009.24 702.12 1007.12 701.814C1006.51 701.724 1005.86 701.462 1005.43 701.108L1006.68 699.009C1006.88 699.159 1007.08 699.261 1007.29 699.292C1008.43 699.481 1008.99 698.664 1010.23 696.735L1005.91 683.911L1009.09 684.372L1011.19 691.15L1011.53 692.291L1011.98 693.907C1012.32 693.375 1012.95 692.036 1013.32 691.361L1016.52 685.447L1019.4 685.863ZM1031.61 694.033L1026.47 698.575L1024.86 696.621L1028.41 693.521L1025.88 689.59L1027.97 688.219L1031.63 693.89L1031.61 694.033ZM1026.1 693.235L1020.98 697.781L1019.37 695.826L1022.9 692.724L1020.39 688.796L1022.46 687.421L1026.12 693.093L1026.1 693.235ZM1040.62 701.545L1042.41 689.193L1045.19 689.595L1043.75 699.524L1047.76 700.105L1049.2 690.176L1051.98 690.579L1050.54 700.507L1054.56 701.088L1056 691.159L1058.77 691.562L1056.99 703.913L1040.62 701.545ZM1060.18 704.374L1061.96 692.023L1064.62 692.408L1063.75 698.417L1070.3 693.23L1073.72 693.725L1067.1 698.756L1072.15 706.107L1068.58 705.591L1064.33 699.277L1063.53 699.938L1062.84 704.759L1060.18 704.374ZM1073.4 699.958C1073.95 696.11 1077.15 693.93 1081.1 694.501C1085.11 695.082 1087.56 698.08 1087.01 701.928C1086.45 705.776 1083.25 707.956 1079.23 707.375C1075.31 706.808 1072.84 703.806 1073.4 699.958ZM1076.34 700.385C1076 702.76 1077.35 704.629 1079.58 704.952C1081.91 705.289 1083.67 704.016 1084.04 701.498C1084.4 698.957 1082.98 697.247 1080.75 696.924C1078.61 696.614 1076.71 697.843 1076.34 700.385ZM1096.82 709.677L1098.26 699.701L1093.75 699.048L1093.67 699.594C1092.73 706.078 1090.96 708.756 1088.08 708.558C1087.72 708.53 1087.27 708.465 1086.82 708.352L1087.19 705.81C1088.93 706.16 1090.09 705.527 1091.05 698.924L1091.43 696.287L1101.38 697.728L1099.59 710.079L1096.82 709.677ZM1116.47 699.912L1109.98 711.243C1107.76 715.044 1106.31 716.168 1104.2 715.862C1103.58 715.773 1102.94 715.51 1102.51 715.156L1103.76 713.058C1103.95 713.207 1104.16 713.309 1104.37 713.34C1105.51 713.529 1106.06 712.712 1107.31 710.783L1102.98 697.959L1106.16 698.42L1108.26 705.198L1108.61 706.339L1109.05 707.956C1109.4 707.423 1110.03 706.084 1110.39 705.409L1113.6 699.496L1116.47 699.912ZM1136.72 697.434L1136.78 699.892C1134.52 700.437 1131.68 699.421 1129.67 700.076C1127.92 700.646 1126.99 702.185 1126.53 704.519C1127.64 702.909 1129.79 702.129 1132.04 702.456C1135.3 702.927 1137.45 705.276 1136.88 709.266C1136.35 712.877 1133.35 715.206 1129.48 714.646C1125.39 714.055 1123.16 711.064 1123.85 706.266C1124.5 701.824 1125.63 698.836 1128.78 697.715C1131.28 696.817 1134.38 697.895 1136.72 697.434ZM1126.72 706.899L1126.64 707.422C1126.3 709.773 1127.61 711.829 1129.74 712.138C1132.05 712.472 1133.65 711.127 1133.97 708.918C1134.28 706.757 1133.27 705.058 1131.01 704.731C1128.99 704.439 1127.43 705.522 1126.72 706.899ZM1138.65 709.401C1139.2 705.553 1142.4 703.373 1146.35 703.944C1150.36 704.525 1152.81 707.523 1152.26 711.371C1151.7 715.219 1148.5 717.399 1144.48 716.818C1140.56 716.25 1138.09 713.249 1138.65 709.401ZM1141.59 709.827C1141.25 712.203 1142.6 714.072 1144.83 714.395C1147.16 714.732 1148.92 713.459 1149.29 710.941C1149.65 708.399 1148.23 706.69 1146 706.366C1143.86 706.057 1141.96 707.286 1141.59 709.827ZM1162.07 719.119L1163.51 709.143L1159 708.49L1158.92 709.037C1157.98 715.521 1156.21 718.199 1153.33 718C1152.97 717.973 1152.52 717.907 1152.07 717.794L1152.44 715.253C1154.18 715.602 1155.34 714.97 1156.3 708.367L1156.68 705.73L1166.63 707.17L1164.84 719.522L1162.07 719.119ZM1172.1 711.842L1174.88 712.244C1178.89 712.825 1179.84 714.829 1179.5 717.157C1179.18 719.413 1177.51 721.355 1173.47 720.771L1168.06 719.987L1169.85 707.636L1172.65 708.041L1172.1 711.842ZM1174.17 714.323L1171.77 713.976L1171.16 718.133L1173.56 718.48C1175.54 718.765 1176.37 718.037 1176.55 716.802C1176.73 715.567 1176.09 714.601 1174.17 714.323ZM1181.12 721.877L1182.91 709.525L1185.69 709.928L1184.25 719.856L1188.26 720.437L1189.7 710.508L1192.48 710.911L1191.04 720.839L1195.06 721.42L1196.49 711.492L1199.27 711.894L1197.48 724.245L1181.12 721.877ZM1210.95 722.363L1212.23 724.1C1210.68 725.621 1208.6 726.072 1206.67 725.793C1202.71 725.219 1200.29 722.323 1200.86 718.404C1201.38 714.794 1204.11 712.328 1208.25 712.926C1211.55 713.404 1213.84 715.991 1213.35 719.411C1213.29 719.815 1213.19 720.334 1212.96 721.053L1203.49 719.682C1203.41 721.731 1204.88 723.132 1207.06 723.449C1208.51 723.658 1209.98 723.24 1210.95 722.363ZM1207.79 715.236C1205.84 714.954 1204.29 715.943 1203.77 717.71L1210.54 718.69C1210.76 716.854 1209.76 715.522 1207.79 715.236ZM1230.97 729.091L1231.7 724.031L1225.48 723.131L1224.75 728.19L1221.97 727.788L1223.75 715.437L1226.53 715.839L1225.82 720.756L1232.04 721.656L1232.76 716.739L1235.54 717.142L1233.75 729.493L1230.97 729.091ZM1239.16 730.276L1236.93 729.953L1238.72 717.602L1241.45 717.997L1240.54 724.244L1240.13 726.585L1241.77 724.956L1248.41 719.004L1250.64 719.327L1248.85 731.679L1246.14 731.287L1247.08 724.85L1247.49 722.655L1246.01 724.162L1239.16 730.276ZM1268.17 734.475L1268.91 729.416L1262.68 728.515L1261.95 733.575L1259.17 733.172L1260.96 720.821L1263.74 721.223L1263.03 726.14L1269.25 727.041L1269.96 722.124L1272.74 722.526L1270.95 734.877L1268.17 734.475ZM1274.32 729.035C1274.88 725.187 1278.08 723.007 1282.02 723.578C1286.03 724.159 1288.49 727.157 1287.93 731.005C1287.37 734.852 1284.17 737.032 1280.16 736.452C1276.24 735.884 1273.76 732.883 1274.32 729.035ZM1277.26 729.461C1276.92 731.836 1278.27 733.706 1280.51 734.029C1282.83 734.366 1284.6 733.093 1284.96 730.575C1285.33 728.033 1283.9 726.323 1281.67 726C1279.53 725.691 1277.63 726.92 1277.26 729.461ZM1289.51 737.563L1291.3 725.212L1300.61 726.559L1300.25 729.053L1293.72 728.108L1292.29 737.965L1289.51 737.563ZM1300.34 732.801C1300.9 728.953 1304.1 726.773 1308.05 727.344C1312.06 727.925 1314.51 730.923 1313.95 734.771C1313.4 738.619 1310.2 740.799 1306.18 740.218C1302.26 739.651 1299.79 736.649 1300.34 732.801ZM1303.29 733.227C1302.95 735.603 1304.3 737.472 1306.53 737.795C1308.86 738.132 1310.62 736.859 1310.99 734.341C1311.35 731.8 1309.93 730.09 1307.69 729.767C1305.56 729.457 1303.66 730.686 1303.29 733.227ZM1317.77 741.652L1315.54 741.329L1317.33 728.978L1320.06 729.373L1319.15 735.62L1318.74 737.961L1320.38 736.332L1327.02 730.38L1329.25 730.704L1327.46 743.055L1324.75 742.663L1325.69 736.226L1326.1 734.031L1324.62 735.539L1317.77 741.652ZM1320.03 724.52L1322.36 724.857C1322.27 725.837 1322.73 726.68 1323.96 726.859C1325.13 727.027 1325.81 726.349 1325.97 725.379L1328.3 725.716C1327.9 728.132 1325.82 729.092 1323.68 728.783C1321.38 728.449 1319.72 726.997 1320.03 724.52Z" fill="black"/>
<rect x="796" y="766.438" width="458.099" height="66" rx="33" transform="rotate(-2.02402 796 766.438)" fill="#80D4F3"/>
<path d="M834.881 806.09L834.672 800.189L830.907 800.322L826.462 806.387L822.744 806.518L827.794 799.904C825.208 799.443 823.656 797.649 823.567 795.13C823.459 792.084 825.461 789.612 830.306 789.441L837.358 789.192L837.951 805.981L834.881 806.09ZM830.292 797.87L834.585 797.719L834.381 791.938L830.399 792.079C827.593 792.178 826.674 793.363 826.736 795.114C826.79 796.625 828.059 797.877 830.292 797.87ZM847.857 799.363C847.719 795.477 850.481 792.762 854.463 792.622C858.516 792.478 861.463 794.992 861.6 798.877C861.738 802.763 858.976 805.478 854.922 805.621C850.965 805.761 847.994 803.249 847.857 799.363ZM850.831 799.258C850.916 801.656 852.581 803.255 854.836 803.175C857.186 803.092 858.692 801.526 858.602 798.983C858.511 796.417 856.804 794.988 854.549 795.068C852.391 795.144 850.74 796.692 850.831 799.258ZM874.631 792.197L875.072 804.669L872.266 804.768L872.085 799.636C871.298 800.48 870.118 801.074 868.367 801.136C865.345 801.243 863.516 799.77 863.396 796.364L863.263 792.599L866.069 792.5L866.168 795.306C866.26 797.92 867.203 798.775 869.098 798.708C870.249 798.668 871.476 798.048 872.003 797.333L871.825 792.296L874.631 792.197ZM887.987 800.418L889.552 801.9C888.294 803.674 886.33 804.487 884.387 804.556C880.381 804.698 877.486 802.278 877.346 798.321C877.217 794.675 879.468 791.762 883.641 791.614C886.975 791.497 889.692 793.634 889.814 797.088C889.829 797.495 889.824 798.024 889.73 798.772L880.16 799.11C880.448 801.141 882.144 802.258 884.351 802.18C885.814 802.128 887.183 801.455 887.987 800.418ZM883.604 793.969C881.638 794.039 880.289 795.287 880.089 797.119L886.925 796.878C886.812 795.033 885.595 793.899 883.604 793.969ZM901.689 803.729L901.508 798.62L895.224 798.842L895.405 803.951L892.598 804.05L892.158 791.578L894.964 791.478L895.139 796.443L901.423 796.221L901.248 791.256L904.054 791.157L904.495 803.629L901.689 803.729ZM910.231 794.781L913.037 794.682C917.091 794.539 918.379 796.342 918.462 798.693C918.543 800.972 917.252 803.178 913.175 803.323L907.706 803.516L907.265 791.044L910.096 790.944L910.231 794.781ZM912.706 796.855L910.284 796.941L910.432 801.138L912.854 801.052C914.845 800.982 915.535 800.117 915.491 798.87C915.447 797.623 914.649 796.786 912.706 796.855ZM939.324 789.911L934.884 796.119L940.005 802.374L936.695 802.491L933.097 797.864L929.739 802.737L926.573 802.849L931.216 796.273L926.372 790.368L929.682 790.251L933.049 794.479L936.11 790.024L939.324 789.911ZM940.166 796.101C940.029 792.215 942.791 789.5 946.772 789.359C950.826 789.216 953.772 791.729 953.91 795.615C954.047 799.501 951.285 802.216 947.232 802.359C943.274 802.499 940.304 799.986 940.166 796.101ZM943.141 795.996C943.225 798.394 944.891 799.992 947.145 799.913C949.496 799.83 951.002 798.263 950.912 795.721C950.821 793.155 949.113 791.726 946.859 791.806C944.7 791.882 943.05 793.429 943.141 795.996ZM956.807 806.608L956.196 789.314L959.002 789.215L959.049 790.534C959.061 790.894 959.075 791.278 958.992 791.641L959.088 791.638C959.765 789.741 961.343 788.868 963.022 788.809C966.62 788.682 968.847 791.221 968.977 794.914C969.111 798.704 966.814 801.643 963.216 801.77C961.513 801.83 960.143 801.11 959.379 799.889L959.613 806.508L956.807 806.608ZM962.367 791.33C960.664 791.39 959.735 792.287 959.149 793.365L959.305 797.802C959.992 798.882 961.163 799.393 962.434 799.348C964.641 799.27 966.099 797.73 966.007 795.116C965.919 792.621 964.501 791.254 962.367 791.33ZM970.757 795.02C970.619 791.134 973.381 788.419 977.363 788.278C981.416 788.135 984.363 790.648 984.5 794.534C984.637 798.42 981.876 801.135 977.822 801.278C973.865 801.418 970.894 798.905 970.757 795.02ZM973.731 794.915C973.816 797.313 975.481 798.911 977.736 798.832C980.086 798.749 981.592 797.182 981.502 794.64C981.411 792.074 979.704 790.645 977.449 790.725C975.29 790.801 973.64 792.348 973.731 794.915ZM987.227 800.706L986.786 788.233L989.592 788.134L989.947 798.16L994 798.017L993.646 787.991L996.452 787.892L996.806 797.917L1000.86 797.774L1000.51 787.748L1003.31 787.649L1003.75 800.122L987.227 800.706ZM1006.03 793.773C1005.89 789.887 1008.66 787.172 1012.64 787.032C1016.69 786.888 1019.64 789.402 1019.77 793.287C1019.91 797.173 1017.15 799.888 1013.1 800.031C1009.14 800.171 1006.17 797.659 1006.03 793.773ZM1009.01 793.668C1009.09 796.066 1010.76 797.665 1013.01 797.585C1015.36 797.502 1016.87 795.936 1016.78 793.393C1016.69 790.827 1014.98 789.398 1012.72 789.478C1010.57 789.554 1008.91 791.102 1009.01 793.668ZM1027.88 789.303L1027.79 786.784L1039.71 786.363L1039.8 788.881L1035.24 789.042L1035.59 798.996L1032.79 799.095L1032.43 789.142L1027.88 789.303ZM1051.15 794.652L1052.72 796.134C1051.46 797.907 1049.49 798.721 1047.55 798.79C1043.55 798.931 1040.65 796.512 1040.51 792.555C1040.38 788.909 1042.63 785.996 1046.81 785.848C1050.14 785.73 1052.86 787.868 1052.98 791.321C1052.99 791.729 1052.99 792.258 1052.89 793.005L1043.32 793.344C1043.61 795.375 1045.31 796.492 1047.51 796.414C1048.98 796.362 1050.35 795.689 1051.15 794.652ZM1046.77 788.203C1044.8 788.272 1043.45 789.521 1043.25 791.353L1050.09 791.111C1049.98 789.266 1048.76 788.132 1046.77 788.203ZM1066.05 780.077L1066.54 782.485C1064.41 783.425 1061.44 782.929 1059.58 783.932C1057.95 784.806 1057.31 786.485 1057.28 788.864C1058.08 787.083 1060.06 785.932 1062.34 785.852C1065.62 785.735 1068.16 787.663 1068.31 791.692C1068.43 795.338 1065.89 798.166 1061.98 798.304C1057.86 798.45 1055.13 795.904 1054.95 791.059C1054.8 786.574 1055.38 783.432 1058.28 781.768C1060.58 780.438 1063.82 780.948 1066.05 780.077ZM1057.89 791.172L1057.91 791.7C1057.99 794.074 1059.64 795.865 1061.8 795.789C1064.12 795.707 1065.46 794.098 1065.38 791.868C1065.3 789.685 1064 788.194 1061.72 788.275C1059.69 788.347 1058.34 789.691 1057.89 791.172ZM1075.07 785.113L1080.63 784.917L1081.07 797.389L1078.27 797.488L1078.12 793.363L1075.53 793.454L1072.44 797.694L1069.13 797.811L1072.71 793.122C1070.87 792.754 1069.72 791.354 1069.65 789.435C1069.57 787.229 1070.97 785.258 1075.07 785.113ZM1072.6 789.451C1072.64 790.578 1073.51 791.436 1075.22 791.376L1078.05 791.276L1077.91 787.294L1075.17 787.391C1073.23 787.46 1072.57 788.396 1072.6 789.451ZM1100.43 796.705L1100.07 786.631L1093.96 786.847L1094.31 796.921L1091.51 797.02L1091.06 784.548L1102.79 784.134L1103.23 796.606L1100.43 796.705ZM1105.53 790.257C1105.39 786.371 1108.16 783.656 1112.14 783.515C1116.19 783.372 1119.14 785.885 1119.28 789.771C1119.41 793.657 1116.65 796.372 1112.6 796.515C1108.64 796.655 1105.67 794.142 1105.53 790.257ZM1108.51 790.152C1108.59 792.55 1110.26 794.148 1112.51 794.069C1114.86 793.985 1116.37 792.419 1116.28 789.877C1116.19 787.311 1114.48 785.882 1112.22 785.962C1110.07 786.038 1108.42 787.585 1108.51 790.152ZM1131.09 795.621L1130.91 790.512L1124.63 790.735L1124.81 795.843L1122 795.943L1121.56 783.47L1124.37 783.371L1124.54 788.336L1130.83 788.114L1130.65 783.149L1133.46 783.05L1133.9 795.522L1131.09 795.621ZM1139.36 795.329L1137.11 795.409L1136.67 782.936L1139.43 782.839L1139.65 789.147L1139.66 791.524L1140.99 789.628L1146.45 782.591L1148.71 782.511L1149.15 794.983L1146.42 795.08L1146.19 788.58L1146.2 786.346L1145.02 788.093L1139.36 795.329ZM1152.38 794.869L1151.94 782.397L1154.29 782.314L1159.32 788.02L1163.91 781.974L1166 781.9L1166.44 794.372L1163.75 794.467L1163.52 788.087L1163.52 786.046L1162.45 787.693L1159.4 791.571L1155.88 787.853L1154.7 786.31L1154.84 788.298L1155.07 794.774L1152.38 794.869ZM1170.5 785.103L1169.14 783.278C1170.37 782.13 1172.29 781.413 1174.47 781.336C1178.12 781.207 1179.74 782.927 1179.86 786.261L1180.13 793.888L1177.34 793.987L1177.32 793.219C1177.32 792.739 1177.32 792.042 1177.35 791.585L1177.26 791.564C1176.7 792.833 1175.41 794.247 1173.1 794.329C1170.59 794.418 1168.71 793.019 1168.63 790.644C1168.53 787.742 1171.01 786.598 1173.5 786.51C1175.06 786.455 1176.52 787.003 1177.12 787.751L1177.07 786.335C1177 784.273 1175.87 783.64 1174.1 783.703C1172.87 783.746 1171.64 784.246 1170.5 785.103ZM1173.99 792.088C1175.59 792.031 1176.81 791.028 1177.21 790.101L1177.17 788.998C1176.67 788.535 1175.63 788.284 1174.31 788.33C1172.58 788.391 1171.5 789.15 1171.55 790.373C1171.58 791.381 1172.43 792.143 1173.99 792.088ZM1183.16 793.781L1182.72 781.309L1185.52 781.21L1185.7 786.151L1188.03 786.068C1188.47 783.003 1190.74 780.761 1194.25 780.637C1198.2 780.498 1200.94 783.115 1201.07 786.88C1201.2 790.646 1198.78 793.445 1194.73 793.588C1191.06 793.718 1188.66 791.642 1188.06 788.349L1185.78 788.429L1185.97 793.682L1183.16 793.781ZM1190.71 787.246C1190.79 789.669 1192.5 791.122 1194.61 791.047C1196.77 790.971 1198.23 789.406 1198.14 786.984C1198.06 784.585 1196.54 783.102 1194.24 783.183C1192.25 783.254 1190.62 784.848 1190.71 787.246ZM1203.56 791.259C1203.53 790.372 1204.29 789.384 1205.54 789.34C1206.66 789.3 1207.54 790.23 1207.57 791.117C1207.6 792.101 1206.8 793.042 1205.67 793.082C1204.42 793.126 1203.6 792.242 1203.56 791.259ZM1213.19 790.919C1213.16 790.031 1213.92 789.044 1215.16 789C1216.29 788.96 1217.16 789.89 1217.2 790.777C1217.23 791.761 1216.42 792.702 1215.3 792.742C1214.05 792.786 1213.22 791.902 1213.19 790.919ZM1222.82 790.579C1222.79 789.691 1223.54 788.704 1224.79 788.66C1225.92 788.62 1226.79 789.55 1226.82 790.437C1226.86 791.42 1226.05 792.361 1224.92 792.401C1223.68 792.445 1222.85 791.562 1222.82 790.579Z" fill="black"/>
<mask id="mask0_2036_5" style="mask-type:luminance" maskUnits="userSpaceOnUse" x="176" y="304" width="536" height="974">
<path d="M711.983 304H176.385V1277.03H711.983V304Z" fill="white"/>
</mask>
<g mask="url(#mask0_2036_5)">
<path d="M642.63 639.282L642.446 640.35V524.316H245.755V639.348C245.755 639.348 241.077 780.835 176.385 829.622H712C647.308 780.819 642.63 639.348 642.63 639.348" fill="#1D1D1B"/>
<path d="M596.216 464.23V671.946C596.216 713.751 579.592 753.844 550.001 783.404C520.41 812.965 480.276 829.572 438.428 829.572C396.58 829.572 356.446 812.965 326.855 783.404C297.265 753.844 280.641 713.751 280.641 671.946V464.23C280.652 425.461 294.966 388.055 320.846 359.164C346.726 330.273 382.357 311.924 420.927 307.624C459.497 303.324 498.3 313.374 529.919 335.854C561.538 358.334 583.755 391.667 592.323 429.48C594.92 440.881 596.226 452.538 596.216 464.23Z" fill="#F8C09E"/>
<path d="M648.227 576.175C648.23 582.319 646.409 588.326 642.995 593.436C639.58 598.546 634.725 602.53 629.044 604.883C623.363 607.237 617.11 607.854 611.078 606.658C605.045 605.461 599.503 602.504 595.153 598.161C590.803 593.817 587.84 588.283 586.639 582.257C585.438 576.231 586.053 569.985 588.406 564.308C590.759 558.632 594.744 553.78 599.857 550.366C604.971 546.952 610.983 545.13 617.134 545.13C625.377 545.13 633.283 548.4 639.114 554.222C644.944 560.043 648.222 567.939 648.227 576.175Z" fill="#F8C09E"/>
<path d="M290.966 571.985C290.979 578.128 289.168 584.137 285.761 589.251C282.355 594.365 277.506 598.354 271.828 600.714C266.151 603.074 259.901 603.699 253.868 602.508C247.836 601.318 242.292 598.366 237.939 594.027C233.586 589.688 230.62 584.157 229.416 578.133C228.211 572.109 228.823 565.864 231.173 560.187C233.523 554.511 237.506 549.658 242.618 546.244C247.73 542.83 253.741 541.007 259.89 541.007C268.12 541.007 276.014 544.269 281.84 550.076C287.666 555.884 290.948 563.763 290.966 571.985Z" fill="#F8C09E"/>
<path d="M689.662 1100.96V1277.07H184.037V1100.96C184.02 1094.47 184.664 1087.98 185.958 1081.62C187.108 1075.71 188.82 1069.93 191.071 1064.34C194.934 1054.65 200.32 1045.63 207.027 1037.64C212.497 1031.07 218.812 1025.26 225.806 1020.35C242.551 1008.37 262.637 1001.95 283.231 1001.99H590.652C611.251 1001.95 631.342 1008.37 648.093 1020.35C655.059 1025.25 661.34 1031.06 666.772 1037.62C673.479 1045.62 678.865 1054.63 682.728 1064.33C684.985 1069.91 686.702 1075.69 687.857 1081.6C689.152 1087.97 689.796 1094.45 689.779 1100.95" fill="#0047BA"/>
</g>
<mask id="mask1_2036_5" style="mask-type:luminance" maskUnits="userSpaceOnUse" x="184" y="1002" width="506" height="276">
<path d="M283.181 1002C262.587 1001.96 242.501 1008.39 225.756 1020.36C218.788 1025.27 212.502 1031.08 207.06 1037.64C200.354 1045.64 194.967 1054.65 191.105 1064.34C188.853 1069.93 187.142 1075.71 185.992 1081.62C184.686 1087.98 184.031 1094.46 184.037 1100.96V1277.07H689.662V1100.96C689.679 1094.47 689.035 1087.98 687.741 1081.62C686.586 1075.71 684.868 1069.93 682.611 1064.34C678.748 1054.65 673.362 1045.64 666.656 1037.64C661.228 1031.07 654.946 1025.26 647.976 1020.36C631.225 1008.39 611.134 1001.97 590.535 1002H283.181Z" fill="white"/>
</mask>
<g mask="url(#mask1_2036_5)">
<path d="M199.074 1093.99C205.022 1093.99 210.836 1092.22 215.782 1088.92C220.728 1085.62 224.582 1080.93 226.858 1075.44C229.135 1069.95 229.73 1063.91 228.57 1058.08C227.409 1052.25 224.545 1046.9 220.339 1042.7C216.133 1038.5 210.775 1035.64 204.941 1034.48C199.107 1033.32 193.06 1033.91 187.565 1036.19C182.07 1038.46 177.373 1042.31 174.068 1047.25C170.764 1052.19 169 1058 169 1063.94C169 1071.91 172.168 1079.55 177.808 1085.19C183.448 1090.82 191.098 1093.99 199.074 1093.99Z" fill="white"/>
<path d="M280.942 1187.1C284.511 1187.1 287.999 1186.05 290.967 1184.07C293.934 1182.08 296.247 1179.27 297.613 1175.98C298.978 1172.68 299.336 1169.06 298.639 1165.56C297.943 1162.06 296.225 1158.85 293.701 1156.33C291.177 1153.81 287.962 1152.09 284.462 1151.4C280.962 1150.7 277.334 1151.06 274.037 1152.42C270.739 1153.79 267.921 1156.1 265.938 1159.06C263.956 1162.03 262.897 1165.51 262.897 1169.08C262.897 1173.86 264.799 1178.44 268.183 1181.82C271.566 1185.2 276.156 1187.1 280.942 1187.1Z" fill="white"/>
<path d="M304.332 1105.4C308.958 1105.4 313.481 1104.03 317.327 1101.46C321.174 1098.9 324.172 1095.25 325.942 1090.98C327.713 1086.71 328.176 1082.01 327.273 1077.48C326.371 1072.94 324.143 1068.78 320.872 1065.51C317.601 1062.24 313.433 1060.02 308.895 1059.12C304.358 1058.22 299.655 1058.68 295.381 1060.45C291.107 1062.22 287.454 1065.21 284.883 1069.05C282.313 1072.9 280.941 1077.41 280.941 1082.04C280.941 1088.23 283.406 1094.18 287.792 1098.56C292.179 1102.94 298.129 1105.4 304.332 1105.4Z" fill="white"/>
<path d="M229.148 1259.36C233.774 1259.36 238.296 1257.99 242.143 1255.42C245.989 1252.85 248.987 1249.2 250.758 1244.93C252.528 1240.66 252.991 1235.96 252.089 1231.43C251.186 1226.9 248.959 1222.73 245.687 1219.47C242.416 1216.2 238.248 1213.97 233.711 1213.07C229.174 1212.17 224.47 1212.63 220.196 1214.4C215.922 1216.17 212.269 1219.17 209.699 1223.01C207.129 1226.85 205.757 1231.37 205.757 1235.99C205.757 1242.19 208.221 1248.13 212.608 1252.51C216.994 1256.9 222.944 1259.36 229.148 1259.36Z" fill="white"/>
<path d="M376.175 1269.07C384.064 1269.07 391.775 1266.73 398.334 1262.36C404.893 1257.98 410.004 1251.75 413.022 1244.47C416.04 1237.19 416.829 1229.18 415.289 1221.45C413.749 1213.72 409.949 1206.62 404.37 1201.05C398.79 1195.48 391.683 1191.69 383.945 1190.15C376.208 1188.62 368.189 1189.41 360.902 1192.43C353.615 1195.45 347.387 1200.55 343.007 1207.11C338.627 1213.66 336.291 1221.37 336.294 1229.25C336.298 1239.81 340.502 1249.94 347.981 1257.41C355.46 1264.88 365.601 1269.07 376.175 1269.07Z" fill="white"/>
<path d="M415.99 1149.98C421.577 1150 427.045 1148.37 431.7 1145.28C436.355 1142.19 439.987 1137.79 442.137 1132.64C444.287 1127.49 444.857 1121.81 443.775 1116.34C442.694 1110.86 440.009 1105.83 436.062 1101.88C432.114 1097.93 427.081 1095.24 421.601 1094.14C416.121 1093.05 410.441 1093.61 405.279 1095.75C400.118 1097.89 395.708 1101.51 392.609 1106.16C389.51 1110.8 387.861 1116.26 387.871 1121.84C387.871 1129.32 390.841 1136.48 396.13 1141.77C401.419 1147.06 408.592 1150.03 416.073 1150.03" fill="white"/>
<path d="M472.144 1203.49C474.933 1203.49 477.66 1202.67 479.979 1201.12C482.297 1199.57 484.105 1197.37 485.172 1194.8C486.239 1192.22 486.519 1189.39 485.975 1186.66C485.431 1183.93 484.087 1181.42 482.115 1179.45C480.143 1177.48 477.631 1176.13 474.895 1175.59C472.16 1175.05 469.325 1175.33 466.748 1176.39C464.171 1177.46 461.969 1179.26 460.419 1181.58C458.87 1183.9 458.043 1186.62 458.043 1189.41C458.043 1193.14 459.529 1196.73 462.173 1199.37C464.818 1202.01 468.404 1203.49 472.144 1203.49Z" fill="white"/>
<path d="M530.621 1119.49C533.414 1119.49 536.146 1118.67 538.469 1117.12C540.793 1115.57 542.605 1113.37 543.677 1110.79C544.748 1108.22 545.03 1105.38 544.487 1102.64C543.944 1099.91 542.601 1097.39 540.627 1095.42C538.653 1093.44 536.138 1092.1 533.398 1091.55C530.659 1091.01 527.82 1091.29 525.239 1092.35C522.658 1093.42 520.453 1095.23 518.9 1097.55C517.348 1099.87 516.52 1102.6 516.52 1105.39C516.518 1107.24 516.881 1109.07 517.589 1110.78C518.296 1112.49 519.335 1114.05 520.644 1115.36C521.954 1116.67 523.509 1117.71 525.221 1118.42C526.933 1119.12 528.768 1119.49 530.621 1119.49Z" fill="white"/>
<path d="M552.542 1245.77C557.284 1245.77 561.919 1244.37 565.862 1241.73C569.805 1239.1 572.878 1235.36 574.692 1230.98C576.507 1226.61 576.982 1221.79 576.057 1217.15C575.132 1212.5 572.848 1208.23 569.495 1204.88C566.142 1201.53 561.87 1199.25 557.219 1198.33C552.569 1197.4 547.748 1197.88 543.367 1199.69C538.986 1201.5 535.241 1204.57 532.607 1208.51C529.973 1212.45 528.566 1217.08 528.566 1221.82C528.566 1228.17 531.092 1234.26 535.589 1238.76C540.085 1243.25 546.183 1245.77 552.542 1245.77Z" fill="white"/>
<path d="M624.034 1301C628.782 1301 633.423 1299.6 637.372 1296.97C641.32 1294.33 644.398 1290.59 646.215 1286.21C648.033 1281.83 648.508 1277.01 647.582 1272.35C646.655 1267.7 644.368 1263.43 641.01 1260.08C637.652 1256.73 633.374 1254.44 628.717 1253.52C624.06 1252.6 619.235 1253.08 614.85 1254.9C610.466 1256.72 606.72 1259.79 604.087 1263.74C601.454 1267.69 600.052 1272.32 600.059 1277.07C600.056 1280.21 600.675 1283.33 601.879 1286.24C603.083 1289.14 604.848 1291.79 607.075 1294.01C609.302 1296.24 611.945 1298 614.855 1299.21C617.765 1300.41 620.884 1301.03 624.034 1301.03" fill="white"/>
<path d="M626.791 1197.87C631.533 1197.87 636.168 1196.46 640.111 1193.83C644.054 1191.2 647.127 1187.46 648.941 1183.08C650.756 1178.71 651.231 1173.89 650.306 1169.24C649.381 1164.6 647.097 1160.33 643.744 1156.98C640.391 1153.63 636.119 1151.35 631.468 1150.43C626.818 1149.5 621.997 1149.98 617.616 1151.79C613.235 1153.6 609.491 1156.67 606.856 1160.61C604.222 1164.55 602.815 1169.18 602.815 1173.92C602.815 1180.27 605.341 1186.36 609.838 1190.85C614.334 1195.35 620.432 1197.87 626.791 1197.87Z" fill="white"/>
<path d="M695.961 1237.84C699.134 1237.85 702.236 1236.91 704.876 1235.15C707.516 1233.39 709.574 1230.89 710.791 1227.96C712.008 1225.04 712.328 1221.81 711.711 1218.7C711.094 1215.59 709.567 1212.74 707.325 1210.5C705.082 1208.25 702.224 1206.73 699.113 1206.11C696.001 1205.49 692.775 1205.8 689.843 1207.01C686.911 1208.23 684.405 1210.28 682.642 1212.92C680.879 1215.55 679.938 1218.65 679.938 1221.82C679.938 1226.07 681.626 1230.14 684.63 1233.14C687.634 1236.15 691.71 1237.84 695.961 1237.84Z" fill="white"/>
<path d="M676.78 1100.6C680.574 1100.6 684.282 1099.47 687.436 1097.37C690.59 1095.26 693.049 1092.27 694.5 1088.77C695.952 1085.27 696.332 1081.41 695.592 1077.7C694.852 1073.98 693.025 1070.57 690.343 1067.89C687.66 1065.21 684.243 1063.38 680.522 1062.64C676.801 1061.9 672.945 1062.28 669.44 1063.73C665.935 1065.18 662.94 1067.64 660.832 1070.79C658.725 1073.94 657.6 1077.64 657.6 1081.43C657.6 1086.52 659.62 1091.39 663.217 1094.98C666.814 1098.58 671.693 1100.6 676.78 1100.6Z" fill="white"/>
<path d="M607.627 1063.94C614.837 1063.94 621.886 1061.81 627.881 1057.8C633.876 1053.8 638.549 1048.12 641.308 1041.46C644.067 1034.81 644.789 1027.48 643.383 1020.42C641.976 1013.35 638.504 1006.86 633.405 1001.77C628.307 996.678 621.811 993.21 614.739 991.804C607.668 990.399 600.337 991.12 593.676 993.877C587.014 996.633 581.321 1001.3 577.315 1007.29C573.309 1013.28 571.171 1020.32 571.171 1027.52C571.171 1037.18 575.012 1046.45 581.849 1053.28C588.686 1060.11 597.958 1063.94 607.627 1063.94Z" fill="white"/>
</g>
<mask id="mask2_2036_5" style="mask-type:luminance" maskUnits="userSpaceOnUse" x="176" y="304" width="536" height="974">
<path d="M711.983 304H176.385V1277.03H711.983V304Z" fill="white"/>
</mask>
<g mask="url(#mask2_2036_5)">
<path d="M596.149 1002.02L589.917 1002.92C584.687 1010.5 543.586 1064.58 438.428 1064.58C329.912 1064.58 286.722 1006.98 283.414 1002.34L280.691 1002.02C307.94 1002.01 334.07 991.194 353.338 971.946C372.606 952.698 383.434 926.594 383.443 899.373C383.443 842.625 371.748 823.063 337.647 794.222L539.811 791.768C505.76 820.626 493.43 842.641 493.43 899.323C493.421 912.799 496.071 926.146 501.227 938.599C506.384 951.053 513.946 962.369 523.482 971.901C533.018 981.434 544.341 988.996 556.804 994.155C569.267 999.315 582.625 1001.97 596.115 1001.97" fill="#F8C09E"/>
<path d="M511.725 553.893H642.446V518.692C642.446 400.122 561.43 304 461.485 304H428.52C393.334 304 364.814 337.832 364.814 379.575C364.814 475.847 430.575 553.893 511.725 553.893Z" fill="#1D1D1B"/>
<path d="M595.714 526.82V612.927C595.714 702.974 524.974 776.012 437.743 776.012C350.512 776.012 279.772 702.907 279.772 612.927V526.82C279.772 436.774 350.479 363.736 437.743 363.736C462.243 363.713 486.392 369.557 508.166 380.777C523.515 388.7 537.465 399.074 549.468 411.488C579.311 442.457 595.91 483.817 595.748 526.804" fill="#F8C09E"/>
<path d="M550.537 386.786C538.662 372.61 524.656 360.364 509.018 350.483C499.411 323.194 476.705 304 450.224 304H417.243C317.314 304 236.282 400.122 236.282 518.692V553.893H367.003C431.762 553.893 486.68 504.154 506.245 435.172C513.3 463.088 526.515 489.076 544.923 511.231C560.117 529.547 579.309 544.14 601.027 553.893V531.193C601.027 474.829 581.763 423.755 550.604 386.786" fill="#1D1D1B"/>
<path d="M381.305 627.248C385.347 639.588 393.19 650.337 403.713 657.957C414.236 665.578 426.901 669.682 439.899 669.682C452.896 669.682 465.561 665.578 476.084 657.957C486.607 650.337 494.45 639.588 498.492 627.248H381.305Z" fill="white"/>
<path d="M491.325 592.899C491.325 586.794 493.752 580.94 498.073 576.624C502.394 572.307 508.254 569.882 514.364 569.882C520.475 569.882 526.335 572.307 530.656 576.624C534.977 580.94 537.404 586.794 537.404 592.899M342.392 592.899C342.309 589.823 342.844 586.762 343.965 583.896C345.086 581.03 346.771 578.417 348.919 576.213C351.067 574.008 353.636 572.255 356.474 571.059C359.311 569.862 362.36 569.246 365.44 569.246C368.52 569.246 371.569 569.862 374.407 571.059C377.245 572.255 379.813 574.008 381.962 576.213C384.11 578.417 385.795 581.03 386.916 583.896C388.037 586.762 388.572 589.823 388.489 592.899" stroke="#1C1C12" stroke-width="6.57" stroke-miterlimit="10" stroke-linecap="round"/>
<path d="M266.255 604.549C266.255 607.473 265.387 610.333 263.761 612.764C262.134 615.196 259.822 617.092 257.117 618.211C254.412 619.33 251.436 619.623 248.565 619.052C245.693 618.482 243.055 617.073 240.985 615.005C238.915 612.937 237.505 610.302 236.934 607.434C236.363 604.565 236.656 601.592 237.776 598.89C238.897 596.187 240.794 593.878 243.228 592.253C245.663 590.628 248.525 589.761 251.452 589.761C255.378 589.761 259.144 591.319 261.92 594.092C264.696 596.865 266.255 600.627 266.255 604.549Z" fill="#00AAE7"/>
<path d="M637.233 611.843C637.233 614.767 636.365 617.626 634.738 620.058C633.112 622.49 630.8 624.386 628.095 625.505C625.39 626.624 622.414 626.917 619.542 626.346C616.671 625.776 614.033 624.367 611.963 622.299C609.892 620.231 608.483 617.596 607.911 614.728C607.34 611.859 607.633 608.886 608.754 606.184C609.874 603.481 611.772 601.172 614.206 599.547C616.64 597.922 619.502 597.055 622.43 597.055C626.356 597.055 630.121 598.613 632.897 601.386C635.673 604.159 637.233 607.921 637.233 611.843Z" fill="#00AAE7"/>
</g>
<g clip-path="url(#clip0_2036_5)">
<path d="M710 69.5C674.353 63.3395 646.157 35.2792 640.5 0C634.58 35.4037 606.383 63.802 571 69.5C606.095 75.2395 634.547 103.593 640.5 139C646.456 103.466 674.807 75.4915 710 69.5Z" fill="#00AAE7"/>
</g>
<g clip-path="url(#clip1_2036_5)">
<path d="M139 447.5C103.353 441.339 75.1565 413.279 69.5 378C63.5796 413.404 35.3829 441.802 0 447.5C35.0954 453.24 63.547 481.593 69.5 517C75.456 481.466 103.807 453.492 139 447.5Z" fill="#85529C"/>
</g>
<g clip-path="url(#clip2_2036_5)">
<mask id="mask3_2036_5" style="mask-type:luminance" maskUnits="userSpaceOnUse" x="775" y="163" width="187" height="215">
<path d="M962 163H775V378H962V163Z" fill="white"/>
</mask>
<g mask="url(#mask3_2036_5)">
<path d="M899.444 190.598C893.478 194.273 886.644 196.302 879.638 196.478C870.441 197.007 862.793 194.812 858.067 190.343C856.339 188.692 854.979 186.696 854.077 184.483C853.174 182.27 852.75 179.892 852.832 177.504C852.739 175.416 853.119 173.333 853.944 171.412C854.769 169.491 856.018 167.781 857.597 166.41C861.021 163.979 865.168 162.777 869.363 163C872.665 163.033 875.954 163.434 879.168 164.196L884.423 165.352C899.131 168.508 906.818 170.527 906.818 178.406C906.7 180.891 905.964 183.307 904.677 185.436C903.389 187.565 901.591 189.339 899.444 190.598Z" fill="#1D1D1B"/>
<path d="M930.075 241.952C921.8 249.243 908.799 253.3 894.15 253.3C890.794 253.299 887.441 253.096 884.11 252.693C867.657 250.733 854.008 247.499 844.674 243.382C834.869 239.09 829.986 234.033 829.986 228.388C829.986 225.389 831.183 221.371 840.556 217.02C848.125 213.491 858.656 210.767 870.853 207.611C875.305 206.455 879.933 205.279 884.58 203.965C890.543 202.246 896.71 201.336 902.916 201.261C911.339 200.95 919.624 203.468 926.447 208.415C929.638 210.724 932.274 213.715 934.164 217.169C936.053 220.624 937.148 224.457 937.37 228.388C937.37 232.955 934.782 237.777 930.075 241.952Z" fill="#1D1D1B"/>
<path d="M860.852 259.18C907.72 261.807 937.684 272.195 937.194 285.641C937.037 289.973 935.233 295.442 922.035 300.009C911.583 303.576 896.719 305.673 879.501 308.045C872.442 309.025 865.186 310.005 857.597 311.259C852.949 311.808 848.42 312.435 844.047 313.102C833.342 314.354 822.517 314.149 811.867 312.494C801.807 310.73 793.571 307.222 788.06 302.341C785.665 300.406 783.737 297.956 782.42 295.173C781.103 292.39 780.43 289.347 780.452 286.269C780.601 283.71 781.273 281.209 782.426 278.92C783.579 276.631 785.19 274.602 787.158 272.96C792.727 267.903 801.336 264.12 812.769 261.709C823.613 259.596 834.646 258.604 845.694 258.749C850.544 258.749 855.597 258.893 860.852 259.18Z" fill="#1D1D1B"/>
<path d="M801.552 330.684C815.666 325.895 830.203 322.456 844.968 320.413C848.89 320.021 852.812 319.512 856.734 318.845L858.558 318.551C862.009 318.14 865.539 317.767 869.128 317.414C877.599 316.591 885.619 316.179 893.189 316.179C904.001 316.062 914.795 317.093 925.388 319.257C938.684 322.138 949.038 327.097 955.293 333.408C957.618 335.567 959.415 338.231 960.544 341.195C961.673 344.159 962.104 347.343 961.804 350.5C961.098 356.616 958.509 364.358 944.783 370.101C931.742 375.472 911.191 378.098 882.031 378.098C879.246 378.098 876.364 378.098 873.402 378.098C843.831 377.608 820.456 375.452 803.885 371.649C794.277 369.454 786.923 366.69 782.001 363.456C777.079 360.222 775 356.675 775 352.696C775 342.484 789.413 335.055 801.552 330.684Z" fill="#1D1D1B"/>
</g>
</g>
<defs>
<clipPath id="clip0_2036_5">
<rect width="139" height="139" fill="white" transform="translate(571)"/>
</clipPath>
<clipPath id="clip1_2036_5">
<rect width="139" height="139" fill="white" transform="translate(0 378)"/>
</clipPath>
<clipPath id="clip2_2036_5">
<rect width="187" height="215" fill="white" transform="translate(775 163)"/>
</clipPath>
</defs>
</svg>
