<svg width="100" height="73" viewBox="0 0 100 73" fill="none" xmlns="http://www.w3.org/2000/svg">
<path d="M86.5312 35.7969C90.8438 37.8594 94.0938 40.2031 96.2812 42.8281C98.5 45.4219 99.6094 48.3281 99.6094 51.5469C99.6094 52.8594 99.375 54.3281 98.9062 55.9531C98.4688 57.5781 97.6406 59.2031 96.4219 60.8281C95.2344 62.4531 93.6094 64.0156 91.5469 65.5156C89.4844 66.9844 86.8438 68.2344 83.625 69.2656C80 70.4531 75.7812 71.3281 70.9688 71.8906C66.1562 72.4844 60.75 72.7812 54.75 72.7812C50.5312 72.7812 46.3906 72.4844 42.3281 71.8906C38.2969 71.2969 34.4844 70.4531 30.8906 69.3594C27.3281 68.2344 24.0781 66.8906 21.1406 65.3281C18.2031 63.7656 15.7188 62.0312 13.6875 60.125L21.1406 52.25C22.3594 53.4062 24.0469 54.5781 26.2031 55.7656C28.3594 56.9219 30.875 57.9531 33.75 58.8594C36.6562 59.7656 39.875 60.5156 43.4062 61.1094C46.9375 61.6719 50.7188 61.9531 54.75 61.9531C56.5938 61.9531 58.6719 61.875 60.9844 61.7188C63.2969 61.5625 65.6406 61.3125 68.0156 60.9688C70.3906 60.625 72.7031 60.1875 74.9531 59.6562C77.2344 59.125 79.25 58.5 81 57.7812C82.7812 57.0312 84.2031 56.1719 85.2656 55.2031C86.3594 54.2031 86.9062 53.0938 86.9062 51.875C86.9062 50.8438 86.5156 49.75 85.7344 48.5938C84.9531 47.4375 83.6094 46.375 81.7031 45.4062C79.8281 44.4375 77.3125 43.6406 74.1562 43.0156C71.0312 42.3594 67.0938 42.0312 62.3438 42.0312H15.6562C15.4062 43.0312 15.125 44.1719 14.8125 45.4531C14.5 46.7344 14.2656 47.9688 14.1094 49.1562C13.9844 50.125 13.8594 51.1875 13.7344 52.3438C13.6094 53.4688 13.5 54.6406 13.4062 55.8594C13.3438 57.0781 13.2812 58.2969 13.2188 59.5156C13.1562 60.7344 13.0938 61.9062 13.0312 63.0312C12.9062 65.6562 12.8281 68.3125 12.7969 71H0.984375V2.28125H12.7969V21.875C13.1094 21.4375 13.6875 20.6094 14.5312 19.3906C15.375 18.1719 16.5781 16.7656 18.1406 15.1719C19.7344 13.5781 21.7188 11.9219 24.0938 10.2031C26.5 8.48438 29.375 6.90625 32.7188 5.46875C36.0625 4.03125 39.9375 2.84375 44.3438 1.90625C48.7812 0.96875 53.8125 0.5 59.4375 0.5C64.5938 0.5 69.2969 0.984375 73.5469 1.95312C77.7969 2.92188 81.4844 4.34375 84.6094 6.21875C87.7656 8.125 90.2031 10.4219 91.9219 13.1094C93.6406 15.7656 94.5 18.6094 94.5 21.6406C94.5 24.3594 93.7969 26.9375 92.3906 29.375C91.0156 31.8125 89.0625 33.9531 86.5312 35.7969ZM63.3281 31.2031C66.8281 31.2031 69.8594 30.8906 72.4219 30.2656C74.9844 29.6406 77.0938 28.8594 78.75 27.9219C80.4062 26.9844 81.6406 25.9531 82.4531 24.8281C83.2656 23.7031 83.6719 22.6406 83.6719 21.6406C83.6719 20.5781 83.2656 19.5156 82.4531 18.4531C81.6406 17.3906 80.4844 16.4062 78.9844 15.5C78.2031 15.0312 77.2344 14.5469 76.0781 14.0469C74.9219 13.5469 73.5469 13.0938 71.9531 12.6875C70.3594 12.2812 68.5312 11.9531 66.4688 11.7031C64.4062 11.4531 62.0625 11.3281 59.4375 11.3281C53.7812 11.3281 48.8125 11.8438 44.5312 12.875C40.25 13.875 36.5312 15.2656 33.375 17.0469C30.2188 18.8281 27.5469 20.9375 25.3594 23.375C23.1719 25.7812 21.3281 28.3906 19.8281 31.2031H63.3281Z" fill="black"/>
</svg>
