<svg width="97" height="194" viewBox="0 0 97 194" fill="none" xmlns="http://www.w3.org/2000/svg">
<path d="M49.0156 11.7031C47.7031 11.7031 46.3906 11.9219 45.0781 12.3594C43.7969 12.7656 42.6875 13.5312 41.75 14.6562C40.8438 15.75 40.2812 16.9531 40.0625 18.2656C39.8438 19.5781 39.7344 20.6406 39.7344 21.4531C39.7344 22.9844 39.9375 24.7656 40.3438 26.7969L28.1562 26.75C27.6562 24.5938 27.4062 22.5469 27.4062 20.6094C27.4062 19.1094 27.6562 17.2188 28.1562 14.9375C28.6562 12.625 29.875 10.3281 31.8125 8.04688C33.75 5.73438 36.2188 3.9375 39.2188 2.65625C42.25 1.375 45.6094 0.734375 49.2969 0.734375C51.4844 0.734375 53.6875 1.14063 55.9062 1.95312C58.1562 2.73438 60.2188 3.875 62.0938 5.375C63.9688 6.84375 65.5469 8.625 66.8281 10.7188C68.1406 12.8125 68.8906 14.6875 69.0781 16.3438C69.2969 17.9688 69.4062 19.1406 69.4062 19.8594C69.4062 21.8906 69.0156 24.2188 68.2344 26.8438C67.4844 29.4688 65.8594 32.4531 63.3594 35.7969C62.9219 36.3594 62.2812 37.1719 61.4375 38.2344C60.5938 39.2656 59.6094 40.4688 58.4844 41.8438C57.3906 43.1875 56.1719 44.6562 54.8281 46.25C53.5156 47.8125 52.1719 49.4375 50.7969 51.125C49.4531 52.7812 48.0938 54.4375 46.7188 56.0938C45.375 57.7188 44.0938 59.2812 42.875 60.7812H58.6719V52.0625H70.1094V71H28.7656V58.5781L45.5938 38.7031C48.625 35.3281 50.9375 32.3125 52.5312 29.6562C54.125 27 55.1562 24.8438 55.625 23.1875C56.125 21.5 56.375 20.125 56.375 19.0625C56.375 18.5313 56.2812 17.8125 56.0938 16.9062C55.9062 15.9688 55.4375 15.0625 54.6875 14.1875C53.9375 13.3125 53.0469 12.6875 52.0156 12.3125C50.9844 11.9062 49.9844 11.7031 49.0156 11.7031ZM0.5 103.531V92.0469H96.5V103.531H0.5ZM65.1406 152.75C66.8281 153.781 68.3438 154.953 69.6875 156.266C71.0312 157.547 72.1875 158.953 73.1562 160.484C74.125 162.016 74.8594 163.641 75.3594 165.359C75.8906 167.078 76.1562 168.859 76.1562 170.703C76.1562 173.797 75.4219 176.703 73.9531 179.422C72.5156 182.141 70.5469 184.531 68.0469 186.594C65.5781 188.625 62.6719 190.219 59.3281 191.375C55.9844 192.562 52.4062 193.156 48.5938 193.156C44.7812 193.156 41.2031 192.562 37.8594 191.375C34.5156 190.219 31.5938 188.625 29.0938 186.594C26.5938 184.531 24.625 182.141 23.1875 179.422C21.75 176.703 21.0312 173.797 21.0312 170.703C21.0312 168.859 21.2812 167.078 21.7812 165.359C22.3125 163.641 23.0469 162.016 23.9844 160.484C24.9531 158.953 26.1094 157.547 27.4531 156.266C28.8281 154.953 30.3438 153.781 32 152.75C30.1875 151.062 28.7656 149.125 27.7344 146.938C26.7344 144.75 26.2344 142.422 26.2344 139.953C26.2344 137.328 26.8125 134.859 27.9688 132.547C29.1562 130.203 30.75 128.172 32.75 126.453C34.7812 124.734 37.1562 123.375 39.875 122.375C42.5938 121.375 45.5 120.875 48.5938 120.875C51.6875 120.875 54.5781 121.375 57.2656 122.375C59.9844 123.375 62.3594 124.734 64.3906 126.453C66.4219 128.172 68.0156 130.203 69.1719 132.547C70.3594 134.859 70.9531 137.328 70.9531 139.953C70.9531 142.422 70.4375 144.75 69.4062 146.938C68.375 149.125 66.9531 151.062 65.1406 152.75ZM39.7812 134.703C39.5312 134.922 39.25 135.203 38.9375 135.547C38.625 135.891 38.3281 136.281 38.0469 136.719C37.7656 137.156 37.5312 137.656 37.3438 138.219C37.1562 138.75 37.0625 139.328 37.0625 139.953C37.0625 140.578 37.1562 141.172 37.3438 141.734C37.5312 142.266 37.7656 142.75 38.0469 143.188C38.3281 143.625 38.625 144.016 38.9375 144.359C39.25 144.703 39.5312 144.984 39.7812 145.203C40.9062 146.141 42.2344 146.875 43.7656 147.406C45.2969 147.906 46.9062 148.156 48.5938 148.156C50.2812 148.156 51.875 147.906 53.375 147.406C54.9062 146.875 56.2344 146.141 57.3594 145.203C57.6094 144.984 57.8906 144.703 58.2031 144.359C58.5469 144.016 58.8594 143.625 59.1406 143.188C59.4219 142.75 59.6562 142.266 59.8438 141.734C60.0312 141.172 60.125 140.578 60.125 139.953C60.125 139.328 60.0312 138.75 59.8438 138.219C59.6562 137.656 59.4219 137.156 59.1406 136.719C58.8594 136.281 58.5469 135.891 58.2031 135.547C57.8906 135.203 57.6094 134.922 57.3594 134.703C56.2344 133.734 54.9062 133 53.375 132.5C51.875 131.969 50.2812 131.703 48.5938 131.703C46.9062 131.703 45.2969 131.969 43.7656 132.5C42.2344 133 40.9062 133.734 39.7812 134.703ZM61.2031 178.156C61.5781 177.844 62 177.453 62.4688 176.984C62.9688 176.516 63.4219 175.969 63.8281 175.344C64.2344 174.688 64.5781 173.984 64.8594 173.234C65.1406 172.453 65.2812 171.609 65.2812 170.703C65.2812 169.797 65.1406 168.953 64.8594 168.172C64.5781 167.391 64.2344 166.688 63.8281 166.062C63.4219 165.438 62.9688 164.891 62.4688 164.422C62 163.922 61.5781 163.516 61.2031 163.203C59.5781 161.891 57.6719 160.875 55.4844 160.156C53.2969 159.438 51 159.078 48.5938 159.078C46.1562 159.078 43.8438 159.438 41.6562 160.156C39.4688 160.875 37.5625 161.891 35.9375 163.203C35.5625 163.516 35.125 163.922 34.625 164.422C34.1562 164.891 33.7188 165.438 33.3125 166.062C32.9062 166.688 32.5625 167.391 32.2812 168.172C32 168.953 31.8594 169.797 31.8594 170.703C31.8594 171.609 32 172.453 32.2812 173.234C32.5625 173.984 32.9062 174.688 33.3125 175.344C33.7188 175.969 34.1562 176.516 34.625 176.984C35.125 177.453 35.5625 177.844 35.9375 178.156C37.5625 179.5 39.4688 180.531 41.6562 181.25C43.8438 181.969 46.1562 182.328 48.5938 182.328C51 182.328 53.2969 181.969 55.4844 181.25C57.6719 180.531 59.5781 179.5 61.2031 178.156Z" fill="black"/>
</svg>
