<svg width="97" height="193" viewBox="0 0 97 193" fill="none" xmlns="http://www.w3.org/2000/svg">
<path d="M53.0938 35.7344C55.8125 36.4844 58.0625 37.5781 59.8438 39.0156C61.625 40.4219 62.9531 42.0312 63.8281 43.8438C64.7031 45.625 65.1406 47.5312 65.1406 49.5625C65.1406 49.5938 65.125 50.1406 65.0938 51.2031C65.0938 52.2656 64.6719 53.8281 63.8281 55.8906C62.9844 57.9219 61.7188 59.875 60.0312 61.75C58.3438 63.625 56.2656 65.2969 53.7969 66.7656C51.3594 68.2031 48.5312 69.3438 45.3125 70.1875C42.0938 71.0625 38.5156 71.5 34.5781 71.5L34.4375 59.8281C37.5312 59.8281 40.3125 59.4375 42.7812 58.6562C45.25 57.875 47.2812 56.8906 48.875 55.7031C50.5 54.5156 51.5312 53.3906 51.9688 52.3281C52.4375 51.2344 52.6719 50.3438 52.6719 49.6562C52.6719 48.9688 52.4375 48.1406 51.9688 47.1719C51.5312 46.1719 50.3281 45.1719 48.3594 44.1719C46.4219 43.1719 43.7031 42.5 40.2031 42.1562V29.7812C43.7344 29.4375 46.4688 28.75 48.4062 27.7188C50.3438 26.6875 51.5312 25.6719 51.9688 24.6719C52.4375 23.6719 52.6719 22.8281 52.6719 22.1406C52.6719 21.4219 52.4375 20.5156 51.9688 19.4219C51.5 18.2969 50.4688 17.125 48.875 15.9062C47.2812 14.6562 45.25 13.625 42.7812 12.8125C40.3125 12 37.5312 11.5938 34.4375 11.5938L34.5781 0.0625C38.4531 0.0625 41.9844 0.5 45.1719 1.375C48.3594 2.21875 51.1719 3.35937 53.6094 4.79688C56.0469 6.23438 58.1094 7.89062 59.7969 9.76562C61.4844 11.6406 62.7656 13.6094 63.6406 15.6719C64.5156 17.7031 64.9531 19.25 64.9531 20.3125C64.9844 21.375 65 21.9531 65 22.0469C65 24.0156 64.5781 25.8906 63.7344 27.6719C62.8906 29.4531 61.5781 31.0625 59.7969 32.5C58.0469 33.9062 55.8125 34.9844 53.0938 35.7344ZM0.5 102.531V91.0469H96.5V102.531H0.5ZM65.1406 151.75C66.8281 152.781 68.3438 153.953 69.6875 155.266C71.0312 156.547 72.1875 157.953 73.1562 159.484C74.125 161.016 74.8594 162.641 75.3594 164.359C75.8906 166.078 76.1562 167.859 76.1562 169.703C76.1562 172.797 75.4219 175.703 73.9531 178.422C72.5156 181.141 70.5469 183.531 68.0469 185.594C65.5781 187.625 62.6719 189.219 59.3281 190.375C55.9844 191.562 52.4062 192.156 48.5938 192.156C44.7812 192.156 41.2031 191.562 37.8594 190.375C34.5156 189.219 31.5938 187.625 29.0938 185.594C26.5938 183.531 24.625 181.141 23.1875 178.422C21.75 175.703 21.0312 172.797 21.0312 169.703C21.0312 167.859 21.2812 166.078 21.7812 164.359C22.3125 162.641 23.0469 161.016 23.9844 159.484C24.9531 157.953 26.1094 156.547 27.4531 155.266C28.8281 153.953 30.3438 152.781 32 151.75C30.1875 150.062 28.7656 148.125 27.7344 145.938C26.7344 143.75 26.2344 141.422 26.2344 138.953C26.2344 136.328 26.8125 133.859 27.9688 131.547C29.1562 129.203 30.75 127.172 32.75 125.453C34.7812 123.734 37.1562 122.375 39.875 121.375C42.5938 120.375 45.5 119.875 48.5938 119.875C51.6875 119.875 54.5781 120.375 57.2656 121.375C59.9844 122.375 62.3594 123.734 64.3906 125.453C66.4219 127.172 68.0156 129.203 69.1719 131.547C70.3594 133.859 70.9531 136.328 70.9531 138.953C70.9531 141.422 70.4375 143.75 69.4062 145.938C68.375 148.125 66.9531 150.062 65.1406 151.75ZM39.7812 133.703C39.5312 133.922 39.25 134.203 38.9375 134.547C38.625 134.891 38.3281 135.281 38.0469 135.719C37.7656 136.156 37.5312 136.656 37.3438 137.219C37.1562 137.75 37.0625 138.328 37.0625 138.953C37.0625 139.578 37.1562 140.172 37.3438 140.734C37.5312 141.266 37.7656 141.75 38.0469 142.188C38.3281 142.625 38.625 143.016 38.9375 143.359C39.25 143.703 39.5312 143.984 39.7812 144.203C40.9062 145.141 42.2344 145.875 43.7656 146.406C45.2969 146.906 46.9062 147.156 48.5938 147.156C50.2812 147.156 51.875 146.906 53.375 146.406C54.9062 145.875 56.2344 145.141 57.3594 144.203C57.6094 143.984 57.8906 143.703 58.2031 143.359C58.5469 143.016 58.8594 142.625 59.1406 142.188C59.4219 141.75 59.6562 141.266 59.8438 140.734C60.0312 140.172 60.125 139.578 60.125 138.953C60.125 138.328 60.0312 137.75 59.8438 137.219C59.6562 136.656 59.4219 136.156 59.1406 135.719C58.8594 135.281 58.5469 134.891 58.2031 134.547C57.8906 134.203 57.6094 133.922 57.3594 133.703C56.2344 132.734 54.9062 132 53.375 131.5C51.875 130.969 50.2812 130.703 48.5938 130.703C46.9062 130.703 45.2969 130.969 43.7656 131.5C42.2344 132 40.9062 132.734 39.7812 133.703ZM61.2031 177.156C61.5781 176.844 62 176.453 62.4688 175.984C62.9688 175.516 63.4219 174.969 63.8281 174.344C64.2344 173.688 64.5781 172.984 64.8594 172.234C65.1406 171.453 65.2812 170.609 65.2812 169.703C65.2812 168.797 65.1406 167.953 64.8594 167.172C64.5781 166.391 64.2344 165.688 63.8281 165.062C63.4219 164.438 62.9688 163.891 62.4688 163.422C62 162.922 61.5781 162.516 61.2031 162.203C59.5781 160.891 57.6719 159.875 55.4844 159.156C53.2969 158.438 51 158.078 48.5938 158.078C46.1562 158.078 43.8438 158.438 41.6562 159.156C39.4688 159.875 37.5625 160.891 35.9375 162.203C35.5625 162.516 35.125 162.922 34.625 163.422C34.1562 163.891 33.7188 164.438 33.3125 165.062C32.9062 165.688 32.5625 166.391 32.2812 167.172C32 167.953 31.8594 168.797 31.8594 169.703C31.8594 170.609 32 171.453 32.2812 172.234C32.5625 172.984 32.9062 173.688 33.3125 174.344C33.7188 174.969 34.1562 175.516 34.625 175.984C35.125 176.453 35.5625 176.844 35.9375 177.156C37.5625 178.5 39.4688 179.531 41.6562 180.25C43.8438 180.969 46.1562 181.328 48.5938 181.328C51 181.328 53.2969 180.969 55.4844 180.25C57.6719 179.531 59.5781 178.5 61.2031 177.156Z" fill="black"/>
</svg>
