<svg width="97" height="194" viewBox="0 0 97 194" fill="none" xmlns="http://www.w3.org/2000/svg">
<path d="M65.1406 32.75C66.8281 33.7812 68.3438 34.9531 69.6875 36.2656C71.0312 37.5469 72.1875 38.9531 73.1562 40.4844C74.125 42.0156 74.8594 43.6406 75.3594 45.3594C75.8906 47.0781 76.1562 48.8594 76.1562 50.7031C76.1562 53.7969 75.4219 56.7031 73.9531 59.4219C72.5156 62.1406 70.5469 64.5312 68.0469 66.5938C65.5781 68.625 62.6719 70.2188 59.3281 71.375C55.9844 72.5625 52.4062 73.1562 48.5938 73.1562C44.7812 73.1562 41.2031 72.5625 37.8594 71.375C34.5156 70.2188 31.5938 68.625 29.0938 66.5938C26.5938 64.5312 24.625 62.1406 23.1875 59.4219C21.75 56.7031 21.0312 53.7969 21.0312 50.7031C21.0312 48.8594 21.2812 47.0781 21.7812 45.3594C22.3125 43.6406 23.0469 42.0156 23.9844 40.4844C24.9531 38.9531 26.1094 37.5469 27.4531 36.2656C28.8281 34.9531 30.3438 33.7812 32 32.75C30.1875 31.0625 28.7656 29.125 27.7344 26.9375C26.7344 24.75 26.2344 22.4219 26.2344 19.9531C26.2344 17.3281 26.8125 14.8594 27.9688 12.5469C29.1562 10.2031 30.75 8.17188 32.75 6.45312C34.7812 4.73437 37.1562 3.375 39.875 2.375C42.5938 1.375 45.5 0.875 48.5938 0.875C51.6875 0.875 54.5781 1.375 57.2656 2.375C59.9844 3.375 62.3594 4.73437 64.3906 6.45312C66.4219 8.17188 68.0156 10.2031 69.1719 12.5469C70.3594 14.8594 70.9531 17.3281 70.9531 19.9531C70.9531 22.4219 70.4375 24.75 69.4062 26.9375C68.375 29.125 66.9531 31.0625 65.1406 32.75ZM39.7812 14.7031C39.5312 14.9219 39.25 15.2031 38.9375 15.5469C38.625 15.8906 38.3281 16.2813 38.0469 16.7188C37.7656 17.1562 37.5312 17.6562 37.3438 18.2188C37.1562 18.75 37.0625 19.3281 37.0625 19.9531C37.0625 20.5781 37.1562 21.1719 37.3438 21.7344C37.5312 22.2656 37.7656 22.75 38.0469 23.1875C38.3281 23.625 38.625 24.0156 38.9375 24.3594C39.25 24.7031 39.5312 24.9844 39.7812 25.2031C40.9062 26.1406 42.2344 26.875 43.7656 27.4062C45.2969 27.9062 46.9062 28.1562 48.5938 28.1562C50.2812 28.1562 51.875 27.9062 53.375 27.4062C54.9062 26.875 56.2344 26.1406 57.3594 25.2031C57.6094 24.9844 57.8906 24.7031 58.2031 24.3594C58.5469 24.0156 58.8594 23.625 59.1406 23.1875C59.4219 22.75 59.6562 22.2656 59.8438 21.7344C60.0312 21.1719 60.125 20.5781 60.125 19.9531C60.125 19.3281 60.0312 18.75 59.8438 18.2188C59.6562 17.6562 59.4219 17.1562 59.1406 16.7188C58.8594 16.2813 58.5469 15.8906 58.2031 15.5469C57.8906 15.2031 57.6094 14.9219 57.3594 14.7031C56.2344 13.7344 54.9062 13 53.375 12.5C51.875 11.9688 50.2812 11.7031 48.5938 11.7031C46.9062 11.7031 45.2969 11.9688 43.7656 12.5C42.2344 13 40.9062 13.7344 39.7812 14.7031ZM61.2031 58.1562C61.5781 57.8438 62 57.4531 62.4688 56.9844C62.9688 56.5156 63.4219 55.9688 63.8281 55.3438C64.2344 54.6875 64.5781 53.9844 64.8594 53.2344C65.1406 52.4531 65.2812 51.6094 65.2812 50.7031C65.2812 49.7969 65.1406 48.9531 64.8594 48.1719C64.5781 47.3906 64.2344 46.6875 63.8281 46.0625C63.4219 45.4375 62.9688 44.8906 62.4688 44.4219C62 43.9219 61.5781 43.5156 61.2031 43.2031C59.5781 41.8906 57.6719 40.875 55.4844 40.1562C53.2969 39.4375 51 39.0781 48.5938 39.0781C46.1562 39.0781 43.8438 39.4375 41.6562 40.1562C39.4688 40.875 37.5625 41.8906 35.9375 43.2031C35.5625 43.5156 35.125 43.9219 34.625 44.4219C34.1562 44.8906 33.7188 45.4375 33.3125 46.0625C32.9062 46.6875 32.5625 47.3906 32.2812 48.1719C32 48.9531 31.8594 49.7969 31.8594 50.7031C31.8594 51.6094 32 52.4531 32.2812 53.2344C32.5625 53.9844 32.9062 54.6875 33.3125 55.3438C33.7188 55.9688 34.1562 56.5156 34.625 56.9844C35.125 57.4531 35.5625 57.8438 35.9375 58.1562C37.5625 59.5 39.4688 60.5312 41.6562 61.25C43.8438 61.9688 46.1562 62.3281 48.5938 62.3281C51 62.3281 53.2969 61.9688 55.4844 61.25C57.6719 60.5312 59.5781 59.5 61.2031 58.1562ZM0.5 103.531V92.0469H96.5V103.531H0.5ZM65.1406 152.75C66.8281 153.781 68.3438 154.953 69.6875 156.266C71.0312 157.547 72.1875 158.953 73.1562 160.484C74.125 162.016 74.8594 163.641 75.3594 165.359C75.8906 167.078 76.1562 168.859 76.1562 170.703C76.1562 173.797 75.4219 176.703 73.9531 179.422C72.5156 182.141 70.5469 184.531 68.0469 186.594C65.5781 188.625 62.6719 190.219 59.3281 191.375C55.9844 192.562 52.4062 193.156 48.5938 193.156C44.7812 193.156 41.2031 192.562 37.8594 191.375C34.5156 190.219 31.5938 188.625 29.0938 186.594C26.5938 184.531 24.625 182.141 23.1875 179.422C21.75 176.703 21.0312 173.797 21.0312 170.703C21.0312 168.859 21.2812 167.078 21.7812 165.359C22.3125 163.641 23.0469 162.016 23.9844 160.484C24.9531 158.953 26.1094 157.547 27.4531 156.266C28.8281 154.953 30.3438 153.781 32 152.75C30.1875 151.062 28.7656 149.125 27.7344 146.938C26.7344 144.75 26.2344 142.422 26.2344 139.953C26.2344 137.328 26.8125 134.859 27.9688 132.547C29.1562 130.203 30.75 128.172 32.75 126.453C34.7812 124.734 37.1562 123.375 39.875 122.375C42.5938 121.375 45.5 120.875 48.5938 120.875C51.6875 120.875 54.5781 121.375 57.2656 122.375C59.9844 123.375 62.3594 124.734 64.3906 126.453C66.4219 128.172 68.0156 130.203 69.1719 132.547C70.3594 134.859 70.9531 137.328 70.9531 139.953C70.9531 142.422 70.4375 144.75 69.4062 146.938C68.375 149.125 66.9531 151.062 65.1406 152.75ZM39.7812 134.703C39.5312 134.922 39.25 135.203 38.9375 135.547C38.625 135.891 38.3281 136.281 38.0469 136.719C37.7656 137.156 37.5312 137.656 37.3438 138.219C37.1562 138.75 37.0625 139.328 37.0625 139.953C37.0625 140.578 37.1562 141.172 37.3438 141.734C37.5312 142.266 37.7656 142.75 38.0469 143.188C38.3281 143.625 38.625 144.016 38.9375 144.359C39.25 144.703 39.5312 144.984 39.7812 145.203C40.9062 146.141 42.2344 146.875 43.7656 147.406C45.2969 147.906 46.9062 148.156 48.5938 148.156C50.2812 148.156 51.875 147.906 53.375 147.406C54.9062 146.875 56.2344 146.141 57.3594 145.203C57.6094 144.984 57.8906 144.703 58.2031 144.359C58.5469 144.016 58.8594 143.625 59.1406 143.188C59.4219 142.75 59.6562 142.266 59.8438 141.734C60.0312 141.172 60.125 140.578 60.125 139.953C60.125 139.328 60.0312 138.75 59.8438 138.219C59.6562 137.656 59.4219 137.156 59.1406 136.719C58.8594 136.281 58.5469 135.891 58.2031 135.547C57.8906 135.203 57.6094 134.922 57.3594 134.703C56.2344 133.734 54.9062 133 53.375 132.5C51.875 131.969 50.2812 131.703 48.5938 131.703C46.9062 131.703 45.2969 131.969 43.7656 132.5C42.2344 133 40.9062 133.734 39.7812 134.703ZM61.2031 178.156C61.5781 177.844 62 177.453 62.4688 176.984C62.9688 176.516 63.4219 175.969 63.8281 175.344C64.2344 174.688 64.5781 173.984 64.8594 173.234C65.1406 172.453 65.2812 171.609 65.2812 170.703C65.2812 169.797 65.1406 168.953 64.8594 168.172C64.5781 167.391 64.2344 166.688 63.8281 166.062C63.4219 165.438 62.9688 164.891 62.4688 164.422C62 163.922 61.5781 163.516 61.2031 163.203C59.5781 161.891 57.6719 160.875 55.4844 160.156C53.2969 159.438 51 159.078 48.5938 159.078C46.1562 159.078 43.8438 159.438 41.6562 160.156C39.4688 160.875 37.5625 161.891 35.9375 163.203C35.5625 163.516 35.125 163.922 34.625 164.422C34.1562 164.891 33.7188 165.438 33.3125 166.062C32.9062 166.688 32.5625 167.391 32.2812 168.172C32 168.953 31.8594 169.797 31.8594 170.703C31.8594 171.609 32 172.453 32.2812 173.234C32.5625 173.984 32.9062 174.688 33.3125 175.344C33.7188 175.969 34.1562 176.516 34.625 176.984C35.125 177.453 35.5625 177.844 35.9375 178.156C37.5625 179.5 39.4688 180.531 41.6562 181.25C43.8438 181.969 46.1562 182.328 48.5938 182.328C51 182.328 53.2969 181.969 55.4844 181.25C57.6719 180.531 59.5781 179.5 61.2031 178.156Z" fill="black"/>
</svg>
