<svg width="168" height="168" viewBox="0 0 168 168" fill="none" xmlns="http://www.w3.org/2000/svg">
<g clip-path="url(#clip0_29_558)">
<path d="M95.9888 0H71.9916V168H95.9888V0Z" fill="#0047BA"/>
<path d="M168 71.9912H0V95.9884H168V71.9912Z" fill="#0047BA"/>
<path d="M134.905 16.1123L16.1108 134.906L33.0794 151.875L151.873 33.0809L134.905 16.1123Z" fill="#0047BA"/>
<path d="M33.0794 16.1252L16.1108 33.0938L134.905 151.888L151.873 134.919L33.0794 16.1252Z" fill="#0047BA"/>
<path d="M104.78 1.73215L41.0043 157.156L63.2051 166.266L126.981 10.8419L104.78 1.73215Z" fill="#0047BA"/>
<path d="M10.8407 41.0237L1.73096 63.2246L157.155 127L166.265 104.8L10.8407 41.0237Z" fill="#0047BA"/>
<path d="M156.877 40.5103L1.87921 105.315L11.136 127.455L166.134 62.6502L156.877 40.5103Z" fill="#0047BA"/>
<path d="M62.6491 1.88773L40.5092 11.1445L105.314 166.142L127.454 156.885L62.6491 1.88773Z" fill="#0047BA"/>
</g>
<defs>
<clipPath id="clip0_29_558">
<rect width="168" height="168" fill="white"/>
</clipPath>
</defs>
</svg>
