<svg width="602" height="513" viewBox="0 0 602 513" fill="none" xmlns="http://www.w3.org/2000/svg">
<g clip-path="url(#clip0_2028_3)">
<mask id="mask0_2028_3" style="mask-type:luminance" maskUnits="userSpaceOnUse" x="0" y="0" width="404" height="217">
<path d="M403.28 57.6667L24.0328 0.457031L0.0297256 159.576L379.277 216.785L403.28 57.6667Z" fill="white"/>
</mask>
<g mask="url(#mask0_2028_3)">
<path d="M60.1012 55.9599C46.0035 56.3123 32.6228 62.2493 22.9016 72.4653C13.1803 82.6813 7.91439 96.34 8.2617 110.438L8.4121 116.398C8.76442 130.495 14.7021 143.875 24.919 153.594C35.136 163.313 48.7952 168.576 62.8921 168.224L343.211 161.267C350.196 161.095 357.079 159.548 363.466 156.715C369.853 153.881 375.619 149.816 380.434 144.753C385.249 139.69 389.019 133.727 391.528 127.205C394.037 120.684 395.236 113.732 395.057 106.747L394.907 100.786C394.54 86.6969 388.595 73.3294 378.379 63.62C368.163 53.9105 354.51 48.6533 340.42 49.003L60.1012 55.9599Z" fill="#C2A9CE"/>
</g>
<path d="M48.9151 123.155L48.3516 98.2976L52.6834 98.1746L53.12 115.867L65.7006 97.8522L69.5396 97.7556L70.1031 122.613L65.7713 122.736L65.3445 105.074L52.74 123.056L48.9151 123.155Z" fill="#1D1D1B"/>
<path d="M73.8736 118.682L75.8926 118.642C77.2709 116.072 77.9676 113.192 77.9164 110.277L78.0876 106.378L89.8781 106.086L90.1829 118.267L92.8374 118.207L93.0258 125.726L89.1868 125.823L89.0647 122.153L77.765 122.432L77.8483 126.168L74.0677 126.26L73.8736 118.682ZM80.152 118.522L86.0964 118.384L85.9164 110.046L82.0071 110.132L81.9319 111.774C81.8936 114.149 81.2807 116.478 80.1456 118.564L80.152 118.522Z" fill="#1D1D1B"/>
<path d="M109.308 120.06C107.591 121.451 105.445 122.204 103.235 122.192C98.083 122.321 94.5477 119.07 94.4042 114.016C94.328 112.898 94.4862 111.776 94.8686 110.723C95.251 109.67 95.8493 108.708 96.6251 107.899C97.4008 107.09 98.337 106.452 99.3736 106.026C100.41 105.6 101.524 105.395 102.645 105.425C103.641 105.359 104.64 105.498 105.58 105.834C106.521 106.169 107.382 106.694 108.112 107.375C108.842 108.056 109.425 108.88 109.824 109.795C110.223 110.71 110.43 111.698 110.433 112.696C110.481 113.439 110.416 114.186 110.243 114.91L98.7335 115.244C98.9286 116.359 99.5453 117.356 100.456 118.029C101.366 118.702 102.5 118.998 103.623 118.857C105.243 118.837 106.811 118.286 108.087 117.288L109.308 120.06ZM98.95 98.369C99.2413 98.3683 99.5298 98.4257 99.7986 98.5379C100.067 98.6501 100.311 98.8148 100.515 99.0224C100.72 99.23 100.881 99.4762 100.989 99.7468C101.097 100.017 101.149 100.307 101.144 100.598C101.171 100.888 101.141 101.181 101.055 101.459C100.969 101.738 100.829 101.996 100.643 102.221C100.457 102.445 100.229 102.63 99.9708 102.766C99.7131 102.902 99.431 102.986 99.1409 103.013C98.829 103.03 98.5171 102.982 98.225 102.871C97.9329 102.761 97.667 102.591 97.4443 102.372C97.2216 102.153 97.0471 101.89 96.9317 101.6C96.8164 101.309 96.7628 100.998 96.7745 100.686C96.7572 100.388 96.8006 100.089 96.9019 99.8072C97.0032 99.5258 97.1604 99.2677 97.3641 99.0486C97.5677 98.8295 97.8135 98.6539 98.0868 98.5322C98.3601 98.4106 98.6552 98.3455 98.9542 98.3409L98.95 98.369ZM98.4778 112.46L106.337 112.208C106.357 111.719 106.27 111.232 106.082 110.781C105.893 110.33 105.608 109.926 105.246 109.597C104.885 109.269 104.455 109.023 103.988 108.878C103.521 108.734 103.028 108.693 102.544 108.76C101.523 108.725 100.528 109.089 99.7705 109.774C99.0126 110.459 98.5506 111.412 98.4821 112.432L98.4778 112.46ZM105.978 98.1928C106.267 98.1896 106.554 98.2444 106.821 98.3539C107.089 98.4635 107.332 98.6255 107.535 98.8305C107.739 99.0355 107.899 99.2793 108.007 99.5474C108.115 99.8155 108.168 100.102 108.163 100.391C108.199 100.69 108.172 100.993 108.085 101.28C107.998 101.568 107.852 101.835 107.657 102.063C107.462 102.292 107.221 102.477 106.951 102.608C106.68 102.739 106.385 102.813 106.085 102.824C105.783 102.827 105.484 102.769 105.206 102.653C104.927 102.538 104.675 102.367 104.464 102.151C104.254 101.935 104.089 101.679 103.98 101.397C103.871 101.116 103.821 100.816 103.831 100.514C103.811 100.217 103.852 99.9192 103.95 99.6382C104.049 99.3572 104.204 99.0992 104.405 98.8796C104.606 98.66 104.849 98.4834 105.12 98.3605C105.392 98.2377 105.685 98.171 105.983 98.1647L105.978 98.1928Z" fill="#1D1D1B"/>
<path d="M113.567 105.547L117.261 105.458L122.852 112.052L127.845 105.257L131.424 105.164L131.886 121.164L127.802 121.267L127.551 111.496L122.942 117.457L122.844 117.442L117.831 111.596L118.082 121.368L113.983 121.469L113.567 105.547Z" fill="#1D1D1B"/>
<path d="M154.428 114.414L147.427 114.595L147.585 120.7L143.486 120.801L143.093 104.826L147.177 104.723L147.331 110.756L154.329 110.59L154.177 104.542L158.262 104.44L158.724 120.44L154.639 120.542L154.428 114.414Z" fill="#1D1D1B"/>
<path d="M163.053 105.466C164.756 104.45 166.686 103.876 168.667 103.796C173.387 103.675 175.128 106.051 175.224 110.278L175.465 120.019L171.916 120.102L171.864 118.254C171.314 118.954 170.608 119.516 169.802 119.894C168.996 120.272 168.112 120.455 167.222 120.429C166.562 120.496 165.894 120.421 165.265 120.209C164.635 119.997 164.058 119.652 163.573 119.199C163.087 118.746 162.704 118.195 162.448 117.582C162.193 116.968 162.072 116.308 162.093 115.644C162.006 112.123 164.552 110.393 167.786 110.306C169.07 110.265 170.338 110.597 171.438 111.259C171.481 108.592 170.736 107.142 168.355 107.2C166.891 107.27 165.464 107.686 164.19 108.412L163.053 105.466ZM171.522 115.37L171.483 113.725C170.659 113.201 169.689 112.954 168.714 113.02C167.356 113.059 166.177 113.73 166.203 115.085C166.226 115.36 166.307 115.628 166.44 115.871C166.573 116.113 166.755 116.326 166.974 116.494C167.194 116.662 167.446 116.783 167.714 116.849C167.983 116.914 168.263 116.923 168.535 116.874C169.113 116.898 169.687 116.778 170.207 116.525C170.727 116.273 171.176 115.895 171.514 115.426L171.522 115.37Z" fill="#1D1D1B"/>
<path d="M189.238 110.207L196.339 110.027C196.083 109.013 195.47 108.124 194.613 107.525C193.755 106.925 192.71 106.655 191.67 106.764C189.984 106.818 188.368 107.447 187.088 108.545L185.354 105.739C186.994 104.135 189.192 103.229 191.486 103.213C196.956 103.075 200.488 106.253 200.607 111.375C200.687 112.501 200.529 113.63 200.143 114.69C199.757 115.75 199.153 116.717 198.368 117.528C197.584 118.338 196.638 118.975 195.591 119.396C194.545 119.817 193.421 120.012 192.294 119.97C191.085 120.087 189.865 119.951 188.712 119.569C187.559 119.187 186.498 118.568 185.598 117.752L187.449 115.012C188.749 115.986 190.343 116.485 191.966 116.427C193.03 116.487 194.078 116.146 194.903 115.473C195.728 114.799 196.272 113.841 196.426 112.786L189.283 112.96L189.238 110.207Z" fill="#1D1D1B"/>
<path d="M204.05 103.324L208.134 103.221L208.598 119.207L204.514 119.31L204.05 103.324ZM213.233 110.69L220.326 118.949L214.987 119.078L208.472 111.18L214.002 103.114L219.154 102.986L213.233 110.69Z" fill="#1D1D1B"/>
<path d="M235.733 116.128C234.986 117.07 234.029 117.826 232.939 118.335C231.849 118.844 230.656 119.093 229.453 119.062C224.257 119.198 220.693 115.944 220.62 110.9C220.558 109.803 220.718 108.705 221.092 107.671C221.466 106.637 222.045 105.69 222.795 104.887C223.545 104.084 224.45 103.441 225.456 102.997C226.462 102.553 227.547 102.318 228.646 102.305C230.987 102.1 233.315 102.823 235.128 104.319L233.283 107.591C232.746 107.088 232.114 106.699 231.423 106.447C230.732 106.194 229.998 106.084 229.263 106.122C228.67 106.136 228.085 106.269 227.544 106.512C227.003 106.756 226.516 107.106 226.113 107.541C225.709 107.976 225.397 108.488 225.195 109.046C224.993 109.604 224.905 110.197 224.936 110.789C224.939 111.398 225.065 111.999 225.307 112.558C225.549 113.116 225.902 113.619 226.345 114.037C226.787 114.454 227.31 114.778 227.881 114.987C228.453 115.197 229.06 115.288 229.668 115.256C230.456 115.226 231.228 115.027 231.932 114.672C232.636 114.317 233.254 113.813 233.746 113.197L235.733 116.128Z" fill="#1D1D1B"/>
<path d="M238.687 102.455L242.772 102.352L243.234 118.352L239.151 118.441L238.687 102.455ZM247.854 109.833L254.947 118.092L249.62 118.237L243.107 110.325L248.637 102.259L253.775 102.128L247.854 109.833Z" fill="#1D1D1B"/>
<path d="M266.356 117.755C264.148 123.533 262.697 124.953 260.344 125.015C259.089 125.023 257.866 124.617 256.867 123.858L258.114 120.739C258.619 121.051 259.195 121.232 259.788 121.265C260.828 121.235 261.544 120.394 262.181 118.75L262.511 117.894L254.729 102.098L259.622 101.974L263.579 110.622C263.909 111.391 264.14 112.144 264.414 112.905C264.525 112.109 264.697 111.322 264.927 110.552L267.589 101.767L272.235 101.662L266.356 117.755Z" fill="#1D1D1B"/>
<path d="M274.769 101.543L278.853 101.44L278.908 102.886C280.216 101.602 281.969 100.872 283.802 100.849C288.204 100.737 291.135 104.084 291.229 108.799C291.313 109.929 291.162 111.065 290.785 112.133C290.409 113.202 289.815 114.182 289.042 115.01C288.269 115.839 287.333 116.499 286.293 116.948C285.252 117.397 284.13 117.627 282.997 117.622C281.709 117.703 280.422 117.464 279.249 116.927L279.425 124.43L275.341 124.532L274.769 101.543ZM278.992 106.622L279.152 113.088C280.165 113.725 281.355 114.02 282.547 113.931C283.154 113.924 283.753 113.791 284.305 113.539C284.857 113.287 285.351 112.923 285.754 112.469C286.156 112.015 286.46 111.482 286.645 110.904C286.829 110.326 286.891 109.716 286.826 109.113C286.869 108.537 286.788 107.959 286.587 107.418C286.387 106.876 286.072 106.385 285.664 105.976C285.256 105.568 284.764 105.253 284.223 105.052C283.682 104.851 283.104 104.769 282.528 104.812C281.831 104.843 281.149 105.022 280.526 105.338C279.903 105.653 279.355 106.097 278.917 106.64L278.992 106.622Z" fill="#1D1D1B"/>
<path d="M308.899 114.325C308.145 115.265 307.183 116.017 306.089 116.523C304.995 117.029 303.798 117.275 302.593 117.241C297.411 117.38 293.834 114.123 293.76 109.079C293.701 107.98 293.864 106.879 294.242 105.844C294.619 104.81 295.203 103.862 295.957 103.06C296.711 102.257 297.62 101.615 298.629 101.174C299.638 100.732 300.726 100.5 301.828 100.491C304.169 100.285 306.497 101.008 308.31 102.504L306.479 105.779C305.944 105.275 305.31 104.886 304.619 104.635C303.927 104.385 303.191 104.279 302.457 104.324C301.861 104.327 301.271 104.451 300.723 104.689C300.176 104.927 299.683 105.274 299.275 105.708C298.866 106.143 298.55 106.657 298.347 107.218C298.143 107.778 298.056 108.375 298.09 108.971C298.091 109.58 298.216 110.182 298.457 110.741C298.699 111.301 299.052 111.805 299.495 112.223C299.937 112.641 300.461 112.964 301.033 113.173C301.605 113.382 302.214 113.472 302.822 113.437C303.609 113.41 304.38 113.212 305.082 112.856C305.784 112.5 306.399 111.995 306.886 111.376L308.899 114.325Z" fill="#1D1D1B"/>
<path d="M312.219 116.622L311.827 100.633L315.912 100.53L316.171 110.634L323.377 100.319L327.461 100.217L327.923 116.217L323.839 116.319L323.594 106.218L316.374 116.53L312.219 116.622Z" fill="#1D1D1B"/>
<path d="M332.02 100.114L336.35 100.005L336.499 105.779L339.385 105.711C339.729 103.873 340.72 102.219 342.178 101.049C343.637 99.8788 345.466 99.2701 347.335 99.3331C348.443 99.2948 349.547 99.4764 350.584 99.8674C351.621 100.258 352.57 100.851 353.377 101.611C354.184 102.371 354.832 103.284 355.284 104.296C355.736 105.308 355.983 106.399 356.01 107.507C356.038 108.615 355.846 109.718 355.445 110.751C355.044 111.784 354.442 112.728 353.674 113.527C352.906 114.326 351.987 114.965 350.971 115.408C349.955 115.85 348.861 116.086 347.752 116.103C345.829 116.278 343.91 115.736 342.361 114.581C340.813 113.427 339.746 111.742 339.365 109.849L336.594 109.919L336.737 116.023L332.407 116.132L332.02 100.114ZM347.692 112.025C348.241 112.024 348.783 111.905 349.282 111.677C349.781 111.449 350.225 111.116 350.584 110.702C350.944 110.287 351.211 109.801 351.366 109.274C351.522 108.748 351.562 108.195 351.486 107.651C351.422 105.025 349.887 103.384 347.506 103.442C346.963 103.459 346.429 103.59 345.94 103.826C345.45 104.062 345.016 104.398 344.665 104.813C344.314 105.227 344.053 105.711 343.901 106.233C343.748 106.754 343.707 107.302 343.78 107.84C343.863 110.527 345.496 112.096 347.69 112.039L347.692 112.025Z" fill="#1D1D1B"/>
</g>
<g clip-path="url(#clip1_2028_3)">
<path d="M176.619 196.002C161.715 192.382 145.984 194.831 132.887 202.81C119.789 210.788 110.397 223.643 106.777 238.547L105.262 244.801C101.647 259.704 104.097 275.433 112.075 288.53C120.053 301.627 132.906 311.019 147.807 314.643L506.061 401.675C520.965 405.295 536.696 402.847 549.796 394.87C562.896 386.893 572.291 374.041 575.916 359.138L577.418 352.876C579.212 345.496 579.535 337.836 578.368 330.331C577.2 322.827 574.566 315.626 570.615 309.14C566.664 302.654 561.474 297.011 555.341 292.531C549.208 288.052 542.253 284.824 534.873 283.034L176.619 196.002Z" fill="#F393A2"/>
<path d="M173.677 230.107L161.954 227.259L156.619 249.131L152.005 248.016L158.384 221.81L179.349 226.896L172.958 253.184L168.277 252.031L173.677 230.107Z" fill="#1D1D1B"/>
<path d="M191.365 239.323C192.54 239.594 193.65 240.096 194.631 240.799C195.611 241.502 196.442 242.392 197.076 243.419C197.71 244.445 198.134 245.587 198.324 246.779C198.514 247.97 198.465 249.187 198.181 250.36C197.897 251.533 197.383 252.637 196.669 253.61C195.956 254.582 195.056 255.404 194.023 256.026C192.989 256.649 191.843 257.061 190.649 257.237C189.456 257.414 188.239 257.352 187.07 257.055C185.894 256.784 184.784 256.282 183.804 255.579C182.823 254.876 181.992 253.985 181.358 252.959C180.724 251.933 180.3 250.79 180.11 249.599C179.921 248.408 179.969 247.19 180.253 246.018C180.537 244.845 181.051 243.741 181.765 242.768C182.479 241.795 183.378 240.974 184.412 240.351C185.445 239.729 186.592 239.317 187.785 239.141C188.979 238.964 190.195 239.026 191.365 239.323ZM188.042 253.035C188.991 253.333 190.008 253.338 190.96 253.05C191.913 252.762 192.756 252.195 193.382 251.422C194.008 250.648 194.388 249.705 194.471 248.713C194.554 247.722 194.337 246.729 193.849 245.862C193.36 244.995 192.623 244.295 191.731 243.853C190.84 243.411 189.837 243.246 188.851 243.381C187.865 243.516 186.943 243.944 186.204 244.61C185.464 245.276 184.942 246.148 184.705 247.114C184.511 247.722 184.444 248.363 184.509 248.998C184.574 249.632 184.77 250.246 185.083 250.802C185.396 251.358 185.82 251.843 186.329 252.227C186.838 252.611 187.421 252.886 188.042 253.035Z" fill="#1D1D1B"/>
<path d="M198.543 255.154L200.69 255.665C202.268 254.392 204.034 251.198 205.186 247.424L206.394 243.397L218.895 246.44L215.763 259.317L218.571 260.009L216.639 267.965L212.585 266.992L213.597 262.995L201.622 260.091L200.661 264.028L196.642 263.057L198.543 255.154ZM205.187 256.766L211.442 258.281L213.614 249.465L209.472 248.459L208.944 250.168C208.227 252.632 206.94 254.892 205.187 256.766Z" fill="#1D1D1B"/>
<path d="M235.415 266.521C233.238 267.52 230.782 267.737 228.463 267.136C223.022 265.817 220.242 261.388 221.526 256.069C221.765 254.873 222.251 253.74 222.952 252.742C223.654 251.745 224.556 250.904 225.601 250.275C226.646 249.646 227.81 249.241 229.02 249.088C230.23 248.934 231.459 249.035 232.628 249.383C233.685 249.6 234.687 250.03 235.572 250.647C236.457 251.264 237.207 252.055 237.776 252.972C238.345 253.889 238.721 254.912 238.881 255.979C239.04 257.046 238.981 258.134 238.706 259.178C238.558 259.97 238.281 260.731 237.885 261.433L225.677 258.468C225.558 259.705 225.925 260.94 226.699 261.912C227.473 262.884 228.595 263.517 229.827 263.678C231.538 264.115 233.345 263.981 234.972 263.297L235.415 266.521ZM226.19 255.504L234.488 257.524C234.63 257.023 234.665 256.499 234.589 255.984C234.513 255.47 234.328 254.977 234.047 254.539C233.766 254.102 233.395 253.729 232.959 253.446C232.523 253.162 232.031 252.975 231.517 252.897C230.464 252.564 229.324 252.649 228.332 253.134C227.34 253.62 226.573 254.468 226.19 255.504Z" fill="#1D1D1B"/>
<path d="M253.504 259.436L249.047 258.358L248.475 260.114C245.443 269.063 242.693 270.487 238.162 269.384L238.822 265.098C240.296 265.635 242.604 264.707 244.511 258.231L246.087 253.025L258.903 256.141L254.786 273.03L250.465 271.994L253.504 259.436Z" fill="#1D1D1B"/>
<path d="M263.686 257.332L268.013 258.39L263.909 275.287L259.582 274.229L263.686 257.332ZM271.244 267.684L276.37 278.307L270.767 276.897L266.156 266.745L274.271 259.836L279.726 261.162L271.244 267.684Z" fill="#1D1D1B"/>
<path d="M278.933 278.931L282.984 262.003L287.297 263.053L284.744 273.787L295.232 264.991L299.545 266.041L295.469 282.919L291.156 281.869L293.731 271.253L283.25 280.036L278.933 278.931Z" fill="#1D1D1B"/>
<path d="M308.222 286.05L312.327 269.153L316.661 270.198L314.108 280.932L324.588 272.149L328.901 273.199L324.81 290.103L320.484 289.046L323.037 278.311L312.549 287.108L308.222 286.05Z" fill="#1D1D1B"/>
<path d="M328.755 288.49L331.62 286.331C332.604 287.889 334.124 289.032 335.893 289.547C338.155 290.105 339.564 289.537 339.895 288.267C340.227 286.997 339.457 286.131 337.789 285.716L334.658 284.965L335.361 282.074L338.335 282.788C338.615 282.882 338.91 282.916 339.204 282.889C339.498 282.863 339.782 282.775 340.041 282.633C340.299 282.491 340.525 282.297 340.704 282.063C340.883 281.829 341.012 281.561 341.083 281.274C341.374 280.106 340.504 279.166 338.568 278.722C336.806 278.399 334.987 278.721 333.443 279.63L332.263 276.609C333.429 275.859 334.745 275.372 336.119 275.183C337.492 274.994 338.891 275.107 340.216 275.515C344.673 276.593 346.478 279.08 345.796 281.965C345.543 282.841 345.011 283.611 344.282 284.158C343.553 284.706 342.666 285.002 341.754 285.002L341.716 285.069C342.674 285.404 343.472 286.087 343.951 286.982C344.429 287.878 344.555 288.92 344.301 289.904C343.551 293.035 340.028 294.285 335.354 293.119C334.003 292.821 332.724 292.258 331.592 291.464C330.459 290.669 329.495 289.659 328.755 288.49Z" fill="#1D1D1B"/>
<path d="M369.918 287.443L362.731 285.628L359.6 298.471L355.287 297.421L359.391 280.524L375.199 284.418L371.094 301.315L366.774 300.278L369.918 287.443Z" fill="#1D1D1B"/>
<path d="M380.024 285.598L384.337 286.648L383.975 288.221C384.838 287.725 385.791 287.406 386.778 287.281C387.766 287.156 388.768 287.228 389.727 287.492C394.416 288.632 396.523 292.963 395.306 297.945C395.079 299.156 394.605 300.307 393.913 301.325C393.221 302.344 392.326 303.209 391.284 303.865C390.242 304.522 389.076 304.956 387.858 305.14C386.641 305.324 385.398 305.255 384.209 304.936C382.828 304.665 381.539 304.047 380.462 303.141L378.545 311.071L374.211 310.027L380.024 285.598ZM383.016 292.123L381.345 298.965C382.222 299.924 383.379 300.582 384.651 300.847C385.296 301.024 385.972 301.063 386.634 300.961C387.295 300.858 387.928 300.617 388.489 300.253C389.051 299.889 389.53 299.41 389.893 298.848C390.257 298.286 390.498 297.654 390.6 296.992C390.816 296.4 390.9 295.769 390.848 295.141C390.796 294.514 390.607 293.905 390.296 293.357C389.985 292.809 389.559 292.336 389.047 291.969C388.535 291.603 387.949 291.352 387.33 291.234C386.589 291.068 385.821 291.061 385.078 291.214C384.334 291.367 383.631 291.677 383.016 292.123Z" fill="#1D1D1B"/>
<path d="M396.876 307.593L400.988 290.683L405.301 291.733L402.748 302.467L413.229 293.684L417.563 294.728L413.459 311.625L409.125 310.581L411.678 299.847L401.197 308.63L396.876 307.593Z" fill="#1D1D1B"/>
<path d="M422.321 295.873L426.634 296.923L426.272 298.496C428.017 297.5 430.086 297.238 432.025 297.768C436.714 298.907 438.821 303.238 437.603 308.221C437.377 309.431 436.903 310.582 436.211 311.601C435.519 312.619 434.624 313.484 433.582 314.141C432.54 314.797 431.373 315.231 430.156 315.415C428.938 315.6 427.695 315.53 426.506 315.212C425.127 314.937 423.837 314.325 422.752 313.43L420.835 321.36L416.508 320.302L422.321 295.873ZM425.3 302.391L423.643 309.24C424.513 310.207 425.673 310.867 426.948 311.122C427.592 311.301 428.267 311.341 428.928 311.24C429.588 311.139 430.22 310.899 430.782 310.536C431.343 310.173 431.821 309.695 432.184 309.134C432.548 308.573 432.788 307.942 432.889 307.281C433.099 306.688 433.178 306.057 433.121 305.431C433.064 304.805 432.873 304.199 432.559 303.653C432.246 303.108 431.818 302.637 431.306 302.273C430.794 301.909 430.209 301.659 429.591 301.542C428.856 301.378 428.095 301.369 427.356 301.515C426.618 301.661 425.917 301.959 425.3 302.391Z" fill="#1D1D1B"/>
<path d="M451.517 302.531C452.684 302.809 453.785 303.314 454.757 304.017C455.728 304.72 456.552 305.607 457.181 306.628C457.81 307.65 458.231 308.785 458.421 309.969C458.611 311.153 458.566 312.363 458.289 313.53C458.011 314.697 457.506 315.798 456.803 316.769C456.1 317.741 455.213 318.565 454.192 319.194C453.17 319.822 452.035 320.244 450.851 320.434C449.667 320.624 448.457 320.579 447.29 320.301C446.114 320.03 445.004 319.529 444.024 318.826C443.043 318.122 442.212 317.232 441.578 316.205C440.944 315.179 440.52 314.037 440.331 312.846C440.141 311.654 440.19 310.437 440.474 309.264C440.758 308.092 441.271 306.987 441.985 306.015C442.699 305.042 443.598 304.221 444.632 303.598C445.665 302.975 446.812 302.564 448.005 302.387C449.199 302.211 450.415 302.273 451.585 302.57L451.517 302.531ZM448.194 316.244C449.148 316.53 450.165 316.523 451.115 316.225C452.064 315.927 452.903 315.352 453.522 314.573C454.142 313.794 454.513 312.847 454.589 311.854C454.665 310.862 454.442 309.869 453.948 309.005C453.454 308.141 452.713 307.444 451.82 307.006C450.926 306.567 449.922 306.406 448.936 306.544C447.95 306.681 447.028 307.111 446.289 307.778C445.551 308.445 445.028 309.318 444.79 310.284C444.591 310.899 444.522 311.548 444.588 312.191C444.655 312.834 444.854 313.456 445.175 314.017C445.495 314.578 445.93 315.066 446.449 315.449C446.969 315.832 447.564 316.103 448.194 316.244Z" fill="#1D1D1B"/>
<path d="M458.669 318.346L460.808 318.87C462.993 316.551 464.544 313.708 465.312 310.616L466.573 306.619L479.067 309.675L475.935 322.553L478.732 323.202L476.8 331.159L472.732 330.178L473.7 326.227L461.711 323.316L460.757 327.274L456.745 326.289L458.669 318.346ZM465.286 319.942L471.541 321.457L473.687 312.626L469.558 311.627L469.016 313.329C468.307 315.795 467.03 318.06 465.286 319.942Z" fill="#1D1D1B"/>
<path d="M493.879 324.318L486.49 322.514L484.93 328.973L480.596 327.929L484.708 311.019L489.034 312.076L487.477 318.467L494.874 320.258L496.423 313.881L500.743 314.917L496.639 331.814L492.318 330.778L493.879 324.318Z" fill="#1D1D1B"/>
<path d="M505.555 316.091L509.868 317.141L508.754 321.755L510.858 322.277C516.601 323.661 517.601 326.935 516.871 329.935C516.142 332.936 513.283 335.863 507.527 334.473L501.451 332.988L505.555 316.091ZM507.909 325.207L506.673 330.285L508.361 330.695C510.692 331.257 511.882 330.511 512.242 328.972C512.602 327.434 512.023 326.232 509.608 325.693L507.909 325.207ZM521.81 320.043L526.136 321.101L522.032 337.998L517.705 336.94L521.81 320.043Z" fill="#1D1D1B"/>
<path d="M539.495 332.887L543.372 343.172L538.079 341.938L535.613 334.894L530.055 339.968L525.065 338.763L533.158 331.61L529.576 321.902L534.883 323.144L537.035 329.707L542.074 325.014L547.077 326.226L539.495 332.887Z" fill="#1D1D1B"/>
<path d="M145.749 268.475L149.645 269.412L153.717 277.886L160.85 272.108L164.651 273.026L160.546 289.923L156.233 288.874L158.729 278.552L152.217 283.74L152.123 283.687L148.461 276.086L145.965 286.408L141.644 285.372L145.749 268.475Z" fill="#1D1D1B"/>
<path d="M169.372 275.483C171.458 274.865 173.668 274.793 175.789 275.275C180.779 276.479 181.927 279.463 180.841 283.934L178.347 294.221L174.581 293.305L175.067 291.357C174.286 291.942 173.378 292.334 172.417 292.501C171.456 292.669 170.469 292.606 169.537 292.319C168.824 292.205 168.143 291.94 167.541 291.541C166.938 291.142 166.429 290.619 166.046 290.006C165.663 289.394 165.415 288.706 165.321 287.99C165.226 287.274 165.285 286.546 165.496 285.855C166.403 282.136 169.563 281.054 172.996 281.869C174.354 282.186 175.591 282.89 176.557 283.896C177.344 281.106 176.973 279.383 174.45 278.783C172.877 278.443 171.244 278.49 169.692 278.921L169.372 275.483ZM175.465 288.346L175.897 286.617C175.172 285.811 174.206 285.262 173.143 285.049C171.7 284.708 170.268 285.067 169.913 286.502C169.857 286.799 169.863 287.106 169.932 287.401C170 287.696 170.129 287.973 170.311 288.216C170.493 288.458 170.723 288.66 170.987 288.809C171.251 288.957 171.543 289.049 171.845 289.078C172.46 289.276 173.117 289.313 173.751 289.185C174.384 289.057 174.975 288.768 175.465 288.346Z" fill="#1D1D1B"/>
<path d="M185.08 278.022L200.54 281.806L199.49 286.119L193.982 284.762L190.965 297.279L186.639 296.222L189.655 283.705L184.12 282.333L185.08 278.022Z" fill="#1D1D1B"/>
<path d="M213.867 301.118C211.674 302.097 209.209 302.284 206.892 301.649C201.451 300.33 198.663 295.914 199.955 290.582C200.194 289.386 200.68 288.253 201.381 287.255C202.083 286.257 202.985 285.417 204.03 284.788C205.075 284.159 206.239 283.754 207.449 283.601C208.659 283.447 209.888 283.548 211.057 283.896C212.113 284.112 213.114 284.541 213.999 285.157C214.884 285.772 215.634 286.562 216.204 287.477C216.773 288.393 217.15 289.415 217.312 290.481C217.473 291.547 217.415 292.634 217.142 293.677C216.991 294.473 216.711 295.239 216.313 295.945L204.106 292.98C203.991 294.217 204.36 295.449 205.136 296.418C205.911 297.387 207.033 298.018 208.264 298.177C209.974 298.621 211.783 298.488 213.409 297.797L213.867 301.118ZM204.718 290.091L213.024 292.098C213.164 291.598 213.197 291.074 213.119 290.56C213.042 290.047 212.856 289.556 212.575 289.12C212.293 288.684 211.922 288.312 211.486 288.03C211.05 287.748 210.559 287.562 210.046 287.484C208.993 287.151 207.852 287.236 206.861 287.722C205.869 288.207 205.102 289.056 204.718 290.091Z" fill="#1D1D1B"/>
<path d="M222.435 287.1L226.755 288.137L226.393 289.71C228.138 288.714 230.208 288.452 232.146 288.982C236.827 290.135 238.942 294.452 237.716 299.448C237.49 300.659 237.016 301.809 236.324 302.828C235.632 303.847 234.737 304.712 233.695 305.368C232.653 306.024 231.487 306.458 230.269 306.643C229.051 306.827 227.809 306.758 226.619 306.439C225.244 306.153 223.958 305.537 222.873 304.644L220.956 312.574L216.643 311.524L222.435 287.1ZM225.427 293.626L223.737 300.439C224.608 301.406 225.767 302.065 227.042 302.321C227.686 302.499 228.361 302.54 229.022 302.439C229.683 302.338 230.315 302.098 230.876 301.735C231.437 301.372 231.915 300.894 232.279 300.333C232.642 299.772 232.882 299.14 232.984 298.48C233.193 297.887 233.272 297.256 233.215 296.63C233.158 296.004 232.967 295.397 232.653 294.852C232.34 294.307 231.913 293.836 231.4 293.472C230.888 293.107 230.303 292.858 229.685 292.741C228.955 292.586 228.2 292.585 227.469 292.739C226.738 292.893 226.047 293.198 225.441 293.634L225.427 293.626Z" fill="#1D1D1B"/>
<path d="M239.308 309.09L243.412 292.193L247.725 293.242L245.18 303.963L255.674 295.188L259.987 296.238L255.883 313.135L251.556 312.077L254.109 301.343L243.621 310.139L239.308 309.09Z" fill="#1D1D1B"/>
<path d="M264.678 298.625C266.776 298.046 268.985 298.001 271.105 298.494C276.101 299.719 277.249 302.704 276.162 307.174L273.668 317.461L269.902 316.545L270.375 314.59C269.596 315.174 268.691 315.566 267.733 315.735C266.774 315.903 265.789 315.843 264.858 315.559C264.146 315.443 263.467 315.177 262.866 314.777C262.265 314.377 261.756 313.854 261.374 313.242C260.991 312.63 260.744 311.944 260.648 311.229C260.552 310.514 260.609 309.786 260.817 309.095C261.724 305.377 264.885 304.294 268.304 305.102C269.662 305.419 270.899 306.123 271.864 307.129C272.666 304.347 272.295 302.623 269.779 302.01C268.223 301.662 266.607 301.694 265.065 302.102L264.678 298.625ZM270.78 311.565L271.192 309.842C270.483 309.057 269.541 308.521 268.504 308.312C267.083 307.965 265.643 308.337 265.296 309.759C265.236 310.056 265.239 310.362 265.305 310.657C265.371 310.953 265.498 311.231 265.678 311.474C265.858 311.718 266.087 311.921 266.35 312.07C266.614 312.219 266.905 312.312 267.207 312.341C267.819 312.524 268.468 312.549 269.093 312.413C269.718 312.277 270.299 311.985 270.78 311.565Z" fill="#1D1D1B"/>
<path d="M292.206 308.62L287.735 307.534L287.19 309.305C284.145 318.247 281.408 319.679 276.863 318.568L277.524 314.282C278.998 314.819 281.305 313.891 283.213 307.415L284.747 302.221L297.563 305.336L293.451 322.247L289.124 321.189L292.206 308.62Z" fill="#1D1D1B"/>
<path d="M310.628 308.078C312.347 308.572 313.883 309.559 315.045 310.919C316.207 312.278 316.944 313.948 317.164 315.723C317.385 317.498 317.078 319.298 316.284 320.9C315.489 322.502 314.241 323.836 312.695 324.734C311.149 325.633 309.373 326.057 307.588 325.955C305.802 325.852 304.087 325.227 302.654 324.157C301.221 323.088 300.134 321.62 299.528 319.938C298.922 318.255 298.824 316.432 299.246 314.694C299.505 313.482 300.015 312.337 300.743 311.333C301.471 310.33 302.401 309.49 303.472 308.867C304.544 308.244 305.734 307.852 306.967 307.716C308.199 307.58 309.446 307.704 310.628 308.078ZM307.305 321.79C308.254 322.079 309.269 322.075 310.217 321.781C311.165 321.487 312.003 320.915 312.622 320.14C313.242 319.364 313.615 318.421 313.693 317.431C313.771 316.442 313.551 315.452 313.06 314.589C312.57 313.726 311.832 313.03 310.942 312.59C310.052 312.151 309.051 311.988 308.068 312.124C307.085 312.259 306.165 312.686 305.426 313.35C304.688 314.014 304.166 314.883 303.927 315.847C303.73 316.458 303.662 317.105 303.728 317.744C303.794 318.383 303.992 319.002 304.309 319.561C304.627 320.12 305.057 320.607 305.573 320.99C306.088 321.374 306.678 321.647 307.305 321.79Z" fill="#1D1D1B"/>
<path d="M323.489 311.645C324.968 311.954 327.56 312.433 330.184 313.073C335.105 314.273 337.517 316.287 336.763 319.363C336.563 320.275 336.039 321.083 335.288 321.637C334.537 322.192 333.611 322.454 332.681 322.376C334.905 323.501 335.811 325.191 335.312 327.13C334.494 330.473 331.476 331.619 326.034 330.3C323.93 329.778 320.898 328.852 319.354 328.471L323.489 311.645ZM326.942 316.049L326.048 319.775L328.865 320.453C330.287 320.8 331.607 320.449 331.935 319.123C332.263 317.797 331.356 317.014 329.674 316.626C328.695 316.407 327.456 316.146 326.942 316.049ZM325.408 322.399L324.499 326.152C325.119 326.345 326.261 326.746 327.314 326.99C329.235 327.46 330.544 326.942 330.828 325.787C331.112 324.632 330.115 323.602 328.115 323.051L325.408 322.399Z" fill="#1D1D1B"/>
</g>
<defs>
<clipPath id="clip0_2028_3">
<rect width="383.538" height="160.919" fill="white" transform="translate(24.0328 0.457031) rotate(8.57841)"/>
</clipPath>
<clipPath id="clip1_2028_3">
<rect width="471.859" height="223.537" fill="white" transform="translate(191.598 85) rotate(29.6541)"/>
</clipPath>
</defs>
</svg>
