<svg width="433" height="341" viewBox="0 0 433 341" fill="none" xmlns="http://www.w3.org/2000/svg">
<g clip-path="url(#clip0_29_571)">
<mask id="mask0_29_571" style="mask-type:luminance" maskUnits="userSpaceOnUse" x="0" y="0" width="433" height="341">
<path d="M0 0H433V341H0V0Z" fill="white"/>
</mask>
<g mask="url(#mask0_29_571)">
<path d="M330.018 270.965C323.104 270.963 316.344 273.015 310.594 276.863C304.844 280.71 300.362 286.18 297.714 292.58C295.067 298.981 294.374 306.024 295.723 312.818C297.071 319.613 300.4 325.855 305.29 330.754C310.179 335.653 316.408 338.989 323.19 340.34C329.972 341.691 337.001 340.996 343.389 338.344C349.777 335.692 355.236 331.201 359.076 325.44C362.916 319.678 364.964 312.905 364.962 305.977C364.964 301.379 364.061 296.825 362.305 292.577C360.55 288.328 357.976 284.468 354.731 281.216C351.485 277.965 347.633 275.386 343.392 273.627C339.152 271.868 334.607 270.963 330.018 270.965Z" fill="#1D1D1B"/>
<path d="M70.7742 270.965C63.8598 270.963 57.1 273.015 51.3499 276.863C45.5998 280.71 41.1177 286.18 38.4706 292.58C35.8236 298.981 35.1304 306.024 36.4788 312.818C37.8272 319.613 41.1566 325.855 46.0459 330.754C50.9351 335.653 57.1646 338.989 63.9463 340.34C70.7281 341.691 77.7573 340.996 84.145 338.344C90.5327 335.692 95.9919 331.201 99.832 325.44C103.672 319.678 105.721 312.905 105.718 305.977C105.72 301.379 104.817 296.825 103.061 292.577C101.306 288.328 98.7319 284.468 95.4868 281.216C92.2416 277.965 88.3888 275.386 84.1485 273.627C79.9082 271.868 75.3636 270.963 70.7742 270.965Z" fill="#1D1D1B"/>
<path d="M389.051 266.965C389.51 267.673 389.937 268.369 390.374 269.1L391.675 271.347C392.067 272.044 392.437 272.74 392.796 273.448C393.604 274.976 394.321 276.504 395.039 278.111C395.371 278.812 395.66 279.532 395.903 280.269C395.961 280.363 396.007 280.465 396.037 280.572C396.329 281.302 396.632 282.066 396.867 282.875C397.439 284.471 397.933 286.134 398.37 287.763C398.594 288.505 398.762 289.269 398.931 290.011C398.931 290.145 398.998 290.28 399.032 290.449C399.2 291.145 399.323 291.808 399.458 292.505C399.827 294.325 400.104 296.163 400.288 298.011C400.355 298.539 400.422 299.078 400.456 299.606C400.523 300.337 400.59 301.067 400.624 301.854C400.725 303.247 400.759 304.651 400.759 306.045H413.543C418.706 306.045 423.658 303.99 427.309 300.332C430.96 296.673 433.011 291.712 433.011 286.539C433.011 281.365 430.96 276.404 427.309 272.746C423.658 269.087 418.706 267.032 413.543 267.032L389.051 266.965Z" fill="#9AC446"/>
<path d="M129.74 266.965C130.211 267.673 130.648 268.369 131.074 269.1L132.375 271.347C132.779 272.044 133.138 272.74 133.496 273.448C134.293 274.976 135.022 276.504 135.739 278.111C136.081 278.808 136.37 279.529 136.603 280.269C136.666 280.361 136.712 280.463 136.737 280.572C137.029 281.302 137.343 282.066 137.579 282.875C138.139 284.471 138.633 286.134 139.07 287.763C139.296 288.502 139.483 289.252 139.631 290.011C139.631 290.145 139.698 290.28 139.732 290.449C139.9 291.145 140.034 291.808 140.169 292.505C140.528 294.303 140.797 296.146 140.999 298.011C141.055 298.539 141.133 299.078 141.167 299.606C141.234 300.337 141.29 301.067 141.324 301.854C141.425 303.247 141.459 304.651 141.459 306.045H259.289C259.289 304.82 259.289 303.618 259.401 302.415C259.513 301.213 259.524 300.022 259.659 298.82C259.793 297.618 259.928 296.573 260.096 295.449C260.219 294.516 260.388 293.55 260.589 292.584C260.724 291.887 260.859 291.224 261.016 290.527C261.173 289.831 261.352 289.089 261.52 288.393C261.789 287.392 262.081 286.359 262.384 285.359C262.619 284.561 262.888 283.729 263.18 282.932C263.472 282.134 263.718 281.359 264.01 280.628C264.04 280.519 264.089 280.416 264.156 280.325C264.389 279.585 264.678 278.864 265.019 278.167C265.703 276.561 266.443 275.033 267.262 273.504C267.599 272.797 267.957 272.1 268.384 271.403L269.684 269.156C270.111 268.426 270.548 267.729 271.008 267.021L129.74 266.965Z" fill="#9AC446"/>
<path d="M112.851 24.293C111.26 24.2945 109.684 23.9816 108.214 23.3723C106.744 22.763 105.408 21.8692 104.283 20.742C103.158 19.6148 102.266 18.2765 101.658 16.8035C101.05 15.3305 100.738 13.7518 100.739 12.1578C100.739 11.9668 100.739 11.7645 100.739 11.596C100.721 11.4166 100.721 11.236 100.739 11.0566H100.077L59.0439 241.064H89.8387L128.607 24.293H112.851Z" fill="#9AC446"/>
<path d="M100.122 12.1578C100.119 13.7551 100.432 15.3372 101.041 16.813C101.651 18.2889 102.546 19.6294 103.675 20.7573C104.804 21.8852 106.144 22.7782 107.619 23.385C109.094 23.9918 110.673 24.3004 112.268 24.293H201.871C205.086 24.293 208.169 23.0133 210.443 20.7354C212.716 18.4575 213.994 15.368 213.994 12.1465C213.994 8.92509 212.716 5.83559 210.443 3.55769C208.169 1.27978 205.086 6.84717e-05 201.871 6.84717e-05H112.268C109.24 -0.010149 106.32 1.12348 104.09 3.17486C101.859 5.22625 100.483 8.04461 100.235 11.0678C100.229 11.2464 100.203 11.4237 100.156 11.596C100.156 11.7645 100.156 11.9668 100.156 12.1578" fill="#1D1D1B"/>
<path d="M259.401 302.348C259.322 303.55 259.289 304.752 259.289 305.977H295.063C295.063 296.691 298.744 287.786 305.298 281.22C311.851 274.654 320.739 270.965 330.007 270.965C339.275 270.965 348.163 274.654 354.716 281.22C361.269 287.786 364.951 296.691 364.951 305.977H400.714C400.714 304.584 400.714 303.179 400.579 301.786C400.579 301.044 400.478 300.314 400.411 299.539C400.411 299.011 400.31 298.471 400.243 297.943C400.058 296.095 399.781 294.258 399.413 292.437C399.278 291.741 399.155 291.044 398.987 290.381C398.987 290.213 398.919 290.078 398.886 289.943C398.718 289.179 398.516 288.449 398.314 287.696C397.888 286.066 397.394 284.403 396.822 282.808C396.553 282.033 396.295 281.269 395.992 280.504C395.962 280.398 395.917 280.296 395.858 280.201C395.589 279.471 395.297 278.74 394.994 278.044C394.288 276.437 393.57 274.909 392.752 273.381C392.393 272.639 392.023 271.976 391.63 271.279L390.34 269.032C389.869 268.302 389.443 267.605 388.972 266.897C382.538 257.108 373.778 249.073 363.48 243.513C353.181 237.954 341.666 235.043 329.968 235.043C318.269 235.043 306.754 237.954 296.455 243.513C286.157 249.073 277.397 257.108 270.963 266.897C270.503 267.605 270.066 268.302 269.606 269.032L268.305 271.279C267.946 271.976 267.576 272.639 267.184 273.381C266.387 274.909 265.658 276.437 264.941 278.044C264.638 278.74 264.335 279.471 264.077 280.201C264.011 280.293 263.962 280.395 263.931 280.504C263.64 281.269 263.371 282.033 263.102 282.808C262.832 283.583 262.541 284.437 262.305 285.235C261.969 286.235 261.711 287.235 261.442 288.269C261.274 288.965 261.105 289.662 260.937 290.404C260.769 291.145 260.646 291.763 260.511 292.46C260.309 293.426 260.141 294.393 260.018 295.325C259.849 296.449 259.681 297.572 259.58 298.696C259.479 299.82 259.378 301.067 259.322 302.292" fill="#E62645"/>
<path d="M-1.52588e-05 305.976H35.774C35.9381 296.797 39.6924 288.05 46.2289 281.617C52.7654 275.184 61.5614 271.579 70.7237 271.579C79.886 271.579 88.682 275.184 95.2185 281.617C101.755 288.05 105.509 296.797 105.673 305.976H141.425C141.425 304.582 141.425 303.178 141.29 301.784C141.29 301.043 141.201 300.313 141.133 299.537C141.133 299.009 141.033 298.47 140.965 297.942C140.763 296.076 140.494 294.234 140.135 292.436C140.001 291.739 139.866 291.043 139.698 290.38C139.673 290.232 139.64 290.085 139.597 289.941C139.44 289.177 139.227 288.447 139.036 287.694C138.599 286.065 138.106 284.402 137.545 282.806C137.276 282.031 137.007 281.267 136.704 280.503C136.678 280.394 136.632 280.291 136.569 280.2C136.311 279.469 136.008 278.739 135.706 278.042C135.01 276.435 134.281 274.907 133.463 273.379C133.093 272.637 132.734 271.975 132.341 271.278L131.04 269.031C130.581 268.3 130.143 267.604 129.684 266.896C124.055 258.309 116.623 251.058 107.906 245.649C99.1894 240.239 89.3987 236.803 79.2186 235.58H62.2512C45.0835 237.64 29.2657 245.936 17.7931 258.897C6.32054 271.858 -0.0101166 288.584 -1.52588e-05 305.908" fill="#E62645"/>
</g>
</g>
<defs>
<clipPath id="clip0_29_571">
<rect width="433" height="341" fill="white" transform="matrix(-1 0 0 1 433 0)"/>
</clipPath>
</defs>
</svg>
