<svg width="514" height="532" viewBox="0 0 514 532" fill="none" xmlns="http://www.w3.org/2000/svg">
<g clip-path="url(#clip0_29_414)">
<mask id="mask0_29_414" style="mask-type:luminance" maskUnits="userSpaceOnUse" x="0" y="0" width="514" height="532">
<path d="M227.062 1.00136e-05L513.181 190.977L286.119 531.158L1.94907e-05 340.182L227.062 1.00136e-05Z" fill="white"/>
</mask>
<g mask="url(#mask0_29_414)">
<path d="M395.495 349.547C386.859 385.846 365.59 417.897 335.498 439.958C305.406 462.019 268.458 472.648 231.273 469.941C194.088 467.234 159.096 451.368 132.567 425.186C106.038 399.003 89.7047 364.215 86.4935 327.053C83.2824 289.892 93.4032 252.786 115.043 222.383C136.682 191.98 168.427 170.267 204.588 161.134C240.75 152.001 278.966 156.045 312.39 172.542C345.814 189.038 372.261 216.908 386.993 251.16C400.334 282.175 403.315 316.679 395.495 349.547Z" fill="#F393A2"/>
<path d="M266.146 303.27C265.55 305.779 264.223 308.056 262.335 309.812C260.446 311.569 258.08 312.726 255.536 313.138C252.991 313.55 250.382 313.198 248.039 312.127C245.696 311.055 243.724 309.312 242.373 307.119C241.021 304.925 240.35 302.379 240.445 299.802C240.54 297.225 241.397 294.734 242.907 292.642C244.417 290.551 246.512 288.954 248.927 288.053C251.343 287.152 253.971 286.987 256.478 287.58C259.839 288.38 262.744 290.481 264.556 293.422C266.368 296.363 266.94 299.904 266.146 303.27Z" fill="#1D1D1B"/>
<path d="M377.057 329.547C376.457 332.055 375.128 334.329 373.237 336.083C371.347 337.836 368.98 338.99 366.435 339.399C363.89 339.808 361.283 339.453 358.942 338.379C356.6 337.305 354.631 335.561 353.281 333.366C351.932 331.171 351.264 328.625 351.361 326.049C351.458 323.473 352.317 320.982 353.828 318.893C355.339 316.803 357.435 315.208 359.851 314.308C362.267 313.409 364.894 313.246 367.401 313.84C369.067 314.235 370.638 314.955 372.025 315.958C373.413 316.961 374.588 318.229 375.485 319.687C376.382 321.146 376.982 322.768 377.252 324.459C377.522 326.151 377.455 327.88 377.057 329.547Z" fill="#1D1D1B"/>
<path d="M264.203 338.774C265.011 348.491 268.866 357.702 275.218 365.093C281.57 372.483 290.094 377.676 299.575 379.93C309.056 382.185 319.01 381.386 328.017 377.648C337.025 373.91 344.625 367.423 349.736 359.113L264.203 338.774Z" fill="white"/>
<path d="M326.28 275.98C320.461 271.903 315.672 266.526 312.293 260.274C324.875 272.126 339.685 281.362 355.865 287.448C372.046 293.533 389.275 296.347 406.556 295.726C406.18 269.014 390.808 244.052 369.564 227.962C348.32 211.871 321.656 204.193 295.111 201.91C283.862 200.739 272.501 201.211 261.384 203.312C255.691 204.455 250.166 206.315 244.939 208.849C238.401 212.08 236.666 213.47 240.188 220.109C250.681 239.878 269.294 255.952 289.268 265.585C300.908 271.242 313.464 274.777 326.348 276.026" fill="#1D1D1B"/>
<path d="M269.235 202.108L350.859 193.475L369.609 228.041L376.824 235.306C368.207 197.234 345.157 164.009 312.526 142.625C279.896 121.242 240.231 113.369 201.883 120.664C163.535 127.959 129.495 149.853 106.93 181.736C84.3652 213.619 75.0359 253.003 80.9063 291.598L87.7035 333.769C92.9643 325.887 144.812 254.698 144.812 254.698L269.235 202.108Z" fill="#0047BA"/>
<path d="M190.37 203.566C197.034 195.893 204.486 188.943 212.604 182.831C259.77 147.474 316.106 128.038 373.593 129.461C409.515 130.382 433.478 138.879 447.919 147.563C449.229 148.339 450.47 149.119 451.644 149.902C453.492 151.226 455.013 152.956 456.088 154.96C457.163 156.963 457.765 159.188 457.847 161.461C457.929 163.735 457.489 165.998 456.561 168.077C455.633 170.155 454.241 171.994 452.493 173.451L378.104 236.504C355.542 217.622 294.705 201.198 144.79 254.732L190.37 203.566Z" fill="#5285CC"/>
<path d="M143.43 293.982C142.236 299.004 139.58 303.56 135.799 307.076C132.018 310.591 127.281 312.906 122.188 313.729C117.095 314.553 111.873 313.847 107.184 311.701C102.495 309.555 98.5489 306.066 95.8445 301.674C93.1401 297.282 91.7989 292.186 91.9907 287.028C92.1824 281.87 93.8983 276.884 96.9216 272.699C99.9448 268.514 104.14 265.318 108.975 263.516C113.811 261.714 119.071 261.386 124.089 262.574C127.422 263.363 130.566 264.802 133.342 266.807C136.118 268.813 138.471 271.346 140.267 274.263C142.063 277.179 143.267 280.422 143.809 283.805C144.352 287.189 144.223 290.647 143.43 293.982Z" fill="#F393A2"/>
</g>
</g>
<defs>
<clipPath id="clip0_29_414">
<rect width="344" height="409" fill="white" transform="matrix(-0.831741 -0.555164 -0.555164 0.831741 513.181 190.977)"/>
</clipPath>
</defs>
</svg>
