<svg width="107" height="107" viewBox="0 0 107 107" fill="none" xmlns="http://www.w3.org/2000/svg">
<g clip-path="url(#clip0_3_612)">
<path d="M61.1357 0H45.8518V107H61.1357V0Z" fill="#FDDF95"/>
<path d="M107 45.8516H0V61.1355H107V45.8516Z" fill="#FDDF95"/>
<path d="M85.9215 10.2615L10.261 85.9219L21.0684 96.7293L96.7288 21.0688L85.9215 10.2615Z" fill="#FDDF95"/>
<path d="M21.0684 10.2707L10.261 21.0781L85.9215 96.7385L96.7288 85.9312L21.0684 10.2707Z" fill="#FDDF95"/>
<path d="M66.7349 1.1034L26.1158 100.094L40.2556 105.896L80.8747 6.90545L66.7349 1.1034Z" fill="#FDDF95"/>
<path d="M6.90453 26.1277L1.10248 40.2676L100.093 80.8867L105.895 66.7468L6.90453 26.1277Z" fill="#FDDF95"/>
<path d="M99.9157 25.8015L1.1969 67.0762L7.0926 81.1772L105.811 39.9025L99.9157 25.8015Z" fill="#FDDF95"/>
<path d="M39.9015 1.20195L25.8005 7.09766L67.0752 105.816L81.1762 99.9207L39.9015 1.20195Z" fill="#FDDF95"/>
</g>
<defs>
<clipPath id="clip0_3_612">
<rect width="107" height="107" fill="white"/>
</clipPath>
</defs>
</svg>
