<svg width="324" height="426" viewBox="0 0 324 426" fill="none" xmlns="http://www.w3.org/2000/svg">
<g clip-path="url(#clip0_29_456)">
<mask id="mask0_29_456" style="mask-type:luminance" maskUnits="userSpaceOnUse" x="0" y="0" width="324" height="426">
<path d="M324 0H0V426H324V0Z" fill="white"/>
</mask>
<g mask="url(#mask0_29_456)">
<path d="M108.265 21.6062C107.471 43.3645 107.105 54.2436 106.433 76.0121H127.795C128.213 54.2436 128.436 43.3645 128.925 21.6062H108.265Z" fill="#0047BA"/>
<path d="M215.736 21.6062H194.892C195.381 43.3645 195.604 54.2436 196.021 76.0121H217.567C216.895 54.2436 216.549 43.3645 215.736 21.6062Z" fill="#0047BA"/>
<path d="M215.736 21.5352C211.127 16.9118 208.839 14.59 204.302 9.96663C201.328 6.85816 197.76 4.37477 193.809 2.663C189.857 0.951226 185.601 0.0457511 181.292 0L142.708 0C138.399 0.0457511 134.143 0.951226 130.192 2.663C126.24 4.37477 122.672 6.85816 119.698 9.96663C115.161 14.59 112.873 16.9118 108.265 21.5352V21.6062H215.736V21.5352Z" fill="#0047BA"/>
<path d="M317.978 157.428C318.466 165.539 318.69 169.595 319.127 177.706C315.608 118.18 262.742 67.6575 202.786 67.4649H121.204C61.2478 67.6575 8.40233 118.16 4.88269 177.706C5.3201 169.595 5.55407 165.539 6.03217 157.428C9.88749 98.4598 61.9191 47.4201 121.692 47.197H202.298C262.081 47.4099 314.123 98.4496 317.978 157.428Z" fill="#142617"/>
<path d="M317.5 149.57C318.019 157.966 318.263 162.153 318.731 170.538C315.089 111.205 262.518 60.4893 202.613 60.3068H121.366C61.4817 60.4994 8.91095 111.215 5.27942 170.538C5.74735 162.153 5.99148 157.966 6.51028 149.57C10.4877 90.8353 62.1836 39.5421 121.885 39.3596H202.094C261.806 39.5725 313.522 90.8252 317.5 149.57Z" fill="#0047BA"/>
<path d="M319.127 177.706C321.759 230.861 323.362 284.03 323.939 337.213H0.071167C0.640819 283.983 2.24466 230.814 4.8827 177.706C8.40233 118.2 61.2478 67.6575 121.204 67.4648H202.786C262.742 67.6575 315.608 118.16 319.127 177.706Z" fill="#0047BA"/>
<path d="M0.0712066 337.223C0 350.536 0 357.197 0 370.509C0.0813789 389.986 17.1709 405.753 37.9226 405.753H286.016C306.788 405.753 323.878 389.986 323.959 370.509C324.02 357.197 323.959 350.536 323.959 337.223H0.0712066Z" fill="#0047BA"/>
<path d="M319.127 177.706C322.057 237.641 323.681 297.566 324 357.481H0C0.311953 297.492 1.93953 237.567 4.88274 177.706C8.40237 118.2 61.2478 67.6575 121.204 67.4648H202.786C262.742 67.6575 315.608 118.16 319.127 177.706Z" fill="#80A3DD"/>
<path d="M0 357.491C0 370.803 0 377.465 0.17293 390.767C0.376377 410.244 17.5372 426 38.2277 426H285.721C306.443 426 323.603 410.244 323.807 390.767C323.949 377.465 323.98 370.803 323.98 357.491H0Z" fill="#0047BA"/>
<path d="M283.88 336.949C283.941 349.43 283.951 355.676 283.88 368.147C283.88 380.182 273.352 389.936 260.484 389.936H63.445C50.5973 389.936 40.1096 380.182 40.0486 368.147C40.0486 355.676 40.0486 349.43 40.0486 336.949C40.1442 330.016 41.3919 323.147 43.7412 316.62C44.6184 314.125 45.6372 311.681 46.7929 309.3C57.2806 287.714 86.5363 269.991 110.818 271.056H213.182C237.464 270.042 266.709 287.714 277.197 309.3C278.377 311.677 279.417 314.122 280.31 316.62C282.622 323.153 283.829 330.023 283.88 336.949Z" fill="#E62645"/>
<path d="M64.6555 339.159C63.9654 339.116 63.3031 338.873 62.7499 338.459C62.1966 338.046 61.7766 337.48 61.5412 336.832C61.3059 336.184 61.2655 335.482 61.4251 334.811C61.5847 334.141 61.9373 333.531 62.4395 333.058C62.9418 332.584 63.5719 332.267 64.2525 332.145C64.9331 332.023 65.6345 332.102 66.2707 332.373C66.9068 332.643 67.45 333.092 67.8335 333.665C68.217 334.239 68.4241 334.912 68.4295 335.601C68.3949 336.567 67.9792 337.481 67.2725 338.143C66.5658 338.806 65.6254 339.164 64.6555 339.139M64.7979 312.94C63.3842 312.902 62.0122 313.419 60.9785 314.381C59.9448 315.343 59.3326 316.672 59.2743 318.081C59.2235 325.016 59.2031 328.473 59.1726 335.408C59.2759 336.788 59.899 338.079 60.9168 339.02C61.9346 339.962 63.2719 340.485 64.6606 340.485C66.0493 340.485 67.3866 339.962 68.4044 339.02C69.4222 338.079 70.0453 336.788 70.1486 335.408C70.1486 328.473 70.1995 325.016 70.2401 318.081C70.2244 317.386 70.0707 316.701 69.7881 316.066C69.5055 315.431 69.0995 314.858 68.5936 314.38C68.0876 313.902 67.4917 313.529 66.8402 313.282C66.1888 313.035 65.4947 312.918 64.7979 312.94Z" fill="#142617"/>
<path d="M280.31 316.621H43.7412C44.5861 314.113 45.6058 311.667 46.7929 309.3H277.197C278.409 311.663 279.449 314.109 280.31 316.621Z" fill="#142617"/>
<path d="M65.1032 106.084C64.6453 106.091 64.191 106.003 63.7687 105.826C63.3465 105.65 62.9654 105.388 62.6493 105.058C62.3332 104.727 62.089 104.336 61.9318 103.907C61.7747 103.478 61.7081 103.022 61.7361 102.566C61.7878 101.619 62.1993 100.727 62.8871 100.072C63.5749 99.4163 64.4873 99.0466 65.4389 99.0377C65.8977 99.0328 66.3526 99.1219 66.7754 99.2996C67.1981 99.4773 67.5797 99.7397 67.8965 100.071C68.2132 100.402 68.4583 100.794 68.6165 101.223C68.7747 101.652 68.8426 102.11 68.8161 102.566C68.7618 103.513 68.3477 104.404 67.658 105.057C66.9683 105.711 66.0548 106.078 65.1032 106.084ZM66.5476 77.2896C65.1667 77.3102 63.8447 77.8504 62.8467 78.8019C61.8486 79.7534 61.2484 81.0458 61.1665 82.4199C60.7392 90.3993 60.5256 94.3839 60.1492 102.363C60.1127 103.029 60.2145 103.696 60.4482 104.321C60.682 104.946 61.0426 105.516 61.5077 105.996C61.9727 106.475 62.532 106.854 63.1507 107.108C63.7694 107.363 64.4341 107.487 65.1032 107.473C66.4756 107.459 67.792 106.928 68.7895 105.989C69.787 105.049 70.3922 103.769 70.4843 102.404C70.8404 94.4244 71.0336 90.4398 71.4202 82.4604C71.4649 81.8017 71.373 81.1409 71.1502 80.5191C70.9273 79.8974 70.5783 79.3281 70.1249 78.8467C69.6716 78.3653 69.1236 77.9822 68.5151 77.7213C67.9066 77.4604 67.2507 77.3272 66.5883 77.3301" fill="#142617"/>
<path d="M163.775 146.934C155.932 139.289 152.046 135.467 144.336 127.822C143.3 126.777 142.482 125.539 141.928 124.178C141.374 122.817 141.095 121.36 141.107 119.891C141.119 118.423 141.423 116.971 141.999 115.619C142.576 114.268 143.415 113.043 144.468 112.016C152.24 104.371 156.095 100.548 163.724 92.9035C165.821 90.8232 168.659 89.6553 171.618 89.6553C174.577 89.6553 177.415 90.8232 179.512 92.9035C187.222 100.548 191.118 104.371 198.961 112.016C200.023 113.034 200.872 114.252 201.46 115.599C202.049 116.946 202.364 118.395 202.389 119.864C202.413 121.333 202.146 122.792 201.604 124.158C201.061 125.523 200.253 126.769 199.226 127.822C191.586 135.467 187.731 139.289 179.959 146.934C177.794 149.037 174.89 150.213 171.867 150.213C168.844 150.213 165.94 149.037 163.775 146.934Z" fill="#142617"/>
<path d="M184.751 111.397H158.628C157.875 111.397 157.153 111.099 156.621 110.569C156.089 110.038 155.79 109.319 155.79 108.568C155.79 107.818 156.089 107.099 156.621 106.568C157.153 106.038 157.875 105.74 158.628 105.74H184.679C185.435 105.742 186.16 106.04 186.698 106.568C187.236 107.097 187.545 107.815 187.558 108.568C187.562 108.939 187.492 109.307 187.352 109.651C187.212 109.995 187.005 110.307 186.743 110.57C186.481 110.834 186.169 111.042 185.825 111.184C185.481 111.326 185.112 111.398 184.74 111.397" fill="white"/>
<path d="M184.873 122.753H158.608C158.22 122.776 157.832 122.72 157.466 122.588C157.101 122.456 156.767 122.251 156.484 121.986C156.202 121.72 155.976 121.4 155.822 121.044C155.669 120.689 155.589 120.306 155.589 119.919C155.589 119.532 155.669 119.149 155.822 118.794C155.976 118.438 156.202 118.118 156.484 117.852C156.767 117.587 157.101 117.382 157.466 117.25C157.832 117.118 158.22 117.062 158.608 117.085H184.801C185.56 117.085 186.288 117.381 186.83 117.91C187.372 118.439 187.685 119.158 187.7 119.914C187.705 120.287 187.634 120.657 187.493 121.003C187.352 121.348 187.143 121.662 186.879 121.927C186.615 122.191 186.3 122.4 185.954 122.542C185.608 122.684 185.237 122.756 184.862 122.753" fill="white"/>
<path d="M184.984 134.109H158.597C157.845 134.109 157.123 133.81 156.591 133.28C156.058 132.749 155.759 132.03 155.759 131.28C155.759 130.529 156.058 129.81 156.591 129.279C157.123 128.749 157.845 128.451 158.597 128.451H184.934C185.694 128.448 186.425 128.743 186.969 129.272C187.513 129.801 187.827 130.522 187.843 131.28C187.844 131.653 187.771 132.023 187.628 132.369C187.484 132.714 187.273 133.027 187.008 133.29C186.742 133.553 186.426 133.761 186.078 133.902C185.731 134.042 185.359 134.113 184.984 134.109Z" fill="white"/>
</g>
</g>
<defs>
<clipPath id="clip0_29_456">
<rect width="324" height="426" fill="white"/>
</clipPath>
</defs>
</svg>
