<svg width="263" height="273" viewBox="0 0 263 273" fill="none" xmlns="http://www.w3.org/2000/svg">
<g clip-path="url(#clip0_3_64)">
<path d="M130.063 5.03766C120.458 2.40565 110.62 0.718437 100.688 0C94.2424 18.5057 91.5122 45.0922 94.4271 69.3758C96.172 84.3859 100.052 98.5119 106.497 109.184L115.365 108.978H118.198C98.1221 77.0042 105.882 32.5083 130.063 5.14047" fill="#9AC446"/>
<path d="M0 40.3013C0 40.3013 10.4486 72.9124 35.677 83.4812C60.9055 94.05 91.348 78.3613 91.348 78.3613C91.348 78.3613 80.8789 45.7913 55.6709 35.2842C30.463 24.777 0 40.3013 0 40.3013Z" fill="#9AC446"/>
<path d="M176.065 38.7797C147.676 40.3424 117.172 62.7342 105.491 90.4722L105.204 91.0685C75.6443 85.0233 39.6594 97.8745 22.3546 120.739C-2.97772e-05 150.102 16.8121 193.097 34.0348 221.328C59.5301 263.192 110.972 285.81 158.35 265.454C169.503 260.763 179.038 252.899 185.775 242.836C185.973 242.825 186.172 242.825 186.37 242.836C198.264 242.778 209.891 239.303 219.871 232.822C263.123 204.796 273.243 149.588 252.88 104.886C239.126 74.8246 212.913 36.8468 176.065 38.903" fill="#FCBF2C"/>
</g>
<defs>
<clipPath id="clip0_3_64">
<rect width="263" height="273" fill="white"/>
</clipPath>
</defs>
</svg>
