<svg width="503" height="443" viewBox="0 0 503 443" fill="none" xmlns="http://www.w3.org/2000/svg">
<g clip-path="url(#clip0_3_511)">
<path d="M413.241 231.991L103.347 155.396L65.8691 307.028L375.763 383.622L413.241 231.991Z" fill="#1D1D1B"/>
<path d="M305.389 229.947L407.507 255.187L413.241 231.99C417.837 213.393 418.732 194.075 415.874 175.137C413.016 156.2 406.461 138.015 396.583 121.62C386.705 105.225 373.699 90.942 358.305 79.5858C342.912 68.2296 325.433 60.0229 306.868 55.4341L281.13 49.0728C274.591 47.4476 267.796 47.1296 261.132 48.1369C254.468 49.1443 248.066 51.4572 242.294 54.9434C236.521 58.4295 231.49 63.0207 227.489 68.4541C223.488 73.8876 220.595 80.0568 218.976 86.609C215.241 101.705 214.513 117.388 216.832 132.762C219.15 148.136 224.471 162.899 232.49 176.209C240.509 189.518 251.068 201.113 263.566 210.331C276.063 219.548 290.253 226.209 305.325 229.931" fill="#1D1D1B"/>
<path d="M383.643 226.784L366.971 294.237C363.009 311.205 355.722 327.219 345.533 341.349C335.345 355.479 322.457 367.444 307.618 376.55C292.779 385.656 276.285 391.722 259.092 394.395C241.899 397.067 224.35 396.294 207.463 392.121C190.576 387.947 174.687 380.455 160.719 370.08C146.751 359.706 134.981 346.654 126.093 331.684C117.205 316.714 111.375 300.122 108.943 282.872C106.51 265.623 107.522 248.058 111.921 231.198L128.593 163.745C137.33 130.259 158.883 101.557 188.585 83.8551C218.287 66.1529 253.747 60.8751 287.285 69.1647C320.824 77.4543 349.743 98.644 367.778 128.145C385.813 157.646 391.513 193.084 383.643 226.784Z" fill="#F393A2"/>
<path d="M199.732 203.833L97.6135 178.593L103.347 155.397C112.63 117.839 136.427 85.5 169.504 65.4953C202.581 45.4906 242.228 39.4585 279.723 48.7258L305.482 55.0925C318.681 58.3549 330.042 66.7361 337.065 78.3923C344.088 90.0484 346.197 104.025 342.929 117.247C339.197 132.345 332.533 146.561 323.317 159.084C314.1 171.607 302.513 182.191 289.215 190.231C275.918 198.272 261.171 203.611 245.817 205.945C230.464 208.279 214.804 207.561 199.732 203.833Z" fill="#1D1D1B"/>
<path d="M386.169 234.048L382.474 248.999C361.35 234.665 345.123 214.191 335.976 190.333C326.829 166.475 325.201 140.378 331.31 115.553C333.151 108.043 336.6 101.023 341.418 94.9786C352.813 104.706 362.568 116.209 370.309 129.045C379.73 144.632 385.982 161.933 388.703 179.953C391.425 197.973 390.564 216.357 386.169 234.048Z" fill="#1D1D1B"/>
<path d="M89.2247 212.533C89.2247 212.533 68.2148 281.883 11.6862 293.635L91.6065 313.388L89.2247 212.533Z" fill="#1D1D1B"/>
<path d="M399.268 289.165C399.268 289.165 385.551 360.317 430.095 397.051L350.196 377.303L399.268 289.165Z" fill="#1D1D1B"/>
<path d="M291.171 252.422C289.961 257.314 290.723 262.48 293.288 266.785C295.853 271.089 300.011 274.179 304.847 275.374C309.684 276.57 314.802 275.773 319.077 273.159C323.352 270.545 326.433 266.328 327.642 261.436M173.287 223.286C172.078 228.177 172.839 233.344 175.404 237.648C177.969 241.953 182.127 245.042 186.964 246.238C191.8 247.433 196.919 246.636 201.193 244.022C205.468 241.408 208.549 237.192 209.758 232.3" stroke="#1C1C12" stroke-width="2.68" stroke-miterlimit="10" stroke-linecap="round"/>
<path d="M128.325 205.2C127.192 209.784 124.727 213.93 121.242 217.113C117.757 220.296 113.408 222.373 108.746 223.081C104.083 223.79 99.3174 223.097 95.0503 221.092C90.7832 219.087 87.2069 215.858 84.7737 211.816C82.3406 207.773 81.1599 203.097 81.3811 198.38C81.6022 193.663 83.2153 189.117 86.0163 185.316C88.8172 181.516 92.6802 178.631 97.1164 177.028C101.553 175.426 106.363 175.176 110.939 176.312C113.976 177.062 116.835 178.405 119.353 180.264C121.871 182.122 123.998 184.459 125.613 187.142C127.227 189.825 128.298 192.801 128.764 195.899C129.229 198.998 129.08 202.158 128.325 205.2Z" fill="#F393A2"/>
<path d="M408.622 274.479C407.489 279.063 405.025 283.208 401.541 286.391C398.057 289.573 393.709 291.651 389.048 292.36C384.387 293.069 379.622 292.378 375.355 290.375C371.088 288.371 367.511 285.145 365.076 281.104C362.642 277.064 361.459 272.39 361.677 267.673C361.896 262.957 363.506 258.411 366.303 254.609C369.101 250.807 372.961 247.92 377.395 246.314C381.829 244.708 386.638 244.455 391.214 245.586C397.35 247.102 402.632 250.998 405.896 256.417C409.161 261.835 410.141 268.333 408.622 274.479Z" fill="#F393A2"/>
<ellipse cx="236.068" cy="300.609" rx="26.5" ry="31" transform="rotate(13.8832 236.068 300.609)" fill="white"/>
</g>
<defs>
<clipPath id="clip0_3_511">
<rect width="431" height="349" fill="white" transform="translate(84.1655 0.390625) rotate(13.8832)"/>
</clipPath>
</defs>
</svg>
