<svg width="231" height="239" viewBox="0 0 231 239" fill="none" xmlns="http://www.w3.org/2000/svg">
<g clip-path="url(#clip0_3_672)">
<path d="M114.238 4.41026C105.802 2.10604 97.1605 0.628961 88.437 0C82.7756 16.2009 80.3776 39.4763 82.9378 60.7356C84.4704 73.8763 87.8781 86.243 93.5395 95.5856L101.328 95.4056H103.817C86.1832 67.4139 92.9986 28.4597 114.238 4.50026" fill="#9AC446"/>
<path d="M0 35.2822C0 35.2822 9.17725 63.8319 31.3361 73.0845C53.4949 82.337 80.2334 68.6022 80.2334 68.6022C80.2334 68.6022 71.0381 40.0885 48.8973 30.89C26.7565 21.6914 0 35.2822 0 35.2822Z" fill="#9AC446"/>
<path d="M154.643 33.9492C129.708 35.3173 102.915 54.9204 92.656 79.2039L92.4036 79.7259C66.4404 74.4336 34.8339 85.6842 19.6346 105.701C-7.62939e-06 131.407 14.7665 169.047 29.8937 193.763C52.2869 230.413 97.47 250.214 139.083 232.393C148.879 228.286 157.254 221.402 163.171 212.592C163.345 212.583 163.52 212.583 163.694 212.592C174.141 212.541 184.353 209.499 193.119 203.825C231.108 179.29 239.997 130.957 222.111 91.8226C210.031 65.5051 187.007 32.2571 154.643 34.0572" fill="#D1E2A9"/>
</g>
<defs>
<clipPath id="clip0_3_672">
<rect width="231" height="239" fill="white"/>
</clipPath>
</defs>
</svg>
