<svg width="426" height="454" viewBox="0 0 426 454" fill="none" xmlns="http://www.w3.org/2000/svg">
<g clip-path="url(#clip0_29_605)">
<mask id="mask0_29_605" style="mask-type:luminance" maskUnits="userSpaceOnUse" x="-1" y="0" width="427" height="454">
<path d="M-0.000120044 87.7397L327.449 0L425.541 366.086L98.0923 453.826L-0.000120044 87.7397Z" fill="white"/>
</mask>
<g mask="url(#mask0_29_605)">
<path d="M70.9788 301.675C92.9867 383.81 177.409 432.573 259.503 410.576C279.035 405.36 297.346 396.343 313.389 384.039C329.432 371.735 342.891 356.387 352.998 338.872C363.104 321.358 369.658 302.021 372.286 281.967C374.914 261.914 373.563 241.538 368.311 222.005C346.295 139.84 261.911 91.0673 179.787 113.072C140.356 123.642 106.74 149.451 86.3346 184.82C65.9293 220.19 60.4056 262.224 70.9788 301.675Z" fill="#F393A2"/>
<path d="M20.4162 82.269C20.4162 82.269 3.70102 101.612 16.8626 150.732C20.9806 166.132 28.8949 180.254 39.8806 191.803C50.8664 203.353 64.5724 211.961 79.7433 216.839C96.6357 222.238 123.442 220.841 147.749 214.328L242.734 188.877C270.449 181.451 295.784 186.089 303.216 213.826L305.926 223.937C308.658 219.748 312.535 216.431 317.097 214.382C321.659 212.332 326.713 211.637 331.66 212.378C336.606 213.118 341.236 215.264 344.999 218.56C348.762 221.856 351.501 226.164 352.889 230.971C356.062 241.878 351.585 253.375 342.246 259.912C338.141 262.803 333.248 264.367 328.227 264.394L371.17 289.201C394.792 225.981 371.174 165.081 371.174 165.081C355.297 105.827 277.362 75.3146 218.224 91.4753C177.265 102.668 139.618 112.941 136.728 113.716C88.1971 126.719 38.3401 127.369 20.5776 82.8713L20.4162 82.269Z" fill="#0047BA"/>
<path d="M222.641 328.273C218.889 322.473 213.428 318.009 207.039 315.518C200.65 313.027 193.659 312.637 187.066 314.404C180.472 316.171 174.613 320.004 170.326 325.355C166.038 330.707 163.541 337.304 163.191 344.203L222.641 328.273Z" fill="white"/>
<path d="M146.755 287.98C150.066 300.335 142.026 313.496 128.372 319.431C126.634 320.194 124.839 320.82 123.003 321.305C106.146 325.822 89.4814 318.231 85.7552 304.325C82.029 290.419 92.6599 275.49 109.517 270.973C111.336 270.487 113.192 270.144 115.065 269.947C129.866 268.232 143.43 275.629 146.744 287.999" fill="white"/>
<path d="M134.88 291.162C137.503 300.949 134.797 311.108 128.373 319.43C126.634 320.193 124.839 320.82 123.003 321.305C106.146 325.822 89.4814 318.231 85.7553 304.325C82.0291 290.418 92.66 275.49 109.517 270.973C111.337 270.487 113.192 270.144 115.065 269.946C124.805 273.937 132.247 281.393 134.869 291.181" fill="black"/>
<path d="M271.239 254.625C274.55 266.98 266.51 280.141 252.856 286.075C251.118 286.838 249.322 287.465 247.487 287.95C230.63 292.466 213.965 284.876 210.239 270.97C206.513 257.063 217.144 242.135 234 237.618C235.823 237.125 237.682 236.775 239.56 236.572C254.36 234.858 267.924 242.254 271.239 254.625Z" fill="white"/>
<path d="M259.364 257.806C261.987 267.594 259.281 277.753 252.856 286.075C251.118 286.838 249.322 287.465 247.487 287.949C230.63 292.466 213.965 284.875 210.239 270.969C206.513 257.063 217.144 242.134 234 237.618C235.823 237.124 237.682 236.775 239.56 236.572C249.3 240.563 256.742 248.018 259.364 257.806Z" fill="black"/>
</g>
</g>
<defs>
<clipPath id="clip0_29_605">
<rect width="339" height="379" fill="white" transform="matrix(-0.965926 0.258819 0.258819 0.965926 327.449 0)"/>
</clipPath>
</defs>
</svg>
