<svg width="356" height="344" viewBox="0 0 356 344" fill="none" xmlns="http://www.w3.org/2000/svg">
<g clip-path="url(#clip0_29_479)">
<mask id="mask0_29_479" style="mask-type:luminance" maskUnits="userSpaceOnUse" x="0" y="0" width="356" height="344">
<path d="M356 0H0V344H356V0Z" fill="white"/>
</mask>
<g mask="url(#mask0_29_479)">
<path d="M286.228 344.001C284.63 343.997 283.06 343.577 281.673 342.783C280.285 341.988 279.128 340.847 278.314 339.469L249.273 290.475C248.027 288.363 247.671 285.841 248.283 283.466C248.895 281.091 250.424 279.056 252.534 277.809C254.644 276.562 257.162 276.206 259.535 276.818C261.907 277.431 263.94 278.961 265.185 281.074L294.142 330.056C294.968 331.457 295.411 333.052 295.424 334.679C295.438 336.307 295.022 337.909 294.219 339.323C293.416 340.738 292.254 341.916 290.851 342.737C289.448 343.558 287.853 343.994 286.228 344.001Z" fill="#0047BA"/>
<path d="M72.519 343.999C70.8926 343.995 69.2962 343.561 67.8913 342.74C66.4864 341.92 65.3229 340.743 64.5185 339.327C63.7141 337.912 63.2974 336.309 63.3105 334.681C63.3236 333.053 63.766 331.457 64.5931 330.055L93.5498 281.073C94.1485 279.995 94.9568 279.048 95.927 278.288C96.8972 277.529 98.0096 276.971 99.1985 276.649C100.387 276.327 101.629 276.246 102.849 276.412C104.07 276.578 105.245 276.987 106.305 277.616C107.365 278.244 108.288 279.078 109.021 280.07C109.753 281.061 110.28 282.189 110.57 283.388C110.86 284.587 110.907 285.831 110.708 287.048C110.51 288.265 110.069 289.43 109.414 290.474L80.457 339.468C79.6411 340.849 78.48 341.993 77.088 342.787C75.696 343.582 74.1213 344 72.519 343.999Z" fill="#0047BA"/>
<path d="M179.367 323.38C150.327 323.38 121.939 314.758 97.7936 298.605C73.6477 282.452 54.8283 259.492 43.7152 232.63C32.6021 205.768 29.6944 176.21 35.3598 147.694C41.0252 119.178 55.0093 92.9836 75.5437 72.4244C96.0781 51.8652 122.24 37.8642 150.722 32.1919C179.204 26.5197 208.727 29.4309 235.556 40.5574C262.386 51.684 285.317 70.5262 301.451 94.7012C317.585 118.876 326.196 147.298 326.196 176.374C326.155 215.349 310.672 252.717 283.145 280.277C255.618 307.837 218.296 323.338 179.367 323.38Z" fill="#0047BA"/>
<path d="M305.71 176.374C305.71 201.392 298.3 225.849 284.417 246.651C270.535 267.453 250.803 283.666 227.716 293.24C204.63 302.815 179.227 305.32 154.719 300.439C130.211 295.558 107.699 283.51 90.0297 265.82C72.3604 248.129 60.3274 225.59 55.4525 201.052C50.5775 176.514 53.0795 151.08 62.6421 127.966C72.2046 104.853 88.3983 85.0967 109.175 71.1972C129.952 57.2977 154.379 49.8789 179.367 49.8789C212.874 49.8821 245.008 63.2103 268.701 86.932C292.395 110.654 305.707 142.826 305.71 176.374Z" fill="#FCBF2C"/>
<path d="M330.601 109.861L243.222 29.2585L256.291 15.0473C264.671 5.94652 276.317 0.549686 288.67 0.0430712C301.023 -0.463544 313.071 3.96152 322.167 12.3456L340.995 29.7067C345.504 33.8626 349.149 38.8677 351.723 44.4357C354.297 50.0038 355.75 56.0253 355.997 62.1559C356.244 68.2865 355.282 74.4057 353.164 80.1634C351.047 85.9211 347.816 91.2042 343.657 95.7105L330.601 109.861Z" fill="#0047BA"/>
<path d="M340.886 85.8728C340.494 85.8727 340.11 85.7546 339.785 85.5336C339.557 85.3907 339.36 85.2037 339.206 84.9836C339.051 84.7636 338.942 84.5148 338.884 84.252C338.827 83.9891 338.822 83.7174 338.871 83.4528C338.92 83.1881 339.021 82.9359 339.168 82.7108C342.484 77.5218 344.326 71.5268 344.496 65.369C344.667 59.2113 343.16 53.1233 340.136 47.7583C339.874 47.2818 339.81 46.7213 339.957 46.1977C340.104 45.674 340.451 45.2294 340.923 44.9597C341.157 44.8249 341.416 44.7383 341.684 44.7049C341.953 44.6716 342.225 44.6922 342.485 44.7655C342.746 44.8389 342.989 44.9635 343.2 45.132C343.412 45.3006 343.588 45.5097 343.718 45.7472C347.108 51.7615 348.797 58.5873 348.603 65.4907C348.409 72.3941 346.34 79.114 342.617 84.9278C342.429 85.217 342.173 85.4549 341.871 85.6199C341.569 85.7849 341.23 85.8718 340.886 85.8728Z" fill="white"/>
<path d="M316.02 47.1287C314.227 47.1325 312.472 46.6122 310.97 45.6317C309.469 44.6513 308.286 43.2533 307.566 41.6093C306.847 39.9653 306.622 38.1468 306.92 36.3769C307.218 34.6069 308.025 32.9625 309.243 31.6455L329.306 9.83803C330.976 8.09276 333.263 7.07265 335.675 6.99675C338.088 6.92085 340.434 7.79521 342.21 9.43208C343.986 11.0689 345.05 13.3378 345.173 15.7514C345.297 18.165 344.47 20.5308 342.871 22.341L322.808 44.1484C321.942 45.0856 320.892 45.8331 319.724 46.344C318.556 46.8549 317.294 47.1179 316.02 47.1166" fill="#0047BA"/>
<path d="M25.4113 112.297L112.802 31.6942L99.7332 17.4951C91.3591 8.39419 79.7176 2.9957 67.3687 2.48679C55.0198 1.97788 42.9745 6.40021 33.8817 14.7813L15.041 32.1425C10.5312 36.2949 6.88324 41.2967 4.30588 46.8619C1.72852 52.4271 0.272316 58.4465 0.0205666 64.5757C-0.231183 70.7048 0.726462 76.8236 2.83872 82.5819C4.95098 88.3402 8.17641 93.625 12.3305 98.1341L25.4113 112.297Z" fill="#0047BA"/>
<path d="M15.1136 88.2955C14.7707 88.2969 14.433 88.2109 14.1324 88.0456C13.8318 87.8802 13.5781 87.641 13.3953 87.3505C9.66786 81.541 7.59432 74.8233 7.39815 67.9212C7.20198 61.0191 8.8906 54.1942 12.2821 48.1819C12.5469 47.7 12.992 47.343 13.5196 47.1897C13.7809 47.1137 14.0545 47.0901 14.3249 47.12C14.5953 47.1499 14.8571 47.2329 15.0955 47.3642C15.3338 47.4954 15.544 47.6724 15.7141 47.885C15.8841 48.0976 16.0107 48.3416 16.0865 48.6032C16.1624 48.8647 16.186 49.1387 16.1561 49.4094C16.1262 49.6801 16.0434 49.9423 15.9123 50.1809C12.8881 55.5484 11.3815 61.6393 11.5542 67.7995C11.7269 73.9596 13.5724 79.9563 16.8924 85.1455C17.1829 85.6054 17.2797 86.1618 17.1618 86.6929C17.0439 87.2241 16.7208 87.687 16.2632 87.9805C15.9344 88.1902 15.5518 88.2997 15.162 88.2955" fill="white"/>
<path d="M39.932 49.5762C38.6548 49.5781 37.3912 49.3129 36.2222 48.7976C35.0532 48.2823 34.0046 47.5282 33.1436 46.5837L13.0929 24.7763C12.2737 23.8813 11.6386 22.8336 11.2239 21.6929C10.8091 20.5523 10.6228 19.341 10.6756 18.1282C10.7823 15.679 11.8564 13.3724 13.6616 11.716C15.4668 10.0597 17.8553 9.18911 20.3016 9.29589C22.7479 9.40268 25.0517 10.4781 26.7061 12.2855L46.7568 34.0929C47.9664 35.4168 48.7651 37.0646 49.0553 38.8353C49.3455 40.6059 49.1148 42.4229 48.3912 44.0644C47.6676 45.706 46.4825 47.1013 44.9804 48.08C43.4783 49.0587 41.7242 49.5786 39.932 49.5762Z" fill="#0047BA"/>
<path d="M196.816 176.349C196.814 179.804 195.789 183.181 193.87 186.052C191.951 188.923 189.225 191.161 186.036 192.481C182.848 193.802 179.34 194.146 175.956 193.47C172.572 192.795 169.464 191.13 167.025 188.686C164.586 186.243 162.925 183.13 162.253 179.741C161.58 176.353 161.927 172.841 163.248 169.649C164.569 166.457 166.805 163.73 169.674 161.811C172.544 159.891 175.917 158.867 179.367 158.867C183.996 158.87 188.434 160.714 191.706 163.992C194.978 167.27 196.816 171.715 196.816 176.349Z" fill="black"/>
<path d="M125.762 236.247C124.756 236.242 123.774 235.941 122.939 235.38C122.103 234.82 121.451 234.025 121.064 233.096C120.677 232.167 120.572 231.144 120.761 230.155C120.951 229.167 121.428 228.256 122.131 227.536L173.547 174.993L143.114 82.4444C142.81 81.7872 142.649 81.0731 142.64 80.349C142.631 79.6249 142.776 78.9071 143.063 78.2428C143.351 77.5785 143.776 76.9826 144.31 76.4942C144.844 76.0059 145.476 75.6361 146.162 75.4091C146.849 75.1822 147.576 75.1032 148.296 75.1774C149.015 75.2516 149.711 75.4772 150.337 75.8395C150.963 76.2019 151.506 76.6927 151.93 77.2797C152.353 77.8668 152.648 78.5369 152.794 79.246L184.171 174.75C184.463 175.643 184.505 176.598 184.292 177.513C184.078 178.427 183.618 179.265 182.961 179.936L129.477 234.697C128.518 235.671 127.212 236.224 125.846 236.235" fill="black"/>
<path d="M174.321 87.6423C173.68 87.6423 173.064 87.387 172.61 86.9326C172.156 86.4781 171.901 85.8618 171.901 85.2192V66.1983C172.006 65.6438 172.301 65.1435 172.735 64.7835C173.169 64.4235 173.715 64.2266 174.279 64.2266C174.843 64.2266 175.389 64.4235 175.823 64.7835C176.257 65.1435 176.552 65.6438 176.657 66.1983V85.2556C176.657 85.8982 176.402 86.5145 175.948 86.9689C175.494 87.4233 174.879 87.6786 174.237 87.6786" fill="#1D1D1B"/>
<path d="M127.722 100.884C127.306 100.875 126.899 100.759 126.541 100.547C126.182 100.335 125.885 100.034 125.677 99.6727L115.996 83.1717C115.684 82.6234 115.598 81.9749 115.756 81.364C115.915 80.7531 116.305 80.2281 116.843 79.9006C117.39 79.5919 118.035 79.5078 118.642 79.666C119.249 79.8242 119.772 80.2124 120.099 80.7487L129.779 97.2496C129.989 97.6143 130.101 98.0275 130.104 98.4486C130.106 98.8697 129.998 99.2841 129.792 99.651C129.586 100.018 129.287 100.325 128.926 100.541C128.565 100.757 128.155 100.875 127.734 100.884" fill="#1D1D1B"/>
<path d="M94.1306 135.159C93.7071 135.171 93.2883 135.066 92.9205 134.856L76.0644 125.345C75.5725 124.998 75.2274 124.48 75.0963 123.893C74.9651 123.305 75.0574 122.689 75.3551 122.166C75.6528 121.642 76.1345 121.248 76.7064 121.061C77.2782 120.874 77.8992 120.907 78.4482 121.153L95.3043 130.676C95.845 130.995 96.2407 131.512 96.4077 132.118C96.5748 132.724 96.5002 133.371 96.1998 133.923C95.9954 134.292 95.6954 134.6 95.3313 134.813C94.9672 135.026 94.5524 135.137 94.1306 135.134" fill="#1D1D1B"/>
<path d="M82.5504 181.292H63.0926C62.7447 181.353 62.3877 181.337 62.0467 181.245C61.7056 181.154 61.3888 180.988 61.1184 180.761C60.8479 180.533 60.6305 180.249 60.4813 179.929C60.3322 179.608 60.2549 179.259 60.2549 178.905C60.2549 178.552 60.3322 178.203 60.4813 177.882C60.6305 177.562 60.8479 177.278 61.1184 177.05C61.3888 176.823 61.7056 176.657 62.0467 176.566C62.3877 176.474 62.7447 176.458 63.0926 176.519H82.5504C83.1113 176.617 83.6196 176.91 83.9858 177.347C84.3521 177.783 84.5529 178.335 84.5529 178.905C84.5529 179.476 84.3521 180.027 83.9858 180.464C83.6196 180.901 83.1113 181.194 82.5504 181.292Z" fill="#1D1D1B"/>
<path d="M79.2348 236.428C78.721 236.407 78.2274 236.222 77.8254 235.901C77.4235 235.58 77.1341 235.139 76.9992 234.642C76.8644 234.146 76.8911 233.619 77.0755 233.138C77.2599 232.658 77.5924 232.248 78.0247 231.97L94.8809 222.447C95.149 222.207 95.4672 222.03 95.8124 221.928C96.1575 221.827 96.5209 221.804 96.8761 221.86C97.2313 221.917 97.5694 222.053 97.8658 222.257C98.1622 222.461 98.4094 222.729 98.5894 223.04C98.7695 223.352 98.8779 223.7 98.9067 224.059C98.9355 224.418 98.884 224.779 98.7559 225.116C98.6279 225.452 98.4265 225.756 98.1665 226.005C97.9064 226.254 97.5942 226.441 97.2526 226.554L80.3965 236.125C80.0278 236.334 79.6097 236.438 79.1864 236.428" fill="#1D1D1B"/>
<path d="M121.369 276.227C120.949 276.218 120.538 276.1 120.177 275.884C119.816 275.667 119.518 275.361 119.311 274.994C119.105 274.627 118.997 274.213 119 273.792C119.002 273.37 119.114 272.957 119.324 272.593L129.005 256.092C129.375 255.662 129.885 255.376 130.444 255.284C131.004 255.192 131.578 255.3 132.066 255.588C132.555 255.877 132.926 256.328 133.117 256.863C133.307 257.397 133.303 257.982 133.107 258.515L123.426 275.016C123.217 275.378 122.918 275.681 122.557 275.893C122.197 276.105 121.787 276.22 121.369 276.227Z" fill="#1D1D1B"/>
<path d="M178.242 290.159C177.6 290.159 176.985 289.904 176.531 289.45C176.077 288.995 175.822 288.379 175.822 287.736V268.728C175.927 268.173 176.222 267.673 176.656 267.313C177.09 266.953 177.636 266.756 178.2 266.756C178.763 266.756 179.309 266.953 179.743 267.313C180.177 267.673 180.472 268.173 180.577 268.728V287.785C180.577 288.427 180.322 289.044 179.869 289.498C179.415 289.953 178.799 290.208 178.157 290.208" fill="#1D1D1B"/>
<path d="M234.582 274.361C234.163 274.362 233.75 274.25 233.389 274.037C233.027 273.824 232.729 273.517 232.525 273.15L222.845 256.661C222.608 256.394 222.434 256.077 222.333 255.735C222.233 255.392 222.21 255.031 222.265 254.678C222.321 254.325 222.453 253.989 222.653 253.694C222.854 253.398 223.117 253.15 223.424 252.969C223.731 252.787 224.074 252.675 224.429 252.642C224.784 252.608 225.142 252.654 225.478 252.775C225.813 252.896 226.118 253.09 226.37 253.343C226.622 253.596 226.815 253.902 226.935 254.238L236.615 270.727C236.928 271.274 237.016 271.921 236.861 272.532C236.705 273.143 236.317 273.668 235.78 273.998C235.415 274.217 234.996 274.33 234.57 274.325" fill="#1D1D1B"/>
<path d="M275.289 233.122C274.865 233.125 274.448 233.017 274.079 232.807L257.235 223.285C256.798 222.923 256.503 222.418 256.399 221.86C256.296 221.302 256.392 220.726 256.67 220.231C256.948 219.736 257.391 219.355 257.921 219.154C258.451 218.952 259.034 218.944 259.57 219.129L276.426 228.652C276.864 228.928 277.202 229.338 277.389 229.821C277.577 230.304 277.606 230.834 277.47 231.334C277.335 231.835 277.043 232.278 276.637 232.6C276.232 232.922 275.734 233.105 275.216 233.122" fill="#1D1D1B"/>
<path d="M289.471 177.465H270.013C269.452 177.366 268.944 177.073 268.578 176.637C268.211 176.2 268.01 175.648 268.01 175.078C268.01 174.508 268.211 173.956 268.578 173.52C268.944 173.083 269.452 172.79 270.013 172.691H289.471C290.032 172.79 290.54 173.083 290.906 173.52C291.273 173.956 291.473 174.508 291.473 175.078C291.473 175.648 291.273 176.2 290.906 176.637C290.54 177.073 290.032 177.366 289.471 177.465Z" fill="#1D1D1B"/>
<path d="M256.533 131.85C256.016 131.833 255.518 131.65 255.112 131.328C254.706 131.006 254.414 130.562 254.279 130.062C254.144 129.562 254.172 129.032 254.36 128.549C254.548 128.066 254.885 127.656 255.323 127.38L272.179 117.857C272.732 117.557 273.379 117.485 273.984 117.654C274.589 117.824 275.105 118.222 275.422 118.766C275.721 119.319 275.794 119.967 275.625 120.573C275.455 121.179 275.057 121.695 274.514 122.013L257.658 131.535C257.289 131.745 256.872 131.853 256.448 131.85" fill="#1D1D1B"/>
<path d="M221.441 98.9701C221.016 98.9694 220.599 98.8566 220.231 98.643C219.694 98.3136 219.307 97.7878 219.151 97.177C218.995 96.5663 219.083 95.9188 219.396 95.3719L229.077 78.871C229.447 78.4412 229.957 78.1553 230.516 78.0633C231.076 77.9713 231.65 78.0789 232.138 78.3674C232.627 78.6559 232.998 79.1069 233.189 79.6418C233.379 80.1767 233.375 80.7614 233.179 81.294L223.498 97.795C223.296 98.1608 223 98.4659 222.64 98.6789C222.281 98.8919 221.871 99.005 221.453 99.0065" fill="#1D1D1B"/>
</g>
</g>
<defs>
<clipPath id="clip0_29_479">
<rect width="356" height="344" fill="white"/>
</clipPath>
</defs>
</svg>
