<svg width="351" height="417" viewBox="0 0 351 417" fill="none" xmlns="http://www.w3.org/2000/svg">
<g clip-path="url(#clip0_29_510)">
<mask id="mask0_29_510" style="mask-type:luminance" maskUnits="userSpaceOnUse" x="0" y="0" width="351" height="417">
<path d="M350.397 94.7661L156.965 0.40918L0.217167 321.743L193.65 416.1L350.397 94.7661Z" fill="white"/>
</mask>
<g mask="url(#mask0_29_510)">
<path d="M137.742 41.4198L18.0914 286.705C13.5184 296.079 12.8568 306.887 16.2521 316.749C17.9332 321.632 20.5598 326.137 23.9817 330.005C27.4037 333.873 31.5541 337.03 36.1959 339.294L158.303 398.858C167.677 403.431 178.485 404.092 188.347 400.697C198.209 397.302 206.319 390.128 210.892 380.753L333.155 130.113C337.728 120.738 338.39 109.931 334.994 100.069C331.599 90.2064 324.425 82.0967 315.051 77.5238L199.809 21.3089C159.107 1.45416 143.903 27.187 139.723 35.7559L137.742 41.4198Z" fill="#80A3DD"/>
<path d="M181.054 330.715L73.6861 278.341C68.121 275.626 63.8622 270.812 61.8467 264.957C59.8311 259.102 60.2239 252.687 62.9386 247.122L157.097 54.0964C159.812 48.5313 164.626 44.2726 170.48 42.257C176.335 40.2415 182.751 40.6342 188.316 43.3489L295.684 95.7235C298.44 97.0677 300.903 98.9414 302.935 101.238C304.966 103.534 306.525 106.208 307.523 109.107C308.521 112.006 308.939 115.073 308.751 118.133C308.564 121.193 307.776 124.187 306.432 126.942L212.273 319.968C210.929 322.723 209.055 325.187 206.759 327.218C204.463 329.25 201.789 330.809 198.89 331.807C195.991 332.805 192.924 333.222 189.864 333.035C186.803 332.848 183.81 332.059 181.054 330.715Z" fill="#0047BA"/>
<path d="M104.355 354.509C101.178 352.959 98.5308 350.501 96.7499 347.447C94.9689 344.393 94.1336 340.879 94.3496 337.35C94.5657 333.821 95.8234 330.435 97.9636 327.621C100.104 324.807 103.031 322.69 106.374 321.539C109.717 320.389 113.326 320.255 116.745 321.155C120.164 322.056 123.239 323.95 125.582 326.598C127.924 329.246 129.429 332.529 129.906 336.033C130.382 339.536 129.809 343.102 128.259 346.28C126.181 350.541 122.494 353.802 118.012 355.345C113.529 356.888 108.616 356.587 104.355 354.509Z" fill="#0047BA"/>
</g>
</g>
<defs>
<clipPath id="clip0_29_510">
<rect width="215.219" height="357.527" fill="white" transform="translate(156.965 0.40918) rotate(26.0033)"/>
</clipPath>
</defs>
</svg>
