<svg width="1411" height="1316" viewBox="0 0 1411 1316" fill="none" xmlns="http://www.w3.org/2000/svg">
<circle cx="590.422" cy="764.745" r="540.254" fill="#E597A2"/>
<g clip-path="url(#clip0_29_217)">
<path d="M935.485 984.067C912.548 939.909 867.845 963.174 844.723 919.016C821.601 874.858 866.304 851.624 843.274 807.466C820.245 763.308 775.635 786.573 752.574 742.415C729.514 698.257 774.155 675.023 751.125 630.865C728.096 586.707 683.455 609.941 660.426 565.814C637.396 521.687 627.037 514.26 604.008 469.948L401.675 473.862C378.646 518.02 298.027 521.625 274.997 565.814C251.968 610.003 207.173 586.707 184.298 630.865C161.422 675.023 205.878 698.257 182.818 742.415C159.758 786.573 115.178 763.308 92.1488 807.466C69.1193 851.624 113.729 874.858 90.6999 919.016C67.6704 963.174 23.0295 939.909 0 984.067H935.485Z" fill="#0047BA"/>
<path d="M659.378 581.653C659.378 619.359 648.192 656.219 627.234 687.571C606.277 718.923 576.489 743.359 541.637 757.79C506.786 772.221 468.435 775.999 431.436 768.645C394.437 761.291 360.45 743.136 333.773 716.476C307.096 689.816 288.928 655.847 281.564 618.866C274.201 581.885 277.974 543.552 292.406 508.715C306.838 473.877 331.281 444.099 362.644 423.146C394.007 402.193 430.882 391.006 468.606 391C493.655 390.996 518.46 395.925 541.604 405.504C564.748 415.084 585.776 429.127 603.489 446.832C621.202 464.537 635.251 485.556 644.836 508.688C654.42 531.821 659.351 556.615 659.347 581.653" fill="#0047BA"/>
<path d="M613.318 569.727V760.257C613.598 779.424 610.063 798.455 602.919 816.244C595.774 834.033 585.163 850.224 571.701 863.877C558.24 877.53 542.197 888.372 524.507 895.772C506.816 903.172 487.829 906.983 468.652 906.983C449.474 906.983 430.488 903.172 412.797 895.772C395.106 888.372 379.063 877.53 365.602 863.877C352.141 850.224 341.529 834.033 334.385 816.244C327.24 798.455 323.705 779.424 323.985 760.257V569.727C323.966 534.146 337.073 499.807 360.8 473.281C384.527 446.755 417.206 429.906 452.584 425.957C487.962 422.009 523.555 431.238 552.55 451.879C581.546 472.521 601.909 503.124 609.742 537.834C612.127 548.297 613.326 558.996 613.318 569.727Z" fill="#F8C09E"/>
<path d="M611.53 536.016C604.267 567.847 586.406 596.271 560.872 616.631C535.338 636.992 503.644 648.084 470.979 648.09H321.118V568.433C321.136 532.294 334.475 497.429 358.587 470.5C382.699 443.57 415.893 426.466 451.825 422.455C487.758 418.444 523.909 427.808 553.37 448.757C582.832 469.706 603.537 500.771 611.53 536.016Z" fill="#0047BA"/>
<path d="M416.997 678.073C416.997 681.121 416.093 684.1 414.399 686.633C412.706 689.167 410.298 691.142 407.482 692.308C404.665 693.474 401.566 693.779 398.575 693.185C395.585 692.59 392.839 691.123 390.683 688.968C388.527 686.813 387.059 684.068 386.464 681.079C385.869 678.09 386.175 674.993 387.341 672.177C388.508 669.362 390.484 666.955 393.019 665.262C395.554 663.569 398.534 662.666 401.583 662.666C405.671 662.666 409.592 664.289 412.482 667.179C415.373 670.068 416.997 673.987 416.997 678.073Z" fill="#1D1D1B"/>
<path d="M550.92 678.073C550.92 681.121 550.016 684.1 548.322 686.633C546.628 689.167 544.221 691.142 541.404 692.308C538.587 693.474 535.488 693.779 532.498 693.185C529.508 692.59 526.761 691.123 524.605 688.968C522.449 686.813 520.981 684.068 520.387 681.079C519.792 678.09 520.097 674.993 521.264 672.177C522.43 669.362 524.406 666.955 526.941 665.262C529.476 663.569 532.456 662.666 535.505 662.666C539.593 662.666 543.514 664.289 546.405 667.179C549.296 670.068 550.92 673.987 550.92 678.073Z" fill="#1D1D1B"/>
<path d="M468.605 776.189C497.153 776.189 520.306 765.403 520.306 752.091C520.306 738.779 497.153 727.994 468.605 727.994C440.058 727.994 416.936 738.779 416.936 752.091C416.936 765.403 440.119 776.189 468.605 776.189Z" fill="white"/>
<path d="M661.011 672.373C661.017 678.011 659.35 683.525 656.22 688.217C653.09 692.908 648.639 696.567 643.429 698.729C638.218 700.891 632.484 701.46 626.95 700.363C621.416 699.267 616.332 696.555 612.34 692.57C608.349 688.584 605.63 683.506 604.527 677.976C603.424 672.446 603.987 666.713 606.145 661.503C608.302 656.292 611.957 651.839 616.648 648.705C621.338 645.572 626.853 643.899 632.494 643.899C636.238 643.895 639.945 644.629 643.405 646.058C646.865 647.487 650.008 649.584 652.657 652.228C655.305 654.872 657.406 658.013 658.84 661.469C660.273 664.926 661.011 668.631 661.011 672.373Z" fill="#F8C09E"/>
<path d="M333.45 668.551C333.45 674.19 331.776 679.702 328.642 684.391C325.507 689.079 321.051 692.732 315.839 694.889C310.626 697.045 304.891 697.608 299.358 696.505C293.825 695.403 288.744 692.685 284.757 688.696C280.77 684.706 278.057 679.625 276.96 674.093C275.863 668.562 276.432 662.83 278.595 657.622C280.758 652.414 284.418 647.965 289.112 644.836C293.806 641.708 299.322 640.041 304.963 640.048C308.707 640.048 312.414 640.785 315.872 642.218C319.33 643.651 322.472 645.751 325.117 648.398C327.763 651.045 329.86 654.188 331.29 657.646C332.72 661.104 333.454 664.81 333.45 668.551Z" fill="#F8C09E"/>
<path d="M698.993 1153.83V1315.45H235.413V1153.83C235.41 1147.86 236.009 1141.9 237.201 1136.05C238.255 1130.63 239.824 1125.33 241.887 1120.21C248.403 1104 259.421 1089.99 273.641 1079.84C289.002 1068.87 307.417 1062.98 326.297 1063.02H608.108C626.989 1062.98 645.407 1068.86 660.765 1079.84C667.164 1084.34 672.929 1089.68 677.906 1095.71C687.642 1107.32 694.29 1121.19 697.236 1136.05C698.417 1141.9 699.005 1147.86 698.993 1153.83Z" fill="#E62645"/>
<path d="M698.962 1281.68H235.443V1297.52H698.962V1281.68Z" fill="white"/>
<path d="M698.962 1241.31H235.443V1257.15H698.962V1241.31Z" fill="white"/>
<path d="M698.962 1200.94H235.443V1216.78H698.962V1200.94Z" fill="white"/>
<path d="M698.962 1160.61H235.443V1176.45H698.962V1160.61Z" fill="white"/>
<path d="M697.236 1136.05H237.201C238.255 1130.63 239.824 1125.33 241.887 1120.21H692.55C694.598 1125.33 696.166 1130.63 697.236 1136.05Z" fill="white"/>
<path d="M677.906 1095.71H256.531C261.511 1089.69 267.264 1084.36 273.641 1079.84H660.765C667.164 1084.34 672.93 1089.68 677.906 1095.71Z" fill="white"/>
<path d="M613.257 1063.05L607.553 1063.88C602.744 1070.81 565.071 1120.42 468.636 1120.42C369.15 1120.42 329.565 1067.61 326.513 1063.32L324.016 1063.05C349.003 1063.05 372.967 1053.12 390.636 1035.46C408.304 1017.8 418.231 993.851 418.231 968.875C418.231 916.89 407.471 898.863 376.241 872.455L561.648 870.205C530.418 896.676 519.104 916.89 519.104 968.814C519.096 981.177 521.525 993.422 526.253 1004.85C530.981 1016.27 537.915 1026.65 546.659 1035.4C555.403 1044.14 565.785 1051.08 577.212 1055.81C588.639 1060.55 600.887 1062.98 613.257 1062.98" fill="#F8C09E"/>
</g>
<g clip-path="url(#clip1_29_217)">
<path d="M717.033 210.306L580.422 385.351L595.228 399.156L759.71 250.104L717.033 210.306Z" fill="#1D1D1B"/>
</g>
<g clip-path="url(#clip2_29_217)">
<path d="M128.868 257.218L304.034 394.296L317.896 379.5L168.83 214.57L128.868 257.218Z" fill="#1D1D1B"/>
</g>
<g clip-path="url(#clip3_29_217)">
<path d="M429.543 114.493L444.64 336.406L464.911 336.829L487.975 115.717L429.543 114.493Z" fill="#1D1D1B"/>
</g>
<g clip-path="url(#clip4_29_217)">
<path d="M965.718 1099.75L939.792 1071.96L944.158 1109.68L909.96 1093.14L927.669 1126.72L889.783 1123.63L918.449 1148.57L882 1159.37L917.744 1172.26L887.668 1195.47L925.69 1194.6L906.028 1227.1L941.148 1212.58L934.585 1249.98L962.084 1223.77L969.488 1261L985.651 1226.66L1006.02 1258.7L1008.68 1220.84L1039.27 1243.37L1028.01 1207.11L1064.7 1217.11L1041.11 1187.32L1078.92 1183.42L1046.15 1164.17L1080 1146.86L1042.47 1140.74L1067.77 1112.42L1030.56 1120.24L1043.9 1084.69L1012.07 1105.41L1011.63 1067.44L989.421 1098.26L975.291 1063L965.718 1099.75Z" fill="#1D1D1B"/>
</g>
<g clip-path="url(#clip5_29_217)">
<mask id="mask0_29_217" style="mask-type:luminance" maskUnits="userSpaceOnUse" x="647" y="115" width="764" height="564">
<path d="M1288.14 115L647 368.213L769.69 678.865L1410.83 425.652L1288.14 115Z" fill="white"/>
</mask>
<g mask="url(#mask0_29_217)">
<path d="M1203.16 198.734C1210.22 204.087 1217.48 209.813 1224.24 215.989C1228.76 212.57 1233.45 209.007 1237.78 205.336C1234.38 202.318 1231.01 199.41 1227.67 196.614C1224.27 193.759 1220.68 191.055 1217.25 188.411C1213.83 185.766 1208.17 186.021 1204.25 188.658C1199.94 191.542 1199.5 195.986 1203.15 198.741" fill="#F8C09E"/>
<path d="M1222.36 152.95C1223.6 156.093 1224.62 159.323 1225.75 162.51L1227.43 167.299L1228.91 172.162C1229.96 175.47 1230.3 178.964 1229.91 182.414C1229.1 188.183 1228.57 193.75 1227.5 199.314L1226 207.626C1225.47 210.378 1224.79 213.117 1224.2 215.841C1244.61 217.989 1265.07 220.792 1285.31 224.297C1285.72 222.316 1286.19 220.316 1286.59 218.341L1287.68 212.46C1288.37 208.554 1289.19 204.469 1289.69 200.439C1290.74 193.405 1292.35 186.467 1294.52 179.693C1295.59 176.267 1296.87 172.848 1298.37 169.434C1299.76 166.052 1301.25 162.701 1302.95 159.361L1303.01 159.245C1303.83 157.674 1304 155.843 1303.49 154.148C1302.97 152.453 1301.81 151.028 1300.25 150.181C1298.51 149.309 1296.5 149.159 1294.65 149.763C1292.8 150.368 1291.26 151.679 1290.37 153.41C1287.02 159.928 1283.65 166.239 1280.19 172.383C1280.09 172.531 1279.96 172.652 1279.81 172.733C1279.65 172.814 1279.48 172.852 1279.3 172.843L1278.68 172.834C1278.54 172.837 1278.41 172.807 1278.29 172.748C1278.17 172.688 1278.07 172.601 1277.99 172.492C1277.91 172.384 1277.86 172.258 1277.84 172.126C1277.82 171.994 1277.84 171.859 1277.88 171.733C1279.59 167.241 1281.29 162.679 1282.96 158.047C1284.75 153.38 1286.03 148.767 1287.56 143.985C1287.83 143.162 1287.93 142.293 1287.86 141.429C1287.78 140.566 1287.53 139.727 1287.12 138.962C1286.71 138.198 1286.15 137.525 1285.48 136.983C1284.8 136.442 1284.02 136.043 1283.19 135.812C1281.33 135.28 1279.34 135.484 1277.64 136.382C1275.93 137.279 1274.64 138.801 1274.02 140.629C1272.31 146.03 1270.56 151.328 1268.78 156.523C1266.93 161.723 1264.86 166.882 1262.88 171.88C1262.8 172.056 1262.67 172.205 1262.51 172.308C1262.35 172.411 1262.16 172.464 1261.96 172.46L1261.63 172.446C1261.52 172.456 1261.4 172.441 1261.29 172.402C1261.19 172.363 1261.09 172.302 1261.01 172.222C1260.93 172.142 1260.86 172.046 1260.82 171.939C1260.78 171.833 1260.76 171.718 1260.77 171.605C1261.45 165.649 1262.27 159.585 1262.61 153.546L1263.24 144.378C1263.42 141.329 1263.45 138.267 1263.55 135.174C1263.56 134.338 1263.39 133.51 1263.07 132.739C1262.75 131.968 1262.28 131.27 1261.68 130.687C1261.08 130.103 1260.37 129.647 1259.59 129.345C1258.81 129.044 1257.98 128.902 1257.14 128.93C1255.26 128.885 1253.43 129.543 1252.01 130.776C1250.59 132.01 1249.68 133.73 1249.46 135.599C1249.25 141.732 1249.06 147.746 1248.47 153.792L1247.71 162.737L1246.58 171.634C1246.53 171.853 1246.4 172.047 1246.22 172.184C1246.05 172.321 1245.83 172.391 1245.6 172.382C1245.42 172.393 1245.24 172.346 1245.09 172.25C1244.94 172.154 1244.82 172.012 1244.75 171.845C1242.42 163.684 1239.58 155.721 1236.72 147.914C1235.39 144.551 1230.86 143.145 1226.77 144.85C1223 146.339 1221.17 150.024 1222.36 152.966" fill="#F8C09E"/>
<path d="M1287.79 211.871C1290.89 246.432 1289.06 281.259 1282.34 315.302C1275.48 349.877 1263.3 383.179 1246.22 414.018C1237.48 429.554 1227.48 444.345 1216.31 458.24C1205.12 472.27 1192.69 485.266 1179.17 497.071C1165.61 508.907 1151.09 519.609 1135.78 529.067C1120.41 538.384 1104.33 546.462 1087.68 553.223L1059 477.95C1071.84 473.39 1084.29 467.822 1096.24 461.299C1108.1 454.679 1119.39 447.103 1130.01 438.645C1140.67 430.17 1150.54 420.738 1159.5 410.467C1168.56 400.152 1176.76 389.117 1184.03 377.47C1198.63 353.621 1209.45 327.655 1216.1 300.495C1222.79 272.856 1225.52 244.407 1224.21 216.001L1287.79 211.871Z" fill="#F8C09E"/>
<path d="M1059.02 477.982C1071.85 473.422 1084.3 467.854 1096.26 461.33C1108.11 454.711 1119.4 447.134 1130.02 438.677C1140.69 430.202 1150.56 420.77 1159.51 410.498C1168.57 400.184 1176.77 389.148 1184.04 377.501C1198.64 353.64 1209.45 327.664 1216.1 300.495C1217.74 293.792 1219.14 286.984 1220.3 280.072L1285.33 297.989C1284.49 303.771 1283.53 309.505 1282.4 315.239C1275.55 349.815 1263.36 383.117 1246.29 413.955C1237.55 429.493 1227.54 444.289 1216.38 458.193C1205.18 472.213 1192.75 485.203 1179.23 497.009C1165.67 508.845 1151.16 519.546 1135.84 529.004C1120.48 538.322 1104.39 546.399 1087.74 553.161L1059.02 477.982Z" fill="#85529C"/>
<path d="M766.848 373.979C764.722 382.678 763.083 391.488 761.939 400.37C756.321 400.772 750.467 401.267 744.807 401.377C745.425 396.918 746.107 392.526 746.885 388.24C747.663 383.954 748.667 379.597 749.617 375.425C750.567 371.254 755.047 367.831 759.715 367.277C764.901 366.61 767.912 369.635 766.895 373.96" fill="#F8C09E"/>
<path d="M723.326 352.002C724.379 355.219 725.589 358.375 726.689 361.483L728.409 366.253L730.366 370.93C731.651 374.106 733.61 376.964 736.108 379.308L742.409 384.958C743.465 385.885 744.459 386.837 745.541 387.735L748.814 390.366L755.283 395.569C757.472 397.247 759.746 398.82 761.958 400.417C754.959 407.904 748.12 415.547 741.438 423.345C734.731 431.153 728.236 439.041 721.769 447.135L716.72 443.552L711.952 439.713C708.782 437.114 705.461 434.592 702.411 431.837C696.917 427.098 691.08 422.773 684.947 418.897C681.896 416.905 678.688 415.053 675.323 413.342C672.049 411.583 668.724 409.881 665.233 408.353L665.117 408.29C663.43 407.581 662.085 406.244 661.366 404.562C660.648 402.879 660.611 400.983 661.266 399.274C661.64 398.38 662.19 397.569 662.883 396.89C663.575 396.211 664.397 395.677 665.299 395.321C666.202 394.965 667.166 394.793 668.136 394.815C669.106 394.837 670.061 395.054 670.946 395.451C677.744 398.434 684.456 401.233 691.084 403.847C691.252 403.906 691.433 403.917 691.608 403.88C691.782 403.844 691.943 403.76 692.073 403.638L692.527 403.223C692.63 403.138 692.711 403.03 692.764 402.908C692.817 402.785 692.841 402.652 692.832 402.519C692.824 402.386 692.784 402.256 692.717 402.141C692.649 402.027 692.554 401.929 692.442 401.858C688.206 399.413 683.949 396.928 679.67 394.404C675.32 391.853 671.335 389.03 667.099 386.216C666.356 385.739 665.716 385.117 665.219 384.388C664.721 383.658 664.376 382.835 664.204 381.969C664.031 381.103 664.035 380.211 664.215 379.346C664.395 378.482 664.747 377.662 665.251 376.937C666.351 375.357 668.024 374.268 669.914 373.901C671.805 373.534 673.763 373.919 675.375 374.973C680.168 378.154 684.91 381.192 689.601 384.087C694.377 386.979 699.279 389.639 704.017 392.254C704.194 392.333 704.39 392.359 704.581 392.329C704.773 392.299 704.951 392.213 705.094 392.083L705.34 391.877C705.431 391.808 705.507 391.722 705.563 391.622C705.619 391.522 705.654 391.412 705.666 391.298C705.677 391.185 705.665 391.07 705.63 390.961C705.594 390.852 705.537 390.752 705.461 390.667C701.115 386.515 696.559 382.338 692.471 377.831L686.163 371.057C684.08 368.773 682.152 366.374 680.123 363.997C679.592 363.35 679.197 362.603 678.962 361.801C678.727 360.998 678.656 360.156 678.754 359.326C678.851 358.495 679.116 357.693 679.531 356.967C679.946 356.241 680.503 355.606 681.169 355.1C682.613 353.883 684.462 353.251 686.349 353.33C688.236 353.408 690.025 354.191 691.364 355.524C695.363 360.176 699.268 364.774 703.642 369.041L709.826 375.5L716.382 381.612C716.562 381.746 716.783 381.812 717.007 381.8C717.232 381.788 717.444 381.698 717.609 381.545C717.757 381.442 717.867 381.293 717.921 381.12C717.974 380.947 717.969 380.762 717.905 380.593C714.472 372.866 711.736 364.972 708.996 357.116C707.932 353.686 710.56 349.759 714.854 348.536C718.737 347.42 722.413 349.002 723.326 352.002Z" fill="#F8C09E"/>
<path d="M711.38 439.23C721.726 453.365 733.22 466.622 745.745 478.866C758.36 491.103 771.908 502.34 786.267 512.474C800.655 522.635 815.858 531.59 831.72 539.248C847.609 546.999 864.096 553.458 881.021 558.561C915.162 568.816 950.741 573.464 986.371 572.325C1004.25 571.809 1022.05 569.803 1039.59 566.329C1057.16 562.831 1074.43 557.995 1091.26 551.861L1061.77 476.911C1049.14 482.133 1036.13 486.407 1022.86 489.699C1009.56 492.95 996.007 495.088 982.349 496.089C954.821 498.177 927.138 495.792 900.373 489.026C886.924 485.616 873.773 481.127 861.046 475.602C848.264 470.114 835.959 463.575 824.259 456.051C812.463 448.519 801.271 440.081 790.784 430.814C780.343 421.505 770.7 411.337 761.957 400.417L711.38 439.23Z" fill="#F8C09E"/>
<path d="M801.479 439.815C808.742 445.645 816.299 451.101 824.12 456.16C835.823 463.679 848.127 470.218 860.907 475.711C873.634 481.236 886.786 485.725 900.234 489.136C926.999 495.901 954.683 498.287 982.21 496.199C995.868 495.197 1009.42 493.059 1022.72 489.809C1035.99 486.516 1049 482.242 1061.63 477.02L1091.13 551.971C1074.32 558.072 1057.07 562.88 1039.53 566.354C1021.99 569.828 1004.18 571.833 986.308 572.349C950.678 573.489 915.1 568.841 880.958 558.586C864.033 553.482 847.546 547.024 831.658 539.273C815.795 531.615 800.592 522.66 786.205 512.499C777.947 506.677 770.002 500.405 762.309 493.852L801.479 439.815Z" fill="#85529C"/>
<path d="M952.747 415.987C959.347 432.727 971.453 446.719 987.07 455.657C1002.69 464.595 1020.88 467.945 1038.66 465.156C1056.44 462.366 1072.73 453.604 1084.86 440.312C1096.99 427.02 1104.23 409.993 1105.38 392.036C1105.65 388.003 1105.59 383.955 1105.22 379.931C1104.54 372.382 1102.78 364.97 1100 357.923C1099.21 355.927 1098.43 353.963 1097.43 352.107C1088.66 334.25 1073.49 320.348 1054.94 313.169C1036.39 305.991 1015.81 306.063 997.309 313.37C995.848 313.947 994.418 314.512 993.037 315.202C989.123 317.014 985.366 319.148 981.805 321.582L981.33 321.897C979.561 323.122 977.849 324.398 976.215 325.734C965.226 334.747 956.864 346.549 952.004 359.904C947.143 373.259 945.964 387.675 948.59 401.643C949.533 406.565 950.933 411.388 952.772 416.05" fill="#F8C09E"/>
<path d="M1096.43 387.253C1095.65 385.273 1094.86 383.293 1093.86 381.437C1085.09 363.581 1069.93 349.681 1051.37 342.505C1032.82 335.33 1012.25 335.405 993.749 342.716C992.287 343.293 990.857 343.858 989.477 344.548C985.561 346.354 981.801 348.483 978.238 350.912L977.763 351.227C976.001 352.468 974.288 353.744 972.648 355.064C960.799 364.764 952.023 377.697 947.385 392.291C946.513 379.677 948.672 367.039 953.682 355.43C958.692 343.822 966.408 333.582 976.184 325.564C977.812 324.213 979.525 322.937 981.299 321.728L981.775 321.413C985.333 319.012 989.085 316.911 992.991 315.13C994.421 314.565 995.801 313.875 997.263 313.298C1015.76 305.986 1036.34 305.909 1054.89 313.084C1073.45 320.258 1088.62 334.157 1097.39 352.013C1098.32 353.9 1099.17 355.833 1099.96 357.829C1102.74 364.871 1104.5 372.278 1105.17 379.821C1105.55 383.845 1105.6 387.893 1105.34 391.926C1104.92 398.363 1103.72 404.724 1101.76 410.871C1101.72 410.321 1101.7 409.788 1101.64 409.245C1100.97 401.691 1099.2 394.274 1096.42 387.222" fill="#1D1D1B"/>
<path d="M1021.38 380.214C1021.86 381.423 1022.69 382.463 1023.76 383.203C1024.82 383.943 1026.09 384.35 1027.39 384.371C1028.69 384.393 1029.96 384.029 1031.06 383.324C1032.15 382.62 1033.01 381.608 1033.53 380.415C1034.04 379.223 1034.2 377.903 1033.96 376.624C1033.73 375.345 1033.12 374.164 1032.22 373.23C1031.32 372.296 1030.16 371.65 1028.89 371.376C1027.61 371.101 1026.29 371.209 1025.08 371.687C1023.46 372.327 1022.16 373.585 1021.47 375.184C1020.77 376.784 1020.74 378.593 1021.38 380.214Z" fill="#1D1D1B"/>
<path d="M967.906 401.335C968.384 402.544 969.209 403.584 970.278 404.324C971.346 405.064 972.611 405.471 973.91 405.492C975.21 405.514 976.487 405.149 977.58 404.445C978.672 403.741 979.532 402.728 980.049 401.536C980.566 400.343 980.718 399.024 980.486 397.745C980.253 396.466 979.647 395.285 978.743 394.351C977.839 393.416 976.679 392.771 975.408 392.496C974.137 392.222 972.814 392.33 971.605 392.807C969.983 393.448 968.683 394.706 967.989 396.305C967.296 397.904 967.266 399.714 967.906 401.335Z" fill="#1D1D1B"/>
<path d="M1027.99 405.635C1028.28 410.545 1027.02 415.423 1024.38 419.571C1021.73 423.72 1017.85 426.926 1013.27 428.733C1008.69 430.54 1003.67 430.855 998.901 429.633C994.136 428.41 989.879 425.713 986.739 421.927L1027.99 405.635Z" fill="white"/>
<path d="M1071.04 364.925C1071.88 367.059 1073.34 368.896 1075.22 370.204C1077.1 371.512 1079.33 372.232 1081.62 372.272C1083.92 372.313 1086.17 371.672 1088.1 370.432C1090.03 369.191 1091.55 367.406 1092.46 365.303C1093.37 363.2 1093.64 360.873 1093.23 358.617C1092.83 356.36 1091.76 354.276 1090.16 352.627C1088.57 350.978 1086.52 349.84 1084.28 349.355C1082.04 348.87 1079.7 349.06 1077.57 349.903C1074.72 351.031 1072.42 353.247 1071.2 356.063C1069.98 358.88 1069.92 362.067 1071.04 364.925Z" fill="#F8C09E"/>
</g>
<path d="M988.864 330.348L987.887 349.445L997.504 345.647L988.864 330.348Z" fill="#F8C09E"/>
<mask id="mask1_29_217" style="mask-type:luminance" maskUnits="userSpaceOnUse" x="647" y="115" width="764" height="564">
<path d="M1288.14 115L647 368.213L769.69 678.865L1410.83 425.652L1288.14 115Z" fill="white"/>
</mask>
<g mask="url(#mask1_29_217)">
<path d="M1103.54 396.38C1104.9 400.031 1107.31 403.195 1110.48 405.468C1113.64 407.742 1117.41 409.021 1121.31 409.144C1125.2 409.266 1129.04 408.226 1132.34 406.157C1135.64 404.087 1138.25 401.081 1139.84 397.523C1141.43 393.964 1141.92 390.013 1141.25 386.175C1140.58 382.336 1138.79 378.784 1136.09 375.97C1133.4 373.156 1129.93 371.208 1126.12 370.375C1122.31 369.541 1118.35 369.86 1114.72 371.291C1112.34 372.203 1110.16 373.575 1108.31 375.33C1106.46 377.085 1104.97 379.188 1103.93 381.518C1102.89 383.848 1102.32 386.36 1102.26 388.91C1102.19 391.46 1102.62 393.998 1103.54 396.38Z" fill="#1D1D1B"/>
<path d="M1137.81 407.913C1138.78 410.526 1140.5 412.792 1142.76 414.421C1145.02 416.051 1147.72 416.97 1150.5 417.061C1153.29 417.153 1156.04 416.413 1158.4 414.936C1160.76 413.458 1162.63 411.31 1163.77 408.766C1164.91 406.222 1165.26 403.397 1164.78 400.652C1164.31 397.906 1163.03 395.365 1161.1 393.351C1159.17 391.338 1156.69 389.944 1153.97 389.347C1151.25 388.75 1148.41 388.978 1145.82 390.001C1142.38 391.318 1139.61 393.944 1138.11 397.302C1136.61 400.66 1136.5 404.476 1137.81 407.913Z" fill="#1D1D1B"/>
<path d="M1161.84 416.809C1162.62 418.914 1164.01 420.739 1165.83 422.051C1167.65 423.363 1169.83 424.103 1172.07 424.175C1174.31 424.248 1176.53 423.65 1178.43 422.459C1180.34 421.267 1181.84 419.536 1182.76 417.485C1183.67 415.434 1183.96 413.158 1183.57 410.945C1183.19 408.733 1182.15 406.685 1180.6 405.062C1179.05 403.44 1177.05 402.317 1174.85 401.836C1172.66 401.355 1170.37 401.539 1168.28 402.363C1166.91 402.889 1165.66 403.679 1164.59 404.689C1163.52 405.699 1162.67 406.909 1162.07 408.251C1161.47 409.592 1161.14 411.038 1161.1 412.507C1161.06 413.975 1161.31 415.437 1161.84 416.809Z" fill="#1D1D1B"/>
</g>
</g>
<g clip-path="url(#clip6_29_217)">
<mask id="mask2_29_217" style="mask-type:luminance" maskUnits="userSpaceOnUse" x="880" y="0" width="218" height="218">
<path d="M1098 0H880V218H1098V0Z" fill="white"/>
</mask>
<g mask="url(#mask2_29_217)">
<path d="M1098 108.933C1098.01 126.154 1093.94 143.132 1086.12 158.473C1078.29 173.815 1066.95 187.084 1053 197.192C1052.54 197.525 1052.07 197.881 1051.6 198.192C1050.47 199.014 1049.38 199.793 1048.16 200.548L1044.89 202.572C1029.24 211.945 1011.48 217.207 993.246 217.867H990.823H987.177H984.709C966.493 217.196 948.742 211.927 933.111 202.549L929.82 200.526C928.642 199.77 927.597 198.992 926.397 198.17C925.908 197.858 925.463 197.525 924.996 197.192C911.046 187.092 899.693 173.824 891.87 158.481C884.048 143.137 879.979 126.156 880 108.933C880 107.399 880 105.865 880.111 104.354C880.222 102.842 880.245 101.73 880.334 100.441C880.467 98.7291 880.623 97.0396 880.867 95.35C880.867 94.3941 881.089 93.4603 881.245 92.5044C885.449 64.8691 900.129 39.9122 922.24 22.8093C923.173 22.0757 924.107 21.3865 925.041 20.6973L928.109 18.4742C928.531 18.163 928.931 17.8962 929.354 17.6294C945.859 6.82781 964.998 0.732606 984.709 0L987.177 0H990.823H993.246C1012.97 0.780181 1032.11 6.92947 1048.6 17.785L1049.85 18.6298C1050.87 19.319 1051.89 20.0304 1052.89 20.8529C1053.89 21.6755 1054.8 22.2091 1055.72 22.9427C1077.82 40.0309 1092.51 64.9578 1096.76 92.5711C1096.89 93.527 1097.02 94.4385 1097.13 95.3945C1097.36 97.084 1097.51 98.7736 1097.64 100.485C1097.64 101.797 1097.82 103.109 1097.89 104.443C1097.96 105.776 1097.89 107.466 1097.89 109" fill="#F0813C"/>
<path d="M990.823 0V217.867H987.177V0H990.823Z" fill="#1D1D1B"/>
<path d="M1097.13 95.3945C1075.91 79.1525 1051.09 68.2631 1024.77 63.6482L1020.95 62.959C1010.99 61.3137 1000.92 60.4515 990.823 60.3802H987.177C977.077 60.4513 966.997 61.3136 957.031 62.959L953.23 63.6482C926.909 68.2631 902.087 79.1525 880.867 95.3945C880.623 97.084 880.467 98.7736 880.333 100.485C899.741 84.3233 925.285 72.5185 954.164 67.1385C955.431 66.894 956.72 66.6716 957.987 66.4716C967.64 64.9039 977.399 64.0863 987.177 64.0261H990.823C1000.62 64.0985 1010.39 64.931 1020.06 66.516C1021.35 66.7087 1022.61 66.931 1023.86 67.183C1052.76 72.5185 1078.3 84.3233 1097.71 100.53C1097.58 98.8181 1097.42 97.1285 1097.2 95.4389" fill="#1D1D1B"/>
<path d="M1036.29 143.792C1042.96 161.332 1049.62 179.229 1051.6 198.192C1050.47 199.014 1049.38 199.793 1048.16 200.415C1046.4 181.141 1039.55 162.844 1032.88 144.97C1023.06 118.782 1013.52 93.3714 1020.06 66.516C1020.35 65.3378 1020.66 64.1595 1021.01 62.9813C1025.19 48.6865 1034.06 34.0806 1049.91 18.5187C1050.94 19.2078 1051.96 19.9192 1052.96 20.7418C1037.51 35.5701 1028.95 49.8426 1024.77 63.6482C1024.39 64.8264 1024.08 66.0047 1023.79 67.183C1017.43 93.3714 1026.73 118.137 1036.29 143.792Z" fill="#1D1D1B"/>
<path d="M945.116 145.081C938.446 162.866 931.577 181.252 929.82 200.548C928.642 199.793 927.597 199.014 926.397 198.192C928.442 179.229 935.156 161.31 941.692 143.792C951.296 118.137 960.566 93.3269 954.164 67.1829C953.897 66.0121 953.586 64.8338 953.23 63.6482C949.117 49.8425 940.469 35.57 925.063 20.6973L928.131 18.4742C944.004 33.8805 952.852 48.5976 957.032 62.9368C957.41 64.1372 957.721 65.3377 957.988 66.4938C964.479 93.3714 954.942 118.782 945.116 145.081Z" fill="#1D1D1B"/>
</g>
</g>
<defs>
<clipPath id="clip0_29_217">
<rect width="935.485" height="924.329" fill="white" transform="translate(0 391)"/>
</clipPath>
<clipPath id="clip1_29_217">
<rect width="179.288" height="188.85" fill="white" transform="translate(580.422 210.306)"/>
</clipPath>
<clipPath id="clip2_29_217">
<rect width="179.476" height="189.253" fill="white" transform="translate(128.616 393.972) rotate(-89.8944)"/>
</clipPath>
<clipPath id="clip3_29_217">
<rect width="179.476" height="189.253" fill="white" transform="translate(327.646 205.7) rotate(-41.8316)"/>
</clipPath>
<clipPath id="clip4_29_217">
<rect width="198" height="198" fill="white" transform="translate(882 1063)"/>
</clipPath>
<clipPath id="clip5_29_217">
<rect width="689.328" height="334.002" fill="white" transform="translate(647 368.213) rotate(-21.5512)"/>
</clipPath>
<clipPath id="clip6_29_217">
<rect width="218" height="218" fill="white" transform="translate(880)"/>
</clipPath>
</defs>
</svg>
