<svg width="77" height="73" viewBox="0 0 77 73" fill="none" xmlns="http://www.w3.org/2000/svg">
<path d="M72.1875 42.9219C72.1562 43.5469 72.1406 44.1875 72.1406 44.8438C72.1406 46.0625 72.2031 47.4688 72.3281 49.0625C72.4844 50.6562 72.7656 52.3125 73.1719 54.0312C73.5781 55.7188 74.0781 57.1875 74.6719 58.4375C75.2656 59.6562 75.9375 60.4688 76.6875 60.875L70.6406 72.1719C69.4219 71.6094 68.3281 70.8906 67.3594 70.0156C66.4219 69.1094 65.5781 68.0938 64.8281 66.9688C64.0781 65.8438 63.4219 64.6406 62.8594 63.3594C62.3281 62.0781 61.8594 60.7656 61.4531 59.4219C59.6719 61.3281 57.6875 63.0781 55.5 64.6719C53.3125 66.2656 50.9375 67.6562 48.375 68.8438C45.8438 70 43.1406 70.9062 40.2656 71.5625C37.4219 72.25 34.4375 72.6406 31.3125 72.7344C30.9062 72.7344 30.5156 72.7344 30.1406 72.7344C27.5156 72.7344 24.9219 72.4375 22.3594 71.8438C19.7969 71.2812 17.3594 70.4375 15.0469 69.3125C12.7656 68.1562 10.7031 66.8125 8.85938 65.2812C7.04688 63.7188 5.5 62.0469 4.21875 60.2656C2.9375 58.4844 1.95312 56.6406 1.26562 54.7344C0.609375 52.7969 0.28125 50.9062 0.28125 49.0625C0.28125 46 0.78125 43.4062 1.78125 41.2812C2.8125 39.125 4.125 37.3281 5.71875 35.8906C7.34375 34.4219 9.15625 33.25 11.1562 32.375C13.1875 31.5 15.2031 30.8281 17.2031 30.3594C19.2344 29.8906 21.1406 29.5625 22.9219 29.375C24.7344 29.1875 26.2344 29.0469 27.4219 28.9531L28.0781 28.9062C29.9844 28.75 32.1719 28.625 34.6406 28.5312C37.1406 28.4062 39.7656 28.3281 42.5156 28.2969C45.2656 28.2344 48.0625 28.2031 50.9062 28.2031C53.7812 28.2031 56.5469 28.2188 59.2031 28.25C59.2031 26.4688 58.5938 24.625 57.375 22.7188C56.1562 20.7812 54.4844 19.0156 52.3594 17.4219C50.2344 15.7969 47.7031 14.4688 44.7656 13.4375C41.8594 12.375 38.7188 11.8438 35.3438 11.8438C33.4688 11.8438 31.5312 12.0312 29.5312 12.4062C27.5625 12.7812 25.5469 13.3906 23.4844 14.2344C21.4531 15.0781 19.3906 16.1719 17.2969 17.5156C15.2031 18.8281 13.125 20.4375 11.0625 22.3438L2.8125 14.8906C5.0625 12.3594 7.53125 10.1875 10.2188 8.375C12.9375 6.5625 15.7188 5.07812 18.5625 3.92188C21.4375 2.76562 24.2969 1.92188 27.1406 1.39062C30.0156 0.828125 32.75 0.546875 35.3438 0.546875C39.9688 0.546875 44.0938 1.03125 47.7188 2C51.3438 2.96875 54.5156 4.25 57.2344 5.84375C59.9844 7.40625 62.2969 9.1875 64.1719 11.1875C66.0781 13.1875 67.625 15.2188 68.8125 17.2812C70 19.3438 70.8594 21.3438 71.3906 23.2812C71.9219 25.2188 72.1875 26.9219 72.1875 28.3906C72.1875 28.4219 72.1562 28.4375 72.0938 28.4375C72.0625 28.4375 72.0469 28.4531 72.0469 28.4844H72.1875V42.9219ZM15.8438 55.4844C18.125 57.5469 20.6406 59.0625 23.3906 60.0312C26.1406 61 28.9844 61.4844 31.9219 61.4844C35.1094 61.4844 38.2656 60.9531 41.3906 59.8906C44.5156 58.8281 47.375 57.3281 49.9688 55.3906C52.5938 53.4219 54.8281 51.0781 56.6719 48.3594C58.5156 45.6094 59.7344 42.5469 60.3281 39.1719C57.6719 39.1406 54.8906 39.125 51.9844 39.125C49.1094 39.125 46.2812 39.1562 43.5 39.2188C40.7188 39.25 38.0781 39.3125 35.5781 39.4062C33.0781 39.5 30.8906 39.625 29.0156 39.7812L28.3125 39.8281C25.1562 40.1094 22.5625 40.4688 20.5312 40.9062C18.5 41.3438 16.8906 41.9219 15.7031 42.6406C14.5156 43.3594 13.6875 44.25 13.2188 45.3125C12.75 46.3438 12.5156 47.5938 12.5156 49.0625C12.5156 50.25 12.8125 51.375 13.4062 52.4375C14.0312 53.4688 14.8438 54.4844 15.8438 55.4844Z" fill="black"/>
</svg>
