<svg width="71" height="76" viewBox="0 0 71 76" fill="none" xmlns="http://www.w3.org/2000/svg">
<path d="M62.7031 35.2344C65.2031 37.4844 67.1094 40.0781 68.4219 43.0156C69.7656 45.9219 70.4375 49.0312 70.4375 52.3438C70.4375 55.4688 69.8281 58.4375 68.6094 61.25C67.4219 64.0312 65.7031 66.5 63.4531 68.6562C61.0156 71 58.1562 72.7812 54.875 74C51.625 75.1875 48.0469 75.7812 44.1406 75.7812C37.9531 75.7812 32.375 74.5156 27.4062 71.9844C22.4375 69.4531 18.2031 65.7188 14.7031 60.7812L23.5625 54.5469C26.0625 58.0469 29 60.6562 32.375 62.375C35.75 64.0938 39.6719 64.9531 44.1406 64.9531C46.7969 64.9531 49.0938 64.5781 51.0312 63.8281C53 63.0781 54.6094 62.1094 55.8594 60.9219C57.1406 59.7344 58.0781 58.3906 58.6719 56.8906C59.2969 55.3594 59.6094 53.8438 59.6094 52.3438C59.6094 50.5938 59.25 48.9531 58.5312 47.4219C57.8438 45.8594 56.8281 44.4844 55.4844 43.2969C53.7969 41.7969 51.7188 40.6562 49.25 39.875C46.7812 39.0938 43.9844 38.7031 40.8594 38.7031C29.7031 38.7031 21.625 43.0469 16.625 51.7344C15.875 53.0469 15.2344 54.3594 14.7031 55.6719C14.2031 56.9531 13.7812 58.1719 13.4375 59.3281C13.125 60.4531 12.875 61.4844 12.6875 62.4219C12.5312 63.3594 12.4062 64.1094 12.3125 64.6719V74H0.6875V5.23438L45.7812 5.28125C46.0312 5.28125 46.2812 5.28125 46.5312 5.28125C47.5312 5.28125 48.75 5.23438 50.1875 5.14062C51.625 5.01562 53.1562 4.79688 54.7812 4.48438C56.4375 4.14062 57.9844 3.6875 59.4219 3.125C60.8906 2.53125 62.0781 1.8125 62.9844 0.96875L70.4375 8.89062C69.2812 9.98438 67.9844 10.9375 66.5469 11.75C65.1094 12.5312 63.625 13.1875 62.0938 13.7188C60.5625 14.25 59.0156 14.6719 57.4531 14.9844C55.9219 15.2969 54.4688 15.5469 53.0938 15.7344C51.7188 15.8906 50.4688 16 49.3438 16.0625C48.25 16.0938 47.3438 16.1094 46.625 16.1094H12.3125V39.3594C13.75 37.7969 15.3906 36.3281 17.2344 34.9531C19.0781 33.5781 21.1719 32.3594 23.5156 31.2969C25.8594 30.2344 28.4688 29.4062 31.3438 28.8125C34.2188 28.1875 37.3906 27.875 40.8594 27.875C45.3281 27.875 49.4062 28.5 53.0938 29.75C56.8125 30.9688 60.0156 32.7969 62.7031 35.2344Z" fill="black"/>
</svg>
